<svg height="740" viewBox="0 0 360 740" width="360" xmlns="http://www.w3.org/2000/svg" xmlns:xlink="http://www.w3.org/1999/xlink"><defs><path id="a" d="m.192389 0h360v740h-360z"/><linearGradient id="b" x1="6.979749%" x2="63.922237%" y1="52.815159%" y2="47.042242%"><stop offset="0" stop-color="#4d66dc"/><stop offset="1" stop-color="#3a55d8"/></linearGradient><linearGradient id="c" x1="86.30826%" x2="13.69174%" y1="11.596582%" y2="81.814443%"><stop offset="0" stop-color="#ffd100"/><stop offset="1" stop-color="#ffce34"/></linearGradient><mask id="d" fill="#fff"><use fill="#fff" fill-rule="evenodd" xlink:href="#a"/></mask></defs><g fill="none" fill-rule="evenodd" transform="translate(.196617)"><use fill="#dadada" xlink:href="#a"/><path d="m95.0265556 672.598294c216.4243384-15.651802 382.8329754-111.209516 479.3741624-238.239833 64.360791-84.686878-129.810332-100.926576-582.51336956-48.719095-75.52342114 201.740487-41.14368544 297.393464 103.13920716 286.958928z" fill="url(#b)" mask="url(#d)"/><path d="m.19238901 445.00419c29.06908489-21.805036 91.85124669-32.707554 188.34648499-32.707554 96.495239 0 153.454054-11.876563 170.876446-35.629689 0-219.983772 0-329.9756583 0-329.9756583s-360.0000001-41.3102232-359.61225085-14.8313693c.26017562 17.6525693.38994891 155.3673266.38931986 413.1442706z" fill="url(#c)" mask="url(#d)"/><g stroke="#979797"><path d="m-.19661734 0h361.00000034l-.610994 64.0782597" mask="url(#d)"/><path d="m359.803383 64.07826v-64.07826" mask="url(#d)"/><path d="m.192389 0v32.03913" mask="url(#d)"/></g></g></svg>