<?xml version="1.0" encoding="UTF-8"?>
<svg width="360px" height="740px" viewBox="0 0 360 740" version="1.1" xmlns="http://www.w3.org/2000/svg" xmlns:xlink="http://www.w3.org/1999/xlink">
    <title>bg-app</title>
    <defs>
        <rect id="path-1" x="0.192389006" y="0" width="360" height="740"></rect>
        <linearGradient x1="6.97974874%" y1="52.8151591%" x2="63.9222365%" y2="47.0422421%" id="linearGradient-3">
            <stop stop-color="#4D66DC" offset="0%"></stop>
            <stop stop-color="#3A55D8" offset="100%"></stop>
        </linearGradient>
        <linearGradient x1="86.3082598%" y1="11.5965817%" x2="13.6917402%" y2="81.8144428%" id="linearGradient-4">
            <stop stop-color="#FFD100" offset="0%"></stop>
            <stop stop-color="#FFCE34" offset="100%"></stop>
        </linearGradient>
    </defs>
    <g id="bg-app" stroke="none" stroke-width="1" fill="none" fill-rule="evenodd">
        <g id="Group" transform="translate(0.196617, 0.000000)">
            <mask id="mask-2" fill="white">
                <use xlink:href="#path-1"></use>
            </mask>
            <use id="Mask" fill="#DADADA" xlink:href="#path-1"></use>
            <path d="M95.0265556,672.598294 C311.450894,656.946492 477.859531,561.388778 574.400718,434.358461 C638.761509,349.671583 444.590386,333.431885 -8.11265156,385.639366 C-83.6360727,587.379853 -49.256337,683.03283 95.0265556,672.598294 Z" id="Path-8" fill="url(#linearGradient-3)" mask="url(#mask-2)"></path>
            <path d="M0.192389006,445.00419 C29.2614739,423.199154 92.0436357,412.296636 188.538874,412.296636 C285.034113,412.296636 341.992928,400.420073 359.41532,376.666947 C359.41532,156.683175 359.41532,46.6912887 359.41532,46.6912887 C359.41532,46.6912887 -0.584680101,5.3810655 -0.196930846,31.8599194 C0.0632447742,49.5124887 0.193018058,187.227246 0.192389006,445.00419 Z" id="Path-5" fill="url(#linearGradient-4)" mask="url(#mask-2)"></path>
            <polyline id="Path-7" stroke="#979797" mask="url(#mask-2)" points="-0.196617336 -7.11411593e-15 360.803383 0 360.192389 64.0782597"></polyline>
            <line x1="359.803383" y1="64.0782597" x2="359.803383" y2="0" id="Path-9" stroke="#979797" mask="url(#mask-2)"></line>
            <line x1="0.192389006" y1="0" x2="0.192389006" y2="32.0391298" id="Path-10" stroke="#979797" mask="url(#mask-2)"></line>
        </g>
    </g>
</svg>