<svg height="18" viewBox="0 0 17 18" width="17" xmlns="http://www.w3.org/2000/svg"><path d="m.40909091 6.43090909 7.36363636 4.25454541c.25314634.1461542.56503549.1461542.81818182 0l7.36363641-4.25454541c.2516273-.14527006.4073371-.41309095.4090973-.70363636.0011587-.29346935-.1549421-.56508467-.4090973-.71181818l-7.36363641-4.24636364c-.25314633-.14615411-.56503548-.14615411-.81818182 0l-7.36363636 4.24636364c-.25415525.14673351-.41025601.41834883-.40909739.71181818.00176022.29054541.15747004.5583663.40909739.70363636zm7.77272727-3.97636364 5.72727272 3.27272728-5.72727272 3.27272727-5.72727273-3.27272727zm6.95454542 5.86636364-6.95454542 3.95181821-6.95454545-3.98454548c-.18861033-.1092641-.41302333-.13875031-.62345754-.08191772-.21043421.0568326-.38949146.19528523-.49745155.38464499-.22204498.39107387-.08683889.88804761.30272727 1.11272727l7.36363636 4.25454544c.25314634.1461541.56503549.1461541.81818182 0l7.36363641-4.25454544c.3895661-.22467966.5247722-.7216534.3027272-1.11272727-.1079601-.18935976-.2870173-.32781239-.4974515-.38464499-.2104342-.05683259-.4348472-.02734638-.6234576.08191772zm0 3.27272731-6.95454542 3.9518181-6.95454545-3.9845454c-.18861033-.1092641-.41302333-.1387503-.62345754-.0819177s-.38949146.1952852-.49745155.384645c-.22204498.3910738-.08683889.8880476.30272727 1.1127272l7.36363636 4.2545455c.25314634.1461541.56503549.1461541.81818182 0l7.36363641-4.2545455c.3895661-.2246796.5247722-.7216534.3027272-1.1127272-.1079601-.1893598-.2870173-.3278124-.4974515-.384645s-.4348472-.0273464-.6234576.0819177z" fill="#ffce34"/></svg>