<svg height="10" viewBox="0 0 14 10" width="14" xmlns="http://www.w3.org/2000/svg"><path d="m12.2583333 1.00833333c-.1564721-.15776054-.3694687-.2464986-.5916666-.2464986-.222198 0-.4351945.08873806-.5916667.2464986l-6.20833333 6.21666667-2.60833334-2.61666667c-.21882517-.21138214-.533799-.28996546-.82627389-.20614837-.2924749.08381709-.51801696.31730077-.59166668.6125-.07364971.29519924.01578206.60726623.23460724.81864837l3.2 3.2c.15647217.15776055.36946872.24649861.59166667.24649861.22219794 0 .4351945-.08873806.59166666-.24649861l6.79999997-6.8c.1710094-.15776298.2682774-.37983425.2682774-.6125 0-.23266574-.097268-.45473701-.2682774-.6125z" fill="#fff"/></svg>