<svg height="15" viewBox="0 0 15 15" width="15" xmlns="http://www.w3.org/2000/svg"><path d="m7.5 0c-1.92271076.00548414-3.76988229.74918547-5.16 2.0775v-1.3275c0-.41421356-.33578644-.75-.75-.75s-.75.33578644-.75.75v3.375c0 .41421356.33578644.75.75.75h3.375c.41421356 0 .75-.33578644.75-.75s-.33578644-.75-.75-.75h-1.8c1.98913243-2.07864814 5.17377207-2.45277356 7.5904902-.89171638 2.4167181 1.56105717 3.3851892 4.61784686 2.3083209 7.28576376-1.0768683 2.66791692-3.8959289 4.19592112-6.71914387 3.64195072-2.82321496-.5539704-4.85582669-3.0339681-4.84466723-5.9109981 0-.41421356-.33578644-.75-.75-.75s-.75.33578644-.75.75c0 4.1421356 3.35786438 7.5 7.5 7.5 4.1421356 0 7.5-3.3578644 7.5-7.5 0-4.14213562-3.3578644-7.5-7.5-7.5zm0 4.5c-.41421356 0-.75.33578644-.75.75v2.25c0 .41421356.33578644.75.75.75h1.5c.41421356 0 .75-.33578644.75-.75s-.33578644-.75-.75-.75h-.75v-1.5c0-.41421356-.33578644-.75-.75-.75z" fill="#fff"/></svg>