<svg height="10" viewBox="0 0 10 10" width="10" xmlns="http://www.w3.org/2000/svg"><path d="m5 0c-2.10204983 0-3.97969402 1.31456923-4.69866189 3.28984103s-.12571212 4.18930224 1.48457741 5.5404429c1.61028954 1.35114067 3.89370933 1.55083347 5.71408448.49971607.16273919-.08513143.26570625-.25263067.26819195-.43627496.0024857-.1836443-.09591012-.35386906-.25628554-.44337398s-.35691187-.08388075-.51190641.01464894c-1.56779978.90516956-3.5480933.64451548-4.82826828-.63551581s-1.54105134-3.26029554-.63605776-4.82819691c.90499357-1.56790137 2.75021925-2.33252231 4.49895155-1.86426657 1.74873229.46825573 2.96496792 2.05264012 2.96537449 3.86297929v.375c-.00000002.48324914-.39175086.87499996-.875.87499996s-.87499998-.39175082-.875-.87499996v-2.125c0-.27614237-.22385763-.5-.5-.5-.2398464-.00533682-.44967916.16043105-.5.395-.367544-.25421005-.80312034-.39185217-1.25-.395-1.03715369-.01240389-1.94839658.68579957-2.20626406 1.6904617s.20446727 2.05542293 1.11938601 2.54405912c.91491875.4886362 2.04531864.28851684 2.73687805-.48452082.48697802.63064323 1.3200726.88345356 2.07539898.62979918.75532637-.25365438 1.2669693-.95805566 1.27460102-1.75479918v-.375c0-2.76142375-2.23857625-5-5-5zm0 6.25c-.69035594 0-1.25-.55964406-1.25-1.25s.55964406-1.25 1.25-1.25 1.25.55964406 1.25 1.25-.55964406 1.25-1.25 1.25z" fill="#3a55d8"/></svg>