<svg height="10" viewBox="0 0 10 10" width="10" xmlns="http://www.w3.org/2000/svg"><path d="m9.04761905 1.14761905.33809524-.33333334c.18672484-.18672484.18672484-.48946563 0-.67619047-.18672485-.18672485-.48946564-.18672485-.67619048 0l-.66666667.67142857-1.34761904 1.34761905-3.00476191 3c-1.01993598-.67291174-2.38368924-.46450555-3.15610165.48230947s-.70270641 2.32463836.16131894 3.18866371 2.2418487.93373136 3.18866371.16131895c.94681502-.77241242 1.15522121-2.13616567.48230948-3.15610166l2.66190476-2.66666666 1.00952381 1.01428571c.12078979.11993917.29639095.16632695.46065621.1216895.16426527-.04463745.29223883-.17351863.3357143-.33809525.04347546-.16457662-.00415214-.33984556-.12494194-.45978473l-1.00952381-1.0095238.67619048-.67142858.33333333.33333334c.11993916.1207898.29520811.16841739.45978472.12494193.16457662-.04347547.2934578-.17144903.33809524-.33571429.04463745-.16426526-.00175032-.33986642-.12168948-.46065621zm-6.66666667 7.42380952c-.78897821 0-1.42857143-.63959321-1.42857143-1.42857143 0-.78897821.63959322-1.42857143 1.42857143-1.42857143s1.42857143.63959322 1.42857143 1.42857143c0 .78897822-.63959322 1.42857143-1.42857143 1.42857143z" fill="#3a55d8"/></svg>