<svg height="12" viewBox="0 0 14 12" width="14" xmlns="http://www.w3.org/2000/svg"><path d="m6.05257202 8.00824013-2.35288377 2.34312077c-.28106785.2810095-.66294598.4389724-1.06122336.4389724s-.78015551-.1579629-1.06122335-.4389724c-.28368481-.2791017-.44334796-.65969484-.44334796-1.05681994s.15966315-.77771825.44334796-1.05681993l2.35288378-2.34312078c.23778811-.23680144.23778811-.62073244 0-.85753389-.23778812-.23680144-.62331883-.23680144-.86110695 0l-2.35288378 2.34915975c-.98484118 1.0675206-.94974603 2.71836169.07958114 3.74341779s2.68704673 1.0600056 3.75901533.0792509l2.35894791-2.34312078c.23778812-.23680145.23778812-.62073245 0-.85753389-.23778812-.23680145-.62331883-.23680145-.86110695 0zm-1.98903577-.13285737c.11444162.1130414.269367.17605821.43055348.17514027.16118647.00091794.31611185-.06209887.43055347-.17514027l2.98355366-2.97117376c.23778811-.23680145.23778811-.62073245 0-.85753389-.23778812-.23680145-.62331883-.23680145-.86110695 0l-2.98355366 2.97117376c-.11480172.11339171-.17937605.26774531-.17937605.42876695 0 .16102163.06457433.31537524.17937605.42876694zm7.38005045 1.70902881h-.6064134v-.6038971c0-.33352317-.2715005-.60389711-.6064133-.60389711-.33491288 0-.60641338.27037394-.60641338.60389711v.6038971h-.60641334c-.33491285 0-.60641335.27037395-.60641335.60389713 0 .3335231.2715005.6038971.60641335.6038971h.60641334v.6038971c0 .3335232.2715005.6038971.60641338.6038971.3349128 0 .6064133-.2703739.6064133-.6038971v-.6038971h.6064134c.3349128 0 .6064133-.270374.6064133-.6038971 0-.33352318-.2715005-.60389713-.6064133-.60389713zm-2.54087196-2.69942006 2.35288376-2.34915975c.9848412-1.0675206.9497461-2.71836165-.0795811-3.74341776-1.0293272-1.0250561-2.68704675-1.06000563-3.75901535-.07925092l-2.35894791 2.34312077c-.15382195.15318368-.21389626.37645375-.15759353.58570655.05630274.2092528.2204288.37269784.43055349.42876695.21012468.05606912.43432505-.00375592.58814699-.15693961l2.35288377-2.34312077c.28106785-.28100946.66294598-.43897239 1.06122336-.43897239s.78015548.15796293 1.06122338.43897239c.2836848.27910168.4433479.65969483.4433479 1.05681994 0 .3971251-.1596631.77771825-.4433479 1.05681993l-2.35288381 2.34312078c-.11480172.1133917-.17937605.2677453-.17937605.42876694s.06457433.31537524.17937605.42876695c.11386417.11432536.26886092.17863175.43055348.17863175s.3166893-.06430639.43055347-.17863175z" fill="#fff" transform="translate(.866667)"/></svg>