<svg height="10" viewBox="0 0 15 10" width="15" xmlns="http://www.w3.org/2000/svg"><path d="m12.8571429 0h-6.55000004c-.56812958.00050015-1.11280755.22659289-1.51428572.62857143l-3.87142857 3.86428571c-.13522332.134119-.21128452.31668748-.21128452.50714286s.0760612.37302386.21128452.50714286l3.87142857 3.86428571c.40147817.40197854.94615614.62807128 1.51428572.62857143h6.55000004c1.1834673 0 2.1428571-.95938982 2.1428571-2.14285714v-5.71428572c0-1.18346732-.9593898-2.14285714-2.1428571-2.14285714zm.7142857 7.85714286c0 .3944891-.3197966.71428571-.7142857.71428571h-6.55000004c-.18911928-.00263106-.37026158-.07661877-.50714286-.20714286l-3.36428571-3.36428571 3.36428571-3.36428571c.13688128-.13052409.31802358-.2045118.50714286-.20714286h6.55000004c.3944891 0 .7142857.31979661.7142857.71428571zm-2.35-4.79285715c-.134119-.13522332-.3166875-.21128451-.5071429-.21128451s-.3730238.07606119-.5071428.21128451l-.92142861.92857143-.92142858-.92857143c-.28008726-.28008726-.73419844-.28008726-1.01428571 0-.28008727.28008727-.28008727.73419845 0 1.01428572l.92857143.92142857-.92857143.92142857c-.13522332.134119-.21128452.31668748-.21128452.50714286s.0760612.37302386.21128452.50714286c.134119.13522332.31668747.21128451.50714286.21128451.19045538 0 .37302385-.07606119.50714285-.21128451l.92142858-.92857143.92142861.92857143c.134119.13522332.3166874.21128451.5071428.21128451s.3730239-.07606119.5071429-.21128451c.1352233-.134119.2112845-.31668748.2112845-.50714286s-.0760612-.37302386-.2112845-.50714286l-.9285715-.92142857.9285715-.92142857c.1352233-.134119.2112845-.31668748.2112845-.50714286s-.0760612-.37302386-.2112845-.50714286z"/></svg>