<svg height="39" viewBox="0 0 29 39" width="29" xmlns="http://www.w3.org/2000/svg"><g fill="#fff" fill-rule="evenodd" transform="translate(0 .990781)"><path d="m18.161959 10.0367862c-.6894891.0091076-1.3827177-.0058805-2.0942699.2479864.3406685.1566948 1.7409619-.0101116 2.0942699-.2479864m-10.24780196 2.7008865c-.74528245-.2738034-1.3976757-.5133276-1.9958462-.7329871-.01630422-.0247413.01024623.0220161.04307905.0641839.02849499.0367892.06372108.068917.09677827.1022639.41231732.4142191.9582096.5559257 1.51404896.6670821.08526061.0170679.18974225-.05314.34193992-.1005428m11.39261266-11.17208345c.0044126-.03564178.0087504-.07128355.0130134-.10685362-.8200724-.17383434-1.6403693-.34759696-2.4751754-.524515v.31073606c.8297204.10807275 1.6460534.21442437 2.462162.32063256m5.9507419 11.10825815c-.0186975-.0301198-.037395-.0602396-.0560925-.0903594-.0710505.0047331-.1504027-.0088926-.2116558.0170678-.5532964.2352931-1.1059946.4723791-1.6516625.7235209-.0753884.0347813-.1294615.1419934-.1625187.2266875-.0960304.2459784.005684.5669696-.3177828.7301186-.0369462.0185738-.0193706.1364714-.0271487.2082569.0261765.0135539.052353.0271079.078679.0405901.7826775-.6186036 1.5653549-1.2372789 2.348182-1.8558824m-7.907473-2.1827541c.0053849.0325581.0106202.0650445.0160051.0975309 1.0359912.3342582 2.157243.4137888 3.1424518 1.0023443-.0087504-.0881363.0011219-.1328141-.0176504-.1569099-.2949718-.3772148-.6287596-.7159192-1.0658324-.9454752-.1601254-.0839769-.332666-.2354366-.4877805-.2228149-.5319065.0431717-1.0585778.1455791-1.5871936.2253248m-12.9009775 8.3489249c.21367505-.5374235.3675929-1.0199859.10425727-1.5172496-.15593717-.2940268-.16408928-.6639267-.48486363-.8785663-.03836728-.0256735-.02221264-.1227023-.0367219-.1855236-.01435968-.0621759-.01503279-.1490214-.05751352-.1799301-.22766079-.1656589-.46646529-.3171903-.70160508-.4736699-.02266137.0114025-.04509837.0227333-.06775975.0341358.07022782.4811999.11330687.9682085.22250028 1.4410896.05437234.2357234.24538602.4396058.34485674.6695921.06536647.1510293.12093544.2530064.32010124.239811.09124381-.0059522.25391208-.0354266.30432055.1075708.05033368.1430691-.18031871.1936991-.23775744.255373.09790012.1644398.17942123.3013415.29018524.4873672m15.1773611-8.7202591c.0180244.0325581.0225865.0564388.0364227.0635385.7969623.4097728 1.2476469 1.0685361 1.5191347 1.8761774.0597572.1780654.2549591.3141783.3985559.4822755.0613278-.1576987.0913186-.2630464.1421758-.3581389.0652169-.1218418.1970717-.2291974.2137499-.3535492.0771085-.5740693-.0442757-1.1183056-.4642964-1.54572-.3015533-.30686355-.6655563-.56603736-1.1623863-.40618721-.2234726.07192897-.4427569.15604931-.6833563.24160391m-10.34517857 1.6490597c-.14613968-.0316975-.29392474-.0720724-.44462661-.0946623-.34710043-.052136-.71185131-.0493391-1.03943155-.1546867-.38494418-.1237064-.74550682-.3255809-1.10337702-.5165548-.46235184-.2466956-.78806233-.58791-.74782531-1.14534169.00508572-.0704947-.02699919-.14349938-.05108157-.26154036-.1812162.31217033-.25436083.92374595-.19004142 1.31939115.04076056.2511419.24643308.3665294.41762742.5260927.58515703.5456706 1.33320671.7416645 2.08207908.9423198.05968243.0159205.13424807-.0048048.1984179-.0216575.1759061-.0462555.34680127-.119045.52532503-.1455074.27492807-.0405183.38285006-.1803603.35293405-.4478529m12.88257917 1.1076202c.283155-.1933405.5637671-.3453021.7903808-.5520531.1842078-.1680973.4166552-.3317482.397135-.6398309-.0078529-.1232761.0429295-.2579547.0963295-.3751351.1298355-.2840585.0293925-.5256624-.1317052-.7557921-.0516051-.0737935-.136417-.1261446-.2057473-.1886074-.24217-.2182252-.4717754-.45122344-.7303992-.64958391-.1750086-.13432002-.7231446-.06698072-.8720515.07243098.0140605.02273328.0233344.05213595.0437521.06855842.6846278.54861081.956639 1.25807581.8646473 2.09598031-.0190714.1734041-.0753135.389191-.1986422.494682-.1691003.1445034-.1558624.2497076-.0536993.4293508m-11.5368825-1.7158253c-.1401565-.1197621-.2432919-.284919-.3663963-.299979-.61798983-.0756581-1.09013916-.444554-1.62077428-.692899-.37088366-.17347581-.66667815-.40719121-.67176387-.85633496-.00082269-.0642556-.1108388-.18910939-.14711195-.18165115-.29332642.05995276-.60624782.10075794-.86300192.23543652-.22923138.12033582-.34201472.38495988-.27597514.65065969.07867909.315254.27993901.5681887.58291334.7148435.23715912.1148855.49241742.2024481.74827405.2735883.47992749.1333877.98431131.2026633 1.44456904.3797247.45689217.1757706.79157743.0342075 1.16926703-.2233886m7.5139279 24.1547979c-.1259464-.3890476-.2314003-.7315529-.3532332-1.0685362-.0136118-.0373629-.1207859-.042096-.1836095-.0648293-.113606-.0412355-.2537625-.0594508-.3299735-.1357543-.0519043-.0519925-.0152572-.1863842-.016379-.2841302-.0012715-.0897857-.0004488-.1796432-.0004488-.2695006-.0257277-.0134105-.0514555-.0266058-.0773328-.0399446-.7907548.5723481-1.7329594.959316-2.3226038 1.8124238.0689564.0423111.1345472.0828295.1857784.1144553.0824934-.1376189.1233287-.3126724.2196582-.3479556.4970545-.1822248 1.4038085-.5942208 1.5327465-.4933195.1290876.1009014-.1412035.3444416-.2951214.439319-.2471062.1524636-.5764066.2059621-.7133471.5775832.239328-.0204384.4636981-.0033705.661742-.064399.3507652-.108001.6462605.2358668.539236.3684657-.1069497.1324555-.7182833.1148139-1.0745081.1718264.2000633.3195568.2082902.2810465.5578587.3493181.4807502.0938017.9415314.0424546 1.4053043-.0560085.099022-.0210122.1886204-.0831164.2824819-.1262164-.1398574-.1429257.116448-.4254065-.2058969-.5116782-.211581-.0565822-.3874871-.298473-.2572029-.435805.1302842-.1374037.242544.0352832.444851.0646859m-5.8422216-.4454864c.0717236-.2169343.2242952-.229054.4291451-.1708223.4005005.1137381.8059371.2119861 1.2094292.3166883.0263261-.0162791.052727-.0324864.0792026-.0488372-.0520538-.1072839-.0741917-.269644-.1608733-.3128874-.5897192-.293955-1.1881141-.5733521-1.7947359-.8333865-.1981935-.0849809-.4298929-.0981763-.6240478-.1394117-.1568346.3323936.0190715.5113196.2302037.6884528.0511563.0428132.0507824.1421368.0741169.2155001-.0659648.0174982-.1439708.0658333-.1954263.047116-.2025314-.0732916-.2721609.0291875-.2957945.1876034-.0614026.4116374-.1162237.8240637-.1682028 1.2368485-.0050857.0398729.0172017.1114433.0457715.1222004.2701415.1014751.2389541.3155409.1920608.6008185.2529398-.0158487.5030376.0322712.6804395-.0551479.4699804-.2311337.9089978-.5201405 1.3590092-.7881351.0812968-.0483351.1563112-.106495.2341676-.1600653-.0239328-.0249564-.0476413-.0499845-.0716489-.0750126-.2457599.0805346-.4868081.1850934-.7397479.2302731-.1135313.020295-.2565298.015777-.376493-.1224155-.1197388-.1381209.0996203-.1698184.1753826-.2108387.2168163-.1174673.4473939-.2119144.6826084-.3200589-.3189046-.17993-.747227-.0509885-.9645667-.408482m4.0289378-1.5843738c.025653.0169962.0513807.0340641.0770337.0510603.0590093-.0202233.123254-.0316975.1759809-.0618173.756501-.4313588 1.377258-1.0428627 2.1425094-1.4672651.3992291-.2213089.7431136-.5321884 1.1259636-.7833303 1.0573812-.6939748 2.1100506-1.3958381 3.1874754-2.0602668 1.0181912-.6279263 2.0683178-1.2080196 3.0976527-1.8195234.187349-.1112999.4325854-.2418191.4973535-.416012.3200265-.8607812.2122541-1.7526145.1151019-2.6380652-.0180244-.1645833-.1220573-.1320252-.2289323-.0777378-.4658669.2367274-.9437751.4538769-1.3955067.7131941-1.0145265.5825315-2.0189564 1.1814137-3.0211425 1.7837383-.2506961.150599-.5195662.3054292-.7015303.5197818-.1904154.2242492-.3065642.4917418-.680963.4214623-.0183984-.003514-.0465942.0301198-.067311.0494108-.4607813.4305699-.9569382.8322391-1.3731446 1.2994547-.6123806.687664-1.1694166 1.4207228-1.7445518 2.1384349-.0805488.1006145-.1335749.2224563-.1931078.3374853-.1993902.3849599-.3978081.7704218-.59301 1.1573896-.1426993.2829111-.2801634.5683322-.4198711.8526058m-2.5969335-32.34910764c-.1085951.31468032-.2166667.62943234-.3256357.94389752-.3278046.94619236-.668174 1.88844046-.9772063 2.84015478-.1078472.33167649-.1281901.68873969-.209786 1.02959555-.0379933.15913301-.1450926.30241725-.1892935.46104826-.1486077.53304894-.2994592 1.06652817-.4178518 1.60617479-.0845127.38438617-.118243.77902741-.1792716 1.2003462h.7478253c.0401622-.1451488.0456967-.30636151.127517-.41436255.0628984-.08311633.2192095-.12356294.3393222-.13661486.0793522-.00867737.2433667.07300469.2401508.10032766-.0128639.11022417-.066264.22037662-.1240019.32034571-.038816.06719586-.1098665.11732384-.1666321.1751969.5713957-.04474943 1.1484006.13159489 1.6836727-.13532401.046669-.02323528.1136808-.01262163.1711943-.01125907.1566851.00365741.3168853.0347095.4690082.01262164.8466229-.12255895 1.6920492-.25271956 2.5360544-.39098384.3121735-.05127539.6203831-.1275072.9274709-.2031653.0450984-.01111564.0738178-.0829012.1101657-.12657492-.0347026-.02416756-.0860833-.07644695-.10149-.06805643-.1937062.10506077-.2918306-.07035128-.4339317-.1212681-.2587734-.09286942-.1640145-.23730109-.0919917-.39241811.0593833-.12815263.1373893-.25730925.1561616-.39241812.0663387-.47467388.0931135-.9547263.16738-1.42803762.1320792-.84105988.2814348-1.67982491.4361753-2.51737081.0856346-.46298453.1105397-.96096541.6573294-1.23964538-.1428489-.03736291-.2427683-.0730764-.3462029-.08885344-.8468473-.12944348-1.6930215-.26426549-2.542262-.37850563-.4767863-.06411217-.9587332-.12607293-1.4385111-.12729206-.4873317-.00129085-.9613508.04410401-1.2253595-.51755876m3.379611 10.81050234c-.0347026.0290441-.0694052.0581599-.1042573.087204-.068732-.047116-.134622-.0986783-.2068692-.1404874-.2391784-.138838-.4285467-.4168726-.7830514-.2350063-.0658152.0337055-.2074675.0058088-.2715625-.0440323-.4720746-.3664577-1.0315038-.4979808-1.6123978-.5293198-.3324416-.0180002-.7359337-.0436737-.9899206.1112282-.3583189.2187272-.745806.2020178-1.1079392.3228557-.0254286.0085339-.0468933.0284704-.1138304.0704229.1068749.0489089.1818145.0988217.2646818.1181127.1777759.0414506.3622081.0573711.5390864.1011883.2887643.0714269.3486711.2295559.1916868.517487-.1100909-.049124-.2172649-.114025-.3343113-.1455791-.1931078-.0522077-.3913013-.106997-.5897192-.1163198-.2290818-.0106854-.4604821.0333469-.6913589.0399446-.0944598.0026534-.1913876-.0485503-.2843516-.0418092-.0728455.0051634-.2044011.0661919-.2023818.095236.029916.4075497-.2521171.2885048-.4826947.2847039-.144943-.0024383-.2909331.0357852-.48149808.0619608.24546078.1800017.42361058.3108077.62980668.4621239-.3131458.1571968-.4037165.1474437-.69607063.0136257-.06544126-.029833-.17119433-.0355701-.23386836-.0053786-.41964675.2025199-.83899433.4076215-1.24465535.6342372-.15399263.0860566-.34620295.1736192-.29586928.4261236.01181683.0583751-.1279657.1564079-.21247841.2178666-.11801864.0859132-.29168104.127077-.36849038.2351497-.39317108.5529854-.77789089 1.1130705-1.13261991 1.6892194-.12101024.1965677-.2560062.2650544-.44133585.1765595-.20484984-.0978177-.07359337-.2343608-.00186975-.3675334.09872281-.182942.24187089-.3843145.22975491-.5696947-.01076976-.1670216.10006903-.4243308-.17044643-.5379255-.01286388-.0053786.02153952-.0871323.00904959-.1259295-.02520423-.0784549-.04666897-.1759141-.10612702-.2233169-.40782993-.3236445-.836975-.6002448-1.41225976-.4600443-.05489587.0134105-.11831779-.0068128-.17351282.0059523-.31486594.0730764-.66278907.0790286-.8684616.3288079.26146588.1962091.49989643.3693263.73122193.5509057.15062708.1183996.29467264.2452613.43310895.3767128.04180761.0396578.04779081.1117302.08219422.1614996.18301115.2647675.37402484.5244433.55262338.7917924.06499252.097244.11136232.2083287.15092624.3181226.0389656.1080011.01914624.2712935.09296398.3256525.3616097.2661301.39025427.3427922.22519272.7396566-.03485214.0839051-.03582441.2190857.01278909.2890784.12362789.1784958.01996894.2101933-.12287998.27617-.10852031.0503431-.2290818.1392683-.27515245.2402414-.18443216.4018843-.35143826.8118006-.50602921 1.2252309-.12430099.3319633-.22122884.6730343-.34104244 1.0429343.10440685-.0141993.1415027-.0082471.15840524-.0232353.14382119-.1270769.30581635-.1244235.3907778.0273947.03881602.0694907-.0306639.2558032-.11061442.3150389-.45113334.3339713-.557036.8028364-.43759635 1.271056.0614026.2406717.04771603.4136454-.00321597.6383249-.05938327.2620423.02079162.5479654-.1527212.7993941-.04390174.0638253-.02191347.1693881-.0336555.2910865.4019963-.1371169.75620178-.2579547 1.11055685-.3788642.02475549.0315541.04951099.0631799.07426648.0948774-.06484294.0837617-.11577493.1841611-.19789437.2471259-.11929006.0915068-.31703485.1255709-.38270048.2375879-.19333217.3285928-.43310894.3061464-.73376478.178424-.0486883-.0207253-.15803129.0446777-.21330111.0959531-.05908411.0550046-.10896904.1370452-.12243125.213779-.01204119.0685584.01914625.1515313.05280175.2180818.03694627.0725027.0987976.1333877.14965481.1993644-.08727994.0419526-.17096996.0935866-.26236335.1233478-.10388333.0336338-.21457254.0475463-.35742146.0773793.7845472.1650135 1.52078006.2758114 2.22784481.4799807.82867331.239309 1.63423651.5541328 2.44525937.8477292.33229202.1203358.68851683.2228149.97234492.4161554 1.27135533.8657295 2.57935783 1.693594 3.55716243 2.8949442.4628006.5685473.9045852 1.1438357 1.2257335 1.8031727.2145725.4408249.198717.9641208.5473133 1.3546744.0355252.0398728.0422563.1335311.0198193.1852368-.0803992.1855237-.008526.3215648.0938615.4781161.0519791.0797458.0221378.3129592.0008975.3164015-.2185364.0355701-.4429065.0438171-.6657807.0441757-.0312622.0001434-.0993211-.0944471-.088327-.1247103.0694799-.1926234-.0802497-.2497793-.1922851-.3506807-.0891497-.0803912-.1344724-.206751-.1940053-.3153257-.0340294-.0621042-.046295-.1371886-.0878783-.1930537-.245386-.3297402-.531383-.6366037-.7374295-.9869975-.3204751-.5448818-.5937578-1.1157956-.8751926-1.6809724-.1340237-.2689986-.2304281-.5552085-.3625072-.8251394-.2207801-.4512234-.6191117-.7382939-1.0258198-1.0290218-.65598318-.4691519-1.26387638-.9925912-2.02060169-1.3310805-1.51696577-.6786281-3.04163491-1.3150166-4.73862024-1.446253-.50595441-.0390123-1.01026345-.0948774-1.59055914-.1502405.13843631.2371577.20492463.4908813.37462316.6158785.5779772.4263387.92612469 1.0278744 1.36319751 1.5584851.34433321.4181634.59981588.9113394 1.26933605.8945584.06252445-.0015777.17186744.0447494.18016913.084192.01667817.0789569-.00254286.1783523-.04277988.2509984-.035974.0645425-.12041192.1044154-.22668852.1900417.36863996.2618272.70856055.5123237 1.05842822.7493379.35076514.2378031.70713954.4685065 1.06897361.6904608.33259117.2039542.67011848.4015975 1.01534917.5848263.4948107.262903.98423653.5425152 1.50245651.7558639.59480495.2449744 1.20464271.4482832 1.69676091.8745502.2321482.2010856.45233.4359484.7239673.569121.5983201.2935248 1.2247612.5346267 1.8420032.7925096.5781268.2415322 1.1382291.3351188 1.6866643-.1019053.2036532-.1622167.3321424-.2586001.3143424-.5710573-.03029-.5379972.2092624-1.0498906.4976527-1.5108671.178449-.2853494.4438039-.5194233.6571051-.7860554.4695316-.5865475.9107179-1.1948242 1.4009664-1.7644472.4218905-.4899489.8913474-.9428218 1.3481647-1.4043004.3438845-.3473101.6824589-.702939 1.0578299-1.017189.3964619-.3318917.8187263-.6402612 1.2573697-.9191563.3653492-.2323528.6101369-.6616318 1.1248417-.6609147.0144345 0 .0393396-.0206536.0414337-.0342792.0361984-.2279066.2670003-.2054601.411345-.2887916.3103038-.1793563.6322-.3404256.9475895-.5123237.2492003-.1358977.4937636-.2795405.7434127-.4148645.3179323-.1722566.6404268-.3369833.956639-.5120368.0466689-.025817.0697043-.0910049.1036589-.1379057-.0020193-.0306218-.0041134-.0611719-.0059832-.0918654-.5331779.5238695-.7796858-.1614996-1.2017258-.114025.1162984-.4425461.2189103-.4668571.8211195-.2469825 0-.0854112-.0079278-.1670932.0015706-.2467673.0261017-.2185121-.0293925-.2827677-.2761995-.2106235-.1161489.0339923-.2880912-.0494109-.4135888-.1161047-.1996145-.1062082-.3761937-.251357-.5722931-.364378-.2009608-.1158896-.5483604-.1717547-.6253193-.3204175-.0768842-.1486627.2139742-.3902667.8849902-.1584158 0-.3017001.0070302-.5908503-.0047118-.8794268-.0031412-.0770924-.0535497-.1582007-.0993211-.2269026-.1871994-.2799708-.3945173-.5485391-.5657865-.8369005-.0711253-.1196186-.0935623-.2799708-.0850362-.418737.0020941-.0337773.0971522-.0350681.2136003-.0583034.0431538-.0086774.1979691.0864869.3055172-.0245978.107548-.1111565-.3313946-1.2231512-.7377287-1.7099448-.1700725-.2038107-.2805373-.3541946-.2352894-.6404045.0596077-.3770714.142101-.543304.5182948-.6761898.1694742-.0598093.3597399-.1176824.4842653-.2327114.3663215-.3387044.7238177-.690174 1.0489299-1.0652373.4254804-.4910247.5919629-1.0648071.4777586-1.7389888-.2076171.084192-.3997526.1423519-.5710217.2355799-.3511391.1912608-.6793177.4239722-1.0390577.5973046-.3695374.1779937-.5802956.4787615-.7684673.7986052-.0996203.1693881-.1926591.3586409-.0098723.5658222.0663388.0750127.0258026.2367991.0337303.3589278-.0272983.0248847-.0545967.0498411-.0819698.0747975-.2994592-.131308-.6386319-.2170778-.8820734-.4124263-.128564-.102981-.0903463-.3971512-.1305834-.6221175-.0521286.0090359-.0867564.0928694-.2017086.0350681-.1148027-.0578014-.0893741-.1997231-.1277414-.2853494-.3843458.0513471-.3812046.0498411-.5654872-.3061464-.0308135-.0595942-.0945346-.1293-.1562364-.1441448-.3025256-.0730764-.341192-.1623601-.1989414-.4424743.0305143-.0600245.0041135-.2164324-.0183235-.2206635-.2091877-.0395861-.1913129-.1688144-.1759809-.3188397.0077033-.0728613-.0109942-.1697467-.0582615-.2223129-.1567598-.1745515-.3390979-.3279474-.498251-.5007778-.1696985-.1844479-.3577206-.2901541-.6288344-.281907-.1041077.0031554-.2651306-.081969-.3089575-.1691013-.1857036-.3704019-.5840352-.3131743-.8983776-.4419723.0636463.1269334.1563111.2177232.2583247.2973255.1872741.1465114.403866.2734449.3848694.5482523-.0032908.0459686-.045248.0953077-.0824934.1299455-.01249.0116176-.0919917-.0106854-.0973766-.0291158-.0625245-.2170061-.2543608-.1692447-.4138131-.1997231-.3684156-.0704947-.4906973-.3690394-.6435681-.6450659-.0786043-.142352-.1709699-.3453739-.3005062-.3824499-.5033368-.1440014-1.0239501-.232568-1.5380566-.3417882-.0182488.0334187-.0364975.0668373-.0548959.100256.1532448.1101524.3306467.2003684.4530779.336051.1240019.1374754.1937809.3199871.2871937.4827776m-17.09280805 12.7646326c.57356459-.300983 1.16881828-.6052648 1.75591986-.9238894.59233687-.3214931 1.17629727-.657329 1.79959721-1.0068622-.06259924-.5742127-.12519847-1.1588239-.19049015-1.7430766-.013537-.1197621-.03051433-.2399545-.05788747-.3574217-.09543205-.4118526-.20178345-.8215537-.2904844-1.2346971-.01742607-.0806781-.00538488-.2183687.04711771-.2520025.16042457-.1025508.15960188-.2213806.08742952-.3549835-.30088021-.5570013-.31823149-1.1470628-.27791968-1.7575627.01712691-.2604646-.08346565-.5286027-.13581866-.7923661-.03776895-.190472-.10014382-.3777885-.12145897-.5695513-.01660338-.1495951-.0628984-.2241775-.22481877-.2714369-.34306178-.1001125-.73810261-.6747555-.72486478-1.0097308.013537-.3335411.16962375-.5395749.52427797-.6518071.61036127-.1931971 1.23822341-.2611101 1.88149228-.2436836.69592104.018789 1.39236561.0111156 2.08858581.0126216.05287654.0001435.10590266-.0177133.24246922-.0422394-.14531699-.1034114-.22422045-.1813643-.32010125-.224536-1.18714182-.5353438-1.69691053-1.5275048-1.94296966-2.6818107-.0382177-.180432.04973536-.4001632.12340351-.58561516.2740306-.68823769.81730523-1.1148633 1.52683806-1.34850698.4154585-.13668657.83749853-.27538113 1.26851335-.342075.69277986-.10706876 1.35766305.08161035 2.01132774.28771591.11929006.03764977.23977677.07257441.35719708.11510071.4896502.17691804.48972499.17641604.67221262-.29151674.5625704-1.44417325 1.127609-2.88755763 1.6894315-4.33216116.332292-.85447036.6637614-1.70929929.9870038-2.56692506.0651421-.17290206.1017144-.35756519.1337245-.53964662.1038833-.59099373.6741572-.91815225 1.2762915-.76561692.35084.08892516.7260615.08720402 1.0821367.16214498.9886491.20825699 1.9728857.43623527 2.9594407.65374334.1314808.0290441.2683465.03585692.399603.06540302.5515763.12420836 1.1039753.24533303 1.6512138.38474473.1774767.045108.3132206.51354278.2334197.73062057-.4307905 1.17173237-.6042285 2.38484363-.6568059 3.62075989-.0155563.36552542-.112559.72760859-.1358187 1.09327744-.0237084.37599564-.0031411.7546447-.0020941 1.13221805.0002244.11761069 0 .23522138 0 .36997168.3731274-.01728303.7547808-.0492674 1.136883-.0497694.7091588-.00100399 1.4272925-.03384893 2.1093026.1922648.2024566.06712415.3689391.24067163.5443965.37434622.450535.34315071.8923944.71204668.9557415 1.2972316.0387412.3582823.0036647.7340628-.0656656 1.0899069-.0600564.3086563-.2148717.6004599-.3381256.9271882.3762685-.0222313.7573984-.0431 1.1382291-.0678413.4239846-.0273947.8478944-.054144 1.2710562-.0894272.2983374-.024813.7962893.4540203.7621102.7731469-.0273731.2560184-.0576631.5289613-.1704464.7561507-.2912323.5872646-.4955586 1.2203543-.9581348 1.7240006-.1361178.1481608-.2189104.341573-.3239903.5154074-.2408239.3986572-.4790301.798677-.7209009 1.1968322-.175607.2892936-.2979634.5587225-.1742608.928479.137838.4122112.0475665.8838013.2877172 1.2813829.1340237.222026.2681222.4486417.4371476.6456396.2030549.2364405.1882465.3621549-.1143539.4491438-.0981993.0283987-.2061213.0256018-.3645265.0431.0990967.1474437.1781498.2773174.2695432.3985855.1142791.1518182.3086583.2595324.2552583.4971203-.0077034.0342075.0750144.1019771.1291623.1318818.567731.3136763 1.1358359.6265638 1.7098492.9291961.1059027.0560086.2370096.0803195.3595904.0930129.3194281.0327732.6411747.0448211.9602289.0802478.0637211.0070996.160649.0754429.1682776.125786.0098722.0646859-.0361236.1603522-.0912439.2066793-.1553388.1306626-.3491945.2234603-.4892014.3659557-.4401392.4478529-.6250949 1.0145357-.7099816 1.6050991-.0536992.3743462-.0418076.7583021-.0450984 1.1380269-.0008974.1162481.0121908.2542973.0759867.345589.2423196.3463061.0573639.7224452-.2352146.9930215-.6836555.6324443-1.5435162.9498497-2.3849038 1.310642-.5577839.239094-1.1449603.4393907-1.5567541.913204-.0385168.0443192-.1183926.0542157-.1771775.0837618-.3266828.1640095-.6547118.3260828-.9787021.495184-.2526406.1318101-.5105166.2582416-.7476757.4127849-.7709354.5021403-1.5352893 1.0133165-2.2976239 1.5273613-.1996145.1346786-.3819526.2927359-.5819411.4474943.3432114.2061773.3435106.2104084.1383616.488945-.3521114.477901-.3396963.9986868-.2231734 1.5440706.0925152.4332233.1424749.8746936.2135254 1.3122197.0543724.3354057.3815039.4152232.6078932.5885555.073743.0563671.1533944.1057779.2303533.1584159-.0073294.0273229-.0145841.0545742-.0219135.0818972-.548136.1014033-1.0958232.2056035-1.6445575.3034929-.6726614.1199056-1.3538488.1781372-2.0175353-.0022948-.3815787-.1037699-.7300253-.3156126-1.1013577-.4600443-.2893626-.1124473-.5882234-.2048864-.8892532-.2847039-.0595329-.0157771-.1564607.0554348-.2207053.104989-.2253423.1732607-.4361006.3643063-.6680992.5283876-.1017144.0720007-.2484524.0823992-.3621332.142854-.562047.2992618-1.1440628.5719895-1.6714072.9203753-.4275745.2823374-.8271027.3026324-1.26417551.1009731-.08526061-.0392992-.26258772-.0760884-.20342883-.2222412.05893453-.1460093.21068346-.1366148.30731215-.1269335.21838679.0220162.29377519-.0378649.30626509-.2496358.0124151-.2095478.0961052-.4146494.1167472-.6245558.0518295-.5303238.0818203-1.0627274.1297607-1.5935532.0115924-.1275072.064469-.2509984.0898228-.3779319.0457715-.229556.0502589-.435303-.1029859-.6584764-.11039-.1603522-.0958808-.401239-.1294615-.6072728-.0127891-.0788135.0306639-.1931971-.0119664-.23558-.1824876-.1817945-.3612357-.3934938-.58927046-.502212-.73937404-.3527603-1.50806576-.6485082-2.24773896-1.0006948-.31568863-.1502405-.57850072-.3995895-.88072715-.5797347-.52711999-.3141066-1.06972151-.6041174-1.59901041-.9150686-.28592221-.1680255-.54888388-.3729836-.83824643-.53477-.29684155-.166161-.60026462-.3412862-.92507763-.4355182-.28861465-.08369-.47342077-.2534367-.64035207-.4574625-.24770451-.3027758-.33184327-.6517354-.45203082-.999906-.18899435-.546818-.41800136-1.0872535-.69719247-1.5965652-.17867333-.3257242-.4663905-.6006034-.72920259-.8774905-.10321022-.1085747-.26819698-.1666629-.41127027-.2361537-.20806581-.1012599-.44342997-.175914-.35944079-.5227938"/><path d="m17.0032925 20.3261171c.5261659-.117728.5261659-.117728.4715687-.403095-.1685392.1442129-.320091.2736539-.4715687.403095m-2.547895 6.8247867c-.0370163-.0052224-.0740326-.0103702-.1109748-.0155926-.1411664.0878856-.272541.2153123-.4260215.2546295-.2376017.0605799-.2698705.2282937-.2754341.411227-.011498.3637032.0006677.7280778-.0040799 1.0920047-.0023738.1862906-.0203256.3722828-.0318978.566407.5902582-.0948239.661472-.1721901.7104315-.7012942.0230702-.248288.068469-.4944125.0894622-.7429989.0243314-.2873814.0330106-.5761804.0485144-.8643825m1.1484704 1.9222177c.0257408-.038795.0443602-.0540892.0453987-.070577.0452505-.6819714.0894623-1.3640174.1315971-2.0462125.0022997-.0361092-.000445-.087811-.0226993-.1080292-.2690546-.2467959-.5423374-.4891154-.8355007-.7514293.0298949.2917832.082786.5289549.0728457.7634408-.0271502.6346713-.0735133 1.2686712-.1283331 1.9016266-.0174325.2008387.0554874.2965579.2400497.3087932.1700229.0113401.3413068.0023874.4966419.0023874m-.9780024-7.2811502c.1003669-.1509275.2191307-.3575855.3651931-.5422348.1979891-.2501531.4191968-.4801627.7681443-.5053049.2179438-.0157418.4407093-.023277.3972393-.3474391-.0045992-.0340948.0361261-.0850505.0690625-.1119086.3822547-.3117775.7714083-.6152738 1.1470609-.9348849.0649826-.0552829.1304844-.2186696.1002185-.2580614-.0890914-.116385-.238937-.286337-.3420486-.2716396-.2626749.0374521-.5129616.1639089-.8052348.2677601.1583023.14287.4046574.243737.1646076.4383089-.1629014.1321268-.2954629.2667902-.3593327.4698671-.0152072.0484938-.066763.1025084-.114313.120936-.4173423.1615215-.8312723.3375911-1.2601127.4596462-.1419825.0402871-.4252797-.0156673-.4706785-.1110134-.1675749-.3519901-.5068047-.3509456-.7822387-.4858328-.1092687-.0534923-.2801817-.1557769-.2789206-.233143.0076406-.4345787-.2934601-.3523631-.5541321-.4004838-.3042163-.0561782-.2855969.249034-.5338807.349901 1.2236898.3097632 1.7921389 1.263225 2.4893662 2.095527m-3.547855-1.1773537c.2574081-.0291709.518451-.0537908.7777137-.0912429.0800413-.0115639.196728-.0390188.221727-.0937048.0310818-.0680405.0140944-.200988-.036052-.2530628-.0606059-.0625943-.183598-.1053434-.2689061-.0912429-.0959903.0157418-.1741029.1339174-.2708349.1539863-.1123842.0231278-.2579273.0222326-.3478347-.0344678-.054078-.033871-.045473-.1958402-.0367938-.2977517.0330105-.3880992.1430952-.7422528.3829224-1.0655942.2702414-.3644492.4255022-.4355485.8454409-.271938.2589659.100867.5118489.2374701.7805325.2892465.7792715.1503307 1.559804.1329475 2.331064-.078709.5433017-.149137 1.0689483-.3293099 1.5359919-.6648867.2681643-.1929305.6653294-.1348872.8975902.1088498.2801816.2936484.5766089.5840886.6207466 1.0236658.0057861.0585656-.0128333.1201899-.0237379.1797999-.0484402.2675363-.1630498.5435031-.1290008.7996993.0337524.2546295-.0514816.4252529-.2213561.5094828-.3510987.1738315-.6503449.4979935-1.1038875.4227163-.104076-.0172339-.2209111.0516272-.3331469.0740836-.1689844.0337218-.3559205.1221296-.5055436.0800519-.4025803-.1129531-.5384799.0887809-.6980433.4110032-.2669774.5392506-.3288444 1.1187882-.4375195 1.6909399-.1398312.7364335.0032639 1.4594381.2828521 2.1218627.2442039.5785678.69834 1.0742485 1.3255404 1.2362176.3297346.0851998.7303862-.0439428 1.0846747-.1339173.3686796-.0936303.7213361-.2536596 1.0779242-.3924264.0617186-.0240976.1211376-.0780376.1597859-.1335443.1252917-.1798745.2284033-.3764607.3637095-.5478302.0872368-.1103419.2208368-.1821873.3246902-.2808907.3253579-.3090171.7505635-.3650461 1.1495831-.1437653.1661654.0922127.2261037.1889018.1170576.3940676-.1567444.294469-.3482798.4765817-.6788304.5929667-.5114038.1802476-.9749609.4975459-1.4860681.6791364-.5448595.1936019-1.116795.3236398-1.6865793.4273418-.2507318.0455841-.5254241-.0423761-.828231-.0737851 0 .7267348-.0160231 1.4377278.0099403 2.1472287.0075665.2076279-.0456213.2656712-.2226172.258882-.1531096-.00567-.3056258-.0222325-.458587-.0337218-.6648844-.050135-1.2830347.0760979-1.8650589.425626-.1288524.0772169-.3602229.0304391-.5271302-.0183531-.1698745-.0496874-.1551866-.2006149-.1401279-.3786989.0489595-.5849092.0507398-1.1739964.0664662-1.7615168.0041541-.1510021-.0708429-.2030769-.229887-.2217284-.9022635-.1060148-1.8039337-.2192663-2.7021915-.3546012-.27966237-.0420031-.55064559-.152718-.82059027-.2470197-.25852081-.090273-.38106783-.2865608-.37520753-.562826.00385741-.1756966.09050083-.2896942.26668072-.2563454.62890657.1194438 1.25640368.2484372 1.88085938.3898898.0905009.0203673.1875296.1125801.2366374.1977799.1666106.2885005.3824031.3778036.7006396.2767874.1354546-.0428983.2778079-.0775154.4187518-.0863189.4762421-.0296185.8574583-.3002882 1.2682727-.4925473.2548118-.1192946.313118-.374521.3463511-.6280314.1211376-.9207844.193835-1.8418673.0729941-2.7707091-.0459922-.3528853-.0416155-.7120375-.0732908-1.0670864-.0378323-.4243576-.3359658-.6835381-.7564237-.750161-.5090301-.0804996-1.009381-.2153869-1.5173725-.3034963-.1600826-.0276787-.3328502.0255898-.5002025.0304392-.2044429.0058192-.298727-.0963161-.2660873-.3398293"/><path d="m15.9249283 16.2036784c-.1125277.0309511-.4195883.1433171-.6310271.1482514-.984904.0231012-1.8473358.3618439-2.5999937.9583631-.3328402.2639069-.6270492.5804455-.9090186.8984047-.3520411.3969069-.7058416.7989724-.9991326 1.2369979-.3402605.5082263-.3606853 1.1168568-.3761377 1.7020123-.0203484.7589752-.0056609 1.5201931.0282275 2.2790188.0267741.6014534.0756559 1.2052992.1693652 1.7997251.0782569.4955916-.1666878.8342596-.61763998.7644327-.25879071-.040072-.30499514-.1878748-.18007489-.3620682.17127769-.2388619.13188153-.4766771.06961264-.720847-.16653484-.6534872-.36160322-1.300844-.50886072-1.958443-.15054689-.672028-.29030764-1.3498873-.36634606-2.0325313-.0265446-.2390114.0852946-.5521858.24540367-.7411073.63974777-.7547885 1.31414884-1.4822144 1.99451674-2.2027624.3666521-.3883094.7503631-.7666008 1.163296-1.1064649.8624317-.7101562 1.900731-.8908539 2.9931139-.8641641.1699772.0041118.4020703.0129336.5091667.0478471.1070199.0349135.1279037.122384.015529.1533351"/><path d="m13 16.4552273c.8257916-1.2732608 3.9500204-1.2662483 5.4080964-.4652723.0203538-.0514522.0372664-.1042092.0613541-.1521552.0430504-.0852102.0904937-.1675665.1359602-.2510644-.1088706-.0210375-.2170823-.0544693-.3267584-.0601771-.1913839-.009948-.4451469.1492198-.595384-.0027724-.1500175-.1520738.0162537-.6268863 1.1612625-.8335924-.0557166-.084721-.1722016-.1728666-.1769606-.2688402-.0049054-.0960552.1398406-.1467736.2193521-.1634895.4714311-.0989906.9435944-.2046676 1.4201506-.2554676.1664908-.0177759.3821821.0652327.5122119.1864025.3590461.3343991.6897581.7076932 1.0196647 1.0789488.0704328.0794208.2206699.1883594.1357406.3311375-.0850758.1427781-.5821322-.022016-.7155299-.3078983-.4031948-.863681-1.5586001-1.1912307-2.2446975-.5473024.271115 0 .4728955-.0194067.6700634.0063602.1480406.0192437.3085278.0652327.4305771.1546831.2100538.1537045.3996805.3438578.5877698.5310757.207418.2060538.4018769.4283342.6057806.6388727.0826597.0853733.1670033.178493.2661363.2327992.2126895.1162773.3021582.2740589.1946786.5536625-.6524185.1542754-.7925519-.6308817-1.2666188-.8895294-.0717507.1638157-.1393281.3173571-.2059537.4693493.1756427.1730298.5832304.0737945.4260379.5432253-.5535784.0780346-1.0657902-.1523999-1.5999666-.2610939-.6604722-.1344609-1.2005057-.5976946-1.8629547-.7050839-1.3544768-.2193449-2.6942374-.3273051-3.9840654.3454071-.0861008.0448475-.1836963.061808-.2759472.0918151"/><path d="m20.9749531 22.1470668c.1011146.8513212-.1040035 1.6575367-.6138658 2.4111511-.1061921.1569333-.2683255.3305972-.4641638.4044796-.3374861.1273536-.6721708-.0892746-.6164046-.3789821.0437725-.2278043.1097815-.4592223.2203509-.6725713.5124886-.9904531.5837503-2.021729.5091619-3.0662556-.0278393-.3886859-.0832553-.7766357-.1473383-1.1629124-.0798411-.4835821-.443153-.8739411-.7510489-1.282503-.0663591-.0879362-.1184484-.1979568-.1109196-.2948606.0030641-.0411573.2022291-.1218659.2671-.1013207.1214249.0386143.2198256.1314358.3094717.2134828.1280784.1173821.2361089.2474795.3591973.3684085.4678407.4594899.6372403 1.0132737.7767871 1.5610344.1677363.6585845.2964275 1.9994439.2616721 2.0008493"/><path d="m9.85580857 17.1553936c-.12884209.2704869-.35089069.4674719-.71900025.5567914-.35942525.0873202-.71810186.1767573-1.07363415.2734857-.22242292.0605068-.54246937-.0854974-.5849925-.1608221-.04267286-.0753247.27407954-.1366547.41198025-.1848131.16133336-.0563906.23387722-.0861442.05420202-.2129202-.10743079-.0757951-.13213613-.2239749-.21007025-.3695674-.12607209.0345753-.29054976.0934944-.46333741.1209547-.08167735.0129951-.29354435-.0132892-.26898874-.0540386.02455561-.0408083.06513226-.1308922.122254-.1778158.18094789-.1484737.35440932-.3103543.56769875-.424488.21224133-.1135457.47239604-.1705243.70507542-.2622547.13565477-.0534505.25214419-.1380659.38982031-.1870475.11731293-.0416315.25259337-.0732079.37963871-.072858.38570275.0012966.7731274.0064711 1.15620987.0378123.2027335.0165232.4006757.0847918.5945003.1426524.0434964.013054.089089.0833806.0821266.1215427-.0067379.0375742-.0738166.0909071-.1232273.0977281-.3514896.0488053-.5895592.1828727-.7313529.4555352-.0427477.0820281-.26794063.1333618-.41475024.1417116-.06954927.0039397-.19569623-.1188378-.21808077-.1978082-.04095097-.1458865-.14082043-.1938097-.30320189-.173582-.21815563.0271663-.17099089.150473-.13355856.2644891.02178562.0663281.04065151.133303.06595577.1986903.10885322.2810711.18012438.2925962.43758397.089437.05629822-.0445127.1531731-.0572726.2315564-.0846741.0152724.0205805.03032019.0412786.04559259.0618592"/><path d="m22.0092377 23c.346734.0069914.641901.1107271.8846637.3942303.061685.0719245.1260216.2382335.100273.3129546-.1360699.393269-.2754194.7920437-.4638937 1.1470344-.1339765.2522165-.3564333.1608907-.4099542-.1489178-.0295167-.1703291-.0254695-.3526311-.0196778-.5286408.0115136-.3500968-.1586784-.5431481-.4292133-.4914114-.1411638.0268297-.2872819.035132-.4292831.0214113-.0790601-.0076032-.1817057.0046318-.231598-.119379s.0894573-.2417293.1600043-.2738026c.2738145-.1243603.5580959-.212103.8386791-.313479"/><path d="m10 25.4656084c-.14834265.1295834-.29692252.1299383-.4730201.0594983-.37528476-.1502245-.64326622-.0335935-.63472624.2821738.00506073.1801511-.10240071.2342675-.29708067.1612252-.22551877-.0846935-.52576239-.1136738-.57897913-.3603023-.06618486-.3058311.06294283-.4449958.52773924-.5593203.55067068-.1355569 1.08568473.013189 1.4560669.4167253"/><path d="m7 16.8849707c.10150331-.368196.15340667-.7840397.31955884-1.0895575.13789708-.2534734.39449623-.4627756.62683285-.5394618.43772344-.1443746.8946419-.1979527 1.34595542-.2519398.25629202-.0307767.47964537.1164608.63251458.4097088.03132629.059713.08706861.1530657.07286433.1869099-.02986747.0705513-.09620548.1489757-.15248531.1558263-.08392066.0103271-.17782274-.0201429-.25744372-.0647231-.67750774-.3788299-1.28668117-.0486702-1.87573821.3489733-.12937449.0874223-.17697816.3708544-.28600592.5362921-.1050352.1596096-.24062888.2834322-.36293961.4230011-.02103775-.0383431-.04215228-.0767884-.06311325-.1150293"/><path d="m13.5682368 2c.3805582.00242307.5465897.26181938.3461066.58739765-.3844322.62364589-.5378731 1.3261983-.7127597 2.02455658-.1507428.60196436-.3278431 1.1975309-.4602533 1.80361831-.0953989.43668718-.1426488.88510372-.1991687 1.3299659-.0243513.1918637-.1468687.28605392-.3824952.24496566-.170805-.02978543-.1760626-.15759979-.1448625-.29565066.284329-1.25809699.5681046-2.51640724.8561002-3.77365119.0368037-.16037217.116568-.31150305.1429947-.47279936.0436525-.26877979.2317524-.5243374-.0121756-.81892176-.1497744-.18105848.2667573-.63139436.5665135-.62948113"/><path d="m17.268773 7.99911215c-.2325859.01129835-.3028892-.08570057-.2541661-.26441995.2006474-.73862972.3917035-1.47835077.5876512-2.21755826.2006474-.75641179.3960196-1.51352973.6089436-2.26846504.0572593-.20356291.3144946-.29260162.5841025-.22782869.1695719.04076394.2440953.09809023.1842464.24432685-.2767054.67616782-.5463132 1.35432569-.7795706 2.03768337-.1748471.511443-.3138232 1.02975487-.4234503 1.54935065-.0601366.2835501-.0296367.57589495-.0329936.86432389-.0024937.20523199-.1158614.2863105-.4747631.28258718"/></g></svg>