<?xml version="1.0" encoding="UTF-8"?>
<svg width="118px" height="162px" viewBox="0 0 118 162" version="1.1" xmlns="http://www.w3.org/2000/svg" xmlns:xlink="http://www.w3.org/1999/xlink">
    <title>Group 18</title>
    <defs>
        <polygon id="path-1" points="8.64431291e-06 0.0354791229 117.475991 0.0354791229 117.475991 161.632653 8.64431291e-06 161.632653"></polygon>
    </defs>
    <g id="Page-1" stroke="none" stroke-width="1" fill="none" fill-rule="evenodd">
        <g id="Group-18">
            <g id="Group-3" transform="translate(0.000000, 0.000000)">
                <mask id="mask-2" fill="white">
                    <use xlink:href="#path-1"></use>
                </mask>
                <g id="Clip-2"></g>
                <path d="M73.5722146,42.7174974 C70.779166,42.7562283 67.9709691,42.6924901 65.0885453,43.7720742 C66.468558,44.4384277 72.1410006,43.7290739 73.5722146,42.7174974 M32.0594353,54.2031747 C29.0403737,53.0388097 26.3975965,52.020219 23.97447,51.0861043 C23.9084233,50.9808906 24.0159764,51.1797292 24.1489788,51.35905 C24.264409,51.5154982 24.4071062,51.6521235 24.5410175,51.7939333 C26.211272,53.5554243 28.4226249,54.1580396 30.6742722,54.6307389 C31.0196541,54.7033211 31.4428984,54.4047581 32.0594353,54.2031747 M78.2097235,6.69323866 C78.2275986,6.54166993 78.2451706,6.39010119 78.2624397,6.23883743 C74.9404115,5.49959677 71.6174744,4.76066107 68.2357618,4.00830682 L68.2357618,5.32973 C71.5968727,5.78931567 74.9037526,6.24158213 78.2097235,6.69323866 M102.31556,53.9317539 C102.239818,53.8036676 102.164077,53.6755814 102.088335,53.5474951 C101.800517,53.5676229 101.479069,53.5096792 101.23094,53.6200773 C98.9895931,54.6206749 96.7506703,55.6288967 94.5402264,56.6968921 C94.2348361,56.8448012 94.0157913,57.3007273 93.8818801,57.6608936 C93.492871,58.7069314 93.9049055,60.0719649 92.5945752,60.7657654 C92.4449097,60.8447519 92.5161069,61.3461181 92.4845984,61.6513904 C92.5906367,61.7090292 92.6966749,61.766668 92.8033192,61.8240018 C95.9738641,59.1933542 99.144409,56.5624015 102.31556,53.9317539 M70.2832098,44.6494651 C70.3050234,44.7879202 70.326231,44.9260704 70.3480446,45.0642206 C74.5447372,46.485673 79.0868117,46.8238817 83.07779,49.3267481 C83.0423429,48.9519433 83.0823345,48.7619487 83.0062899,48.6594797 C81.8113899,47.0553519 80.4592502,45.6149915 78.6887137,44.6387912 C78.0400623,44.2816745 77.3411185,43.6375837 76.7127658,43.6912579 C74.5580677,43.8748482 72.4245773,44.3103415 70.2832098,44.6494651 M18.0226922,80.1537546 C18.8882676,77.8683299 19.5117728,75.8162052 18.4450276,73.7015621 C17.8133423,72.4511963 17.780319,70.8781751 16.4808954,69.9654081 C16.3254736,69.8562298 16.3909144,69.4436091 16.3321389,69.1764578 C16.2739693,68.9120511 16.2712426,68.5427358 16.0991576,68.4112949 C15.1769274,67.7068205 14.2095552,67.0624246 13.2570284,66.3969861 C13.1652295,66.4454759 13.0743396,66.4936607 12.9825407,66.5421505 C13.2670263,68.5884809 13.441535,70.6595136 13.8838662,72.6704678 C14.1041229,73.6728952 14.8778994,74.5399171 15.2808449,75.5179472 C15.5456377,76.1602082 15.7707418,76.5938717 16.5775418,76.5377577 C16.947161,76.5124454 17.6061132,76.3871039 17.8103126,76.9952086 C18.0142091,77.6036183 17.0798603,77.8189252 16.847182,78.0811971 C17.2437652,78.780487 17.5739987,79.3626695 18.0226922,80.1537546 M79.5046026,43.0703446 C79.5776175,43.2087997 79.5960985,43.3103538 79.6521473,43.3405456 C82.8805588,45.0831285 84.7062352,47.8845579 85.8060038,51.3190993 C86.0480741,52.076333 86.8388167,52.6551609 87.4205125,53.3700042 C87.6689451,52.6993811 87.7904347,52.2513842 87.9964519,51.8469976 C88.2606388,51.3288582 88.7947688,50.8723222 88.8623303,50.343509 C89.1746888,47.902246 88.6829741,45.5878494 86.981514,43.7702444 C85.7599529,42.4652895 84.2854147,41.3631378 82.2728079,42.0429098 C81.3675439,42.348792 80.4792459,42.7065186 79.5046026,43.0703446 M37.5973608,50.0830669 C37.0053642,49.9482714 36.4067023,49.7765748 35.7962247,49.6805101 C34.390157,49.4587989 32.9125891,49.4706926 31.5855956,49.0226957 C30.0262268,48.4966272 28.5656251,47.6381443 27.1159301,46.8260165 C25.242991,45.7769291 23.9235716,44.3258948 24.0865676,41.9553842 C24.1071694,41.6556014 23.9771967,41.3451447 23.8796415,40.8431686 C23.1455535,42.1706911 22.8492523,44.771452 23.1098035,46.4539564 C23.2749203,47.5219518 24.1080783,48.0126441 24.8015687,48.6911963 C27.171979,51.0116923 30.2022504,51.8451678 33.2358544,52.6984662 C33.4776217,52.766169 33.7796794,52.6780334 34.0396247,52.6063661 C34.752202,52.4096622 35.4444805,52.1001204 36.1676617,51.9875875 C37.2813667,51.815281 37.7185474,51.2205948 37.5973608,50.0830669 M89.7833486,54.7932864 C90.93038,53.9710946 92.0671105,53.324869 92.9850991,52.4456484 C93.7313057,51.7308051 94.6729257,51.0348698 94.5938515,49.7247304 C94.56204,49.2004916 94.7677543,48.6277631 94.9840724,48.1294466 C95.5100223,46.9214712 95.1031382,45.8940365 94.4505483,44.9153965 C94.2415014,44.6015852 93.8979373,44.3789591 93.6170873,44.1133326 C92.6360816,43.1853172 91.7059743,42.1944786 90.658316,41.3509391 C89.9493743,40.7797354 87.7289325,41.0660997 87.1257261,41.658956 C87.1826838,41.7556307 87.2202516,41.8806672 87.3029615,41.9505047 C90.0763173,44.2835044 91.1782066,47.3005456 90.8055578,50.8637831 C90.7283013,51.601194 90.5004704,52.5188405 90.0008786,52.9674474 C89.3158712,53.5819564 89.3694963,54.0293434 89.7833486,54.7932864 M43.0486379,47.4966395 C42.4808786,46.9873442 42.0630877,46.2850045 41.5644048,46.2209614 C39.0609922,45.8992209 37.1483644,44.3304693 34.9988167,43.2743677 C33.4964056,42.5366518 32.2981729,41.5427635 32.2775712,39.6327535 C32.2742386,39.3595028 31.8285748,38.8285548 31.681636,38.8602714 C30.4934012,39.115224 29.2257892,39.2887504 28.185705,39.8614789 C27.2571126,40.373214 26.800239,41.4985432 27.0677585,42.628447 C27.3864793,43.9690831 28.2017623,45.0447027 29.4290797,45.6683607 C30.3897867,46.1569183 31.4238115,46.5292833 32.46026,46.8318109 C34.4043964,47.39905 36.4476028,47.6936484 38.3120589,48.4466126 C40.1628815,49.1940873 41.5186568,48.5920819 43.0486379,47.4966395 M73.486778,150.216325 C72.9765824,148.561878 72.5493995,147.105354 72.055867,145.672313 C72.0007271,145.513425 71.5665761,145.493297 71.3120842,145.396623 C70.851878,145.221266 70.2841187,145.143805 69.9753958,144.81932 C69.765137,144.598218 69.9135906,144.02671 69.9090461,143.611039 C69.9038956,143.22922 69.9072283,142.847096 69.9072283,142.464972 C69.8030078,142.407943 69.6987873,142.351829 69.5939609,142.295105 C66.3906956,144.729049 62.573923,146.374653 60.1853347,150.002543 C60.4646699,150.182474 60.7303716,150.35478 60.9379036,150.489271 C61.2720757,149.904039 61.4374955,149.159614 61.8277164,149.00957 C63.8412321,148.234648 67.5143985,146.482611 68.0367128,146.9117 C68.5596331,147.340789 67.464712,148.376458 66.8412068,148.779929 C65.8402053,149.42829 64.5062436,149.655795 63.9515119,151.236136 C64.9210048,151.14922 65.8299045,151.221802 66.6321599,150.962275 C68.053073,150.502995 69.2500938,151.965313 68.8165487,152.529197 C68.3833065,153.092472 65.906858,153.01745 64.4638283,153.259899 C65.2742638,154.618833 65.3075902,154.455065 66.7236558,154.745394 C68.6711248,155.144291 70.5377017,154.925935 72.4163972,154.507215 C72.8175249,154.417859 73.1804789,154.153758 73.5607019,153.970472 C72.9941544,153.362673 74.0324208,152.161407 72.726635,151.794531 C71.8695426,151.553912 71.1569653,150.525257 71.684733,149.941245 C72.2125007,149.356928 72.6672535,150.091289 73.486778,150.216325 M49.8205462,148.321869 C50.1110911,147.399343 50.7291429,147.347803 51.5589682,147.595437 C53.1813541,148.079115 54.8237357,148.49692 56.4582403,148.942172 C56.5648845,148.872944 56.6718317,148.804022 56.7790818,148.734489 C56.5682171,148.278258 56.478539,147.587812 56.1274008,147.403917 C53.7385096,146.153856 51.3144742,144.965704 48.8571126,143.859892 C48.0542512,143.498506 47.1156608,143.442392 46.3291597,143.267036 C45.6938388,144.680559 46.4064162,145.441453 47.2616907,146.194722 C47.4689198,146.376787 47.467405,146.799167 47.5619306,147.111149 C47.2947141,147.185561 46.97872,147.391109 46.770279,147.311512 C45.9498456,146.999836 45.6677837,147.435634 45.5720463,148.109306 C45.3233108,149.859819 45.1012363,151.613685 44.8906745,153.369077 C44.8700728,153.538639 44.9603568,153.842996 45.07609,153.888741 C46.1704052,154.32027 46.0440682,155.230597 45.8541081,156.443757 C46.878741,156.376359 47.8918611,156.580992 48.6104978,156.209237 C50.5143396,155.226328 52.2927532,153.99731 54.1157029,152.857647 C54.4450276,152.652099 54.748903,152.40477 55.0642912,152.17696 C54.9673419,152.070831 54.8713015,151.964398 54.7740492,151.857964 C53.7785012,152.200442 52.80204,152.645085 51.7774071,152.837214 C51.3175039,152.92352 50.7382319,152.904307 50.2522735,152.316635 C49.7672241,151.729268 50.655825,151.594472 50.9627301,151.420031 C51.8410301,150.920495 52.775076,150.518853 53.7279057,150.058962 C52.4360564,149.293799 50.700967,149.84213 49.8205462,148.321869 M66.1413541,141.584227 C66.2452716,141.656504 66.3494921,141.729086 66.4534096,141.801363 C66.6924502,141.715363 66.9526985,141.666568 67.1662899,141.538482 C70.2307965,139.704104 72.7454189,137.103648 75.8453726,135.298851 C77.462608,134.357722 78.8556482,133.035689 80.406534,131.967694 C84.689875,129.016526 88.9541292,126.031811 93.3186653,123.206289 C97.4432518,120.535996 101.697205,118.069115 105.866934,115.46866 C106.625865,114.99535 107.619292,114.44031 107.881661,113.699544 C109.178055,110.039022 108.74148,106.246449 108.347927,102.481018 C108.274912,101.781119 107.853485,101.919574 107.420546,102.150434 C105.533368,103.157131 103.597411,104.080572 101.767493,105.183333 C97.6577522,107.660583 93.5889114,110.207364 89.5291597,112.768784 C88.5136158,113.409216 87.4244511,114.06764 86.6873335,114.979187 C85.9159806,115.93282 85.4454736,117.070348 83.9288231,116.77148 C83.8542933,116.756536 83.7400749,116.899566 83.6561532,116.981602 C81.7895763,118.812626 79.7796962,120.520747 78.0936874,122.507609 C75.6129973,125.43194 73.3565024,128.549316 71.0266897,131.601428 C70.7003947,132.029297 70.4855914,132.547437 70.24443,133.036604 C69.4367212,134.673668 68.632951,136.312867 67.8422083,137.958471 C67.2641481,139.161567 66.7072956,140.375336 66.1413541,141.584227 M55.6214467,4.0177608 C55.1815392,5.35595718 54.7437526,6.69445853 54.3023303,8.03174001 C52.9744279,12.0554782 51.5956272,16.0624431 50.3437694,20.1096638 C49.9068916,21.5201374 49.8244847,23.0385694 49.4939482,24.4880789 C49.3400412,25.1648012 48.9061931,25.7741258 48.7271399,26.4487134 C48.1251454,28.7155352 47.5140619,30.9841867 47.0344658,33.2790654 C46.6921136,34.9136899 46.5554757,36.5919248 46.308255,38.3836075 L49.3376175,38.3836075 C49.5003105,37.7663538 49.5227301,37.0807874 49.8541755,36.6215067 C50.1089703,36.2680496 50.7421704,36.0960481 51.2287347,36.040544 C51.5501822,36.003643 52.2145878,36.3510007 52.2015603,36.4671932 C52.14945,36.9359279 51.9331319,37.4043576 51.6992417,37.829482 C51.5420021,38.1152363 51.2541839,38.3284085 51.0242323,38.5745171 C53.3388967,38.3842175 55.6762836,39.134132 57.8446152,37.9990438 C58.0336663,37.9002344 58.3051243,37.9453696 58.5381056,37.951164 C59.1728205,37.9667173 59.8217749,38.0987681 60.4380088,38.0048382 C63.8675902,37.4836491 67.292324,36.9301335 70.7113015,36.3421566 C71.9758839,36.124105 73.224409,35.7999248 74.4683896,35.4781844 C74.6510785,35.4309144 74.7674176,35.1256422 74.9146594,34.9399171 C74.7740829,34.8371432 74.5659449,34.614822 74.5035338,34.6505032 C73.7188504,35.0972802 73.3213583,34.3513303 72.7457219,34.1348035 C71.6974576,33.7398709 72.0813162,33.1256668 72.373073,32.4660226 C72.6136284,31.9210461 72.9296226,31.3718001 73.0056672,30.7972417 C73.2743985,28.7786634 73.3828605,26.7372125 73.6837063,24.7244285 C74.2187452,21.1477724 74.8237694,17.5808752 75.4506072,14.0191624 C75.7975039,12.0502937 75.8983918,9.932601 78.1133802,8.74749819 C77.5347141,8.58861024 77.1299508,8.43673654 76.710948,8.36964374 C73.2804578,7.81917782 69.8526943,7.24583935 66.4125092,6.76002649 C64.4810974,6.48738575 62.528781,6.22389403 60.5852506,6.21870959 C58.6111206,6.21322018 56.6909186,6.40626446 55.6214467,4.0177608 M69.311899,49.9900519 C69.1713225,50.1135637 69.0307461,50.2373804 68.8895636,50.3608921 C68.6111374,50.1605286 68.3442239,49.9412571 68.0515582,49.7634612 C67.0826712,49.1730446 66.3155599,47.9906865 64.8794984,48.7640835 C64.6128879,48.9074181 64.0390692,48.7887858 63.7794269,48.5768336 C61.867102,47.0184508 59.6009123,46.4591409 57.2477711,46.3258702 C55.9010848,46.2493234 54.2665803,46.1401451 53.2377059,46.7988744 C51.7861931,47.7290246 50.2165235,47.6579672 48.7495594,48.171837 C48.6465508,48.2081281 48.5595994,48.292909 48.2884444,48.4713149 C48.7213835,48.6793026 49.024956,48.8915598 49.360643,48.973596 C50.0807944,49.1498671 50.82791,49.2175698 51.5444258,49.4039048 C52.7141797,49.7076522 52.9568559,50.380105 52.3209291,51.6045486 C51.8749623,51.3956461 51.4408113,51.1196507 50.9666686,50.9854651 C50.184409,50.7634489 49.3815477,50.5304539 48.5777774,50.4908082 C47.6497909,50.445368 46.7124124,50.6326179 45.7771546,50.6606749 C45.3945079,50.6719587 45.0018632,50.4542121 44.6252758,50.482879 C44.3301864,50.5048367 43.7972683,50.7643638 43.8054483,50.8878755 C43.926635,52.6210045 42.7841481,52.1147589 41.8501023,52.0985956 C41.2629531,52.0882267 40.6715624,52.2507743 39.8996036,52.3620873 C40.8939398,53.1275552 41.6156061,53.6838155 42.4508849,54.3272964 C41.182364,54.9957847 40.8154715,54.9543091 39.6311753,54.3852402 C39.3660795,54.2583738 38.9376848,54.2339764 38.6837989,54.3623677 C36.9838536,55.2235952 35.2851201,56.0958016 33.6418296,57.0594982 C33.0180215,57.4254589 32.2393974,57.797824 32.4432939,58.8716137 C32.4911626,59.1198571 31.9249182,59.5367473 31.582566,59.7981043 C31.1044847,60.1634551 30.4009964,60.3385063 30.0898498,60.798092 C28.4971546,63.1496946 26.9386947,65.5314889 25.5017244,67.981596 C25.0115245,68.8175113 24.4646699,69.108755 23.7139188,68.7324254 C22.8840934,68.3164501 23.4157997,67.7357924 23.7063446,67.1694682 C24.1062605,66.3914966 24.6861384,65.5351486 24.6370579,64.7468082 C24.5934307,64.0365394 25.0424271,62.9423168 23.9465971,62.4592487 C23.8944869,62.4363761 24.0338515,62.0887134 23.983256,61.9237261 C23.8811563,61.590092 23.7942049,61.1756414 23.5533465,60.9740581 C21.9012699,59.5977408 20.1628479,58.421482 17.8324292,59.017693 C17.6100518,59.0747219 17.3531361,58.9887211 17.1295468,59.0430053 C15.8540576,59.353767 14.4446573,59.3790792 13.6114993,60.4412802 C14.6706703,61.2756707 15.6365277,62.0118617 16.5736032,62.7840388 C17.1837778,63.2875398 17.7672914,63.8270269 18.3280825,64.3860319 C18.4974408,64.5546788 18.5216781,64.8611709 18.6610427,65.0728182 C19.4024019,66.1987573 20.1761784,67.3030438 20.8996625,68.4399618 C21.1629405,68.8534974 21.3507797,69.3258917 21.511049,69.7927966 C21.6688946,70.2520773 21.5886085,70.9464878 21.8876364,71.177653 C23.3524797,72.3093865 23.4685159,72.6353965 22.7998687,74.3230854 C22.6586863,74.6798971 22.6547477,75.2547604 22.851676,75.5524085 C23.3524797,76.311472 22.9325681,76.4462675 22.353902,76.7268374 C21.9142975,76.9409245 21.4259154,77.3190839 21.239288,77.7484778 C20.4921725,79.4575144 19.8156482,81.2007073 19.1894164,82.9588436 C18.685886,84.3705371 18.2932413,85.8209614 17.8078889,87.3939826 C18.2308302,87.3335991 18.3811016,87.3589114 18.4495721,87.2951732 C19.0321767,86.7547712 19.6884023,86.766055 20.0325723,87.4116707 C20.1898119,87.707184 19.908356,88.4994889 19.5844847,88.7513919 C17.7569905,90.1716245 17.3279899,92.1655005 17.8118275,94.1566318 C18.060563,95.180102 18.0051201,95.915683 17.7987999,96.8711455 C17.5582445,97.9854959 17.8830246,99.2014004 17.1801422,100.270616 C17.0023009,100.542037 17.091373,100.990948 17.0438073,101.508478 C18.6722525,100.92538 20.107102,100.411511 21.5425575,99.8973357 C21.6428395,100.031521 21.7431214,100.166012 21.8434033,100.300807 C21.5807313,100.657009 21.3744111,101.083963 21.0417538,101.351725 C20.5585222,101.740863 19.7574786,101.885722 19.491474,102.362081 C18.7083055,103.759441 17.7369947,103.663986 16.5190692,103.12084 C16.321838,103.032704 15.8789009,103.310834 15.6550086,103.528886 C15.4156651,103.762796 15.2135864,104.111678 15.1590524,104.437993 C15.1102748,104.729542 15.2366118,105.082389 15.3729468,105.365399 C15.5226122,105.673721 15.7731656,105.932638 15.9791828,106.213208 C15.6256209,106.391614 15.2866013,106.61119 14.9163762,106.737752 C14.4955556,106.880781 14.0471652,106.939945 13.4684991,107.066811 C16.6466181,107.768541 19.6290208,108.239715 22.4932666,109.107957 C25.8501359,110.125633 29.1133886,111.464439 32.3987578,112.712975 C33.7448382,113.22471 35.1878679,113.660509 36.3376259,114.4827 C41.4877543,118.164265 46.7863362,121.684807 50.7473208,126.793619 C52.6220778,129.2114 54.4117012,131.657847 55.7126396,134.461716 C56.5818506,136.33635 56.5176217,138.561696 57.9297488,140.222548 C58.0736579,140.39211 58.1009249,140.790397 58.0100349,141.010278 C57.6843459,141.799229 57.9754967,142.377752 58.3902579,143.043495 C58.6008197,143.382619 58.479936,144.374372 58.3938935,144.389011 C57.5086253,144.540274 56.5997256,144.575346 55.6968853,144.576871 C55.5702453,144.57748 55.2945458,144.175229 55.3390818,144.046532 C55.6205378,143.22739 55.0139987,142.984331 54.5601548,142.555243 C54.1990187,142.213374 54.015421,141.676022 53.7742596,141.214301 C53.6364098,140.9502 53.5867233,140.630899 53.4182739,140.39333 C52.4242407,138.99109 51.2656966,137.686135 50.4310238,136.196065 C49.1328121,133.878924 48.0257724,131.451079 46.8857092,129.047632 C46.3427932,127.9037 45.9522693,126.686576 45.4172304,125.538679 C44.5228731,123.619825 42.9092733,122.399041 41.2617412,121.162703 C38.6044216,119.167608 36.1419095,116.941651 33.076494,115.502206 C26.9314235,112.616301 20.7551475,109.910021 13.8808365,109.351931 C11.8312678,109.186029 9.7883644,108.948459 7.43764696,108.713025 C7.99843804,109.721551 8.2677753,110.800526 8.9552064,111.332083 C11.2965319,113.145114 12.7068412,115.703179 14.4773777,117.959632 C15.8722356,119.737896 16.9071694,121.835156 19.6193259,121.763794 C19.8726059,121.757085 20.315543,121.954093 20.3491723,122.121825 C20.4167339,122.457594 20.3388714,122.880279 20.1758754,123.189211 C20.0301485,123.463681 19.6880993,123.633243 19.2575838,123.997374 C20.750906,125.11081 22.1278889,126.17606 23.5451664,127.183977 C24.9660795,128.195249 26.4097151,129.176328 27.8754673,130.120202 C29.2227595,130.987529 30.5900475,131.828019 31.9885411,132.60721 C33.9929678,133.72522 35.9755809,134.914288 38.0748361,135.821565 C40.4843291,136.863333 42.9547183,137.727916 44.9482382,139.540641 C45.8886463,140.395769 46.7805798,141.394537 47.8809543,141.960861 C50.3046867,143.209092 52.8423345,144.234392 55.3427174,145.331055 C57.6846489,146.358184 59.9535653,146.756167 62.175219,144.897696 C63.0001969,144.20786 63.5206935,143.797984 63.4485874,142.469242 C63.325886,140.181377 64.2962878,138.004521 65.4645268,136.044191 C66.187405,134.830727 67.2623303,133.835313 68.1263909,132.701445 C70.0284149,130.207118 71.8156146,127.620385 73.8015603,125.19803 C75.5105946,123.114494 77.4123156,121.188626 79.2628353,119.226161 C80.6558754,117.749205 82.027405,116.236872 83.5479941,114.900506 C85.1540198,113.489117 86.8645689,112.177758 88.6414677,110.99174 C90.1214593,110.003646 91.1130688,108.178112 93.1980846,108.181162 C93.2565571,108.181162 93.357445,108.093331 93.365928,108.035387 C93.5125639,107.066201 94.4475186,107.161656 95.0322441,106.807284 C96.2892523,106.044561 97.5932203,105.359604 98.8708302,104.628598 C99.8803147,104.050685 100.871015,103.439836 101.882318,102.864362 C103.170228,102.131831 104.47662,101.431321 105.757563,100.686896 C105.946614,100.577108 106.039928,100.299892 106.177474,100.100444 C106.169294,99.9702229 106.160811,99.8403068 106.153237,99.7097808 C103.993389,101.937567 102.994811,99.0229945 101.285171,99.2248829 C101.756284,97.3429298 102.171954,97.2395459 104.61144,98.1745756 C104.61144,97.8113596 104.579326,97.4640018 104.617803,97.1251832 C104.723538,96.1959479 104.498737,95.9226973 103.498947,96.2294943 C103.02844,96.3740488 102.33192,96.0193719 101.823542,95.7357523 C101.014924,95.2840958 100.29962,94.666842 99.5052422,94.1862136 C98.691171,93.6933865 97.2838914,93.455817 96.9721389,92.8236199 C96.6606892,92.1914227 97.8389262,91.163988 100.557142,92.1499472 C100.557142,90.8669499 100.585621,89.6373218 100.538055,88.4101335 C100.525331,88.0822937 100.321131,87.7373757 100.135716,87.4452171 C99.3773903,86.2546249 98.537567,85.1125224 97.8437736,83.8862491 C97.5556524,83.3775637 97.4647625,82.6956568 97.4993007,82.1055452 C97.5077837,81.9619056 97.8928542,81.9564162 98.3645731,81.8576068 C98.5393848,81.8207057 99.1665256,82.2253973 99.6021915,81.753003 C100.037857,81.2803037 98.2597467,76.5514812 96.6137294,74.4813634 C95.9247835,73.6146464 95.4773019,72.9751301 95.6605967,71.7580057 C95.902061,70.1544878 96.2362331,69.4475737 97.7601548,68.8824693 C98.446677,68.6281266 99.2174239,68.382018 99.7218632,67.8928505 C101.205793,66.4524901 102.653973,64.9578455 103.970969,63.3628667 C105.694546,61.2747558 106.368949,58.8347127 105.906319,55.9677154 C105.065284,56.3257469 104.286963,56.5730754 103.59317,56.9695328 C102.170742,57.7828806 100.841325,58.7724993 99.3840555,59.5096052 C97.8870978,60.266534 97.0333381,61.5455667 96.2710743,62.9057208 C95.8675228,63.6260534 95.4906324,64.4308621 96.2310827,65.3119125 C96.499814,65.6309083 96.3356061,66.3189144 96.3677206,66.8382737 C96.2571378,66.9440973 96.146555,67.050226 96.0356693,67.1563546 C94.8225912,66.5979595 93.4486379,66.2332186 92.4624818,65.4024878 C91.9416823,64.9645548 92.0964982,63.7135791 91.9335022,62.7568967 C91.7223345,62.7953226 91.582061,63.1518293 91.1164014,62.9060257 C90.6513478,62.6602221 90.7543564,62.0566919 90.5989346,61.692561 C89.0419895,61.9109175 89.0547141,61.9045132 88.3082045,60.3906557 C88.1833823,60.1372279 87.9252548,59.8407997 87.6753074,59.7776715 C86.4498077,59.4669098 86.293174,59.0872256 86.8694164,57.8960234 C86.9930267,57.6407658 86.8860795,56.9756322 86.7951896,56.9576391 C85.9477921,56.7892972 86.0202011,56.2397462 86.0823093,55.6017546 C86.1135148,55.2919079 86.0377732,54.8798971 85.8462983,54.6563561 C85.2112805,53.9140658 84.472648,53.2617408 83.8279352,52.5267697 C83.1405041,51.7423938 82.3788462,51.2928721 81.2805925,51.3279433 C80.858863,51.3413619 80.2065761,50.9793657 80.0290377,50.6088305 C79.2767717,49.0336745 77.6631719,49.2770384 76.3898035,48.7293172 C76.647628,49.2691093 77.0230036,49.6551978 77.4362499,49.9937115 C78.1948782,50.6167596 79.0722693,51.1565517 78.9953158,52.3251863 C78.9819853,52.5206703 78.812021,52.7304878 78.6611437,52.877787 C78.6105483,52.9271917 78.2884948,52.8323469 78.2666813,52.7539703 C78.0134012,51.8311393 77.236292,52.0342475 76.5903673,51.9046364 C75.0979541,51.6048536 74.6026038,50.3352749 73.9833402,49.1614558 C73.6649224,48.5560958 73.2907587,47.6927335 72.7660206,47.5350654 C70.7270558,46.9226911 68.6181056,46.5460565 66.5355136,46.0815914 C66.4615897,46.2237061 66.3876659,46.3658209 66.3131361,46.5079356 C66.9339146,46.9763653 67.6525512,47.3600142 68.1485075,47.9370122 C68.650826,48.5216345 68.9334938,49.2977762 69.311899,49.9900519 M0.0707123922,104.272396 C2.39416284,102.992449 4.8054736,101.698472 7.18376099,100.343503 C9.58325605,98.9763345 11.9488189,97.5481728 14.4737421,96.0617623 C14.2201591,93.6198894 13.9665761,91.1337962 13.7020863,88.6492279 C13.6472493,88.1399325 13.5784759,87.6288074 13.4675902,87.129271 C13.0810048,85.377844 12.6501864,83.635566 12.2908681,81.8786495 C12.2202769,81.5355613 12.2690545,80.9500242 12.481737,80.8069945 C13.1316003,80.3708913 13.1282676,79.8655606 12.8359049,79.2974065 C11.6170705,76.9287258 11.5467822,74.4194551 11.7100812,71.8232687 C11.7794606,70.7156276 11.3719705,69.5753549 11.159894,68.4536853 C11.0068959,67.6436923 10.7542218,66.8471178 10.6678763,66.0316353 C10.6006177,65.3954735 10.4130814,65.0783076 9.75715885,64.8773342 C8.36745129,64.4515998 6.76718199,62.0078971 6.82080707,60.583395 C6.87564401,59.1649922 7.5079352,58.2888213 8.94460257,57.8115475 C11.4171126,56.9899657 13.9605167,56.7011616 16.566332,56.7752687 C19.3854357,56.8551701 22.2066602,56.8225386 25.0269758,56.8289429 C25.2411732,56.8295529 25.4559764,56.753616 26.0091934,56.6493172 C25.4205293,56.2095544 25.1008996,55.878055 24.7124965,55.6944647 C19.9035085,53.417884 17.8384885,49.1986618 16.8417286,44.2899087 C16.6869127,43.522611 17.0432013,42.5881913 17.3416234,41.7995459 C18.4516928,38.872775 20.6524418,37.0585248 23.5266855,36.0649414 C25.2096646,35.4836738 26.9193049,34.8938671 28.6653011,34.6102475 C31.4716802,34.1549314 34.1650528,34.9573003 36.8129804,35.8337762 C37.2962121,35.993884 37.7842912,36.1424031 38.2599487,36.3232487 C40.2434707,37.0756029 40.2437736,37.0734682 40.983012,35.0835567 C43.2619264,28.9421258 45.5508386,22.8040496 47.8267233,16.6607889 C49.1728037,13.0271039 50.5155514,9.39189403 51.8249729,5.74479045 C52.0888567,5.00951436 52.2370074,4.22422364 52.366677,3.44991174 C52.7874976,0.936676473 55.0976175,-0.454584213 57.5368012,0.194081171 C58.9580173,0.572240585 60.4780004,0.564921371 61.9204242,0.883612168 C65.9253389,1.76923712 69.9123787,2.73872807 73.9088104,3.6636938 C74.4414256,3.78720554 74.9958544,3.81617744 75.5275607,3.94182395 C77.761939,4.47002726 79.9996499,4.98511698 82.2164561,5.57797335 C82.9353958,5.76979777 83.48528,7.76184397 83.1620147,8.6849799 C81.4169274,13.6678401 80.714348,18.8266665 80.5013625,24.0824724 C80.4383455,25.6368906 80.0453979,27.1766703 79.9511753,28.7316984 C79.8551349,30.3306418 79.9384507,31.940869 79.9426922,33.5465217 C79.9436011,34.046668 79.9426922,34.5468143 79.9426922,35.1198478 C81.4541923,35.0463507 83.0002306,34.9103353 84.5480867,34.9082005 C87.4208155,34.903931 90.3299003,34.764256 93.0926522,35.7258178 C93.9127827,36.0112672 94.5871862,36.7492879 95.2979457,37.3177469 C97.1230162,38.7770153 98.9129426,40.345767 99.1695552,42.8342999 C99.3264919,44.3579164 99.1844006,45.9559449 98.9035506,47.4691925 C98.6602685,48.7817716 98.0331277,50.0226834 97.5338388,51.4121143 C99.0580635,51.3175744 100.601981,51.228829 102.144687,51.1236152 C103.862204,51.0071178 105.579418,50.893365 107.293603,50.7433211 C108.502137,50.6378024 110.519288,52.6740688 110.380832,54.0311732 C110.269947,55.1199064 110.147245,56.2806118 109.690372,57.2467481 C108.51062,59.7441251 107.682915,62.4363761 105.809067,64.5781613 C105.257668,65.2082236 104.922284,66.0307204 104.496616,66.769961 C103.521064,68.4652741 102.556115,70.1663815 101.576321,71.8595598 C100.864956,73.0897978 100.369303,74.2355598 100.870409,75.807971 C101.428777,77.5609229 101.063096,79.5663877 102.035922,81.2571262 C102.578838,82.2013049 103.122057,83.1650015 103.806761,84.0027466 C104.629315,85.0082236 104.569328,85.5428313 103.343525,85.9127566 C102.94573,86.0335236 102.50855,86.0216299 101.866866,86.0960419 C102.268297,86.7230546 102.588533,87.2753503 102.958758,87.79105 C103.421691,88.4366657 104.209101,88.8947265 103.992783,89.9050831 C103.961577,90.0505525 104.296658,90.3387466 104.516006,90.4659179 C106.815825,91.7998447 109.117159,93.1304169 111.442427,94.4173788 C111.871428,94.6555583 112.402528,94.7589422 112.89909,94.8129214 C114.19306,94.9522914 115.496422,95.0035259 116.788878,95.1541797 C117.047005,95.1843715 117.43965,95.4750053 117.470552,95.6890923 C117.510544,95.9641728 117.32422,96.3709992 117.100933,96.568008 C116.471672,97.1236584 115.686382,97.518286 115.119229,98.124256 C113.336271,100.028777 112.587035,102.438628 112.243168,104.950033 C112.025638,106.541963 112.073809,108.174757 112.060479,109.789559 C112.056843,110.283911 112.109862,110.870973 112.368293,111.259196 C113.349904,112.731883 112.600668,114.331437 111.415463,115.482078 C108.646046,118.171584 105.162839,119.52137 101.754466,121.05566 C99.4949413,122.072421 97.1163509,122.924194 95.4482171,124.939113 C95.2921894,125.127583 94.9686211,125.169668 94.7304894,125.295315 C93.4071315,125.992775 92.0783202,126.682001 90.7658691,127.401114 C89.7424481,127.961644 88.6978195,128.499301 87.7371126,129.156506 C84.6141334,131.291886 81.5178153,133.465693 78.4296773,135.651698 C77.6210595,136.224427 76.8824271,136.896575 76.0722946,137.554694 C77.462608,138.431475 77.4638199,138.449468 76.6327827,139.633961 C75.2064162,141.666263 75.2567086,143.880935 75.7287305,146.200211 C76.1035001,148.042519 76.3058818,149.919897 76.5937,151.780502 C76.8139567,153.206834 78.1391323,153.546263 79.0562121,154.283369 C79.3549371,154.523073 79.6775965,154.733196 79.989349,154.957042 C79.9596583,155.073234 79.9302706,155.189122 79.9005798,155.305314 C77.680138,155.736538 75.461514,156.179655 73.2386484,156.595936 C70.5137673,157.105841 67.754348,157.353474 65.0658228,156.586177 C63.5200875,156.144889 62.1085664,155.244016 60.6043375,154.629812 C59.4321599,154.151623 58.2215056,153.75852 57.0020652,153.419092 C56.7609039,153.351999 56.3682592,153.654831 56.1080109,153.865564 C55.1951727,154.602365 54.341413,155.414797 53.4016108,156.112562 C52.9895763,156.41875 52.3951559,156.46297 51.9346467,156.720057 C49.6578531,157.992686 47.3001675,159.152476 45.1639503,160.634007 C43.4318906,161.834663 41.8134433,161.920969 40.0429068,161.063401 C39.6975249,160.896279 38.9791912,160.739831 39.2188378,160.118308 C39.4575754,159.497394 40.0722946,159.537345 40.4637273,159.578516 C41.3483896,159.67214 41.6537799,159.417493 41.7043753,158.516924 C41.7546678,157.62581 42.0936874,156.753604 42.1773061,155.860964 C42.3872619,153.605732 42.5087515,151.341655 42.7029531,149.084287 C42.7499129,148.542055 42.9641102,148.016901 43.0668159,147.477109 C43.2522314,146.500909 43.2704094,145.625958 42.649631,144.6769 C42.2024523,143.994993 42.2612279,142.970608 42.1251959,142.094437 C42.0733886,141.759278 42.2494122,141.272855 42.0767212,141.092619 C41.3374829,140.319527 40.6133928,139.419264 39.6896478,138.956934 C36.6945205,137.4568 33.5806303,136.199115 30.5842912,134.70142 C29.3054694,134.062514 28.2408449,133.002143 27.0165571,132.236065 C24.8812489,130.900308 22.6832266,129.667021 20.5391323,128.344683 C19.3808912,127.630144 18.3156608,126.758548 17.1434833,126.070542 C15.941009,125.363933 14.7118738,124.619202 13.39609,124.218475 C12.2269421,123.862579 11.4783118,123.140721 10.8020905,122.273089 C9.79866526,120.985517 9.4578279,119.501547 8.97096066,118.020931 C8.20536419,115.695555 7.27768062,113.397322 6.1467065,111.231444 C5.42291942,109.846283 4.25740711,108.677343 3.19278266,107.499865 C2.77468883,107.038144 2.10634462,106.791121 1.52676962,106.495608 C0.683916684,106.064994 -0.269519041,105.747523 0.0707123922,104.272396" id="Fill-1" fill="#000000" mask="url(#mask-2)"></path>
            </g>
            <path d="M71.8501737,87.8617023 C73.9977895,87.3811802 73.9977895,87.3811802 73.7749437,86.2164166 C73.0870284,86.8050409 72.4684496,87.3333716 71.8501737,87.8617023 M61.4506021,115.717975 C61.2995151,115.696659 61.1484281,115.675647 60.9976438,115.654331 C60.4214542,116.013048 59.8852315,116.533157 59.2587805,116.693636 C58.2889774,116.9409 58.1572682,117.625446 58.1345598,118.372113 C58.0876289,119.856616 58.1372848,121.343859 58.1179069,122.829275 C58.1082179,123.589645 58.0349453,124.348797 57.9877117,125.141141 C60.3969291,124.754104 60.6875975,124.438324 60.887432,122.278715 C60.9815965,121.265295 61.1668976,120.260705 61.2525843,119.246066 C61.351896,118.073081 61.3873212,116.89431 61.4506021,115.717975 M66.1382362,123.563761 C66.2433007,123.405414 66.3192984,123.342989 66.3235373,123.275692 C66.5082329,120.492135 66.6886895,117.708274 66.8606683,114.923804 C66.8700545,114.776419 66.8588517,114.565392 66.7680178,114.482869 C65.6698361,113.475538 64.554396,112.486479 63.3578109,111.41581 C63.4798311,112.606762 63.695713,113.57481 63.6551405,114.531895 C63.5443232,117.12239 63.3550859,119.710145 63.1313318,122.293636 C63.0601786,123.113386 63.3578109,123.504077 64.1111266,123.554017 C64.8050975,123.600303 65.5042157,123.563761 66.1382362,123.563761 M62.1463897,93.8447806 C62.5560505,93.2287501 63.0408007,92.3852481 63.6369738,91.6315776 C64.4450926,90.6105443 65.3479814,89.6717296 66.7722567,89.5691086 C67.6618232,89.5048563 68.5710704,89.4741005 68.3936415,88.1509899 C68.3748692,88.0118273 68.5410952,87.8038447 68.6755294,87.6942199 C70.2357527,86.4216586 71.8241346,85.1828983 73.3574106,83.8783631 C73.6226455,83.6527187 73.8899999,82.9858344 73.7664659,82.8250514 C73.4028275,82.3500106 72.7912127,81.6563291 72.370349,81.7163183 C71.2982064,81.869184 70.276628,82.3853341 69.0836763,82.8092167 C69.729808,83.3923598 70.7353391,83.8040618 69.7555443,84.5982326 C69.0906402,85.1375258 68.5495731,85.6871724 68.2888798,86.5160577 C68.22681,86.7139914 68.0163781,86.9344591 67.8222964,87.0096739 C66.1188583,87.6689453 64.429348,88.3875968 62.678979,88.8857807 C62.0994589,89.0502179 60.9431435,88.8218329 60.7578424,88.4326648 C60.0738632,86.9959708 58.689252,87.000234 57.5650313,86.4496738 C57.1190369,86.2313378 56.4214327,85.81385 56.4265799,85.4980696 C56.4577662,83.7242793 55.2287838,84.059853 54.1648162,83.8634419 C52.923117,83.6341434 52.9991147,84.8799075 51.9857113,85.2916096 C56.9803639,86.555949 59.3005641,90.4476296 62.1463897,93.8447806 M47.6653489,89.0392554 C48.7159942,88.9201907 49.7814757,88.8197013 50.8396904,88.6668356 C51.1663896,88.619636 51.642662,88.5075751 51.7446987,88.2843668 C51.8715634,88.0066506 51.8022268,87.4640078 51.5975478,87.2514575 C51.3501769,86.9959708 50.8481683,86.8214846 50.4999717,86.8790377 C50.1081749,86.94329 49.7893479,87.4256391 49.3945233,87.5075532 C48.9358122,87.6019524 48.3417586,87.5982982 47.9747897,87.3668681 C47.7540634,87.228619 47.7891858,86.5675205 47.824611,86.1515553 C47.9593479,84.5674768 48.4086729,83.1219519 49.3875594,81.802191 C50.4905855,80.3146433 51.1243033,80.0244421 52.8383387,80.6922399 C53.8953423,81.1039419 54.9275181,81.6615059 56.0241858,81.8728381 C59.2048857,82.4864325 62.3907329,82.4154809 65.5387325,81.5515765 C67.7562905,80.9428544 69.9017868,80.2074546 71.8080873,78.8377535 C72.9026356,78.050282 74.5237177,78.2871934 75.4717207,79.2820385 C76.6153193,80.4806031 77.8252266,81.6660736 78.0053805,83.4602662 C78.0289973,83.6993092 77.9529996,83.9508373 77.908491,84.1941434 C77.7107759,85.2861283 77.2429814,86.4125232 77.3819573,87.4582221 C77.519722,88.4975261 77.1718282,89.1939482 76.4784629,89.5377437 C75.045407,90.2472599 73.823994,91.5703704 71.9727994,91.2631164 C71.5479996,91.1927738 71.0711217,91.4738396 70.6130161,91.5654982 C69.9232842,91.7031382 69.1602795,92.0639865 68.5495731,91.892241 C66.9063881,91.4312078 66.3516958,92.2546119 65.7004169,93.5698051 C64.610713,95.7708276 64.3581948,98.1362873 63.9146227,100.4716 C63.3438831,103.477452 63.927945,106.42849 65.0691213,109.132264 C66.0658718,111.493766 67.9194887,113.516952 70.4794903,114.178051 C71.8253457,114.525805 73.4606584,113.998692 74.9067339,113.631449 C76.4115486,113.249285 77.8509629,112.596104 79.3064245,112.029709 C79.5583372,111.931351 79.8008636,111.711188 79.9586118,111.48463 C80.4700066,110.750448 80.8908703,109.948056 81.4431403,109.248589 C81.7992091,108.798213 82.3445152,108.504967 82.7684067,108.102096 C84.0963981,106.840802 85.8319308,106.612112 87.4605824,107.515299 C88.1388088,107.891677 88.3834547,108.286326 87.9383686,109.123738 C87.2985953,110.325652 86.5168183,111.068969 85.1676324,111.54401 C83.0802697,112.279715 81.1881998,113.57481 79.1020483,114.315995 C76.878132,115.106207 74.5437011,115.636974 72.2180509,116.060248 C71.1946558,116.246305 70.0734629,115.887284 68.8375165,115.759084 C68.8375165,118.725349 68.7721161,121.627361 68.8780889,124.523283 C68.9089725,125.370744 68.6918795,125.607655 67.9694473,125.579944 C67.3445102,125.556801 66.7219953,125.489199 66.0976637,125.442304 C63.38385,125.237671 60.8607874,125.752908 58.4851786,127.179553 C57.9592504,127.494724 57.0148807,127.303794 56.3336266,127.104643 C55.6402613,126.901837 55.7002116,126.285806 55.7616759,125.558933 C55.9615105,123.171548 55.9687772,120.767111 56.0329664,118.369068 C56.0499221,117.752733 55.7438119,117.540183 55.0946524,117.464054 C51.4119439,117.031341 47.7316577,116.56909 44.0652993,116.016702 C42.9238201,115.845261 41.8177662,115.393364 40.7159511,115.008459 C39.6607642,114.639998 39.1605723,113.838823 39.1844918,112.71121 C39.2002364,111.994081 39.553883,111.528785 40.2729846,111.664902 C42.8399502,112.152428 45.4011629,112.678932 47.9499618,113.256289 C48.3193529,113.339421 48.7153886,113.715799 48.9158288,114.063554 C49.5958718,115.241107 50.4766577,115.605609 51.7755822,115.193298 C52.3284578,115.018203 52.9094919,114.876909 53.4847732,114.840976 C55.4286183,114.720085 56.9846028,113.61531 58.6613963,112.830579 C59.7014443,112.343662 59.9394291,111.301922 60.0750743,110.267186 C60.5695135,106.508882 60.8662375,102.74936 60.3730095,98.9581688 C60.1852861,97.5178207 60.2031501,96.0518934 60.0738632,94.6027144 C59.9194456,92.8706424 58.7025743,91.812763 56.9864195,91.5408326 C54.9087457,91.2122627 52.8664972,90.6617025 50.7930624,90.3020723 C50.139664,90.1890978 49.4344902,90.4065203 48.7514194,90.4263137 C47.9169588,90.4500658 47.5321259,90.033187 47.6653489,89.0392554" id="Fill-4" fill="#000000"></path>
            <path d="M65.8335432,69.4193959 C65.4004921,69.5482536 64.2188013,70.016063 63.4051009,70.0366056 C59.6147995,70.132782 56.2958203,71.5430579 53.3992941,74.0265256 C52.1183931,75.1252398 50.9861602,76.4430743 49.90103,77.7668227 C48.5462365,79.4192515 47.1846719,81.0931566 46.0559717,82.9167732 C44.7465146,85.032654 44.6679118,87.5665443 44.6084446,90.0027018 C44.5301362,93.1625168 44.5866596,96.3316692 44.7170754,99.4908617 C44.8201127,101.994872 45.0082294,104.508842 45.36886,106.983595 C45.6700234,109.046874 44.7273791,110.456839 42.9919363,110.166131 C41.996007,109.999301 41.818194,109.383958 42.2989367,108.658745 C42.9580812,107.664299 42.8064691,106.674212 42.5668337,105.657668 C41.9259416,102.937027 41.1752412,100.241909 40.6085359,97.5041498 C40.0291718,94.7063192 39.491317,91.884211 39.198691,89.0421828 C39.0965369,88.047115 39.5269385,86.7432867 40.1431016,85.9567567 C42.6051047,82.8143718 45.2004676,79.7859046 47.818793,76.7860724 C49.2298155,75.1694374 50.7064874,73.5945099 52.2956173,72.1795652 C55.6145965,69.2229968 59.6103837,68.4707044 63.8143062,68.5818208 C64.468446,68.5989396 65.3616323,68.6356671 65.7737816,68.7810211 C66.1856365,68.9263751 66.2660056,69.2905381 65.8335432,69.4193959" id="Fill-6" fill="#000000"></path>
            <path d="M53.877551,68.796846 C57.2481288,63.5998634 70.0000834,63.6284859 75.9514139,66.8977757 C76.0344905,66.6877663 76.1035217,66.4724319 76.2018389,66.2767338 C76.377551,65.928937 76.571201,65.5927889 76.7567785,65.2519813 C76.3124085,65.1661138 75.870728,65.0296576 75.4230708,65.0063602 C74.641912,64.9657562 73.6061444,65.6154206 72.9929317,64.9950444 C72.3806156,64.3743353 73.0592735,62.436325 77.7327787,61.5926266 C77.5053641,61.2468267 77.0299151,60.8870484 77.0104907,60.4953194 C76.9904687,60.1032576 77.5812686,59.8962436 77.9058051,59.8280155 C79.8300139,59.4239722 81.757211,58.9926376 83.7023383,58.7852908 C84.3818927,58.7127361 85.2622652,59.0515467 85.792999,59.5461171 C87.2584936,60.9110115 88.6083384,62.4346609 89.9548961,63.9499899 C90.2423768,64.2741565 90.8555895,64.7188039 90.5089391,65.3015715 C90.161691,65.8843391 88.1328894,65.2117101 87.5884092,64.0448436 C85.9427161,60.5196153 81.226776,59.1826777 78.4263784,61.8109564 C79.5329703,61.8109564 80.3565639,61.7317453 81.1613308,61.8369164 C81.7655784,61.9154619 82.4206282,62.1031723 82.9187888,62.4682757 C83.7761509,63.0956412 84.5501377,63.8717772 85.3178488,64.6359317 C86.1644529,65.4769676 86.9581628,66.3842346 87.7904227,67.2435756 C88.1278092,67.592038 88.4720689,67.9721183 88.8766937,68.1937764 C89.7448139,68.6683775 90.1099922,69.312384 89.6713001,70.4536234 C87.0083674,71.0833187 86.4363942,67.8785959 84.5014273,66.8228912 C84.2085674,67.4915264 83.9327413,68.1182263 83.6608,68.7386025 C84.3777089,69.4448463 86.0413322,69.0398045 85.3997301,70.9558487 C83.1402267,71.2743573 81.0495659,70.3338083 78.8692543,69.8901594 C76.1734495,69.3413394 73.9692308,67.4505895 71.2653575,67.0122657 C65.7368807,66.1169802 60.2684701,65.6763267 55.0038661,68.4220908 C54.6524343,68.6051418 54.2540851,68.6743683 53.877551,68.796846" id="Fill-8" fill="#000000"></path>
            <path d="M85.6222769,92.3306826 C85.993718,96.202581 85.2402232,99.8693337 83.3672595,103.296851 C82.977166,104.0106 82.3815739,104.800442 81.662168,105.136467 C80.422423,105.715684 79.1929691,104.730437 79.3978245,103.412816 C79.5586215,102.376739 79.8011034,101.324225 80.2072766,100.353892 C82.0898881,95.8492068 82.3516656,91.1588558 82.0776675,86.4082394 C81.9754006,84.640455 81.7718316,82.8760186 81.5364248,81.1191915 C81.243131,78.9198095 79.9085158,77.1444158 78.7774696,75.2862333 C78.5337013,74.8862903 78.3423529,74.385905 78.37001,73.9451764 C78.3812658,73.7579885 79.1128922,73.3909175 79.3511933,73.4843593 C79.7972443,73.6599812 80.1587159,74.0821432 80.4880282,74.4553015 C80.9585203,74.9891676 81.3553673,75.580864 81.8075285,76.1308617 C83.526127,78.2206703 84.1484114,80.739337 84.6610323,83.2306104 C85.2772065,86.2259215 85.7499497,92.3242908 85.6222769,92.3306826" id="Fill-10" fill="#000000"></path>
            <path d="M39.8784804,74.2304991 C39.405183,75.5553329 38.5894943,76.5201574 37.2372551,76.9576406 C35.9169174,77.3853315 34.5993298,77.8233906 33.2932929,78.2971627 C32.4762291,78.5935223 31.3005483,77.8784 31.1443408,77.5094626 C30.9875834,77.1405252 32.1511636,76.8401336 32.6577377,76.6042556 C33.2503908,76.3280565 33.5168785,76.1823248 32.8568471,75.561381 C32.4622034,75.1901396 32.3714491,74.4643611 32.0851605,73.7512549 C31.6220385,73.9206032 31.0178348,74.2091866 30.3831047,74.343686 C30.0830655,74.4073356 29.3047785,74.2785963 29.3949828,74.0790072 C29.4851871,73.8791301 29.6342442,73.4379029 29.8440791,73.2080731 C30.5087857,72.4808545 31.1459909,71.6879703 31.9295031,71.1289481 C32.7091651,70.5728059 33.6648355,70.2937268 34.5195761,69.8444353 C35.0178997,69.5826367 35.44582,69.1681941 35.951569,68.928284 C36.3825145,68.7243748 36.8794631,68.5697149 37.3461602,68.5714286 C38.7630275,68.5777791 40.1862201,68.6031237 41.5934619,68.7566316 C42.3381972,68.8375617 43.0653317,69.1719382 43.7773405,69.4553374 C43.9371231,69.5192751 44.1046061,69.8637318 44.0790298,70.0506486 C44.0542787,70.2346853 43.807867,70.4959079 43.6263584,70.5293168 C42.3351721,70.7683629 41.4606305,71.4250196 40.9397558,72.7605096 C40.7827234,73.1622799 39.9554841,73.4137103 39.4161835,73.4546073 C39.1606964,73.4739038 38.6972994,72.8725445 38.6150705,72.4857506 C38.4646383,71.7712044 38.0977709,71.5364785 37.5012676,71.635553 C36.6998796,71.7686124 36.8731378,72.3725638 37.0106443,72.93101 C37.0906731,73.2558823 37.1599764,73.5839226 37.2529308,73.9041868 C37.6527998,75.2808619 37.9146122,75.3373113 38.8603821,74.3422459 C39.0671919,74.1242244 39.4230588,74.0617268 39.7109975,73.9275154 C39.7671002,74.028318 39.8223778,74.1296965 39.8784804,74.2304991" id="Fill-12" fill="#000000"></path>
            <path d="M89.4216894,100.408163 C90.6954062,100.433846 91.7796932,100.814916 92.6714744,101.856356 C92.8980725,102.120569 93.1344112,102.7315 93.0398244,103.005985 C92.5399758,104.450647 92.0280795,105.915534 91.3357251,107.219581 C90.8435665,108.146091 90.026378,107.810608 89.8297709,106.672536 C89.7213422,106.046837 89.7362095,105.377156 89.7574851,104.73059 C89.79978,103.44452 89.1745847,102.735352 88.1807831,102.925405 C87.6622222,103.023964 87.1254617,103.054462 86.6038248,103.004059 C86.3133999,102.976129 85.9363346,103.021074 85.7530568,102.565524 C85.569779,102.109974 86.0816752,101.677539 86.3408275,101.559719 C87.3466767,101.102885 88.3909759,100.780565 89.4216894,100.408163" id="Fill-14" fill="#000000"></path>
            <path d="M41.6326531,110.035633 C41.0877209,110.670327 40.5419173,110.672065 39.8950282,110.327053 C38.5164311,109.59126 37.5320094,110.162514 37.5633808,111.709129 C37.5819712,112.591502 37.1872149,112.856561 36.4720641,112.498803 C35.6436277,112.083978 34.540692,111.942034 34.3452019,110.734057 C34.1020739,109.236109 34.5764205,108.554486 36.2838359,107.99453 C38.3067078,107.330577 40.2720655,108.059129 41.6326531,110.035633" id="Fill-16" fill="#000000"></path>
            <path d="M29.3877551,70.5978516 C29.8020543,69.2452948 30.0139048,67.7177058 30.6920769,66.5953954 C31.2549221,65.6642685 32.3022656,64.8954033 33.2505783,64.6136989 C35.0372046,64.0833434 36.9021779,63.8865259 38.7442739,63.688206 C39.7903638,63.5751487 40.7020101,64.1160211 41.3259661,65.1932587 C41.4538285,65.4126126 41.6813483,65.7555407 41.6233715,65.8798663 C41.5014635,66.1390343 41.2306961,66.427124 41.0009825,66.4522896 C40.6584492,66.4902258 40.2751754,66.3782952 39.9501918,66.2145311 C37.1848541,64.8229113 34.6984319,66.0357427 32.2941175,67.4964739 C31.7660583,67.8176169 31.5717576,68.8587964 31.1267464,69.4665267 C30.6980313,70.0528474 30.1445877,70.5077062 29.6453602,71.0204082 C29.5594918,70.879556 29.4733101,70.7383282 29.3877551,70.5978516" id="Fill-18" fill="#000000"></path>
            <path d="M57.1894412,9.79591837 C58.5874101,9.80580846 59.1973219,10.8645689 58.4608533,12.1934598 C57.0486533,14.7389532 56.484993,17.6065141 55.8425525,20.456956 C55.2888034,22.9139534 54.6382307,25.3448373 54.151826,27.8186634 C53.8013808,29.6010601 53.6278101,31.4313317 53.4201859,33.2470957 C53.3307322,34.0302128 52.8806681,34.4146627 52.0151015,34.2469555 C51.3876546,34.1253823 51.3683408,33.6036911 51.4829534,33.0402181 C52.5274274,27.9051284 53.5698685,22.7691682 54.6278114,17.6375602 C54.7630085,16.9829799 55.0560204,16.3661192 55.153098,15.7077669 C55.313454,14.6107065 56.0044333,13.5676142 55.1083711,12.3652291 C54.5581798,11.6262149 56.0882962,9.78810926 57.1894412,9.79591837" id="Fill-20" fill="#000000"></path>
            <path d="M69.558758,34.2818005 C68.7043606,34.3316055 68.4461036,33.9040184 68.6250866,33.1161942 C69.3621585,29.8601938 70.0639975,26.5993826 70.7838053,23.3408353 C71.5208772,20.0064487 72.238571,16.6689492 73.0207409,13.3410711 C73.2310812,12.4437325 74.1760271,12.0512353 75.1664234,12.336765 C75.7893408,12.5164591 76.0631003,12.7691628 75.8432471,13.4137977 C74.8267785,16.3944558 73.8363822,19.3838864 72.9795185,22.3962386 C72.337223,24.6507629 71.8266986,26.9355662 71.4239867,29.2260292 C71.2030766,30.4759644 71.3151171,31.7646682 71.3027856,33.0361101 C71.2936251,33.9408062 70.8771724,34.2982135 69.558758,34.2818005" id="Fill-22" fill="#000000"></path>
        </g>
    </g>
</svg>