<svg height="162" viewBox="0 0 118 162" width="118" xmlns="http://www.w3.org/2000/svg" xmlns:xlink="http://www.w3.org/1999/xlink"><mask id="a" fill="#fff"><path d="m.00000864.03547912h117.47598236v161.59717388h-117.47598236z" fill="#fff" fill-rule="evenodd"/></mask><g fill="#000" fill-rule="evenodd"><path d="m73.5722146 42.7174974c-2.7930486.0387309-5.6012455-.0250073-8.4836693 1.0545768 1.3800127.6663535 7.0524553-.0430003 8.4836693-1.0545768m-41.5127793 11.4856773c-3.0190616-1.164365-5.6618388-2.1829557-8.0849653-3.1170704-.0660467-.1052137.0415064.0936249.1745088.2729457.1154302.1564482.2581274.2930735.3920387.4348833 1.6702545 1.761491 3.8816074 2.3641063 6.1332547 2.8368056.3453819.0725822.7686262-.2259808 1.3851631-.4275642m46.1502882-47.50993604c.0178751-.15156873.0354471-.30313747.0527162-.45440123-3.3220282-.73924066-6.6449653-1.47817636-10.0266779-2.23053061v1.32142318c3.3611109.45958567 6.6679908.91185213 9.9739617 1.36350866m24.1058365 47.23851524c-.075742-.1280863-.151483-.2561725-.227225-.3842588-.287818.0201278-.609266-.0378159-.857395.0725822-2.2413469 1.0005976-4.4802697 2.0088194-6.6907136 3.0768148-.3053903.1479091-.5244351.6038352-.6583463.9640015-.3890091 1.0460378.0230254 2.4110713-1.2873049 3.1048718-.1496655.0789865-.0784683.5803527-.1099768.885625.1060383.0576388.2120765.1152776.3187208.1726114 3.1705449-2.6306476 6.3410898-5.2616003 9.5122408-7.8922479m-32.0323502-9.2822888c.0218136.1384551.0430212.2766053.0648348.4147555 4.1966926 1.4214524 8.7387671 1.7596611 12.7297454 4.2625275-.0354471-.3748048.0045445-.5647994-.0715001-.6672684-1.1949-1.6041278-2.5470397-3.0444882-4.3175762-4.0206885-.6486514-.3571167-1.3475952-1.0012075-1.9759479-.9475333-2.1546981.1835903-4.2881885.6190836-6.429556.9582072m-52.2605176 35.5042895c.8655754-2.2854247 1.4890806-4.3375494.4223354-6.4521925-.6316853-1.2503658-.6647086-2.823387-1.9641322-3.736154-.1554218-.1091783-.089981-.521799-.1487565-.7889503-.0581696-.2644067-.0608963-.633722-.2329813-.7651629-.9222302-.7044744-1.8896024-1.3488703-2.8421292-2.0143088-.0917989.0484898-.1826888.0966746-.2744877.1451644.2844856 2.0463304.4589943 4.1173631.9013255 6.1283173.2202567 1.0024274.9940332 1.8694493 1.3969787 2.8474794.2647928.642261.4898969 1.0759245 1.2966969 1.0198105.3696192-.0253123 1.0285714-.1506538 1.2327708.4574509.2038965.6084097-.7304523.8237166-.9631306 1.0859885.3965832.6992899.7268167 1.2814724 1.1755102 2.0725575m61.4819104-37.08341c.0730149.1384551.0914959.2400092.1475447.270201 3.2284115 1.7425829 5.0540879 4.5440123 6.1538565 7.9785537.2420703.7572337 1.0328129 1.3360616 1.6145087 2.0509049.2484326-.6706231.3699222-1.11862.5759394-1.5230066.2641869-.5181394.7983169-.9746754.8658784-1.5034886.3123585-2.441263-.1793562-4.7556596-1.8808163-6.5732646-1.2215611-1.3049549-2.6960993-2.4071066-4.7087061-1.7273346-.905264.3058822-1.793562.6636088-2.7682053 1.0274348m-41.9072418 7.0127223c-.5919966-.1347955-1.1906585-.3064921-1.8011361-.4025568-1.4060677-.2217112-2.8836356-.2098175-4.2106291-.6578144-1.5593688-.5260685-3.0199705-1.3845514-4.4696655-2.1966792-1.8729391-1.0490874-3.1923585-2.5001217-3.0293625-4.8706323.0206018-.2997828-.1093709-.6102395-.2069261-1.1122156-.734088 1.3275225-1.0303892 3.9282834-.769838 5.6107878.1651168 1.0679954.9982748 1.5586877 1.6917652 2.2372399 2.3704103 2.320496 5.4006817 3.1539715 8.4342857 4.0072699.2417673.0677028.543825-.0204328.8037703-.0921001.7125773-.1967039 1.4048558-.5062457 2.128037-.6187786 1.113705-.1723065 1.5508857-.7669927 1.4296991-1.9045206m52.1859878 4.7102195c1.1470314-.8221918 2.2837619-1.4684174 3.2017505-2.347638.7462066-.7148433 1.6878266-1.4107786 1.6087524-2.720918-.0318115-.5242388.1739028-1.0969673.3902209-1.5952838.5259499-1.2079754.1190658-2.2354101-.5335241-3.2140501-.2090469-.3138113-.552611-.5364374-.833461-.8020639-.9810057-.9280154-1.911113-1.918854-2.9587713-2.7623935-.7089417-.5712037-2.9293835-.2848394-3.5325899.3080169.0569577.0966747.0945255.2217112.1772354.2915487 2.7733558 2.3329997 3.8752451 5.3500409 3.5025963 8.9132784-.0772565.7374109-.3050874 1.6550574-.8046792 2.1036643-.6850074.614509-.6313823 1.061896-.21753 1.825839m-46.7347107-7.2966469c-.5677593-.5092953-.9855502-1.211635-1.4842331-1.2756781-2.5034126-.3217405-4.4160404-1.8904921-6.5655881-2.9465937-1.5024111-.7377159-2.7006438-1.7316042-2.7212455-3.6416142-.0033326-.2732507-.4489964-.8041987-.5959352-.7724821-1.1882348.2549526-2.4558468.428479-3.495931 1.0012075-.9285924.5117351-1.385466 1.6370643-1.1179465 2.7669681.3187208 1.3406361 1.1340038 2.4162557 2.3613212 3.0399137.960707.4885576 1.9947318.8609226 3.0311803 1.1634502 1.9441364.5672391 3.9873428.8618375 5.8517989 1.6148017 1.8508226.7474747 3.2065979.1454693 4.736579-.9499731m30.4381401 102.7196855c-.5101956-1.654447-.9373785-3.110971-1.430911-4.544012-.0551399-.158888-.4892909-.179016-.7437828-.27569-.4602062-.175357-1.0279655-.252818-1.3366884-.577303-.2102588-.221102-.0618052-.79261-.0663497-1.208281-.0051505-.381819-.0018178-.763943-.0018178-1.146067-.1042205-.057029-.208441-.113143-.3132674-.169867-3.2032653 2.433944-7.0200379 4.079548-9.4086262 7.707438.2793352.179931.5450369.352237.7525689.486728.3341721-.585232.4995919-1.329657.8898128-1.479701 2.0135157-.774922 5.6866821-2.526959 6.2089964-2.09787.5229203.429089-.5720008 1.464758-1.195506 1.868229-1.0010015.648361-2.3349632.875866-2.8896949 2.456207.9694929-.086916 1.8783926-.014334 2.680648-.273861 1.4209131-.45928 2.6179339 1.003038 2.1843888 1.566922-.4332422.563275-2.9096907.488253-4.3527204.730702.8104355 1.358934.8437619 1.195166 2.2598275 1.485495 1.947469.398897 3.8140459.180541 5.6927414-.238179.4011277-.089356.7640817-.353457 1.1443047-.536743-.5665475-.607799.4717189-1.809065-.8340669-2.175941-.8570924-.240619-1.5696697-1.269274-1.041902-1.853286.5277677-.584317.9825205.150044 1.802045.27508m-23.6662318-1.894456c.2905449-.922526.9085967-.974066 1.738422-.726432 1.6223859.483678 3.2647675.901483 4.8992721 1.346735.1066442-.069228.2135914-.13815.3208415-.207683-.2108647-.456231-.3005428-1.146677-.651681-1.330572-2.3888912-1.250061-4.8129266-2.438213-7.2702882-3.544025-.8028614-.361386-1.7414518-.4175-2.5279529-.592856-.6353209 1.413523.0772565 2.174417.932531 2.927686.2072291.182065.2057143.604445.3002399.916427-.2672165.074412-.5832106.27996-.7916516.200363-.8204334-.311676-1.1024953.124122-1.1982327.797794-.2487355 1.750513-.47081 3.504379-.6813718 5.259771-.0206017.169562.0696823.473919.1854155.519664 1.0943152.431529.9679782 1.341856.7780181 2.555016 1.0246329-.067398 2.037753.137235 2.7563897-.23452 1.9038418-.982909 3.6822554-2.211927 5.5052051-3.35159.3293247-.205548.6332001-.452877.9485883-.680687-.0969493-.106129-.1929897-.212562-.290242-.318996-.995548.342478-1.9720092.787121-2.9966421.97925-.4599032.086306-1.0391752.067093-1.5251336-.520579-.4850494-.587367.4035515-.722163.7104566-.896604.8783-.499536 1.8123459-.901178 2.7651756-1.361069-1.2918493-.765163-3.0269387-.216832-3.9073595-1.737093m16.3208079-6.737642c.1039175.072277.208138.144859.3120555.217136.2390406-.086.4992889-.134795.7128803-.262881 3.0645066-1.834378 5.579129-4.434834 8.6790827-6.239631 1.6172354-.941129 3.0102756-2.263162 4.5611614-3.331157 4.283341-2.951168 8.5475952-5.935883 12.9121313-8.761405 4.1245865-2.670293 8.3785397-5.137174 12.5482687-7.737629.758931-.47331 1.752358-1.02835 2.014727-1.769116 1.296394-3.660522.859819-7.453095.466266-11.218526-.073015-.699899-.494442-.561444-.927381-.330584-1.887178 1.006697-3.823135 1.930138-5.653053 3.032899-4.1097408 2.47725-8.1785816 5.024031-12.2383333 7.585451-1.0155439.640432-2.1047086 1.298856-2.8418262 2.210403-.7713529.953633-1.2418599 2.091161-2.7585104 1.792293-.0745298-.014944-.1887482.128086-.2726699.210122-1.8665769 1.831024-3.876457 3.539145-5.5624658 5.526007-2.4806901 2.924331-4.737185 6.041707-7.0669977 9.093819-.326295.427869-.5410983.946009-.7822597 1.435176-.8077088 1.637064-1.611479 3.276263-2.4022217 4.921867-.5780602 1.203096-1.1349127 2.416865-1.7008542 3.625756m-10.5199074-137.5664662c-.4399075 1.33819638-.8776941 2.67669773-1.3191164 4.01397921-1.3279024 4.02373819-2.7067031 8.03070309-3.9585609 12.07792379-.4368778 1.4104736-.5192847 2.9289056-.8498212 4.3784151-.153907.6767223-.5877551 1.2860469-.7668083 1.9606345-.6019945 2.2668218-1.213078 4.5354733-1.6926741 6.830352-.3423522 1.6346245-.4789901 3.3128594-.7262108 5.1045421h3.0293625c.162693-.6172537.1851126-1.3028201.516558-1.7621008.2547948-.3534571.8879949-.5254586 1.3745592-.5809627.3214475-.036901.9858531.3104567.9728256.4266492-.0521103.4687347-.2684284.9371644-.5023186 1.3622888-.1572396.2857543-.4450578.4989265-.6750094.7450351 2.3146644-.1902996 4.6520513.5596149 6.8203829-.5754733.1890511-.0988094.4605091-.0536742.6934904-.0478798.6347149.0155533 1.2836693.1476041 1.8999032.0536742 3.4295814-.5211891 6.8543152-1.0747047 10.2732927-1.6626816 1.2645824-.2180516 2.5131075-.5422318 3.7570881-.8639722.1826889-.04727.299028-.3525422.4462698-.5382673-.1405765-.1027739-.3487145-.3250951-.4111256-.2894139-.7846834.446777-1.1821755-.2991729-1.7578119-.5156997-1.0482643-.3949326-.6644057-1.0091367-.3726489-1.6687809.2405554-.5449765.5565496-1.0942225.6325942-1.6687809.2687313-2.0185783.3771933-4.0600292.6780391-6.0728132.5350389-3.5766561 1.1400631-7.1435533 1.7669009-10.7052661.3468967-1.9688687.4477846-4.0865614 2.662773-5.27166421-.5786661-.15888795-.9834294-.31076165-1.4024322-.37785445-3.4304902-.55046592-6.8582537-1.12380439-10.2984388-1.60961725-1.9314118-.27264074-3.8837282-.53613246-5.8272586-.5413169-1.97413-.00548941-3.894332.18755487-4.9638039-2.20094879m13.6904523 45.9722911c-.1405765.1235118-.2811529.2473285-.4223354.3708402-.2784262-.2003635-.5453397-.419635-.8380054-.5974309-.968887-.5904166-1.7359983-1.7727747-3.1720598-.9993777-.2666105.1433346-.8404292.0247023-1.1000715-.1872499-1.9123249-1.5583828-4.1785146-2.1176927-6.5316558-2.2509634-1.3466863-.0765468-2.9811908-.1857251-4.0100652.4730042-1.4515128.9301502-3.0211824.8590928-4.4881465 1.3729626-.1030086.0362911-.18996.121072-.461115.2994779.4329391.2079877.7365116.4202449 1.0721986.5022811.7201514.1762711 1.467267.2439738 2.1837828.4303088 1.1697539.3037474 1.4124301.9762002.7765033 2.2006438-.4459668-.2089025-.8801178-.4848979-1.3542605-.6190835-.7822596-.2220162-1.5851209-.4550112-2.3888912-.4946569-.9279865-.0454402-1.865365.1418097-2.8006228.1698667-.3826467.0112838-.7752914-.2064628-1.1518788-.1777959-.2950894.0219577-.8280075.2814848-.8198275.4049965.1211867 1.733129-1.0213002 1.2268834-1.955346 1.2107201-.5871492-.0103689-1.1785399.1521787-1.9504987.2634917.9943362.7654679 1.7160025 1.3217282 2.5512813 1.9652091-1.2685209.6684883-1.6354134.6270127-2.8197096.0579438-.2650958-.1268664-.6934905-.1512638-.9473764-.0228725-1.6999453.8612275-3.3986788 1.7334339-5.0419693 2.6971305-.6238081.3659607-1.4024322.7383258-1.1985357 1.8121155.0478687.2482434-.5183757.6651336-.8607279.9264906-.4780813.3653508-1.1815696.540402-1.4927162.9999877-1.5926952 2.3516026-3.1511551 4.7333969-4.5881254 7.183504-.4901999.8359153-1.0370545 1.127159-1.7878056.7508294-.8298254-.4159753-.2981191-.996633-.0075742-1.5629572.3999159-.7779716.9797938-1.6343196.9307133-2.42266-.0436272-.7102688.4053692-1.8044914-.6904608-2.2875595-.0521102-.0228726.0872544-.3705353.0366589-.5355226-.1020997-.3336341-.1890511-.7480847-.4299095-.949668-1.6520766-1.3763173-3.3904986-2.5525761-5.7209173-1.9563651-.2223774.0570289-.4792931-.0289719-.7028824.0253123-1.2754892.3107617-2.6848895.3360739-3.5180475 1.3982749 1.059171.8343905 2.0250284 1.5705815 2.9621039 2.3427586.6101746.503501 1.1936882 1.0429881 1.7544793 1.6019931.1693583.1686469.1935956.475139.3329602.6867863.7413592 1.1259391 1.5151357 2.2302256 2.2386198 3.3671436.263278.4135356.4511172.8859299.6113865 1.3528348.1578456.4592807.0775595 1.1536912.3765874 1.3848564 1.4648433 1.1317335 1.5808795 1.4577435.9122323 3.1454324-.1411824.3568117-.145121.931675.0518073 1.2293231.5008037.7590635.0808921.893859-.497774 1.1744289-.4396045.2140871-.9279866.5922465-1.114614 1.0216404-.7471155 1.7090366-1.4236398 3.4522295-2.0498716 5.2103658-.5035304 1.4116935-.8961751 2.8621178-1.3815275 4.435139.4229413-.0603835.5732127-.0350712.6416832-.0988094.5826046-.540402 1.2388302-.5291182 1.5830002.1164975.1572396.2955133-.1242163 1.0878182-.4480876 1.3397212-1.8274942 1.4202326-2.2564948 3.4141086-1.7726572 5.4052399.2487355 1.0234702.1932926 1.7590512-.0130276 2.7145137-.2405554 1.1143504.0842247 2.3302549-.6186577 3.3994705-.1778413.271421-.0887692.720332-.1363349 1.237862 1.6284452-.583098 3.0632947-1.096967 4.4987502-1.6111423.100282.1341853.2005639.2686763.3008458.4034713-.262672.356202-.4689922.783156-.8016495 1.050918-.4832316.389138-1.2842752.533997-1.5502798 1.010356-.7831685 1.39736-1.7544793 1.301905-2.9724048.758759-.1972312-.088136-.6401683.189994-.8640606.408046-.2393435.23391-.4414222.582792-.4959562.909107-.0487776.291549.0775594.644396.2138944.927406.1496654.308322.4002188.567239.606236.847809-.3535619.178406-.6925815.397982-1.0628066.524544-.4208206.143029-.869211.202193-1.4478771.329059 3.178119.70173 6.1605217 1.172904 9.0247675 2.041146 3.3568693 1.017676 6.620122 2.356482 9.9054912 3.605018 1.3460804.511735 2.7891101.947534 3.9388681 1.769725 5.1501284 3.681565 10.4487103 7.202107 14.4096949 12.310919 1.874757 2.417781 3.6643804 4.864228 4.9653188 7.668097.869211 1.874634.8049821 4.09998 2.2171092 5.760832.1439091.169562.1711761.567849.0802861.78773-.325689.788951-.0345382 1.367474.380223 2.033217.2105618.339124.0896781 1.330877.0036356 1.345516-.8852682.151263-1.7941679.186335-2.6970082.18786-.12664.000609-.4023395-.401642-.3578035-.530339.281456-.819142-.3250831-1.062201-.778927-1.491289-.3611361-.341869-.5447338-.879221-.7858952-1.340942-.1378498-.264101-.1875363-.583402-.3559857-.820971-.9940332-1.40224-2.1525773-2.707195-2.9872501-4.197265-1.2982117-2.317141-2.4052514-4.744986-3.5453146-7.148433-.542916-1.143932-.9334399-2.361056-1.4684788-3.508953-.8943573-1.918854-2.5079571-3.139638-4.1554892-4.375976-2.6573196-1.995095-5.1198317-4.221052-8.1852472-5.660497-6.1450705-2.885905-12.3213465-5.592185-19.1956575-6.150275-2.0495687-.165902-4.0924721-.403472-6.44318954-.638906.56079108 1.008526.83012834 2.087501 1.51755944 2.619058 2.3413255 1.813031 3.7516348 4.371096 5.5221713 6.627549 1.3948579 1.778264 2.4297917 3.875524 5.1419482 3.804162.25328-.006709.6962171.190299.7298464.358031.0675616.335769-.0103009.758454-.1732969 1.067386-.1457269.27447-.4877761.444032-.9182916.808163 1.4933222 1.113436 2.8703051 2.178686 4.2875826 3.186603 1.4209131 1.011272 2.8645487 1.992351 4.3303009 2.936225 1.3472922.867327 2.7145802 1.707817 4.1130738 2.487008 2.0044267 1.11801 3.9870398 2.307078 6.086295 3.214355 2.409493 1.041768 4.8798822 1.906351 6.8734021 3.719076.9404081.855128 1.8323416 1.853896 2.9327161 2.42022 2.4237324 1.248231 4.9613802 2.273531 7.4617631 3.370194 2.3419315 1.027129 4.6108479 1.425112 6.8325016-.433359.8249779-.689836 1.3454745-1.099712 1.2733684-2.428454-.1227014-2.287865.8477004-4.464721 2.0159394-6.425051.7228782-1.213464 1.7978035-2.208878 2.6618641-3.342746 1.902024-2.494327 3.6892237-5.08106 5.6751694-7.503415 1.7090343-2.083536 3.6107553-4.009404 5.461275-5.971869 1.3930401-1.476956 2.7645697-2.989289 4.2851588-4.325655 1.6060257-1.411389 3.3165748-2.722748 5.0934736-3.908766 1.4799916-.988094 2.4716011-2.813628 4.5566169-2.810578.0584725 0 .1593604-.087831.1678434-.145775.1466359-.969186 1.0815906-.873731 1.6663161-1.228103 1.2570082-.762723 2.5609762-1.44768 3.8385861-2.178686 1.0094845-.577913 2.0001848-1.188762 3.0114878-1.764236 1.28791-.732531 2.594302-1.433041 3.875245-2.177466.189051-.109788.282365-.387004.419911-.586452-.00818-.1302211-.016663-.2601372-.024237-.3906632-2.159848 2.2277862-3.158426-.6867863-4.868066-.4848979.471113-1.8819531.886783-1.985337 3.326269-1.0503073 0-.363216-.032114-.7105738.006363-1.0493924.105735-.9292353-.119066-1.2024859-1.118856-.8956889-.470507.1445545-1.167027-.2101224-1.675405-.493742-.808618-.4516565-1.523922-1.0689103-2.3182998-1.5495387-.8140712-.4928271-2.2213508-.7303966-2.5331033-1.3625937-.3114497-.6321972.8667873-1.6596319 3.5850031-.6736727 0-1.2829973.028479-2.5126254-.019087-3.7398137-.012724-.3278398-.216924-.6727578-.402339-.9649164-.7583257-1.1905922-1.598149-2.3326947-2.2919424-3.558968-.2881212-.5086854-.3790111-1.1905923-.3444729-1.7807039.008483-.1436396.3935535-.149129.8652724-.2479384.1748117-.0369011.8019525.3677905 1.2376184-.1046038.4356655-.4726993-1.3424448-5.2015218-2.9884621-7.2716396-.6889459-.866717-1.1364275-1.5062333-.9531327-2.7233577.2414643-1.6035179.5756364-2.310432 2.0995581-2.8755364.6865222-.2543427 1.4572691-.5004513 1.9617084-.9896188 1.4839298-1.4403604 2.9321098-2.935005 4.2491058-4.5299838 1.723577-2.0881109 2.39798-4.528154 1.93535-7.3951513-.841035.3580315-1.619356.60536-2.313149 1.0018174-1.422428.8133478-2.751845 1.8029665-4.2091145 2.5400724-1.4969577.7569288-2.3507174 2.0359615-3.1129812 3.3961156-.4035515.7203326-.7804419 1.5251413-.0399916 2.4061917.2687313.3189958.1045234 1.0070019.1366379 1.5263612-.1105828.1058236-.2211656.2119523-.3320513.3180809-1.2130781-.5583951-2.5870314-.923136-3.5731875-1.7538668-.5207995-.437933-.3659836-1.6889087-.5289796-2.6455911-.2111677.0384259-.3514412.3949326-.8171008.149129-.4650536-.2458036-.362045-.8493338-.5174668-1.2134647-1.5569451.2183565-1.5442205.2119522-2.2907301-1.3019053-.1248222-.2534278-.3829497-.549856-.6328971-.6129842-1.2254997-.3107617-1.3821334-.6904459-.805891-1.8816481.1236103-.2552576.0166631-.9203912-.0742268-.9383843-.8473975-.1683419-.7749885-.7178929-.7128803-1.3558845.0312055-.3098467-.0445361-.7218575-.236011-.9453985-.6350178-.7422903-1.3736503-1.3946153-2.0183631-2.1295864-.6874311-.7843759-1.449089-1.2338976-2.5473427-1.1988264-.4217295.0134186-1.0740164-.3485776-1.2515548-.7191128-.752266-1.575156-2.3658658-1.3317921-3.6392342-1.8795133.2578245.5397921.6332001.9258806 1.0464464 1.2643943.7586283.6230481 1.6360194 1.1628402 1.5590659 2.3314748-.0133305.195484-.1832948.4053015-.3341721.5526007-.0505954.0494047-.3726489-.0454401-.3944624-.1238167-.2532801-.922831-1.0303893-.7197228-1.676314-.8493339-1.4924132-.2997828-1.9877635-1.5693615-2.6070271-2.7431806-.3184178-.60536-.6925815-1.4687223-1.2173196-1.6263904-2.0389648-.6123743-4.147915-.9890089-6.230507-1.453474-.0739239.1421147-.1478477.2842295-.2223775.4263442.6207785.4684297 1.3394151.8520786 1.8353714 1.4290766.5023185.5846223.7849863 1.360764 1.1633915 2.0530397m-69.24118661 54.2823441c2.32345045-1.279947 4.73476121-2.573924 7.1130486-3.928893 2.39949506-1.3671685 4.76505791-2.7953302 7.28998111-4.2817407-.253583-2.4418729-.507166-4.9279661-.7716558-7.4125344-.054837-.5092954-.1236104-1.0204205-.2344961-1.5199569-.3865854-1.751427-.8174038-3.493705-1.1767221-5.2506215-.0705912-.3430882-.0218136-.9286253.1908689-1.071655.6498633-.4361032.6465306-.9414339.3541679-1.509588-1.2188344-2.3686807-1.2891227-4.8779514-1.1258237-7.4741378.0693794-1.1076411-.3381107-2.2479138-.5501872-3.3695834-.1529981-.809993-.4056722-1.6065675-.4920177-2.42205-.0672586-.6361618-.2547949-.9533277-.91071745-1.1543011-1.38970756-.4257344-2.98997686-2.8694371-2.93635178-4.2939392.05483694-1.4184028.68712813-2.2945737 2.1237955-2.7718475 2.47251003-.8215818 5.01591413-1.1103859 7.62172943-1.0362788 2.8191037.0799014 5.6403282.0472699 8.4606438.0536742.2141974.00061.4290006-.0753269.9822176-.1796257-.5886641-.4397628-.9082938-.7712622-1.2966969-.9548525-4.808988-2.2765807-6.874008-6.4958029-7.8707679-11.404556-.1548159-.7672977.2014727-1.7017174.4998948-2.4903628 1.1100694-2.9267709 3.3108184-4.7410211 6.1850621-5.7346045 1.6829791-.5812676 3.3926194-1.1710743 5.1386156-1.4546939 2.8063791-.4553161 5.4997517.3470528 8.1476793 1.2235287.4832317.1601078.9713108.3086269 1.4469683.4894725 1.983522.7523542 1.9838249.7502195 2.7230633-1.239692 2.2789144-6.1414309 4.5678266-12.2795071 6.8437113-18.4227678 1.3460804-3.633685 2.6888281-7.26889487 3.9982496-10.91599845.2638838-.73527609.4120345-1.52056681.5417041-2.29487871.4208206-2.51323527 2.7309405-3.90449595 5.1701242-3.25583057 1.4212161.37815942 2.9411992.3708402 4.383623.689531 4.0049147.88562495 7.9919545 1.8551159 11.9883862 2.78008163.5326152.12351174 1.087044.15248364 1.6187503.27813015 2.2343783.52820331 4.4720892 1.04329303 6.6888954 1.6361494.7189397.19182442 1.2688239 2.18387062.9455586 3.10700655-1.7450873 4.9828602-2.4476667 10.1416866-2.6606522 15.3974925-.063017 1.5544182-.4559646 3.0941979-.5501872 4.649226-.0960404 1.5989434-.0127246 3.2091706-.0084831 4.8148233.0009089.5001463 0 1.0002926 0 1.5733261 1.5115001-.0734971 3.0575384-.2095125 4.6053945-.2116473 2.8727288-.0042695 5.7818136-.1439445 8.5445655.8176173.8201305.2854494 1.494534 1.0234701 2.2052935 1.5919291 1.8250705 1.4592684 3.6149969 3.0280201 3.8716095 5.516553.1569367 1.5236165.0148454 3.121645-.2660046 4.6348926-.2432821 1.3125791-.8704229 2.5534909-1.3697118 3.9429218 1.5242247-.0945399 3.0681422-.1832853 4.6108482-.2884991 1.717517-.1164974 3.434731-.2302502 5.148916-.3802941 1.208534-.1055187 3.225685 1.9307477 3.087229 3.2878521-.110885 1.0887332-.233587 2.2494386-.69046 3.2155749-1.179752 2.497377-2.007457 5.189628-3.881305 7.3314132-.551399.6300623-.886783 1.4525591-1.312451 2.1917997-.975552 1.6953131-1.940501 3.3964205-2.920295 5.0895988-.711365 1.230238-1.207018 2.376-.705912 3.9484112.558368 1.7529519.192687 3.7584167 1.165513 5.4491552.542916.9441787 1.086135 1.9078753 1.770839 2.7456204.822554 1.005477.762567 1.5400847-.463236 1.91001-.397795.120767-.834975.1088733-1.476659.1832853.401431.6270127.721667 1.1793084 1.091892 1.6950081.462933.6456157 1.250343 1.1036765 1.034025 2.1140331-.031206.1454694.303875.4336635.523223.5608348 2.299819 1.3339268 4.601153 2.664499 6.926421 3.9514609.429001.2381795.960101.3415634 1.456663.3955426 1.29397.13937 2.597332.1906045 3.889788.3412583.258127.0301918.650772.3208256.681674.5349126.039992.2750805-.146332.6819069-.369619.8789157-.629261.5556504-1.414551.950278-1.981704 1.556248-1.782958 1.904521-2.532194 4.314372-2.876061 6.825777-.21753 1.59193-.169359 3.224724-.182689 4.839526-.003636.494352.049383 1.081414.307814 1.469637.981611 1.472687.232375 3.072241-.95283 4.222882-2.769417 2.689506-6.252624 4.039292-9.660997 5.573582-2.2595247 1.016761-4.6381151 1.868534-6.3062489 3.883453-.1560277.18847-.479596.230555-.7177277.356202-1.3233579.69746-2.6521692 1.386686-3.9646203 2.105799-1.023421.56053-2.0680496 1.098187-3.0287565 1.755392-3.1229792 2.13538-6.2192973 4.309187-9.3074353 6.495192-.8086178.572729-1.5472502 1.244877-2.3573827 1.902996 1.3903134.876781 1.3915253.894774.5604881 2.079267-1.4263665 2.032302-1.3760741 4.246974-.9040522 6.56625.3747696 1.842308.5771513 3.719686.8649695 5.580291.2202567 1.426332 1.5454323 1.765761 2.4625121 2.502867.298725.239704.6213844.449827.9331369.673673-.0296907.116192-.0590784.23208-.0887692.348272-2.2204418.431224-4.4390658.874341-6.6619314 1.290622-2.7248811.509905-5.4843004.757538-8.1728256-.009759-1.5457353-.441288-2.9572564-1.342161-4.4614853-1.956365-1.1721776-.478189-2.3828319-.871292-3.6022723-1.21072-.2411613-.067093-.633806.235739-.8940543.446472-.9128382.736801-1.7665979 1.549233-2.7064001 2.246998-.4120345.306188-1.0064549.350408-1.4669641.607495-2.2767936 1.272629-4.6344792 2.432419-6.7706964 3.91395-1.7320597 1.200656-3.350507 1.286962-5.1210435.429394-.3453819-.167122-1.0637156-.32357-.824069-.945093.2387376-.620914.8534568-.580963 1.2448895-.539792.8846623.093624 1.1900526-.161023 1.240648-1.061592.0502925-.891114.3893121-1.76332.4729308-2.65596.2099558-2.255232.3314454-4.519309.525647-6.776677.0469598-.542232.2611571-1.067386.3638628-1.607178.1854155-.9762.2035935-1.851151-.4171849-2.800209-.4471787-.681907-.3884031-1.706292-.5244351-2.582463-.0518073-.335159.1242163-.821582-.0484747-1.001818-.7392383-.773092-1.4633284-1.673355-2.3870734-2.135685-2.9951273-1.500134-6.1090175-2.757819-9.1053566-4.255514-1.2788218-.638906-2.3434463-1.699277-3.5677341-2.465355-2.1353082-1.335757-4.3333305-2.569044-6.4774248-3.891382-1.1582411-.714539-2.2234715-1.586135-3.395649-2.274141-1.2024743-.706609-2.4316095-1.45134-3.7473933-1.852067-1.1691479-.355896-1.9177782-1.077754-2.5939995-1.945386-1.00342524-1.287572-1.3442626-2.771542-1.83112984-4.252158-.76559647-2.325376-1.69328004-4.623609-2.82425416-6.789487-.72378708-1.385161-1.88929939-2.554101-2.95392384-3.731579-.41809383-.461721-1.08643804-.708744-1.66601304-1.004257-.84285294-.430614-1.79628866-.748085-1.45605723-2.223212" mask="url(#a)"/><path d="m71.8501737 87.8617023c2.1476158-.4805221 2.1476158-.4805221 1.92477-1.6452857-.6879153.5886243-1.3064941 1.116955-1.92477 1.6452857m-10.3995716 27.8562727c-.151087-.021316-.302174-.042328-.4529583-.063644-.5761896.358717-1.1124123.878826-1.7388633 1.039305-.9698031.247264-1.1015123.93181-1.1242207 1.678477-.0469309 1.484503.002725 2.971746-.0166529 4.457162-.009689.76037-.0829616 1.519522-.1301952 2.311866 2.4092174-.387037 2.6998858-.702817 2.8997203-2.862426.0941645-1.01342.2794656-2.01801.3651523-3.032649.0993117-1.172985.1347369-2.351756.1980178-3.528091m4.6876341 7.845786c.1050645-.158347.1810622-.220772.1853011-.288069.1846956-2.783557.3651522-5.567418.537131-8.351888.0093862-.147385-.0018166-.358412-.0926505-.440935-1.0981817-1.007331-2.2136218-1.99639-3.4102069-3.067059.1220202 1.190952.3379021 2.159.2973296 3.116085-.1108173 2.590495-.3000546 5.17825-.5238087 7.761741-.0711532.81975.2264791 1.210441.9797948 1.260381.6939709.046286 1.3930891.009744 2.0271096.009744m-3.9918465-29.7189804c.4096608-.6160305.894411-1.4595325 1.4905841-2.213203.8081188-1.0210333 1.7110076-1.959848 3.1352829-2.062469.8895665-.0642523 1.7988137-.0950081 1.6213848-1.4181187-.0187723-.1391626.1474537-.3471452.2818879-.45677 1.5602233-1.2725613 3.1486052-2.5113216 4.6818812-3.8158568.2652349-.2256444.5325893-.8925287.4090553-1.0533117-.3636384-.4750408-.9752532-1.1687223-1.3961169-1.1087331-1.0721426.1528657-2.093721.6690158-3.2866727 1.0928984.6461317.5831431 1.6516628.9948451.671868 1.7890159-.6649041.5392932-1.2059712 1.0889398-1.4666645 1.9178251-.0620698.1979337-.2725017.4184014-.4665834.4936162-1.7034381.6592714-3.3929484 1.3779229-5.1433174 1.8761068-.5795201.1644372-1.7358355-.0639478-1.9211366-.4531159-.6839792-1.436694-2.0685904-1.4324308-3.1928111-1.982991-.4459944-.218336-1.1435986-.6358238-1.1384514-.9516042.0311863-1.7737903-1.1977961-1.4382166-2.2617637-1.6346277-1.2416992-.2292985-1.1657015 1.0164656-2.1791049 1.4281677 4.9946526 1.2643394 7.3148528 5.15602 10.1606784 8.553171m-14.4810408-4.8055252c1.0506453-.1190647 2.1161268-.2195541 3.1743415-.3724198.3266992-.0471996.8029716-.1592605.9050083-.3824688.1268647-.2777162.0575281-.820359-.1471509-1.0329093-.2473709-.2554867-.7493795-.4299729-1.0975761-.3724198-.3917968.0642523-.7106238.5466014-1.1054484.6285155-.4587111.0943992-1.0527647.090745-1.4197336-.1406851-.2207263-.1382491-.1856039-.7993476-.1501787-1.2153128.1347369-1.5840785.5840619-3.0296034 1.5629484-4.3493643 1.1030261-1.4875477 1.7367439-1.7777489 3.4507793-1.1099511 1.0570036.411702 2.0891794.969266 3.1858471 1.1805982 3.1806999.6135944 6.3665471.5426428 9.5145467-.3212616 2.217558-.6087221 4.3630543-1.3441219 6.2693548-2.713823 1.0945483-.7874715 2.7156304-.5505601 3.6636334.444285 1.1435986 1.1985646 2.3535059 2.3840351 2.5336598 4.1782277.0236168.239043-.0523809.4905711-.0968895.7338772-.1977151 1.0919849-.6655096 2.2183798-.5265337 3.2640787.1377647 1.039304-.2101291 1.7357261-.9034944 2.0795216-1.4330559.7095162-2.6544689 2.0326267-4.5056635 1.7253727-.4247998-.0703426-.9016777.2107232-1.3597833.3023818-.6897319.13764-1.4527366.4984883-2.063443.3267428-1.643185-.4610332-2.1978773.3623709-2.8491562 1.6775641-1.0897039 2.2010225-1.3422221 4.5664822-1.7857942 6.9017949-.5707396 3.005852.0133223 5.95689 1.1544986 8.660664.9967505 2.361502 2.8503674 4.384688 5.410369 5.045787 1.3458554.347754 2.9811681-.179359 4.4272436-.546602 1.5048147-.382164 2.944229-1.035345 4.3996906-1.60174.2519127-.098358.4944391-.318521.6521873-.545079.5113948-.734182.9322585-1.536574 1.4845285-2.236041.3560688-.450376.9013749-.743622 1.3252664-1.146493 1.3279914-1.261294 3.0635241-1.489984 4.6921757-.586797.6782264.376378.9228723.771027.4777862 1.608439-.6397733 1.201914-1.4215503 1.945231-2.7707362 2.420272-2.0873627.735705-3.9794326 2.0308-6.0655841 2.771985-2.2239163.790212-4.5583472 1.320979-6.8839974 1.744253-1.0233951.186057-2.144588-.172964-3.3805344-.301164 0 2.966265-.0654004 5.868277.0405724 8.764199.0308836.847461-.1862094 1.084372-.9086416 1.056661-.6249371-.023143-1.247452-.090745-1.8717836-.13764-2.7138137-.204633-5.2368763.310604-7.6124851 1.737249-.5259282.315171-1.4702979.124241-2.151552-.07491-.6933653-.202806-.633415-.818837-.5719507-1.54571.1998346-2.387385.2071013-4.791822.2712905-7.189865.0169557-.616335-.2891545-.828885-.938314-.905014-3.6827085-.432713-7.3629947-.894964-11.0293531-1.447352-1.1414792-.171441-2.2475331-.623338-3.3493482-1.008243-1.0551869-.368461-1.5553788-1.169636-1.5314593-2.297249.0157446-.717129.3693912-1.182425 1.0884928-1.046308 2.5669656.487526 5.1281783 1.01403 7.6769772 1.591387.3693911.083132.7654268.45951.965867.807265.680043 1.177553 1.5608289 1.542055 2.8597534 1.129744.5528756-.175095 1.1339097-.316389 1.709191-.352322 1.9438451-.120891 3.4998296-1.225666 5.1766231-2.010397 1.040048-.486917 1.2780328-1.528657 1.413678-2.563393.4944392-3.758304.7911632-7.517826.2979352-11.3090172-.1877234-1.4403481-.1698594-2.9062754-.2991463-4.3554544-.1544176-1.732072-1.3712889-2.7899514-3.0874437-3.0618818-2.0776738-.3285699-4.1199223-.8791301-6.1933571-1.2387603-.6533984-.1129745-1.3585722.104448-2.041643.1242414-.8344606.0237521-1.2192935-.3931267-1.0860705-1.3870583"/><path d="m65.8335432 69.4193959c-.4330511.1288577-1.6147419.5966671-2.4284423.6172097-3.7903014.0961764-7.1092806 1.5064523-10.0058068 3.98992-1.280901 1.0987142-2.4131339 2.4165487-3.4982641 3.7402971-1.3547935 1.6524288-2.7163581 3.3263339-3.8450583 5.1499505-1.3094571 2.1158808-1.3880599 4.6497711-1.4475271 7.0859286-.0783084 3.159815-.021785 6.3289674.1086308 9.4881599.1030373 2.5040103.291154 5.0179803.6517846 7.4927333.3011634 2.063279-.6414809 3.473244-2.3769237 3.182536-.9959293-.16683-1.1737423-.782173-.6929996-1.507386.6591445-.994446.5075324-1.984533.267897-3.001077-.6408921-2.720641-1.3915925-5.415759-1.9582978-8.1535182-.5793641-2.7978306-1.1172189-5.6199388-1.4098449-8.461967-.1021541-.9950678.3282475-2.2988961.9444106-3.0854261 2.4620031-3.1423849 5.057366-6.1708521 7.6756914-9.1706843 1.4110225-1.616635 2.8876944-3.1915625 4.4768243-4.6065072 3.3189792-2.9565684 7.3147664-3.7088608 11.5186889-3.5977444.6541398.0171188 1.5473261.0538463 1.9594754.1992003.4118549.145354.492224.509517.0597616.6383748"/><path d="m53.877551 68.796846c3.3705778-5.1969826 16.1225324-5.1683601 22.0738629-1.8990703.0830766-.2100094.1521078-.4253438.250425-.6210419.1757121-.3477968.3693621-.6839449.5549396-1.0247525-.44437-.0858675-.8860505-.2223237-1.3337077-.2456211-.7811588-.040604-1.8169264.6090604-2.4301391-.0113158-.6123161-.6207091.0663418-2.5587194 4.739847-3.4024178-.2274146-.3457999-.7028636-.7055782-.722288-1.0973072-.020022-.3920618.5707779-.5990758.8953144-.6673039 1.9242088-.4040433 3.8514059-.8353779 5.7965332-1.0427247.6795544-.0725547 1.5599269.2662559 2.0906607.7608263 1.4654946 1.3648944 2.8153394 2.8885438 4.1618971 4.4038728.2874807.3241666.9006934.768814.554043 1.3515816-.3472481.5827676-2.3760497-.0898614-2.9205299-1.2567279-1.6456931-3.5252283-6.3616332-4.8621659-9.1620308-2.2338872 1.1065919 0 1.9301855-.0792111 2.7349524.02596.6042476.0785455 1.2592974.2662559 1.757458.6313593.8573621.6273655 1.6313489 1.4035015 2.39906 2.167656.8466041.8410359 1.640314 1.7483029 2.4725739 2.6076439.3373865.3484624.6816462.7285427 1.086271.9502008.8681202.4746011 1.2332985 1.1186076.7946064 2.259847-2.6629327.6296953-3.2349059-2.5750275-5.1698728-3.6307322-.2928599.6686352-.568686 1.2953351-.8406273 1.9157113.7169089.7062438 2.3805322.301202 1.7389301 2.2172462-2.2595034.3185086-4.3501642-.6220404-6.5304758-1.0656893-2.6958048-.54882-4.9000235-2.4395699-7.6038968-2.8778937-5.5284768-.8952855-10.9968874-1.335939-16.2614914 1.4098251-.3514318.183051-.749781.2522775-1.1263151.3747552"/><path d="m85.6222769 92.3306826c.3714411 3.8718984-.3820537 7.5386511-2.2550174 10.9661684-.3900935.713749-.9856856 1.503591-1.7050915 1.839616-1.239745.579217-2.4691989-.40603-2.2643435-1.723651.160797-1.036077.4032789-2.088591.8094521-3.058924 1.8826115-4.5046852 2.144389-9.1950362 1.8703909-13.9456526-.1022669-1.7677844-.3058359-3.5322208-.5412427-5.2890479-.2932938-2.199382-1.627909-3.9747757-2.7589552-5.8329582-.2437683-.399943-.4351167-.9003283-.4074596-1.3410569.0112558-.1871879.7428822-.5542589.9811833-.4608171.446051.1756219.8075226.5977839 1.1368349.9709422.4704921.5338661.8673391 1.1255625 1.3195003 1.6755602 1.7185985 2.0898086 2.3408829 4.6084753 2.8535038 7.0997487.6161742 2.9953111 1.0889174 9.0936804.9612446 9.1000722"/><path d="m39.8784804 74.2304991c-.4732974 1.3248338-1.2889861 2.2896583-2.6412253 2.7271415-1.3203377.4276909-2.6379253.86575-3.9439622 1.3395221-.8170638.2963596-1.9927446-.4187627-2.1489521-.7877001-.1567574-.3689374 1.0068228-.669329 1.5133969-.905207.5926531-.2761991.8591408-.4219308.1991094-1.0428746-.3946437-.3712414-.485398-1.0970199-.7716866-1.8101261-.463122.1693483-1.0673257.4579317-1.7020558.5924311-.3000392.0636496-1.0783262-.0650897-.9881219-.2646788.0902043-.1998771.2392614-.6411043.4490963-.8709341.6647066-.7272186 1.3019118-1.5201028 2.085424-2.079125.779662-.5561422 1.7353324-.8352213 2.590073-1.2845128.4983236-.2617986.9262439-.6762412 1.4319929-.9161513.4309455-.2039092.9278941-.3585691 1.3945912-.3568554 1.4168673.0063505 2.8400599.0316951 4.2473017.185203.7447353.0809301 1.4718698.4153066 2.1838786.6987058.1597826.0639377.3272656.4083944.3016893.5953112-.0247511.1840367-.2711628.4452593-.4526714.4786682-1.2911863.2390461-2.1657279.8957028-2.6866026 2.2311928-.1570324.4017703-.9842717.6532007-1.5235723.6940977-.2554871.0192965-.7188841-.5820628-.801113-.9688567-.1504322-.7145462-.5172996-.9492721-1.1138029-.8501976-.801388.1330594-.6281298.7370108-.4906233 1.295457.0800288.3248723.1493321.6529126.2422865.9731768.399869 1.3766751.6616814 1.4331245 1.6074513.4380591.2068098-.2180215.5626767-.2805191.8506154-.4147305.0561027.1008026.1113803.2021811.1674829.3029837"/><path d="m89.4216894 100.408163c1.2737168.025683 2.3580038.406753 3.249785 1.448193.2265981.264213.4629368.875144.36835 1.149629-.4998486 1.444662-1.0117449 2.909549-1.7040993 4.213596-.4921586.92651-1.3093471.591027-1.5059542-.547045-.1084287-.625699-.0935614-1.29538-.0722858-1.941946.0422949-1.28607-.5829004-1.995238-1.576702-1.805185-.5185609.098559-1.0553214.129057-1.5769583.078654-.2904249-.02793-.6674902.017015-.850768-.438535s.3286184-.887985.5877707-1.005805c1.0058492-.456834 2.0501484-.779154 3.0808619-1.151556"/><path d="m41.6326531 110.035633c-.5449322.634694-1.0907358.636432-1.7376249.29142-1.3785971-.735793-2.3630188-.164539-2.3316474 1.382076.0185904.882373-.3761659 1.147432-1.0913167.789674-.8284364-.414825-1.9313721-.556769-2.1268622-1.764746-.243128-1.497948.2312186-2.179571 1.938634-2.739527 2.0228719-.663953 3.9882296.064599 5.3488172 2.041103"/><path d="m29.3877551 70.5978516c.4142992-1.3525568.6261497-2.8801458 1.3043218-4.0024562.5628452-.9311269 1.6101887-1.6999921 2.5585014-1.9816965 1.7866263-.5303555 3.6515996-.727173 5.4936956-.9254929 1.0460899-.1130573 1.9577362.4278151 2.5816922 1.5050527.1278624.2193539.3553822.562282.2974054.6866076-.121908.259168-.3926754.5472577-.622389.5724233-.3425333.0379362-.7258071-.0739944-1.0507907-.2377585-2.7653377-1.3916198-5.2517599-.1787884-7.6560743 1.2819428-.5280592.321143-.7223599 1.3623225-1.1673711 1.9700528-.4287151.5863207-.9821587 1.0411795-1.4813862 1.5538815-.0858684-.1408522-.1720501-.28208-.2576051-.4225566"/><path d="m57.1894412 9.79591837c1.3979689.00989009 2.0078807 1.06865053 1.2714121 2.39754143-1.4122 2.5454934-1.9758603 5.4130543-2.6183008 8.2634962-.5537491 2.4569974-1.2043218 4.8878813-1.6907265 7.3617074-.3504452 1.7823967-.5240159 3.6126683-.7316401 5.4284323-.0894537.7831171-.5395178 1.167567-1.4050844.9998598-.6274469-.1215732-.6467607-.6432644-.5321481-1.2067374 1.044474-5.1350897 2.0869151-10.2710499 3.144858-15.4026579.1351971-.6545803.428209-1.271441.5252866-1.9297933.160356-1.0970604.8513353-2.1401527-.0447269-3.3425378-.5501913-.7390142.9799251-2.57711984 2.0810701-2.56931073"/><path d="m69.558758 34.2818005c-.8543974.049805-1.1126544-.3777821-.9336714-1.1656063.7370719-3.2560004 1.4389109-6.5168116 2.1587187-9.7753589.7370719-3.3343866 1.4547657-6.6718861 2.2369356-9.9997642.2103403-.8973386 1.1552862-1.2898358 2.1456825-1.0043061.6229174.1796941.8966769.4323978.6768237 1.0770327-1.0164686 2.9806581-2.0068649 5.9700887-2.8637286 8.9824409-.6422955 2.2545243-1.1528199 4.5393276-1.5555318 6.8297906-.2209101 1.2499352-.1088696 2.538639-.1212011 3.8100809-.0091605.9046961-.4256132 1.2621034-1.7440276 1.2456904"/></g></svg>