<svg height="66" viewBox="0 0 98 66" width="98" xmlns="http://www.w3.org/2000/svg" xmlns:xlink="http://www.w3.org/1999/xlink"><mask id="a" fill="#fff"><path d="m.00000353.01448731h47.96935947v65.98551269h-47.96935947z" fill="#fff" fill-rule="evenodd"/></mask><g fill="#000" fill-rule="evenodd"><path d="m30.0419876 17.4429781c-1.1404948.0158151-2.2871752-.0102113-3.4641649.4306189.5635051.2720943 2.8797526-.0175585 3.4641649-.4306189m-16.9510515 4.6899849c-1.2327835-.475449-2.3119175-.8913736-3.30136084-1.2728038-.02696907-.0429622.01694845.0382302.07125773.1114529.04713402.063883.10540206.1196717.16008251.1775773.6820206.7192755 1.5849897.9653434 2.5044123 1.1583623.141031.0296377.3138557-.0922755.5656083-.1745887m18.844701-19.39989055c.007299-.06189056.0144742-.12378113.0215258-.18554717-1.3564949-.3018566-2.7133608-.60358868-4.0942268-.9108v.53958114c1.3724536.18766415 2.7227629.37233962 4.072701.55676603m9.8432165 19.28906035c-.0309278-.0523019-.0618557-.1046037-.0927835-.1569056-.1175258.0082188-.2487835-.0154415-.3501031.0296377-.9152165.4085774-1.8294433.8202679-2.7320412 1.256366-.1247011.0603963-.2141444.2465661-.2688248.393634-.1588453.4271321.0094021.9845208-.5256495 1.2678226-.0611134.0322529-.0320412.2369774-.0449072.3616302.043299.0235359.086598.0470717.1301444.0704831 1.2946391-1.0741812 2.5892783-2.1484868 3.8841649-3.222668m-13.0798763-3.7902679c.0089072.0565359.017567.1129472.0264742.1693585 1.7136495.5804264 3.5683299.7185283 5.1979794 1.7405321-.0144742-.1530453.0018557-.2306264-.0291958-.272468-.4879176-.6550188-1.0400413-1.243166-1.7630104-1.6417811-.2648659-.1458226-.550268-.4088264-.8068453-.3869094-.8798351.074966-1.7510103.2527924-2.6254021.3912679m-21.33971132 14.4975849c.3534433-.9332151.60804124-1.771166.17245361-2.6346453-.25793815-.510566-.27142268-1.152883-.80202062-1.5255962-.06346392-.0445811-.03674227-.2130679-.06074227-.3221547-.02375258-.1079661-.02486598-.2587698-.09513402-.3124415-.37657732-.2876604-.77158763-.5507887-1.16053608-.8225095-.03748454.0198-.07459794.0394755-.11208248.0592755.11616495.8355849.18742268 1.6812566.36804124 2.5023962.08993815.4093246.40589691.7633585.57043299 1.1627208.10812371.2622566.20004124.4393358.52948454.4164226.15092783-.0103358.42-.0615169.50338144.1867925.08325773.248434-.29826804.3363509-.39327835.4434453.16193814.2855434.2967835.5232679.48.8462943m25.10511342-15.1423924c.0298144.0565358.0373608.0980037.0602474.110332 1.318268.7115548 2.0637526 1.8554717 2.5128247 3.2579095.0988454.3092037.421732.5455585.6592578.8374528.1014433-.2738377.1510515-.4567698.2351752-.6218943.1078763-.2115736.3259794-.3979925.353567-.6139246.1275464-.996849-.0732371-1.9418943-.768-2.684083-.4988041-.5328566-1.1009072-.9829019-1.9227216-.7053283-.3696495.1249019-.7323711.2709736-1.1303505.4195359m-17.1121237 2.8635283c-.241732-.0550415-.4861856-.125151-.7354639-.1643774-.5741444-.0905321-1.1774846-.0856755-1.7193403-.2686075-.6367422-.2148114-1.2331546-.5653585-1.8251134-.8969774-.7647835-.4283774-1.30354635-1.020883-1.23698965-1.9888415.00841237-.1224113-.04465979-.2491811-.08449484-.4541547-.29975258.5420717-.42074227 1.604049-.31435052 2.2910717.06742268.4360981.40762887.6364641.69080411.9135396.9679175.9475358 2.2052784 1.2878717 3.444 1.6363019.0987217.0276453.2220619-.0083434.3282062-.0376076.2909691-.0803207.5736495-.206717.8689485-.2526679.4547628-.0703585.6332783-.3131887.5837938-.7776792m21.3092783 1.9233396c.4683712-.3357283.9325361-.5996038 1.3073815-.9586189.304701-.2918943.6891958-.5760679.6569072-1.1110415-.0129897-.2140641.0710103-.4479283.1593402-.6514075.2147629-.4932566.0486185-.9127925-.2178557-1.3124038-.0853608-.1281396-.2256495-.2190453-.3403299-.3275094-.4005773-.3789397-.7803711-.7835321-1.2081649-1.1279774-.2894846-.2332415-1.196165-.1163094-1.4424743.1257736.0232578.0394754.038598.0905321.0723712.119049 1.1324536.9526415 1.5823917 2.1846 1.4302268 3.6395887-.0315464.3011094-.1245773.6758151-.3285773.8589962-.2797114.2509246-.2578145.4336076-.0888248.745551m-19.0833402-2.9794642c-.231835-.2079622-.402433-.4947509-.6060618-.5209019-1.0222268-.1313773-1.8032165-.7719509-2.6809485-1.2031924-.6134845-.301234-1.1027629-.7070717-1.1111753-1.4869925-.0013608-.1115773-.1833402-.3283811-.2433402-.3154301-.4851958.1041056-1.0028041.1749622-1.4275051.4088264-.3791753.2089585-.565732.6684679-.4564949 1.1298452.1301444.5474265.4630516.9866378.9642062 1.2412982.3922887.1994943.8145155.3515434 1.237732.4750754.7938557.2316227 1.6281649.351917 2.3894845.6593774.7557526.3052189 1.3093608.0594 1.9341031-.3879057m12.4289072 41.9438717c-.2083299-.675566-.3827629-1.2703132-.5842886-1.8554717-.0225155-.0648792-.1997938-.0730981-.3037114-.1125736-.1879175-.0716037-.4197525-.1032339-.5458144-.235732-.0858557-.090283-.0252371-.3236491-.0270928-.4933812-.0021031-.1559094-.0007423-.3119434-.0007423-.4679773-.0425567-.0232868-.0851134-.0462-.1279175-.0693623-1.308.9938604-2.8665154 1.6658151-3.8418556 3.1472038.1140618.0734717.2225567.1438302.3072989.1987472.1364536-.2389699.204-.5429434.3633402-.6042114.8221856-.3164264 2.3220619-1.0318415 2.5353402-.8566301.2135258.1752113-.233567.5981094-.4881649.7628603-.4087423.2647472-.9534433.3576453-1.1799588 1.002951.3958763-.0354906.7670103-.0058529 1.094598-.1118264.5802061-.1875397 1.0689896.4095735.8919587.6398264-.1769072.2300037-1.1881237.1993698-1.7773608.2983698.3309278.5548981.3445361.4880264.9227629.6065773.7952165.1628831 1.557402.0737208 2.3245361-.0972566.1637938-.0364868.312-.1443283.4672577-.2191698-.2313402-.2481849.1926186-.7387019-.3405773-.8885094-.3499794-.0982528-.6409485-.5182868-.4254433-.7567585.2155051-.2385962.4011959.0612679.735835.1123245m-9.6637113-.7735698c.1186392-.3766981.3710103-.3977434.7098557-.2966264.6624742.1975019 1.3331134.3681057 2.000536.549917.0435464-.0282679.0872165-.0564113.1310104-.0848038-.0861031-.1862943-.1227217-.4682264-.2661031-.543317-.975464-.5104415-1.9652784-.9956037-2.9687011-1.4471434-.327835-.147566-.7110928-.1704792-1.0322474-.242083-.2594227.5771887.0315464.8878868.3807835 1.1954717.0846186.0743434.084.2468151.1225979.3742076-.1091134.0303849-.2381443.1143169-.3232577.0818151-.3350103-.127268-.4501855.050683-.4892783.325766-.101567.7147924-.1922475 1.4309547-.2782268 2.1477396-.0084124.0692378.0284536.193517.0757113.2121962.4468454.1762076.3952577.5479246.3176907 1.0432982.4183918-.0275208.8320825.0560377 1.1255258-.0957623.7774021-.4013547 1.5035876-.9032038 2.2479588-1.368566.1344742-.0839321.2585567-.1849246.3873402-.2779472-.0395877-.0433359-.0788042-.0867962-.1185155-.1302566-.4065155.1398453-.8052371.3214075-1.2236289.3998604-.1877938.0352415-.4243299.0273962-.6227628-.2125699-.1980619-.2398415.1647835-.294883.290103-.3661132.3586392-.2039773.7400413-.3679811 1.1291134-.5557698-.5275051-.3124415-1.236-.0885396-1.5955051-.7093132m6.6643299-2.7512038c.042433.0295133.0849897.059151.1274227.0886642.0976082-.035117.2038763-.0550415.2910928-.1073434 1.2513402-.7490377 2.2781443-1.8108906 3.5439587-2.5478491.6603711-.3842943 1.2291959-.9241245 1.8624742-1.3602226 1.749031-1.2050604 3.4902681-2.4238189 5.2724536-3.5775736 1.6842062-1.0903698 3.4212372-2.0976792 5.1238763-3.1595321.3098969-.1932679.7155464-.4199094.8226805-.7223886.5293608-1.4947132.3510927-3.0433472.1903917-4.5808982-.0298144-.2857924-.2018969-.2292566-.3786804-.1349886-.7705979.4110679-1.5611134.7881396-2.3083299 1.2384339-1.6781443 1.0115434-3.3395876 2.0514793-4.9973196 3.0973925-.4146804.2615094-.8594227.530366-1.1604124.9025811-.314969.3894-.5070927.8538906-1.1263917.7318528-.030433-.0061018-.0770722.0523019-.1113402.0858-.7621856.747668-1.5828866 1.445151-2.2713402 2.2564529-1.0129485 1.1941019-1.9343505 2.4670302-2.8856908 3.7133094-.1332371.1747132-.2209484.3862868-.3194226.5860302-.3298145.6684679-.6580207 1.3378075-.9809072 2.0097623-.2360413.4912641-.4634227.9868868-.6945155 1.4805169m-4.2956289-56.17297354c-.1796288.54643019-.3583917 1.09298491-.5386392 1.63904151-.5422268 1.64302641-1.1052371 3.27920377-1.6164123 4.93181887-.1783918.57594339-.2120413 1.19596981-.3470103 1.78785283-.0628454.27632833-.24.52513583-.3131134.80059243-.2458145.9256189-.4953402 1.8519849-.6911753 2.7890604-.1397938.6674717-.1955876 1.3527509-.2965361 2.0843547h1.2369897c.066433-.2520453.0755876-.5319849.2109278-.7195245.1040413-.1443283.362598-.2145623.5612784-.2372264.1312577-.015068.4025567.1267698.3972371.1742151-.0212783.1914-.1096082.3826754-.2051134.5562679-.0642062.116683-.1817319.2037283-.2756289.3042226.9451547-.0777056 1.8995877.2285095 2.7849897-.2349849.0771959-.0403471.1880413-.021917.2831753-.0195509.2591753.0063509.5241649.0602717.7757938.021917 1.4004124-.2128189 2.7988454-.4388378 4.1949278-.6789283.5163712-.0890378 1.0261856-.2214114 1.5341444-.3527887.0745979-.0193019.1221031-.1439547.1822268-.2197925-.0574021-.041966-.1423918-.1327471-.1678763-.1181773-.3204124.1824339-.4827217-.1221623-.7177732-.2105774-.4280412-.1612641-.271299-.4120641-.152165-.6814189.0982268-.222532.2272578-.4468075.2583093-.6814188.109732-.8242529.1540206-1.6578453.276866-2.4797321.2184742-1.46046792.4655258-2.91695094.7214845-4.37131698.1416495-.80395472.1828454-1.66867924 1.087299-2.15259623-.2362887-.06487924-.401567-.12689434-.5726598-.15429056-1.4007835-.22477359-2.8004536-.45888679-4.2051959-.65726038-.7886598-.1113283-1.5858556-.21892075-2.3794639-.22103773-.8061031-.00224151-1.5901855.0765849-2.0268866-.89872076m5.5902681 18.77201884c-.0574021.050434-.1148042.1009925-.1724536.1514264-.1136908-.0818151-.2226805-.1713509-.3421856-.2439509-.3956289-.2410868-.708866-.723883-1.2952577-.4080792-.108866.0585283-.3431753.0100867-.4491959-.0764604-.780866-.6363396-1.7062268-.8647246-2.6670928-.9191434-.5498969-.0312566-1.2173196-.0758378-1.6374433.1931434-.592701.3798113-1.2336495.3507962-1.8326598.5606264-.0420619.0148189-.077567.0494377-.1882887.1222868.1767835.0849283.3007423.1716.4378145.2050981.2940618.0719774.599134.0996226.8917113.1757094.4776495.1240302.5767423.3986151.3170722.8985963-.1821031-.0853019-.3593815-.198-.5529897-.2527925-.3194227-.0906566-.6472577-.1857962-.9754639-.2019849-.3789279-.0185547-.7616907.0579057-1.1435877.0693623-.1562474.0046075-.3165773-.0843057-.4703505-.0726-.1204948.008966-.3381031.1149396-.3347629.1653735.0494846.7076944-.4170309.5009774-.7984329.4943774-.2397526-.004234-.4812372.0621396-.7964537.1075925.4060207.312566.7007011.5397056 1.0417732.8024603-.5179793.2729661-.6677938.2560302-1.1513814.0236604-.1082474-.0518038-.2831753-.061766-.3868454-.0093396-.6941443.3516679-1.3877938.7078189-2.0588041 1.1013283-.2547216.149434-.5726598.301483-.489402.7399472.0195463.101366-.2116702.2715962-.351464.3783169-.1952165.149185-.4824742.2206642-.6095257.4083283-.6503506.9602378-1.2867217 1.9328038-1.8734846 2.9332642-.2001649.3413321-.42346389.4602566-.73002059.3065887-.33884537-.1698566-.12173196-.4069585-.00309279-.6382076.16329897-.3176717.40008248-.6673471.38004128-.9892528-.0178145-.2900264.1655257-.736834-.28193819-.9340868-.02127835-.0093396.03562887-.1513019.01496908-.2186717-.04169073-.136234-.07719588-.3054679-.1755464-.3877811-.67459793-.5619962-1.3844536-1.0423019-2.33604123-.7988491-.09080413.0232868-.19571134-.0118302-.28701031.0103359-.52082474.1268943-1.0963299.1372302-1.43653608.5709622.43249484.3407095.82688659.6413208 1.20952577.9566264.24915464.2055963.48742268.4258868.71641237.6541472.06915464.0688642.07905155.1940151.13595876.2804378.30272165.4597584.61868042.9106754.9141031 1.3749169.10750515.1688604.18420618.3617548.24964948.5524076.06445361.1875396.0316701.4710905.1537732.565483.59814433.4621245.64552577.5952453.37249484 1.2843849-.05764948.1456981-.05925773.380434.02115464.5019736.20449485.3099509.03303093.3649924-.20325773.4795585-.17950516.0874189-.37892784.2418339-.45513402.4171698-.30507217.6978566-.58131959 1.4096604-.83703093 2.127566-.20560825.5764415-.36593814 1.1686981-.56412371 1.8110151.17270103-.0246566.23406185-.0143207.26202062-.0403471.2378969-.2206642.50585567-.2160566.64639175.0475698.06420619.1206679-.05072165.4441924-.18296907.5470528-.74622681.5799283-.92140206 1.3940943-.72383505 2.2071396.10156701.417917.07892783.7182793-.00531959 1.1084264-.09822681.4550265.03439175.9515208-.25261856 1.388117-.07261855.1108302-.03624742.2941359-.0556701.5054604.66494845-.2380981 1.25084536-.4479283 1.83698969-.657883.04094845.0547924.08189691.1097094.12284536.1647509-.10725773.1454491-.19150515.3197887-.32734021.4291245-.19731958.1588982-.52441237.2180491-.63303092.4125623-.31979382.5705887-.71641237.5316113-1.21373196.3098264-.08053608-.0359887-.26140206.0775812-.35282474.1666189-.09773196.0955132-.18024743.2379736-.20251547.3712189-.01991752.119049.0316701.2631283.08734021.3786905.0611134.1258981.16342268.2316227.24754639.3461887-.14437113.0728491-.28280412.1625094-.43397938.2141887-.17183505.0584038-.35492784.0825623-.5912165.134366 1.29773196.2865396 2.5155464.4789359 3.68511341.8334679 1.37072168.415551 2.70321648.9622302 4.04474228 1.4720491.5496495.2089585 1.1388866.3869094 1.6083711.7226377 2.1029691 1.5033057 4.2665567 2.9408604 5.8839588 5.0269585.7655258.9872604 1.4962886 1.9862264 2.0275051 3.1311397.3549279.7654754.3287011 1.6741584.9053196 2.3523396.0587629.0692377.0698969.2318717.0327835.3216566-.1329897.3221547-.0141031.5583849.1552578.8302302.0859793.1384754.0366185.5434415.0014845.5494188-.3614845.0617661-.7326186.0760868-1.1012784.0767095-.0517113.000249-.1642886-.1640038-.146103-.2165547.1149278-.3344831-.1327423-.4337321-.3180619-.6089434-.1474639-.1395963-.222433-.3590151-.3209072-.547551-.0562887-.1078415-.0765773-.2382226-.1453608-.3352302-.405897-.5725811-.8789691-1.1054377-1.2197939-1.713883-.5301031-.946166-.9821443-1.9375358-1.4476701-2.9189434-.2216907-.4671056-.3811546-.9640981-.5996288-1.4328226-.3651959-.7835321-1.0240825-1.2820189-1.6968248-1.7868566-1.0850721-.8146642-2.0905979-1.7235963-3.3423092-2.3113698-2.5092372-1.1784114-5.03121654-2.2834755-7.83822685-2.5113623-.83690722-.0677434-1.67109279-.164751-2.63096907-.2608868.22898969.4118151.33896907.8523962.6196701 1.0694491.95604124.7403207 1.53191752 1.7848641 2.2548866 2.706249.56956701.7261245.99216494 1.5825057 2.09962886 1.553366.10342268-.0027396.28428866.0777057.29802062.1461963.02758763.1371056-.00420618.3097019-.07076289.435849-.05950515.1120755-.19917525.1813132-.37496907.33.6097732.4546529 1.17204124.8896302 1.75076289 1.3011963.58020621.4129358 1.16969071.8135434 1.76820621 1.1989584.5501443.3541585 1.1084536.6973585 1.6795051 1.0155284.8184743.4565207 1.6280413.9420566 2.4852371 1.3125283.9838763.4253886 1.9926186.7784264 2.8066392 1.5186226.384.3491774.7482062.7570075 1.1975258.9882566.9896907.5096943 2.0258969.9283585 3.0468866 1.3761623.9562886.4194113 1.8827629.5819207 2.7899381-.1769548.336866-.281683.5494021-.449049.5199588-.9916188-.0501031-.9342113.3461443-1.8230944.8231753-2.6235623.2951752-.4954981.734103-.9019585 1.0869278-1.3649547.7766598-1.018517 1.506433-2.074766 2.3173608-3.0638943.6978557-.8507774 1.4743918-1.6371736 2.2300206-2.4385133.5688248-.6030905 1.128866-1.2206264 1.7497732-1.7663094.6557938-.576317 1.3542681-1.1117887 2.0798351-1.5960792.6043299-.4034717 1.0092371-1.1488981 1.8606185-1.1476529.0238763 0 .0650722-.0358641.0685361-.0595245.0598763-.3957509.4416495-.3567736.6804124-.5014755.5132783-.3114452 1.0457319-.5911358 1.5674227-.8896301.4122062-.2359812.8167422-.4854114 1.2296907-.7203963.5258969-.299117 1.0593402-.5851585 1.5823917-.8891321.0771959-.0448301.115299-.1580264.171464-.2394679-.0033402-.0531736-.0068042-.1062226-.0098969-.1595207-.8819382.9096792-1.2896908-.2804378-1.9877939-.198.1923712-.7684642.3621031-.8106793 1.3582268-.4288755 0-.1483132-.0131134-.2901509.002598-.4285019.0431752-.3794377-.0486186-.4910151-.456866-.3657396-.1921237.0590264-.4765361-.0858-.6841237-.2016113-.3301856-.1844264-.622268-.4364717-.9466392-.6327283-.3324124-.2012378-.9070515-.2982453-1.0343505-.5563925-.1271753-.2581472.3539381-.677683 1.4638763-.275083 0-.5238906.0116289-1.0259887-.0077938-1.5270906-.0051959-.1338679-.0885773-.2747094-.1642887-.3940075-.3096495-.4861585-.6525773-.952517-.9358763-1.4532453-.1176495-.2077132-.1547629-.4861585-.1406598-.7271208.003464-.0586528.1607011-.0608943.3533196-.1012415.0713815-.0150679.3274639.1501812.5053608-.0427132.177897-.1930188-.5481649-2.1239547-1.2202886-2.9692528-.2813196-.3539094-.4640413-.6150453-.3891959-1.1120377.0985979-.6547699.2350516-.9434265.8573196-1.1741774.2803299-.1038566.5950515-.2043509.8010309-.4040943.6059382-.5881472 1.1972784-1.1984604 1.7350516-1.8497434.7037938-.8526453.9791752-1.8489963.790268-3.0196868-.3434227.1461962-.6612371.2471887-.9445361.4090754-.5808247.332117-1.1236701.7362114-1.7187216 1.0371963-.6112578.3090792-.9598763.8313509-1.271134 1.3867471-.1647835.2941359-.3186805.6227661-.0163299.9825283.1097319.1302566.0426804.4111925.0557938.6232642-.0451547.0432113-.0903093.0865472-.1355877.129883-.4953402-.2280113-1.0563711-.3769472-1.4590515-.7161623-.2126598-.1788226-.1494433-.6896377-.216-1.080283-.0862268.0156906-.1435052.1612642-.3336495.0608944-.1898969-.1003698-.147835-.3468114-.211299-.4954981-.6357525.0891622-.6305567.0865471-.9353814-.5316114-.0509691-.103483-.1563711-.2245245-.258433-.2503019-.5004124-.1268943-.5643711-.281932-.3290721-.7683396.0504742-.1042302.0068041-.3758264-.0303093-.3831736-.3460206-.0687396-.3164536-.2931396-.2910928-.5536528.0127423-.1265207-.0181856-.2947585-.0963711-.3860377-.259299-.3031019-.5609073-.5694679-.824165-.8695812-.280701-.3202867-.5917113-.5038415-1.0401649-.4895207-.1722062.0054792-.4385567-.1423359-.5110516-.2936377-.3071752-.6431887-.9660618-.5438151-1.4860206-.767468.1052783.2204151.2585567.378068.427299.5162944.3097732.2544113.6680412.4748264.6366185.9520188-.0054433.0798227-.0748453.1654981-.1364536.2256453-.0206598.0201736-.1521649-.0185547-.1610722-.0505585-.1034226-.3768226-.4207422-.2938868-.6844948-.3468113-.6094021-.1224113-.8116701-.6408226-1.0645361-1.1201321-.1300206-.2471886-.2828041-.5997283-.4970721-.6641094-.8325774-.2500528-1.693732-.4038453-2.5441238-.5935019-.0301855.0580302-.0603711.1160604-.0908041.1740906.2534846.1912754.5469279.3479321.7494433.5835396.2051134.2387208.3205361.5556453.4750516.8383245m-28.27348457 22.1652906c.94874227-.5226453 1.93336082-1.0510189 2.90449484-1.6042981.97979382-.5582604 1.94573196-1.1414264 2.97674227-1.7483774-.10354639-.9970981-.20709278-2.0122528-.31509278-3.0267849-.02239176-.2079622-.05047423-.4166717-.09575258-.620649-.15785567-.7151661-.3337732-1.4265963-.48049485-2.1440038-.02882474-.1400944-.00890721-.3791887.07793815-.4375925.26536082-.1780754.264-.3844188.14461856-.6164151-.49769073-.9672113-.52639176-1.9918301-.45971135-3.0519396.0283299-.4522868-.13806185-.9178981-.22465979-1.3759132-.06247423-.3307472-.16564948-.6560151-.20090722-.9890038-.02746391-.259766-.10404123-.3892754-.37187628-.4713396-.56746392-.1738415-1.22090722-1.1716868-1.19901031-1.7533585.02239175-.5791811.28057732-.9369509.86721649-1.1318377 1.00960825-.3354793 2.04816495-.4534076 3.11220619-.4231472 1.15113402.0326264 2.30313402.0193019 3.45476293.021917.0874639.0002491.1751752-.0307585.4010721-.0733472-.2403711-.1795698-.3708866-.314932-.5294845-.3898981-1.96367012-.9296038-2.80688662-2.6524528-3.21389692-4.6568604-.0632165-.3133132.08226804-.6948679.20412371-1.0168981.45327835-1.1950981 1.35191752-1.935917 2.52556701-2.3416302.6872165-.2373509 1.3853196-.4781886 2.098268-.594 1.1459382-.1859207 2.245732.1417132 3.3269691.4996076.1973196.0653773.3966186.1260226.5908454.1998679.8099381.3072113.8100618.3063396 1.1119175-.5062075.9305567-2.507751 1.8651959-5.01413212 2.7945155-7.52263023.5496494-1.48375472 1.0979381-2.96813207 1.6326185-4.45736604.1077526-.30023773.1682474-.62089811.2211959-.93707547.171835-1.02623773 1.115134-1.59433585 2.111134-1.32946415.5803299.1544151 1.2009897.15142642 1.7899794.28155849 1.6353402.36163019 3.2633814.75750566 4.8952577 1.1352.2174846.05043396.4438763.06226415.6609897.11356981.9123712.21568302 1.8261031.42601132 2.731299.66809434.293567.0783283.5181031.89174717.3861031 1.26869434-.7125773 2.03466793-.9994639 4.14118868-1.086433 6.28730944-.025732.63472077-.1861856 1.26346417-.2246598 1.89843397-.0392165.6529019-.0051959 1.3104113-.0034639 1.9660528.0003711.2042264 0 .4084528 0 .6424415.6171959-.0300113 1.2484948-.0855509 1.8805361-.0864226 1.1730309-.0017434 2.3609072-.0587774 3.4890309.3338604.3348866.1165585.610268.4179169.9004948.6500377.7452371.5958679 1.4761237 1.2364415 1.5809073 2.2525925.0640824.6221433.0060618 1.2746717-.1086186 1.8925811-.0993402.5359698-.3554227 1.0426755-.559299 1.6100264.6223918-.0386038 1.2528248-.0748415 1.8827629-.1178038.7013196-.0475698 1.4025155-.0940188 2.1024742-.1552868.4934846-.0430868 1.3171547.7883887 1.2606186 1.3425397-.0452784.444566-.0953814.9185207-.2819381 1.3130264-.481732 1.0197622-.8197114 2.1190981-1.584866 2.9936603-.2251547.2572755-.3621031.5931284-.5359176.894985-.3983505.6922528-.7923711 1.3868717-1.1924536 2.0782528-.2904742.5023472-.4928659.9702-.2882474 1.6122679.228.7157887.0786804 1.5346868.4759175 2.2250717.2216908.3855396.4435052.7790491.7230928 1.1211283.3358763.4105698.3113815.6288679-.1891546.7799208-.162433.0493132-.3409485.0444566-.6029691.0748415.1639175.2560302.2946804.4815509.4458557.6921283.1890309.2636264.5105567.4506679.4222268.8632302-.0127423.0594.1240825.1770792.2136495.2290075.9390928.5446868 1.8788041 1.0880038 2.8282886 1.6135132.1751753.0972566.3920413.1394717.5948042.1615132.5283711.0569095 1.0605773.0778302 1.5883299.1393472.105402.0123283.2657319.1310038.2783505.2184226.0163299.1123246-.0597526.2784453-.1509279.3588906-.2569484.2268906-.5776082.3880302-.8091958.6354679-.7280413.7776793-1.0339794 1.7617019-1.1743918 2.7871925-.0888247.6500377-.0691546 1.3167622-.0745979 1.9761396-.0014846.2018604.0201649.4415774.1256907.6001019.4008247.6013472.0948866 1.2544981-.3890722 1.7243434-1.1308453 1.0982151-2.5531546 1.6493773-3.9449072 2.2758792-.9226392.4151774-1.8938969.7629849-2.5750515 1.5857434-.0637114.0769585-.1958351.0941434-.2930722.1454491-.5403711.2847962-1.0829691.5662302-1.6188866.8598679-.4178969.228883-.8444536.4484264-1.2367423.7167849-1.2752165.8719472-2.5395464 1.7595849-3.8005361 2.6522038-.3301855.2338641-.6317938.5083245-.9625979.7770566.5677113.3580189.5682062.365366.228866.849034-.582433.8298566-.5618969 1.7341811-.3691547 2.6812188.153031.7522755.2356702 1.5188717.3531959 2.2786189.0899382.5824189.6310516.7210189 1.0055258 1.0220038.1219794.0978792.253732.1836792.3810309.275083-.0121237.0474453-.0241237.094766-.0362474.1422113-.9066804.176083-1.8126186.3570226-2.7202887.5270038-1.1126598.2082113-2.2394226.3093283-3.3372371-.0039849-.6311752-.1801925-1.2075464-.5480491-1.8217732-.7988491-.4786391-.1952604-.9729897-.3557773-1.4709278-.4943773-.0984742-.0273963-.2588041.0962603-.3650722.1823094-.3727422.3008604-.7213608.6326038-1.1051134.9175245-.1682474.1250264-.410969.143083-.5990103.2480604-.9296907.5196566-1.8924123.9932377-2.764701 1.5981962-.7072577.4902679-1.3681237.5255095-2.0910928.1753359-.1410309-.0682415-.4343505-.1321246-.3364948-.3859132.0974845-.2535397.3484948-.2372265.5083299-.2204151.3612371.0382302.4859381-.065751.5065979-.433483.0205361-.3638717.1589691-.7200227.1931134-1.084517.085732-.9208868.1353402-1.8453849.2146392-2.7671434.0191752-.2214113.1066392-.4358491.1485773-.6562642.0757113-.3986151.083134-.7558868-.1703505-1.1434188-.182598-.2784453-.158598-.6967359-.2141444-1.0545057-.0211546-.1368566.0507217-.3354793-.0197938-.4090755-.3018556-.3156792-.5975257-.6832868-.9747216-.8720717-1.2230103-.6125547-2.4945155-1.1261094-3.7180206-1.7376679-.5221856-.2608868-.9569072-.6938717-1.4568248-1.0066868-.8719175-.545434-1.76944327-1.0490264-2.64494843-1.5889811-.47294845-.2917698-.90791752-.6476717-1.3865567-.9286076-.49101031-.288532-.99290722-.5926302-1.53018557-.7562603-.47740206-.1453246-.78309278-.4400831-1.05921649-.7943661-.40973196-.5257585-.54890722-1.1317132-.74771134-1.7362981-.31261856-.9495283-.69142268-1.8879736-1.15323712-2.7723736-.29554639-.5656075-.77146391-1.0429245-1.20618556-1.5237283-.17072165-.1885358-.44362887-.2894038-.68028866-.4100717-.34416495-.1758339-.73348454-.3054679-.5945567-.9078113" mask="url(#a)"/><path d="m29.3388209 35.8768618c.8769431-.1962132.8769431-.1962132.7859478-.671825-.2808988.2403549-.5334851.4560899-.7859478.671825m-4.2464917 11.3746446c-.0616939-.008704-.1233877-.0172837-.184958-.0259877-.2352774.146476-.454235.3588538-.7100358.4243825-.396003.1009665-.4497842.3804894-.4590568.6853783-.0191635.6061719.0011127 1.2134629-.0068 1.8200078-.0039563.3104844-.0338759.6204714-.053163.9440117.9837638-.1580399 1.1024534-.2869835 1.1840525-1.1688237.0384505-.4138134.1141151-.8240208.1491038-1.2383315.0405523-.478969.0550176-.9603006.0808573-1.4406374m1.9141172 3.2036961c.0429014-.0646583.0739338-.0901486.0756647-.1176284.0754173-1.1366189.1491038-2.2733622.2193285-3.4103541.0038327-.060182-.0007418-.1463517-.0378323-.1800486-.4484242-.4113265-.9038956-.8151924-1.3925012-1.2523823.0498249.4863053.1379767.8815916.1214096 1.2724015-.0452504 1.0577855-.1225223 2.1144519-.2138886 3.1693775-.0290542.3347312.092479.4942632.4000829.5146555.2833715.0189001.5688447.0039789.8277364.0039789m-1.6300039-12.1352504c.1672781-.2515458.3652178-.5959758.6086551-.9037246.3299819-.4169219.6986615-.8002712 1.2802406-.8421748.3632396-.0262364.7345155-.038795.6620654-.5790651-.0076653-.0568248.0602103-.141751.1151042-.1865145.6370912-.5196292 1.2856805-1.0254563 1.9117682-1.5581415.1083043-.0921381.217474-.3644492.1670309-.4301023-.1484857-.193975-.3982284-.4772282-.570081-.4527327-.4377916.0624202-.8549361.2731815-1.3420581.4462669.2638371.2381167.674429.4062284.2743461.7305148-.2715025.2202114-.4924382.4446504-.598888.7831119-.0253452.080823-.1112715.1708473-.1905215.20156-.6955706.2692025-1.385454.5626518-2.100188.7660769-.2366374.0671452-.7087995-.026112-.7844641-.1850223-.2792915-.5866501-.8446744-.5849093-1.3037312-.8097213-.1821144-.0891539-.4669694-.2596281-.4648676-.3885717.0127344-.7242977-.4891001-.5872718-.9235536-.667473-.5070271-.0936303-.4759947.4150568-.8898011.5831684 2.0394831.516272 2.9868982 2.1053749 4.1489437 3.4925449m-5.9130917-1.9622561c.4290135-.0486181.8640851-.0896513 1.2961895-.1520715.1334021-.0192731.32788-.0650313.369545-.1561747.0518031-.1134008.0234907-.3349799-.0600866-.4217713-.1010098-.1043238-.3059967-.1755723-.4481769-.1520715-.1599837.0262364-.2901714.2231956-.4513914.2566439-.1873071.0385463-.429879.0370542-.5797246-.0574464-.0901299-.0564517-.0757883-.3264003-.061323-.4962528.0550176-.646832.238492-1.237088.638204-1.7759904.4504023-.6074153.7091704-.7259141 1.4090682-.45323.4316098.1681116.8530815.3957836 1.3008875.4820776 1.2987858.2505511 2.5996734.2215791 3.8851066-.1311818.9055028-.2485616 1.7815805-.5488498 2.5599865-1.1081444.4469406-.3215509 1.1088825-.2248121 1.4959837.1814164.4669694.4894138.9610149.9734809 1.0345777 1.7061096.0096436.0976092-.0213888.2003165-.0395632.2996665-.0807336.4458939-.2717497.9058384-.2150012 1.3328321.0562539.4243825-.0858027.7087549-.3689269.8491381-.5851645.289719-1.0839082.8299892-1.8398126.7045271-.1734599-.0287232-.3681851.0860454-.5552448.1234726-.2816406.056203-.5932008.2035494-.8425726.13342-.6709672-.1882553-.8974666.1479681-1.1634055.6850053-.4449624.8987509-.548074 1.8646469-.7291993 2.818233-.233052 1.2273893.00544 2.4323969.4714203 3.5364379.4070065.9642796 1.1639 1.7904142 2.209234 2.0603628.5495576.1419996 1.2173103-.073238 1.8077911-.2231956.614466-.1560504 1.2022269-.4227661 1.7965404-.654044.1028643-.0401627.201896-.1300627.2663098-.2225739.2088195-.2997908.3806722-.6274345.6061825-.9130503.1453947-.1839032.3680614-.3036454.5411504-.4681512.5422631-.5150285 1.250939-.60841 1.9159717-.2396088.2769425.1536878.3768396.3148363.1950961.6567794-.2612408.4907817-.5804664.7943028-1.131384.9882778-.8523397.3004126-1.6249349.8292432-2.4767802 1.1318939-.9080991.32267-1.861325.5393997-2.8109655.7122364-.4178864.0759736-.8757068-.0706267-1.3803849-.1229751 0 1.2112247-.0267052 2.396213.016567 3.5787145.0126108.3460464-.0760355.4427852-.3710286.43147-.2551827-.00945-.5093763-.0370542-.7643117-.056203-1.1081406-.0835584-2.1383911.1268298-3.1084314.7093766-.214754.1286949-.6003716.0507319-.8785504-.0305884-.2831241-.0828124-.2586444-.3343582-.2335465-.6311648.0815991-.9748488.0845663-1.9566607.110777-2.9358615.0069235-.2516701-.1180715-.3384615-.3831449-.3695472-1.5037727-.1766914-3.0065562-.365444-4.5036526-.5910021-.466104-.0700051-.9177426-.25453-1.3676504-.4116995-.4308681-.150455-.6351131-.4776013-.6253459-.9380432.006429-.2928277.1508347-.4828237.4444678-.4272424 1.0481777.199073 2.0940062.414062 3.1347657.6498162.1508347.0339457.3125493.1876336.3943957.3296332.2776842.4808342.6373385.6296727 1.1677327.4613124.2257575-.0714972.4630131-.1291924.6979196-.1438648.7937368-.0493642 1.4290971-.5004804 2.1137878-.8209122.4246863-.1988244.5218634-.6242016.5772519-1.046719.2018959-1.5346407.3230582-3.0697788.1216568-4.6178486-.0766537-.5881421-.0693592-1.1867291-.1221514-1.7784772-.0630538-.7072627-.5599429-1.1392301-1.2607062-1.2502684-.8483834-.134166-1.6823016-.3589781-2.5289541-.5058271-.2668044-.0461313-.5547503.0426496-.8336709.0507319-.3407381.0096987-.4978782-.1605268-.4434788-.5663821"/><path d="m26.8820302 28.3462533c-.1768293.0526169-.659353.2436391-.991614.2520273-1.5477064.039272-2.9029562.6151347-4.0857044 1.6292173-.5230346.4486417-.9853631.9867575-1.4284579 1.527288-.5532073.6747418-1.1091795 1.3582531-1.5700655 2.1028965-.5346949.8639847-.5667911 1.8986565-.5910735 2.8934208-.0319759 1.2902578-.0088956 2.5843284.0443575 3.874332.0420736 1.0224708.1188879 2.0490086.2661454 3.0595326.1229751.8425058-.261938 1.4182414-.9705772 1.2995357-.4066711-.0681224-.479278-.3193871-.2829748-.615516.2691507-.4060652.2072424-.8103511.1093913-1.2254399-.2616976-1.1109282-.5682336-2.2114347-.7996383-3.3293531-.2365736-1.1424475-.4561977-2.2948083-.5756866-3.4553032-.041713-.4063193.1340343-.9387159.3856343-1.2598823 1.0053179-1.2831405 2.0650911-2.5197646 3.1342406-3.7446961.5761676-.660126 1.1791419-1.3032214 1.8280366-1.8809905 1.3552499-1.2072654 2.986863-1.5144515 4.7034647-1.4690789.267107.0069902.6318248.0219872.8001191.0813401.1681741.0593529.2009914.2080528.0244027.2606697"/><path d="m22 28.0920455c1.3763193-2.1221013 6.5833674-2.1104138 9.013494-.7754538.0339229-.0857538.0621107-.173682.1022569-.2535921.0717507-.142017.1508228-.2792775.2266003-.4184406-.1814511-.0350625-.3618039-.0907821-.5445973-.1002952-.3189732-.01658-.7419116.2486996-.9923068-.0046207-.2500291-.2534562.0270896-1.0448104 1.9354376-1.3893206-.092861-.1412016-.2870027-.2881111-.2949343-.4480671-.0081757-.1600919.2330676-.2446226.3655867-.2724824.7857186-.1649844 1.5726574-.3411127 2.3669177-.4257793.2774847-.0296265.6369702.1087212.8536865.3106708.5984102.5573318 1.1495969 1.1794887 1.6994413 1.798248.1173879.1323681.3677831.3139324.2262342.5518959-.141793.2379634-.9702203-.0366934-1.1925497-.5131639-.6719914-1.4394683-2.5976669-1.9853844-3.7411626-.9121706.4518584 0 .7881591-.0323446 1.1167723.0106003.2467344.0320727.514213.1087212.7176286.2578051.3500896.2561742.6661341.5730964.9796162.8851261.3456967.343423.6697949.7138904 1.0096343 1.064788.1377662.1422888.2783389.2974882.4435607.3879986.3544824.1937955.5035969.4567648.3244643.9227709-1.0873642.2571256-1.32092-1.0514696-2.1110314-1.482549-.1195845.273026-.2322135.5289285-.3432562.7822488.2927379.2883829.9720507.1229908.7100631.9053755-.9226305.1300577-1.776317-.2539998-2.6666109-.4351565-1.100787-.2241015-2.0008429-.9961576-3.1049245-1.1751399-2.2574614-.3655749-4.4903957-.5455084-6.640109.5756786-.1435013.0747458-.3061606.1030133-.459912.1530251"/><path d="m34.9624297 37.7016954c.1516718 1.5810252-.1560052 3.0782825-.9207987 4.4778521-.1592882.2914475-.4024883.6139662-.6962457.7511765-.5062292.2365137-1.0082563-.1657957-.924607-.703824.0656588-.423065.1646722-.8528414.3305263-1.2490609.768733-1.839413.8756255-3.7546396.763743-5.6944747-.041759-.7218453-.124883-1.4423235-.2210075-2.1596945-.1197616-.898081-.6647295-1.6230334-1.1265733-2.3817913-.0995388-.1633101-.1776727-.367634-.1663794-.5475982.0045961-.0764351.3033436-.2263224.4006499-.188167.1821374.0717122.3297384.2440951.4642076.3964681.1921176.2179953.3541634.4596046.5387959.684187.7017611.8533385.9558605 1.8817941 1.1651807 2.8990641.2516045 1.2230853.4446413 3.7132528.3925082 3.7158628"/><path d="m16.2837128 30.3107871c-.1932631.5409738-.526336.9349439-1.0785003 1.1135828-.5391379.1746405-1.0771528.3535146-1.6104513.5469715-.3336343.1210135-.813704-.1709947-.8774887-.3216442-.0640093-.1506494.4111193-.2733093.6179704-.3696262.242-.1127812.3508158-.1722884.081303-.4258404-.1611462-.1515903-.1982042-.4479498-.3151054-.7391349-.1891081.0691506-.4358246.1869888-.6950061.2419094-.122516.0259903-.4403165-.0265783-.4034831-.1080771.0368334-.0816165.0976984-.2617843.183381-.3556315.2714219-.2969476.531614-.6207086.8515481-.848976.318362-.2270914.7085941-.3410487 1.0576132-.5245094.2034821-.1069011.3782162-.2761318.5847304-.3740951.1759694-.083263.3788901-.1464158.5694581-.145716.5785541.0025931 1.1596911.0129422 1.7343148.0756246.3041003.0330464.6010136.1695835.8917505.2853049.0652445.0261078.1336334.166761.1231898.2430853-.0101067.0751484-.1107249.1818143-.1848409.1954562-.5272344.0976105-.8843388.3657453-1.0970293.9110704-.0641216.1640562-.401911.2667236-.6221254.2834233-.1043239.0078794-.2935444-.2376757-.3271212-.3956165-.0614264-.2917731-.2112306-.3876195-.4548028-.3471641-.3272334.0543326-.2564863.3009461-.2003378.5289783.0326784.1326562.0609772.266606.0989336.3973805.1632798.5621424.2701866.5851925.656376.1788742.0844473-.0890255.2297596-.1145453.3473346-.1693483.0229086.041161.0454803.0825573.0683888.1237183"/><path d="m36.5138565 41c.520101.0104872.9628516.1660906 1.3269956.5913454.0925275.1078868.1890325.3573504.1504095.469432-.2041048.5899034-.4131291 1.1880655-.6958405 1.7205516-.2009648.3783247-.5346501.241336-.6149313-.2233767-.0442751-.2554938-.0382043-.5289468-.0295167-.7929613.0172704-.5251451-.2380177-.8147222-.64382-.7371171-.2117457.0402445-.4309229.052698-.6439246.032117-.1185902-.0114048-.2725585.0069477-.347397-.1790685-.0748384-.1860162.1341859-.3625939.2400064-.4107038.4107218-.1865406.8371439-.3181546 1.2580186-.4702186"/><path d="m17 44.9312167c-.222514.2591669-.4453838.2598767-.7095302.1189968-.5629271-.3004491-.9648993-.067187-.9520893.5643475.0075911.3603023-.1536011.4685349-.445621.3224504-.3382782-.169387-.7886436-.2273477-.8684687-.7206046-.0992773-.6116623.0944142-.8899917.7916089-1.1186405.826006-.2711139 1.628527.026378 2.1841003.8334504"/><path d="m12 28.8274561c.1691722-.552294.2556778-1.1760596.5325981-1.6343363.2298284-.3802102.6574937-.6941635 1.0447214-.8091928.729539-.2165618 1.4910698-.2969289 2.243259-.3779095.4271534-.0461651.799409.1746911 1.054191.6145632.0522105.0895694.1451144.2295984.1214405.2803647-.0497791.1058269-.1603424.2234636-.2541421.2337395-.1398678.0154906-.2963713-.0302143-.4290729-.0970847-1.1291796-.5682447-2.1444686-.0730053-3.1262304.52346-.2156241.1311334-.2949636.5562817-.4766765.8044382-.1750587.2394143-.4010481.4251483-.6048993.6345016-.035063-.0575146-.0702538-.1151827-.1051888-.1725439"/><path d="m23.3523552 4c.5708372.00403845.8198846.43636564.5191599.97899609-.5766484 1.03940981-.8068096 2.21033049-1.0691395 3.37426096-.2261142 1.00327394-.4917647 1.99588485-.69038 3.00603055-.1430984.7278119-.2139731 1.4751728-.298753 2.2166098-.036527.3197728-.2203031.4767565-.5737428.4082761-.2562075-.0496424-.264094-.2626663-.2172938-.4927511.4264935-2.0968283.852157-4.19401207 1.2841503-6.28941864.0552055-.26728697.174852-.51917176.2144921-.78799894.0654787-.44796631.3476285-.87389567-.0182635-1.3648696-.2246615-.30176414.400136-1.05232394.8497703-1.04913522"/><path d="m28.4031595 13.9984019c-.3488789.020337-.4543339-.1542611-.3812491-.4759559.300971-1.3295335.5875552-2.6610314.8814768-3.99160491.300971-1.36154122.5940293-2.72435352.9134154-4.08323707.0858889-.36641324.4717418-.52668292.8761536-.41009164.254358.07337509.3661431.17656242.2763697.43978833-.415058 1.21710208-.8194699 2.43778625-1.1693559 3.66783007-.2622706.92059742-.4707347 1.85355872-.6351754 2.78883112-.090205.5103902-.0444551 1.036611-.0494905 1.555783-.0037405.3694176-.173792.5153589-.7121446.508657"/><path d="m54 21h2.3340255v7.222902c0 .1371753.0699062.3428135.3500402.3428135h7.6318686c.280134 0 .3500402-.2056382.3500402-.3428135v-7.222902h2.3340255v16h-2.3340255v-7.8169957c0-.1143543-.0699062-.3429382-.3500402-.3429382h-7.6318686c-.280134 0-.3500402.2285839-.3500402.3429382v7.8169957h-2.3340255z"/><path d="m72.1764542 29.7312416c0 .1398204.0703565.3494241.3512717.3494241h5.2892497c.8423625 0 1.1467724-.279641 1.1467724-.9786163v-.1628273c0-2.3065295-1.1467724-3.331795-3.2531255-3.331795-2.2936724 0-3.5341683 1.3280404-3.5341683 3.681092zm0 1.9335901c0 2.4931263 1.2404959 3.681092 3.5810301 3.681092 2.0127573 0 3.2062637-.9085789 3.2062637-2.4462229v-.326163h2.036252v.2561257c0 2.5162602-2.012885 4.1703365-5.2425157 4.1703365-3.7680941 0-5.7574843-1.9337173-5.7574843-6.4766118 0-4.4265894 2.2000766-6.5233882 5.6872555-6.5233882 3.1126679 0 5.3127445 1.5143829 5.3127445 5.1953478 0 .3494241-.0234947.7456245-.0937235 1.1184367h-8.3785506c-.2809152 0-.3512717.2328647-.3512717.349297z"/><path d="m89.7552674 25h3.2447326l-4.8325724 14.5779367c-.6213505 1.8914897-.8514849 2.4220633-2.0712101 2.4220633h-2.4390737v-1.8454295h3.5208186c.2990618 0 .5521721-.0690904.6904034-.4382014l.828258-2.5373398c.0229758-.0921204 0-.1614625-.1150044-.1614625h-2.4623006l-4.1193188-12.0175668h2.2552674l3.8431073 11.5333052c.0459515.1844926.11513.253583.2301344.253583h.3681147c.0921542 0 .1612071-.0690904.2071587-.2075228l2.4623005-7.4504308c.2531103-.8304685.3912161-1.2226096.3912161-1.6609369 0-.3920153-.1610816-.622694-.6444518-.622694h-1.3575799z"/><path d="m96.4000182 32.4544422v-1.2603017c0-.9000752-.3749659-1.0575976-1.0999364-1.0800657v-9.1140748h2.3750114v9.1140748c-.7001455.0224681-1.074975.1799905-1.074975 1.0800657v1.2603017zm-1.4000182 3.1953836c0-.8100799.6000273-1.3500514 1.5-1.3500514.9001091 0 1.5.5399715 1.5 1.3500514 0 .7877346-.5998909 1.3501742-1.5 1.3501742-.8999727 0-1.5-.5624396-1.5-1.3501742z"/><path d="m54 40.1182608h1.9021936v1.3870717c.3171242-1.0108332 1.1742277-1.5053325 2.1721833-1.5053325 1.1507982 0 1.9256231.5052273 1.9256231 1.828057v4.171943h-1.8903411v-4.161215c0-.6666526-.258275-1.0001052-.9510968-1.0001052-.7866774 0-1.2563685.3011422-1.2563685 1.5699531v3.5913671h-1.9021936z"/><path d="m61.7956117 42.6630012c0 .0633842.0340128.158028.170331.158028h1.7954783c.375075 0 .533935-.0841416.533935-.4737135v-.1684067c0-.6526225-.4202921-.9790573-1.192984-.9790573-.8521886 0-1.3067603.3791932-1.3067603 1.1685921zm0 .926546c0 .7895224.4429673 1.1578427 1.2952893 1.1578427.7841629 0 1.204455-.294928 1.204455-.8315315v-.1685303h1.6933064v.1157719c0 1.3053685-1.0453283 2.1369-2.8977614 2.1369-2.0226308 0-3.090901-1.010564-3.090901-3.0000618 0-1.9788719 1.0909455-2.9999382 3.0795634-2.9999382 1.8637707 0 2.9204366.852536 2.9204366 2.4104528 0 .1580281-.0113376.3159326-.0453505.5158461h-3.9887068c-.1363182 0-.170331.1052696-.170331.1577809z"/><path d="m69.0452237 45.7424774 1.5056696-5.7424774h.0793296l1.675491 4.6369191.9847778-4.5082838h1.7095083l-1.3358482 5.8713647h-2.5584822l-.9962056-2.7799593c-.0225896-.0752157-.0567399-.1180522-.1358039-.1180522-.0679019 0-.1132142.0428365-.1358039.1180522l-.7360254 2.7799593h-1.7659826l-1.3358482-5.8713647h1.7659826z"/><path d="m77.5530544 41.8315074v.4000824c0 .3999588.2204031.5684926.7716463.6210049l1.2623197.0947694c1.0621457.0947693 1.4129796.5894975 1.4129796 1.3474053 0 1.1053542-.8617364 1.7052306-2.4548961 1.7052306-1.6633736 0-2.5451039-.6103789-2.5451039-1.9264003v-.2210462h1.5229459v.2631796c0 .4948517.3407193.7579078 1.022158.7579078.6213393 0 .931715-.2315486.931715-.7367793v-.4738468c0-.4315898-.1902948-.6418863-.7011973-.6841433l-1.2124527-.0946458c-1.112248-.0946458-1.5230635-.4210873-1.5230635-1.242257 0-1.0630972.8516218-1.6419687 2.4447816-1.6419687 1.5631689 0 2.4049114.5998764 2.4049114 1.8735173v.2316722h-1.4829581v-.2421747c0-.4841021-.3007316-.7367792-.9219533-.7367792-.6112248 0-.9318326.2421746-.9318326.7052718"/></g></svg>