<?xml version="1.0" encoding="UTF-8"?>
<svg width="9px" height="41px" viewBox="0 0 9 41" version="1.1" xmlns="http://www.w3.org/2000/svg" xmlns:xlink="http://www.w3.org/1999/xlink">
    <title>Fill 31</title>
    <g id="Page-1" stroke="none" stroke-width="1" fill="none" fill-rule="evenodd">
        <g id="Fill-31" transform="translate(0.653061, 0.428571)" fill="#000000">
            <path d="M3.42861597,28.0516952 L3.42861597,24.965242 C3.42861597,22.7609762 2.51033213,22.3752071 0.734894303,22.3201832 L0.734894303,8.8817842e-14 L6.55124867,8.8817842e-14 L6.55124867,22.3201832 C4.83660664,22.3752071 3.91865685,22.7609762 3.91865685,24.965242 L3.91865685,28.0516952 L3.42861597,28.0516952 Z M7.14983628e-14,35.8771244 C7.14983628e-14,33.8932551 1.46945456,32.5708761 3.67346939,32.5708761 C5.87781825,32.5708761 7.34693878,33.8932551 7.34693878,35.8771244 C7.34693878,37.8062704 5.87781825,39.1836735 3.67346939,39.1836735 C1.46945456,39.1836735 7.14983628e-14,37.8062704 7.14983628e-14,35.8771244 L7.14983628e-14,35.8771244 Z" id="Fill-30"></path>
        </g>
    </g>
</svg>