<svg height="16" viewBox="0 0 68 16" width="68" xmlns="http://www.w3.org/2000/svg"><g fill-rule="evenodd" transform="translate(.244898 .959184)"><path d="m0 .28961828h4.6584334v3.3969102c.77663058-2.4755099 2.87565951-3.68652848 5.31963257-3.68652848 2.81828133 0 4.71581163 1.23729132 4.71581163 4.4768742v10.2170034h-4.6294068v-10.19073067c0-1.63261871-.63251012-2.44923716-2.32921674-2.44923716-1.92655686 0-3.07682066.73749115-3.07682066 3.84478308v8.79518475h-4.6584334z"/><path d="m19.0912939 6.52163553c0 .1552266.0832968.38700746.4171372.38700746h4.3970897c.9185511 0 1.307596-.20606105 1.307596-1.16011463v-.41242468c0-1.59825913-1.0292868-2.39769127-2.9215935-2.39769127-2.0869925 0-3.2002294.92863636-3.2002294 2.86185815zm0 2.26909223c0 1.93352434 1.084818 2.83553314 3.1721371 2.83553314 1.920399 0 2.9496858-.7222727 2.9496858-2.03640358v-.41272727h4.1468727v.28352306c0 3.19682079-2.5599875 5.23322449-7.0965585 5.23322449-4.9533814 0-7.5695534-2.4748507-7.5695534-7.34709012 0-4.84621698 2.6717031-7.34678748 7.5417878-7.34678748 4.5643366 0 7.1520897 2.08784323 7.1520897 5.90314979 0 .38700747-.0277656.77371234-.1110624 1.26329645h-9.7682616c-.3338404 0-.4171372.25780325-.4171372.38640229z"/><path d="m36.8454458 14.0632099 3.687354-14.0632099h.1942768l4.1032431 11.3557203 2.4117007-11.04069502h4.186551l-3.271465 14.37885232h-6.2656707l-2.439687-6.80806355c-.0553217-.18420186-.1389551-.28910743-.3325811-.28910743-.1662905 0-.2772593.10490557-.332581.28910743l-1.8025112 6.80806355h-4.3248553l-3.271465-14.37885232h4.3248553z"/><path d="m57.6809495 4.48532428v.97979356c0 .97949098.5397628 1.39222675 1.889746 1.52082843l3.0913954.23208823c2.6011731.23208822 3.4603581 1.44366741 3.4603581 3.299768 0 2.7069899-2.1103749 4.1760751-6.0119906 4.1760751-4.0735679 0-6.2329074-1.4948055-6.2329074-4.71771514v-.54133746h3.7296635v.6445214c0 1.2118818.8344146 1.8561006 2.5032439 1.8561006 1.5216474 0 2.281751-.5670578 2.281751-1.8043573v-1.16044114c0-1.05695458-.4660279-1.57196652-1.7172178-1.67545305l-2.9692718-.23178563c-2.7238727-.23178563-3.7299515-1.03123424-3.7299515-3.04226205 0-2.60350334 2.0856045-4.02114783 5.9872202-4.02114783 3.8281688 0 5.889579 1.46908516 5.889579 4.58820563v.56736039h-3.6317342v-.59308073c0-1.18555626-.7364854-1.80435733-2.2578448-1.80435733-1.4968771 0-2.282039.59308073-2.282039 1.72719632"/></g></svg>