<?xml version="1.0" encoding="UTF-8"?>
<svg width="29px" height="39px" viewBox="0 0 29 39" version="1.1" xmlns="http://www.w3.org/2000/svg" xmlns:xlink="http://www.w3.org/1999/xlink">
    <title>Group</title>
    <g id="Page-1" stroke="none" stroke-width="1" fill="none" fill-rule="evenodd">
        <g id="Artboard" transform="translate(-49.000000, -2.000000)" fill="#FFFFFF">
            <g id="Group" transform="translate(49.000000, 2.990781)">
                <path d="M18.161959,10.0367862 C17.4724699,10.0458938 16.7792413,10.0309057 16.0676891,10.2847726 C16.4083576,10.4414674 17.808651,10.274661 18.161959,10.0367862 M7.91415704,12.7376727 C7.16887459,12.4638693 6.51648134,12.2243451 5.91831084,12.0046856 C5.90200662,11.9799443 5.92855707,12.0267017 5.96138989,12.0688695 C5.98988488,12.1056587 6.02511097,12.1377865 6.05816816,12.1711334 C6.47048548,12.5853525 7.01637776,12.7270591 7.57221712,12.8382155 C7.65747773,12.8552834 7.76195937,12.7850755 7.91415704,12.7376727 M19.3067697,1.56558925 C19.3111823,1.52994747 19.3155201,1.4943057 19.3197831,1.45873563 C18.4997107,1.28490129 17.6794138,1.11113867 16.8446077,0.934220632 L16.8446077,1.24495669 C17.6743281,1.35302944 18.4906611,1.45938106 19.3067697,1.56558925 M25.2575116,12.6738474 C25.2388141,12.6437276 25.2201166,12.6136078 25.2014191,12.583488 C25.1303686,12.5882211 25.0510164,12.5745954 24.9897633,12.6005558 C24.4364669,12.8358489 23.8837687,13.0729349 23.3381008,13.3240767 C23.2627124,13.358858 23.2086393,13.4660701 23.1755821,13.5507642 C23.0795517,13.7967426 23.1812661,14.1177338 22.8577993,14.2808828 C22.8208531,14.2994566 22.8384287,14.4173542 22.8306506,14.4891397 C22.8568271,14.5026936 22.8830036,14.5162476 22.9093296,14.5297298 C23.6920071,13.9111262 24.4746845,13.2924509 25.2575116,12.6738474 M17.3500386,10.4910933 C17.3554235,10.5236514 17.3606588,10.5561378 17.3660437,10.5886242 C18.4020349,10.9228824 19.5232867,11.002413 20.5084955,11.5909685 C20.4997451,11.5028322 20.5096174,11.4581544 20.4908451,11.4340586 C20.1958733,11.0568438 19.8620855,10.7181394 19.4250127,10.4885834 C19.2648873,10.4046065 19.0923467,10.2531468 18.9372322,10.2657685 C18.4053257,10.3089402 17.8786544,10.4113476 17.3500386,10.4910933 M4.4490611,18.8400182 C4.66273615,18.3025947 4.816654,17.8200323 4.55331837,17.3227686 C4.3973812,17.0287418 4.38922909,16.6588419 4.06845474,16.4442023 C4.03008746,16.4185288 4.0462421,16.3215 4.03173284,16.2586787 C4.01737316,16.1965028 4.01670005,16.1096573 3.97421932,16.0787486 C3.74655853,15.9130897 3.50775403,15.7615583 3.27261424,15.6050787 C3.24995287,15.6164812 3.22751587,15.627812 3.20485449,15.6392145 C3.27508231,16.1204144 3.31816136,16.607423 3.42735477,17.0803041 C3.48172711,17.3160275 3.67274079,17.5199099 3.77221151,17.7498962 C3.83757798,17.9009255 3.89314695,18.0029026 4.09231275,17.9897072 C4.18355656,17.983755 4.34622483,17.9542806 4.3966333,18.097278 C4.44696698,18.2403471 4.21631459,18.2909771 4.15887586,18.352651 C4.25677598,18.5170908 4.33829709,18.6539925 4.4490611,18.8400182 M19.6264222,10.1197591 C19.6444466,10.1523172 19.6490087,10.1761979 19.6628449,10.1832976 C20.4598072,10.5930704 20.9104918,11.2518337 21.1819796,12.059475 C21.2417368,12.2375404 21.4369387,12.3736533 21.5805355,12.5417505 C21.6418633,12.3840518 21.6718541,12.2787041 21.7227113,12.1836116 C21.7879282,12.0617698 21.919783,11.9544142 21.9364612,11.8300624 C22.0135697,11.2559931 21.8921855,10.7117568 21.4721648,10.2843424 C21.1706115,9.97747885 20.8066085,9.71830504 20.3097785,9.87815519 C20.0863059,9.95008416 19.8670216,10.0342045 19.6264222,10.1197591 M9.28124363,11.7688188 C9.13510395,11.7371213 8.98731889,11.6967464 8.83661702,11.6741565 C8.48951659,11.6220205 8.12476571,11.6248174 7.79718547,11.5194698 C7.41224129,11.3957634 7.05167865,11.1938889 6.69380845,11.002915 C6.23145661,10.7562194 5.90574612,10.415005 5.94598314,9.85757331 C5.95106886,9.78707861 5.91898395,9.71407393 5.89490157,9.59603295 C5.71368537,9.90820328 5.64054074,10.5197789 5.70486015,10.9154241 C5.74562071,11.166566 5.95129323,11.2819535 6.12248757,11.4415168 C6.7076446,11.9871874 7.45569428,12.1831813 8.20456665,12.3838366 C8.26424908,12.3997571 8.33881472,12.3790318 8.40298455,12.3621791 C8.57889065,12.3159236 8.74978582,12.2431341 8.92830958,12.2166717 C9.20323765,12.1761534 9.31115964,12.0363114 9.28124363,11.7688188 M22.1638228,12.876439 C22.4469778,12.6830985 22.7275899,12.5311369 22.9542036,12.3243859 C23.1384114,12.1562886 23.3708588,11.9926377 23.3513386,11.684555 C23.3434857,11.5612789 23.3942681,11.4266003 23.4476681,11.3094199 C23.5775036,11.0253614 23.4770606,10.7837575 23.3159629,10.5536278 C23.2643578,10.4798343 23.1795459,10.4274832 23.1102156,10.3650204 C22.8680456,10.1467952 22.6384402,9.91379696 22.3798164,9.71543649 C22.2048078,9.58111647 21.6566718,9.64845577 21.5077649,9.78786747 C21.5218254,9.81060075 21.5310993,9.84000342 21.551517,9.85642589 C22.2361448,10.4050367 22.508156,11.1145017 22.4161643,11.9524062 C22.3970929,12.1258103 22.3408508,12.3415972 22.2175221,12.4470882 C22.0484218,12.5915916 22.0616597,12.6967958 22.1638228,12.876439 M10.6269403,11.1606137 C10.4867838,11.0408516 10.3836484,10.8756947 10.260544,10.8606347 C9.64255417,10.7849766 9.17040484,10.4160807 8.63976972,10.1677357 C8.26888606,9.99425989 7.97309157,9.76054449 7.96800585,9.31140074 C7.96718316,9.24714514 7.85716705,9.12229135 7.8208939,9.12974959 C7.52756748,9.18970235 7.21464608,9.23050753 6.95789198,9.36518611 C6.7286606,9.48552193 6.61587726,9.75014599 6.68191684,10.0158458 C6.76059593,10.3310998 6.96185585,10.5840345 7.26483018,10.7306893 C7.5019893,10.8455748 7.7572476,10.9331374 8.01310423,11.0042776 C8.49303172,11.1376653 8.99741554,11.2069409 9.45767327,11.3840023 C9.91456544,11.5597729 10.2492507,11.4182098 10.6269403,11.1606137 M18.1408682,35.3154116 C18.0149218,34.926364 17.9094679,34.5838587 17.787635,34.2468754 C17.7740232,34.2095125 17.6668491,34.2047794 17.6040255,34.1820461 C17.4904195,34.1408106 17.350263,34.1225953 17.274052,34.0462918 C17.2221477,33.9942993 17.2587948,33.8599076 17.257673,33.7621616 C17.2564015,33.6723759 17.2572242,33.5825184 17.2572242,33.492661 C17.2314965,33.4792505 17.2057687,33.4660552 17.1798914,33.4527164 C16.3891366,34.0250645 15.446932,34.4120324 14.8572876,35.2651402 C14.926244,35.3074513 14.9918348,35.3479697 15.043066,35.3795955 C15.1255594,35.2419766 15.1663947,35.0669231 15.2627242,35.0316399 C15.7597787,34.8494151 16.6665327,34.4374191 16.7954707,34.5383204 C16.9245583,34.6392218 16.6542672,34.882762 16.5003493,34.9776394 C16.2532431,35.130103 15.9239427,35.1836015 15.7870022,35.5552226 C16.0263302,35.5347842 16.2507003,35.5518521 16.4487442,35.4908236 C16.7995094,35.3828226 17.0950047,35.7266904 16.9879802,35.8592893 C16.8810305,35.9917448 16.2696969,35.9741032 15.9134721,36.0311157 C16.1135354,36.3506725 16.1217623,36.3121622 16.4713308,36.3804338 C16.952081,36.4742355 17.4128622,36.4228884 17.8766351,36.3244253 C17.9756571,36.3034131 18.0652555,36.2413089 18.159117,36.1982089 C18.0192596,36.0552832 18.275565,35.7728024 17.9532201,35.6865307 C17.7416391,35.6299485 17.565733,35.3880577 17.6960172,35.2507257 C17.8263014,35.113322 17.9385612,35.2860089 18.1408682,35.3154116 M12.2986466,34.8699252 C12.3703702,34.6529909 12.5229418,34.6408712 12.7277917,34.6991029 C13.1282922,34.812841 13.5337288,34.911089 13.9372209,35.0157912 C13.963547,34.9995121 13.9899479,34.9833048 14.0164235,34.966954 C13.9643697,34.8596701 13.9422318,34.69731 13.8555502,34.6540666 C13.265831,34.3601116 12.6674361,34.0807145 12.0608143,33.8206801 C11.8626208,33.7356992 11.6309214,33.7225038 11.4367665,33.6812684 C11.2799319,34.013662 11.455838,34.192588 11.6669702,34.3697212 C11.7181265,34.4125344 11.7177526,34.511858 11.7410871,34.5852213 C11.6751223,34.6027195 11.5971163,34.6510546 11.5456608,34.6323373 C11.3431294,34.5590457 11.2734999,34.6615248 11.2498663,34.8199407 C11.1884637,35.2315781 11.1336426,35.6440044 11.0816635,36.0567892 C11.0765778,36.0966621 11.0988652,36.1682325 11.127435,36.1789896 C11.3975765,36.2804647 11.3663891,36.4945305 11.3194958,36.7798081 C11.5724356,36.7639594 11.8225334,36.8120793 11.9999353,36.7246602 C12.4699157,36.4935265 12.9089331,36.2045197 13.3589445,35.9365251 C13.4402413,35.88819 13.5152557,35.8300301 13.5931121,35.7764598 C13.5691793,35.7515034 13.5454708,35.7264753 13.5214632,35.7014472 C13.2757033,35.7819818 13.0346551,35.8865406 12.7817153,35.9317203 C12.668184,35.9520153 12.5251855,35.9474973 12.4052223,35.8093048 C12.2854835,35.6711839 12.5048426,35.6394864 12.5806049,35.5984661 C12.7974212,35.4809988 13.0279988,35.3865517 13.2632133,35.2784072 C12.9443087,35.0984772 12.5159863,35.2274187 12.2986466,34.8699252 M16.3275844,33.2855514 C16.3532374,33.3025476 16.3789651,33.3196155 16.4046181,33.3366117 C16.4636274,33.3163884 16.5278721,33.3049142 16.580599,33.2747944 C17.3371,32.8434356 17.957857,32.2319317 18.7231084,31.8075293 C19.1223375,31.5862204 19.466222,31.2753409 19.849072,31.024199 C20.9064532,30.3302242 21.9591226,29.6283609 23.0365474,28.9639322 C24.0547386,28.3360059 25.1048652,27.7559126 26.1342001,27.1444088 C26.3215491,27.0331089 26.5667855,26.9025897 26.6315536,26.7283968 C26.9515801,25.8676156 26.8438077,24.9757823 26.7466555,24.0903316 C26.7286311,23.9257483 26.6245982,23.9583064 26.5177232,24.0125938 C26.0518563,24.2493212 25.5739481,24.4664707 25.1222165,24.7257879 C24.10769,25.3083194 23.1032601,25.9072016 22.101074,26.5095262 C21.8503779,26.6601252 21.5815078,26.8149554 21.3995437,27.029308 C21.2091283,27.2535572 21.0929795,27.5210498 20.7185807,27.4507703 C20.7001823,27.4472563 20.6719865,27.4808901 20.6512697,27.5001811 C20.1904884,27.930751 19.6943315,28.3324202 19.2781251,28.7996358 C18.6657445,29.4872998 18.1087085,30.2203586 17.5335733,30.9380707 C17.4530245,31.0386852 17.3999984,31.160527 17.3404655,31.275556 C17.1410753,31.6605159 16.9426574,32.0459778 16.7474555,32.4329456 C16.6047562,32.7158567 16.4672921,33.0012778 16.3275844,33.2855514 M13.7306509,0.936443761 C13.6220558,1.25112408 13.5139842,1.5658761 13.4050152,1.88034128 C13.0772106,2.82653364 12.7368412,3.76878174 12.4278089,4.72049606 C12.3199617,5.05217255 12.2996188,5.40923575 12.2180229,5.75009161 C12.1800296,5.90922462 12.0729303,6.05250886 12.0287294,6.21113987 C11.8801217,6.74418881 11.7292702,7.27766804 11.6108776,7.81731466 C11.5263649,8.20170083 11.4926346,8.59634207 11.431606,9.01766086 L12.1794313,9.01766086 C12.2195935,8.87251206 12.225128,8.71129935 12.3069483,8.60329831 C12.3698467,8.52018198 12.5261578,8.47973537 12.6462705,8.46668345 C12.7256227,8.45800608 12.8896372,8.53968814 12.8864213,8.56701111 C12.8735574,8.67723528 12.8201573,8.78738773 12.7624194,8.88735682 C12.7236034,8.95455268 12.6525529,9.00468066 12.5957873,9.06255372 C13.167183,9.01780429 13.7441879,9.19414861 14.27946,8.92722971 C14.326129,8.90399443 14.3931408,8.91460808 14.4506543,8.91597064 C14.6073394,8.91962805 14.7675396,8.95068014 14.9196625,8.92859228 C15.7662854,8.80603333 16.6117117,8.67587272 17.4557169,8.53760844 C17.7678904,8.48633305 18.0761,8.41010124 18.3831878,8.33444314 C18.4282862,8.3233275 18.4570056,8.25154194 18.4933535,8.20786822 C18.4586509,8.18370066 18.4072702,8.13142127 18.3918635,8.13981179 C18.1981573,8.24487256 18.1000329,8.06946051 17.9579318,8.01854369 C17.6991584,7.92567427 17.7939173,7.7812426 17.8659401,7.62612558 C17.9253234,7.49797295 18.0033294,7.36881633 18.0221017,7.23370746 C18.0884404,6.75903358 18.1152152,6.27898116 18.1894817,5.80566984 C18.3215609,4.96460996 18.4709165,4.12584493 18.625657,3.28829903 C18.7112916,2.8253145 18.7361967,2.32733362 19.2829864,2.04865365 C19.1401375,2.01129074 19.0402181,1.97557725 18.9367835,1.95980021 C18.0899362,1.83035673 17.243762,1.69553472 16.3945215,1.58129458 C15.9177352,1.51718241 15.4357883,1.45522165 14.9560104,1.45400252 C14.4686787,1.45271167 13.9946596,1.49810653 13.7306509,0.936443761 M17.1102619,11.7469461 C17.0755593,11.7759902 17.0408567,11.805106 17.0060046,11.8341501 C16.9372726,11.7870341 16.8713826,11.7354718 16.7991354,11.6936627 C16.559957,11.5548247 16.3705887,11.2767901 16.016084,11.4586564 C15.9502688,11.4923619 15.8086165,11.4644652 15.7445215,11.4146241 C15.2724469,11.0481664 14.7130177,10.9166433 14.1321237,10.8853043 C13.7996821,10.8673041 13.39619,10.8416306 13.1422031,10.9965325 C12.7838842,11.2152597 12.3963971,11.1985503 12.0342639,11.3193882 C12.0088353,11.3279221 11.9873706,11.3478586 11.9204335,11.3898111 C12.0273084,11.43872 12.102248,11.4886328 12.1851153,11.5079238 C12.3628912,11.5493744 12.5473234,11.5652949 12.7242017,11.6091121 C13.012966,11.680539 13.0728728,11.838668 12.9158885,12.1265991 C12.8057976,12.0774751 12.6986236,12.0125741 12.5815772,11.98102 C12.3884694,11.9288123 12.1902759,11.874023 11.991858,11.8647002 C11.7627762,11.8540148 11.5313759,11.8980471 11.3004991,11.9046448 C11.2060393,11.9072982 11.1091115,11.8560945 11.0161475,11.8628356 C10.943302,11.867999 10.8117464,11.9290275 10.8137657,11.9580716 C10.8436817,12.3656213 10.5616486,12.2465764 10.331071,12.2427755 C10.186128,12.2403372 10.0401379,12.2785607 9.84957292,12.3047363 C10.0950337,12.484738 10.2731835,12.615544 10.4793796,12.7668602 C10.1662338,12.924057 10.0756631,12.9143039 9.78330897,12.7804859 C9.71786771,12.7506529 9.61211464,12.7449158 9.54944061,12.7751073 C9.12979386,12.9776272 8.71044628,13.1827288 8.30478526,13.4093445 C8.15079263,13.4954011 7.95858231,13.5829637 8.00891598,13.8354681 C8.02073281,13.8938432 7.88095028,13.991876 7.79643757,14.0533347 C7.67841893,14.1392479 7.50475653,14.1804117 7.42794719,14.2884844 C7.03477611,14.8414698 6.6500563,15.4015549 6.29532728,15.9777038 C6.17431704,16.1742715 6.03932108,16.2427582 5.85399143,16.1542633 C5.64914159,16.0564456 5.78039806,15.9199025 5.85212168,15.7867299 C5.95084449,15.6037879 6.09399257,15.4024154 6.08187659,15.2170352 C6.07110683,15.0500136 6.18194562,14.7927044 5.91143016,14.6791097 C5.89856628,14.6737311 5.93296968,14.5919774 5.92047975,14.5531802 C5.89527552,14.4747253 5.87381078,14.3772661 5.81435273,14.3298633 C5.4065228,14.0062188 4.97737773,13.7296185 4.40209297,13.869819 C4.3471971,13.8832295 4.28377518,13.8630062 4.22858015,13.8757713 C3.91371421,13.9488477 3.56579108,13.9547999 3.36011855,14.2045792 C3.62158443,14.4007883 3.86001498,14.5739055 4.09134048,14.7554849 C4.24196756,14.8738845 4.38601312,15.0007462 4.52444943,15.1321977 C4.56625704,15.1718555 4.57224024,15.2439279 4.60664365,15.2936973 C4.7896548,15.5584648 4.98066849,15.8181406 5.15926703,16.0854897 C5.22425955,16.1827337 5.27062935,16.2938184 5.31019327,16.4036123 C5.34915887,16.5116134 5.32933951,16.6749058 5.40315725,16.7292648 C5.76476695,16.9953949 5.79341152,17.072057 5.62834997,17.4689214 C5.59349783,17.5528265 5.59252556,17.6880071 5.64113906,17.7579998 C5.76476695,17.9364956 5.661108,17.9681931 5.51825908,18.0341698 C5.40973877,18.0845129 5.28917728,18.1734381 5.24310663,18.2744112 C5.05867447,18.6762955 4.89166837,19.0862118 4.73707742,19.4996421 C4.61277643,19.8316054 4.51584858,20.1726764 4.39603498,20.5425764 C4.50044183,20.5283771 4.53753768,20.5343293 4.55444022,20.5193411 C4.69826141,20.3922642 4.86025657,20.3949176 4.94521802,20.5467358 C4.98403404,20.6162265 4.91455412,20.802539 4.8346036,20.8617747 C4.38347026,21.195746 4.2775676,21.6646111 4.39700725,22.1328307 C4.45840985,22.3735024 4.44472328,22.5464761 4.39379128,22.7711556 C4.33440801,23.0331979 4.4145829,23.319121 4.24107008,23.5705497 C4.19716834,23.634375 4.21915661,23.7399378 4.20741458,23.8616362 C4.60941088,23.7245193 4.96361636,23.6036815 5.31797143,23.482772 C5.34272692,23.5143261 5.36748242,23.5459519 5.39223791,23.5776494 C5.32739497,23.6614111 5.27646298,23.7618105 5.19434354,23.8247753 C5.07505348,23.9162821 4.87730869,23.9503462 4.81164306,24.0623632 C4.61831089,24.390956 4.37853412,24.3685096 4.07787828,24.2407872 C4.02918998,24.2200619 3.91984699,24.2854649 3.86457717,24.3367403 C3.80549306,24.3917449 3.75560813,24.4737855 3.74214592,24.5505193 C3.73010473,24.6190777 3.76129217,24.7020506 3.79494767,24.7686011 C3.83189394,24.8411038 3.89374527,24.9019888 3.94460248,24.9679655 C3.85732254,25.0099181 3.77363252,25.0615521 3.68223913,25.0913133 C3.5783558,25.1249471 3.46766659,25.1388596 3.32481767,25.1686926 C4.10936487,25.3337061 4.84559773,25.444504 5.55266248,25.6486733 C6.38133579,25.8879823 7.18689899,26.2028061 7.99792185,26.4964025 C8.33021387,26.6167383 8.68643868,26.7192174 8.97026677,26.9125579 C10.2416221,27.7782874 11.5496246,28.6061519 12.5274292,29.8075021 C12.9902298,30.3760494 13.4320144,30.9513378 13.7531627,31.6106748 C13.9677352,32.0514997 13.9518797,32.5747956 14.300476,32.9653492 C14.3360012,33.005222 14.3427323,33.0988803 14.3202953,33.150586 C14.2398961,33.3361097 14.3117693,33.4721508 14.4141568,33.6287021 C14.4661359,33.7084479 14.4362946,33.9416613 14.4150543,33.9451036 C14.1965179,33.9806737 13.9721478,33.9889207 13.7492736,33.9892793 C13.7180114,33.9894227 13.6499525,33.8948322 13.6609466,33.864569 C13.7304265,33.6719456 13.5806969,33.6147897 13.4686615,33.5138883 C13.3795118,33.4334971 13.3341891,33.3071373 13.2746562,33.1985626 C13.2406268,33.1364584 13.2283612,33.061374 13.1867779,33.0055089 C12.9413919,32.6757687 12.6553949,32.3689052 12.4493484,32.0185114 C12.1288733,31.4736296 11.8555906,30.9027158 11.5741558,30.337539 C11.4401321,30.0685404 11.3437277,29.7823305 11.2116486,29.5123996 C10.9908685,29.0611762 10.5925369,28.7741057 10.1858288,28.4833778 C9.52984562,28.0142259 8.92195242,27.4907866 8.16522711,27.1522973 C6.64826134,26.4736692 5.1235922,25.8372807 3.42660687,25.7060443 C2.92065246,25.667032 2.41634342,25.6111669 1.83604773,25.5558038 C1.97448404,25.7929615 2.04097236,26.0466851 2.21067089,26.1716823 C2.78864809,26.598021 3.13679558,27.1995567 3.5738684,27.7301674 C3.91820161,28.1483308 4.17368428,28.6415068 4.84320445,28.6247258 C4.9057289,28.6231481 5.01507189,28.6694752 5.02337358,28.7089178 C5.04005175,28.7878747 5.02083072,28.8872701 4.9805937,28.9599162 C4.9446197,29.0244587 4.86018178,29.0643316 4.75390518,29.1499579 C5.12254514,29.4117851 5.46246573,29.6622816 5.8123334,29.8992958 C6.16309854,30.1370989 6.51947294,30.3678023 6.88130701,30.5897566 C7.21389818,30.7937108 7.55142549,30.9913541 7.89665618,31.1745829 C8.39146688,31.4374859 8.88089271,31.7170981 9.39911269,31.9304468 C9.99391764,32.1754212 10.6037554,32.37873 11.0958736,32.804997 C11.3280218,33.0060826 11.5482036,33.2409454 11.8198409,33.374118 C12.418161,33.6676428 13.0446021,33.9087447 13.6618441,34.1666276 C14.2399709,34.4081598 14.8000732,34.5017464 15.3485084,34.0647223 C15.5521616,33.9025056 15.6806508,33.8061222 15.6628508,33.493665 C15.6325608,32.9556678 15.8721132,32.4437744 16.1605035,31.9827979 C16.3389525,31.6974485 16.6043074,31.4633746 16.8176086,31.1967425 C17.2871402,30.610195 17.7283265,30.0019183 18.218575,29.4322953 C18.6404655,28.9423464 19.1099224,28.4894735 19.5667397,28.0279949 C19.9106242,27.6806848 20.2491986,27.3250559 20.6245696,27.0108059 C21.0210315,26.6789142 21.4432959,26.3705447 21.8819393,26.0916496 C22.2472885,25.8592968 22.4920762,25.4300178 23.006781,25.4307349 C23.0212155,25.4307349 23.0461206,25.4100813 23.0482147,25.3964557 C23.0844131,25.1685491 23.315215,25.1909956 23.4595597,25.1076641 C23.7698635,24.9283078 24.0917597,24.7672385 24.4071492,24.5953404 C24.6563495,24.4594427 24.9009128,24.3157999 25.1505619,24.1804759 C25.4684942,24.0082193 25.7909887,23.8434926 26.1072009,23.6684391 C26.1538698,23.6426221 26.1769052,23.5774342 26.2108598,23.5305334 C26.2088405,23.4999116 26.2067464,23.4693615 26.2048766,23.438668 C25.6716987,23.9625375 25.4251908,23.2771684 25.0031508,23.324643 C25.1194492,22.8820969 25.2220611,22.8577859 25.8242703,23.0776605 C25.8242703,22.9922493 25.8163425,22.9105673 25.8258409,22.8308932 C25.8519426,22.6123811 25.7964484,22.5481255 25.5496414,22.6202697 C25.4334925,22.654262 25.2615502,22.5708588 25.1360526,22.504165 C24.9364381,22.3979568 24.7598589,22.252808 24.5637595,22.139787 C24.3627987,22.0238974 24.0153991,21.9680323 23.9384402,21.8193695 C23.861556,21.6707068 24.1524144,21.4291028 24.8234304,21.6609537 C24.8234304,21.3592536 24.8304606,21.0701034 24.8187186,20.7815269 C24.8155774,20.7044345 24.7651689,20.6233262 24.7193975,20.5546243 C24.5321981,20.2746535 24.3248802,20.0060852 24.153611,19.7177238 C24.0824857,19.5981052 24.0600487,19.437753 24.0685748,19.2989868 C24.0706689,19.2652095 24.165727,19.2639187 24.2821751,19.2406834 C24.3253289,19.232006 24.4801442,19.3271703 24.5876923,19.2160856 C24.6952403,19.1049291 24.2562977,17.9929344 23.8499636,17.5061408 C23.6798911,17.3023301 23.5694263,17.1519462 23.6146742,16.8657363 C23.6742819,16.4886649 23.7567752,16.3224323 24.132969,16.1895465 C24.3024432,16.1297372 24.4927089,16.0718641 24.6172343,15.9568351 C24.9835558,15.6181307 25.341052,15.2666611 25.6661642,14.8915978 C26.0916446,14.4005731 26.2581271,13.8267907 26.1439228,13.152609 C25.9363057,13.236801 25.7441702,13.2949609 25.5729011,13.3881889 C25.221762,13.5794497 24.8935834,13.8121611 24.5338434,13.9854935 C24.164306,14.1634872 23.9535478,14.464255 23.7653761,14.7840987 C23.6657558,14.9534868 23.572717,15.1427396 23.7555038,15.3499209 C23.8218426,15.4249336 23.7813064,15.58672 23.7892341,15.7088487 C23.7619358,15.7337334 23.7346374,15.7586898 23.7072643,15.7836462 C23.4078051,15.6523382 23.0686324,15.5665684 22.8251909,15.3712199 C22.6966269,15.2682389 22.7348446,14.9740687 22.6946075,14.7491024 C22.6424789,14.7581383 22.6078511,14.8419718 22.4928989,14.7841705 C22.3780962,14.7263691 22.4035248,14.5844474 22.3651575,14.4988211 C21.9808117,14.5501682 21.9839529,14.5486622 21.7996703,14.1926747 C21.7688568,14.1330805 21.7051357,14.0633747 21.6434339,14.0485299 C21.3409083,13.9754535 21.3022419,13.8861698 21.4444925,13.6060556 C21.4750068,13.5460311 21.448606,13.3896232 21.426169,13.3853921 C21.2169813,13.345806 21.2348561,13.2165777 21.2501881,13.0665524 C21.2578914,12.9936911 21.2391939,12.8968057 21.1919266,12.8442395 C21.0351668,12.669688 20.8528287,12.5162921 20.6936756,12.3434617 C20.5239771,12.1590138 20.335955,12.0533076 20.0648412,12.0615547 C19.9607335,12.0647101 19.7997106,11.9795857 19.7558837,11.8924534 C19.5701801,11.5220515 19.1718485,11.5792791 18.8575061,11.4504811 C18.9211524,11.5774145 19.0138172,11.6682043 19.1158308,11.7478066 C19.3031049,11.894318 19.5196968,12.0212515 19.5007002,12.2960589 C19.4974094,12.3420275 19.4554522,12.3913666 19.4182068,12.4260044 C19.4057168,12.437622 19.3262151,12.415319 19.3208302,12.3968886 C19.2583057,12.1798825 19.0664694,12.2276439 18.9070171,12.1971655 C18.5386015,12.1266708 18.4163198,11.8281261 18.263449,11.5520996 C18.1848447,11.4097476 18.0924791,11.2067257 17.9629428,11.1696497 C17.459606,11.0256483 16.9389927,10.9370817 16.4248862,10.8278615 C16.4066374,10.8612802 16.3883887,10.8946988 16.3699903,10.9281175 C16.5232351,11.0382699 16.700637,11.1284859 16.8230682,11.2641685 C16.9470701,11.4016439 17.0168491,11.5841556 17.1102619,11.7469461 M0.0174538544,24.5115787 C0.59101844,24.2105957 1.18627213,23.9063139 1.77337371,23.5876893 C2.36571058,23.2661962 2.94967098,22.9303603 3.57297092,22.5808271 C3.51037168,22.0066144 3.44777245,21.4220032 3.38248077,20.8377505 C3.36894377,20.7179884 3.35196644,20.597796 3.3245933,20.4803288 C3.22916125,20.0684762 3.12280985,19.6587751 3.0341089,19.2456317 C3.01668283,19.1649536 3.02872402,19.027263 3.08122661,18.9936292 C3.24165118,18.8910784 3.24082849,18.7722486 3.16865613,18.6386457 C2.86777592,18.0816444 2.85042464,17.4915829 2.89073645,16.881083 C2.90786336,16.6206184 2.8072708,16.3524803 2.75491779,16.0887169 C2.71714884,15.8982449 2.65477397,15.7109284 2.63345882,15.5191656 C2.61685544,15.3695705 2.57056042,15.2949881 2.40864005,15.2477287 C2.06557827,15.1476162 1.67053744,14.5729732 1.68377527,14.2379979 C1.69731227,13.9044568 1.85339902,13.698423 2.20805324,13.5861908 C2.81841451,13.3929937 3.44627665,13.3250807 4.08954552,13.3425072 C4.78546656,13.3612962 5.48191113,13.3536228 6.17813133,13.3551288 C6.23100787,13.3552723 6.28403399,13.3374155 6.42060055,13.3128894 C6.27528356,13.209478 6.1963801,13.1315251 6.1004993,13.0883534 C4.91335748,12.5530096 4.40358877,11.5608486 4.15752964,10.4065427 C4.11931194,10.2261107 4.207265,10.0063795 4.28093315,9.82092754 C4.55496375,9.13268985 5.09823838,8.70606424 5.80777121,8.47242056 C6.22322971,8.33573399 6.64526974,8.19703943 7.07628456,8.13034556 C7.76906442,8.0232768 8.43394761,8.21195591 9.0876123,8.41806147 C9.20690236,8.45571124 9.32738907,8.49063588 9.44480938,8.53316218 C9.93445958,8.71008022 9.93453437,8.70957822 10.117022,8.24164544 C10.6795924,6.79747219 11.244631,5.35408781 11.8064535,3.90948428 C12.1387455,3.05501392 12.4702149,2.20018499 12.7934573,1.34255922 C12.8585994,1.16965716 12.8951717,0.984994029 12.9271818,0.802912598 C13.0310651,0.211918871 13.601339,-0.115239652 14.2034733,0.0372956787 C14.5543133,0.126220836 14.9295348,0.124499704 15.28561,0.199440663 C16.2742591,0.407697645 17.2584957,0.635675931 18.2450507,0.853183997 C18.3765315,0.882228101 18.5133972,0.889040915 18.6446537,0.918587016 C19.19623,1.04279538 19.748629,1.16392005 20.2958675,1.30333175 C20.4733442,1.34843975 20.6090881,1.81687453 20.5292872,2.03395232 C20.0984967,3.20568469 19.9250587,4.41879595 19.8724813,5.65471221 C19.856925,6.02023763 19.7599223,6.3823208 19.7366626,6.74798965 C19.7129542,7.12398529 19.7335215,7.50263435 19.7345685,7.8802077 C19.7347929,7.99781839 19.7345685,8.11542908 19.7345685,8.25017938 C20.1076959,8.23289635 20.4893493,8.20091198 20.8714515,8.20040998 C21.5806103,8.19940599 22.298744,8.16656105 22.9807541,8.39267478 C23.1832107,8.45979893 23.3496932,8.63334641 23.5251506,8.767021 C23.9756856,9.11017171 24.417545,9.47906768 24.4808921,10.0642526 C24.5196333,10.4225349 24.4845568,10.7983154 24.4152265,11.1541595 C24.3551701,11.4628158 24.2003548,11.7546194 24.0771009,12.0813477 C24.4533694,12.0591164 24.8344993,12.0382477 25.21533,12.0135064 C25.6393146,11.9861117 26.0632244,11.9593624 26.4863862,11.9240792 C26.7847236,11.8992662 27.2826755,12.3780995 27.2484964,12.6972261 C27.2211233,12.9532445 27.1908333,13.2261874 27.07805,13.4533768 C26.7868177,14.0406414 26.5824914,14.6737311 26.1199152,15.1773774 C25.9837974,15.3255382 25.9010048,15.5189504 25.7959249,15.6927848 C25.555101,16.091442 25.3168948,16.4914618 25.075024,16.889617 C24.899417,17.1789106 24.7770606,17.4483395 24.9007632,17.818096 C25.0386012,18.2303072 24.9483297,18.7018973 25.1884804,19.0994789 C25.3225041,19.3215049 25.4566026,19.5481206 25.625628,19.7451185 C25.8286829,19.981559 25.8138745,20.1072734 25.5112741,20.1942623 C25.4130748,20.222661 25.3051528,20.2198641 25.1467476,20.2373623 C25.2458443,20.384806 25.3248974,20.5146797 25.4162908,20.6359478 C25.5305699,20.787766 25.7249491,20.8954802 25.6715491,21.1330681 C25.6638457,21.1672756 25.7465635,21.2350452 25.8007114,21.2649499 C26.3684424,21.5786262 26.9365473,21.8915137 27.5105606,22.194146 C27.6164633,22.2501546 27.7475702,22.2744655 27.870151,22.2871589 C28.1895791,22.3199321 28.5113257,22.33198 28.8303799,22.3674067 C28.894101,22.3745063 28.9910289,22.4428496 28.9986575,22.4931927 C29.0085297,22.5578786 28.9625339,22.6535449 28.9074136,22.699872 C28.7520748,22.8305346 28.5582191,22.9233323 28.4182122,23.0658277 C27.978073,23.5136806 27.7931173,24.0803634 27.7082306,24.6709268 C27.6545314,25.045273 27.666423,25.4292289 27.6631322,25.8089537 C27.6622348,25.9252018 27.675323,26.063251 27.7391189,26.1545427 C27.9814385,26.5008488 27.7964828,26.8769879 27.5039043,27.1475642 C26.8202488,27.7800085 25.9603881,28.0974139 25.1190005,28.4582062 C24.5612166,28.6973002 23.9740402,28.8975969 23.5622464,29.3714102 C23.5237296,29.4157294 23.4438538,29.4256259 23.3850689,29.455172 C23.0583861,29.6191815 22.7303571,29.7812548 22.4063668,29.950356 C22.1537262,30.0821661 21.8958502,30.2085976 21.6586911,30.3631409 C20.8877557,30.8652812 20.1234018,31.3764574 19.3610672,31.8905022 C19.1614527,32.0251808 18.9791146,32.1832381 18.7791261,32.3379965 C19.1223375,32.5441738 19.1226367,32.5484049 18.9174877,32.8269415 C18.5653763,33.3048425 18.5777914,33.8256283 18.6943143,34.3710121 C18.7868295,34.8042354 18.8367892,35.2457057 18.9078397,35.6832318 C18.9622121,36.0186375 19.2893436,36.098455 19.5157329,36.2717873 C19.5894759,36.3281544 19.6691273,36.3775652 19.7460862,36.4302032 C19.7387568,36.4575261 19.7315021,36.4847774 19.7241727,36.5121004 C19.1760367,36.6135037 18.6283495,36.7177039 18.0796152,36.8155933 C17.4069538,36.9354989 16.7257664,36.9937305 16.0620799,36.8132985 C15.6805012,36.7095286 15.3320546,36.4976859 14.9607222,36.3532542 C14.6713596,36.2408069 14.3724988,36.1483678 14.071469,36.0685503 C14.0119361,36.0527732 13.9150083,36.1239851 13.8507637,36.1735393 C13.6254214,36.3468 13.4146631,36.5378456 13.1826645,36.7019269 C13.0809501,36.7739276 12.9342121,36.7843261 12.8205313,36.8447809 C12.2584843,37.1440427 11.6764685,37.4167704 11.1491241,37.7651562 C10.7215496,38.0474936 10.3220214,38.0677886 9.88494859,37.8661293 C9.79968798,37.8268301 9.62236087,37.7900409 9.68151976,37.6438881 C9.74045429,37.4978788 9.89220322,37.5072733 9.98883191,37.5169546 C10.2072187,37.5389708 10.2826071,37.4790897 10.295097,37.2673188 C10.3075121,37.057771 10.3912022,36.8526694 10.4118442,36.642763 C10.4636737,36.1124392 10.4936645,35.5800356 10.5416049,35.0492098 C10.5531973,34.9217026 10.6060739,34.7982114 10.6314277,34.6712779 C10.6771992,34.4417219 10.6816866,34.2359749 10.5284418,34.0128015 C10.4180518,33.8524493 10.432561,33.6115625 10.3989803,33.4055287 C10.3861912,33.3267152 10.4296442,33.2123316 10.3870139,33.1699487 C10.2045263,32.9881542 10.0257782,32.7764549 9.79774344,32.6677367 C9.0583694,32.3149764 8.28967768,32.0192285 7.55000448,31.6670419 C7.23431585,31.5168014 6.97150376,31.2674524 6.66927733,31.0873072 C6.14215734,30.7732006 5.59955582,30.4831898 5.07026692,30.1722386 C4.78434471,30.0042131 4.52138304,29.799255 4.23202049,29.6374686 C3.93517894,29.4713076 3.63175587,29.2961824 3.30694286,29.2019504 C3.01832821,29.1182604 2.83352209,28.9485137 2.66659079,28.7444879 C2.41888628,28.4417121 2.33474752,28.0927525 2.21455997,27.7445819 C2.02556562,27.1977639 1.79655861,26.6573284 1.5173675,26.1480167 C1.33869417,25.8222925 1.050977,25.5474133 0.788164906,25.2705262 C0.684954692,25.1619515 0.51996793,25.1038633 0.376894642,25.0343725 C0.168828834,24.9331126 -0.0665353267,24.8584585 0.0174538544,24.5115787" id="Fill-1"></path>
                <path d="M17.0032925,20.3261171 C17.5294584,20.2083891 17.5294584,20.2083891 17.4748612,19.9230221 C17.306322,20.067235 17.1547702,20.196676 17.0032925,20.3261171 M14.4553975,27.1509038 C14.4183812,27.1456814 14.3813649,27.1405336 14.3444227,27.1353112 C14.2032563,27.2231968 14.0718817,27.3506235 13.9184012,27.3899407 C13.6807995,27.4505206 13.6485307,27.6182344 13.6429671,27.8011677 C13.6314691,28.1648709 13.6436348,28.5292455 13.6388872,28.8931724 C13.6365134,29.079463 13.6185616,29.2654552 13.6069894,29.4595794 C14.1972476,29.3647555 14.2684614,29.2873893 14.3174209,28.7582852 C14.3404911,28.5099972 14.3858899,28.2638727 14.4068831,28.0152863 C14.4312145,27.7279049 14.4398937,27.4391059 14.4553975,27.1509038 M15.6038679,29.0731215 C15.6296087,29.0343265 15.6482281,29.0190323 15.6492666,29.0025445 C15.6945171,28.3205731 15.7387289,27.6385271 15.7808637,26.956332 C15.7831634,26.9202228 15.7804187,26.868521 15.7581644,26.8483028 C15.4891098,26.6015069 15.215827,26.3591874 14.9226637,26.0968735 C14.9525586,26.3886567 15.0054497,26.6258284 14.9955094,26.8603143 C14.9683592,27.4949856 14.9219961,28.1289855 14.8671763,28.7619409 C14.8497438,28.9627796 14.9226637,29.0584988 15.107226,29.0707341 C15.2772489,29.0820742 15.4485328,29.0731215 15.6038679,29.0731215 M14.6258655,21.7919713 C14.7262324,21.6410438 14.8449962,21.4343858 14.9910586,21.2497365 C15.1890477,20.9995834 15.4102554,20.7695738 15.7592029,20.7444316 C15.9771467,20.7286898 16.1999122,20.7211546 16.1564422,20.3969925 C16.151843,20.3628977 16.1925683,20.311942 16.2255047,20.2850839 C16.6077594,19.9733064 16.996913,19.6698101 17.3725656,19.350199 C17.4375482,19.2949161 17.50305,19.1315294 17.4727841,19.0921376 C17.3836927,18.9757526 17.2338471,18.8058006 17.1307355,18.820498 C16.8680606,18.8579501 16.6177739,18.9844069 16.3255007,19.0882581 C16.483803,19.2311281 16.7301581,19.3319951 16.4901083,19.526567 C16.3272069,19.6586938 16.1946454,19.7933572 16.1307756,19.9964341 C16.1155684,20.0449279 16.0640126,20.0989425 16.0164626,20.1173701 C15.5991203,20.2788916 15.1851903,20.4549612 14.7563499,20.5770163 C14.6143674,20.6173034 14.3310702,20.561349 14.2856714,20.4660029 C14.1180965,20.1140128 13.7788667,20.1150573 13.5034327,19.9801701 C13.394164,19.9266778 13.223251,19.8243932 13.2245121,19.7470271 C13.2321527,19.3124484 12.931052,19.394664 12.67038,19.3465433 C12.3661637,19.2903651 12.3847831,19.5955773 12.1364993,19.6964443 C13.3601891,20.0062075 13.9286382,20.9596693 14.6258655,21.7919713 M11.0780105,20.6146176 C11.3354186,20.5854467 11.5964615,20.5608268 11.8557242,20.5233747 C11.9357655,20.5118108 12.0524522,20.4843559 12.0774512,20.4296699 C12.108533,20.3616294 12.0915456,20.2286819 12.0413992,20.1766071 C11.9807933,20.1140128 11.8578012,20.0712637 11.7724931,20.0853642 C11.6765028,20.101106 11.5983902,20.2192816 11.5016582,20.2393505 C11.389274,20.2624783 11.2437309,20.2615831 11.1538235,20.2048827 C11.0997455,20.1710117 11.1083505,20.0090425 11.1170297,19.907131 C11.1500402,19.5190318 11.2601249,19.1648782 11.4999521,18.8415368 C11.7701935,18.4770876 11.9254543,18.4059883 12.345393,18.5695988 C12.6043589,18.6704658 12.8572419,18.8070689 13.1259255,18.8588453 C13.905197,19.009176 14.6857295,18.9917928 15.4569895,18.7801363 C16.0002912,18.6309993 16.5259378,18.4508264 16.9929814,18.1152496 C17.2611457,17.9223191 17.6583108,17.9803624 17.8905716,18.2240994 C18.1707532,18.5177478 18.4671805,18.808188 18.5113182,19.2477652 C18.5171043,19.3063308 18.4984849,19.3679551 18.4875803,19.4275651 C18.4391401,19.6951014 18.3245305,19.9710682 18.3585795,20.2272644 C18.3923319,20.4818939 18.3070979,20.6525173 18.1372234,20.7367472 C17.7861247,20.9105787 17.4868785,21.2347407 17.0333359,21.1594635 C16.9292599,21.1422296 16.8124248,21.2110907 16.700189,21.2335471 C16.5312046,21.2672689 16.3442685,21.3556767 16.1946454,21.313599 C15.7920651,21.2006459 15.6561655,21.4023799 15.4966021,21.7246022 C15.2296247,22.2638528 15.1677577,22.8433904 15.0590826,23.4155421 C14.9192514,24.1519756 15.0623465,24.8749802 15.3419347,25.5374048 C15.5861386,26.1159726 16.0402747,26.6116533 16.6674751,26.7736224 C16.9972097,26.8588222 17.3978613,26.7296796 17.7521498,26.6397051 C18.1208294,26.5460748 18.4734859,26.3860455 18.830074,26.2472787 C18.8917926,26.2231811 18.9512116,26.1692411 18.9898599,26.1137344 C19.1151516,25.9338599 19.2182632,25.7372737 19.3535694,25.5659042 C19.4408062,25.4555623 19.5744062,25.3837169 19.6782596,25.2850135 C20.0036175,24.9759964 20.4288231,24.9199674 20.8278427,25.1412482 C20.9940081,25.2334609 21.0539464,25.33015 20.9449003,25.5353158 C20.7881559,25.8297848 20.5966205,26.0118975 20.2660699,26.1282825 C19.7546661,26.3085301 19.291109,26.6258284 18.7800018,26.8074189 C18.2351423,27.0010208 17.6632068,27.1310587 17.0934225,27.2347607 C16.8426907,27.2803448 16.5679984,27.1923846 16.2651915,27.1609756 C16.2651915,27.8877104 16.2491684,28.5987034 16.2751318,29.3082043 C16.2826983,29.5158322 16.2295105,29.5738755 16.0525146,29.5670863 C15.899405,29.5614163 15.7468888,29.5448538 15.5939276,29.5333645 C14.9290432,29.4832295 14.3108929,29.6094624 13.7288687,29.9589905 C13.6000163,30.0362074 13.3686458,29.9894296 13.2017385,29.9406374 C13.031864,29.89095 13.0465519,29.7400225 13.0616106,29.5619385 C13.1105701,28.9770293 13.1123504,28.3879421 13.1280768,27.8004217 C13.1322309,27.6494196 13.0572339,27.5973448 12.8981898,27.5786933 C11.9959263,27.4726785 11.0942561,27.359427 10.1959983,27.2240921 C9.91633593,27.182089 9.64535271,27.0713741 9.37540803,26.9770724 C9.11688722,26.8867994 8.9943402,26.6905116 9.0002005,26.4142464 C9.00405791,26.2385498 9.09070133,26.1245522 9.26688122,26.157901 C9.89578779,26.2773448 10.5232849,26.4063382 11.1477406,26.5477908 C11.2382415,26.5681581 11.3352702,26.6603709 11.384378,26.7455707 C11.5509886,27.0340712 11.7667811,27.1233743 12.0850176,27.0223581 C12.2204722,26.9794598 12.3628255,26.9448427 12.5037694,26.9360392 C12.9800115,26.9064207 13.3612277,26.635751 13.7720421,26.4434919 C14.0268539,26.3241973 14.0851601,26.0689709 14.1183932,25.8154605 C14.2395308,24.8946761 14.3122282,23.9735932 14.1913873,23.0447514 C14.1453951,22.6918661 14.1497718,22.3327139 14.1180965,21.977665 C14.0802642,21.5533074 13.7821307,21.2941269 13.3616728,21.227504 C12.8526427,21.1470044 12.3522918,21.0121171 11.8443003,20.9240077 C11.6842177,20.896329 11.5114501,20.9495975 11.3440978,20.9544469 C11.1396549,20.9602661 11.0453708,20.8581308 11.0780105,20.6146176" id="Fill-4"></path>
                <path d="M15.9249283,16.2036784 C15.8124006,16.2346295 15.50534,16.3469955 15.2939012,16.3519298 C14.3089972,16.375031 13.4465654,16.7137737 12.6939075,17.3102929 C12.3610673,17.5741998 12.0668583,17.8907384 11.7848889,18.2086976 C11.4328478,18.6056045 11.0790473,19.00767 10.7857563,19.4456955 C10.4454958,19.9539218 10.425071,20.5625523 10.4096186,21.1477078 C10.3892702,21.906683 10.4039577,22.6679009 10.4378461,23.4267266 C10.4646202,24.02818 10.513502,24.6320258 10.6072113,25.2264517 C10.6854682,25.7220433 10.4405235,26.0607113 9.98957132,25.9908844 C9.73078061,25.9508124 9.68457618,25.8030096 9.80949643,25.6288162 C9.98077412,25.3899543 9.94137796,25.1521391 9.87910907,24.9079692 C9.71257423,24.254482 9.51750585,23.6071252 9.37024835,22.9495262 C9.21970146,22.2774982 9.07994071,21.5996389 9.00390229,20.9169949 C8.97735769,20.6779835 9.08919689,20.3648091 9.24930596,20.1758876 C9.88905373,19.4210991 10.5634548,18.6936732 11.2438227,17.9731252 C11.6104748,17.5848158 11.9941858,17.2065244 12.4071187,16.8666603 C13.2695504,16.1565041 14.3078497,15.9758064 15.4002326,16.0024962 C15.5702098,16.006608 15.8023029,16.0154298 15.9093993,16.0503433 C16.0164192,16.0852568 16.037303,16.1727273 15.9249283,16.2036784" id="Fill-6"></path>
                <path d="M13,16.4552273 C13.8257916,15.1819665 16.9500204,15.188979 18.4080964,15.989955 C18.4284502,15.9385028 18.4453628,15.8857458 18.4694505,15.8377998 C18.5125009,15.7525896 18.5599442,15.6702333 18.6054107,15.5867354 C18.4965401,15.5656979 18.3883284,15.5322661 18.2786523,15.5265583 C18.0872684,15.5166103 17.8335054,15.6757781 17.6832683,15.5237859 C17.5332508,15.3717121 17.699522,14.8968996 18.8445308,14.6901935 C18.7888142,14.6054725 18.6723292,14.5173269 18.6675702,14.4213533 C18.6626648,14.3252981 18.8074108,14.2745797 18.8869223,14.2578638 C19.3583534,14.1588732 19.8305167,14.0531962 20.3070729,14.0023962 C20.4735637,13.9846203 20.689255,14.0676289 20.8192848,14.1887987 C21.1783309,14.5231978 21.5090429,14.8964919 21.8389495,15.2677475 C21.9093823,15.3471683 22.0596194,15.4561069 21.9746901,15.598885 C21.8896143,15.7416631 21.3925579,15.576869 21.2591602,15.2909867 C20.8559654,14.4273057 19.7005601,14.099756 19.0144627,14.7436843 C19.2855777,14.7436843 19.4873582,14.7242776 19.6845261,14.7500445 C19.8325667,14.7692882 19.9930539,14.8152772 20.1151032,14.9047276 C20.325157,15.0584321 20.5147837,15.2485854 20.702873,15.4358033 C20.910291,15.6418571 21.1047499,15.8641375 21.3086536,16.074676 C21.3913133,16.1600493 21.4756569,16.253169 21.5747899,16.3074752 C21.7874794,16.4237525 21.8769481,16.5815341 21.7694685,16.8611377 C21.11705,17.0154131 20.9769166,16.230256 20.5028497,15.9716083 C20.431099,16.135424 20.3635216,16.2889654 20.296896,16.4409576 C20.4725387,16.6139874 20.8801264,16.5147521 20.7229339,16.9841829 C20.1693555,17.0622175 19.6571437,16.831783 19.1229673,16.723089 C18.4624951,16.5886281 17.9224616,16.1253944 17.2600126,16.0180051 C15.9055358,15.7986602 14.5657752,15.6907 13.2759472,16.3634122 C13.1898464,16.4082597 13.0922509,16.4252202 13,16.4552273" id="Fill-8"></path>
                <path d="M20.9749531,22.1470668 C21.0760677,22.998388 20.8709496,23.8046035 20.3610873,24.5582179 C20.2548952,24.7151512 20.0927618,24.8888151 19.8969235,24.9626975 C19.5594374,25.0900511 19.2247527,24.8734229 19.2805189,24.5837154 C19.3242914,24.3559111 19.3903004,24.1244931 19.5008698,23.9111441 C20.0133584,22.920691 20.0846201,21.8894151 20.0100317,20.8448885 C19.9821924,20.4562026 19.9267764,20.0682528 19.8626934,19.6819761 C19.7828523,19.198394 19.4195404,18.808035 19.1116445,18.3994731 C19.0452854,18.3115369 18.9931961,18.2015163 19.0007249,18.1046125 C19.003789,18.0634552 19.202954,17.9827466 19.2678249,18.0032918 C19.3892498,18.0419061 19.4876505,18.1347276 19.5772966,18.2167746 C19.705375,18.3341567 19.8134055,18.4642541 19.9364939,18.5851831 C20.4043346,19.044673 20.5737342,19.5984568 20.713281,20.1462175 C20.8810173,20.804802 21.0097085,22.1456614 20.9749531,22.1470668" id="Fill-10"></path>
                <path d="M9.85580857,17.1553936 C9.72696648,17.4258805 9.50491788,17.6228655 9.13680832,17.712185 C8.77738307,17.7995052 8.41870646,17.8889423 8.06317417,17.9856707 C7.84075125,18.0461775 7.5207048,17.9001733 7.47818167,17.8248486 C7.43550881,17.7495239 7.75226121,17.6881939 7.89016192,17.6400355 C8.05149528,17.5836449 8.12403914,17.5538913 7.94436394,17.4271153 C7.83693315,17.3513202 7.81222781,17.2031404 7.73429369,17.0575479 C7.6082216,17.0921232 7.44374393,17.1510423 7.27095628,17.1785026 C7.18927893,17.1914977 6.97741193,17.1652134 7.00196754,17.124464 C7.02652315,17.0836557 7.0670998,16.9935718 7.12422154,16.9466482 C7.30516943,16.7981745 7.47863086,16.6362939 7.69192029,16.5221602 C7.90416162,16.4086145 8.16431633,16.3516359 8.39699571,16.2599055 C8.53265048,16.206455 8.6491399,16.1218396 8.78681602,16.072858 C8.90412895,16.0312265 9.03940939,15.9996501 9.16645473,16 C9.55215748,16.0012966 9.93958213,16.0064711 10.3226646,16.0378123 C10.5253981,16.0543355 10.7233403,16.1226041 10.9171649,16.1804647 C10.9606613,16.1935187 11.0062539,16.2638453 10.9992915,16.3020074 C10.9925536,16.3395816 10.9254749,16.3929145 10.8760642,16.3997355 C10.5245746,16.4485408 10.286505,16.5826082 10.1447113,16.8552707 C10.1019636,16.9372988 9.87677067,16.9886325 9.72996106,16.9969823 C9.66041179,17.000922 9.53426483,16.8781445 9.51188029,16.7991741 C9.47092932,16.6532876 9.37105986,16.6053644 9.2086784,16.6255921 C8.99052277,16.6527584 9.03768751,16.7760651 9.07511984,16.8900812 C9.09690546,16.9564093 9.11577135,17.0233842 9.14107561,17.0887715 C9.24992883,17.3698426 9.32119999,17.3813677 9.57865958,17.1782085 C9.6349578,17.1336958 9.73183268,17.1209359 9.81021598,17.0935344 C9.82548838,17.1141149 9.84053617,17.134813 9.85580857,17.1553936" id="Fill-12"></path>
                <path d="M22.0092377,23 C22.3559717,23.0069914 22.6511387,23.1107271 22.8939014,23.3942303 C22.9555864,23.4661548 23.019923,23.6324638 22.9941744,23.7071849 C22.8581045,24.1004539 22.718755,24.4992286 22.5302807,24.8542193 C22.3963042,25.1064358 22.1738474,25.01511 22.1203265,24.7053015 C22.0908098,24.5349724 22.094857,24.3526704 22.1006487,24.1766607 C22.1121623,23.8265639 21.9419703,23.6335126 21.6714354,23.6852493 C21.5302716,23.712079 21.3841535,23.7203813 21.2421523,23.7066606 C21.1630922,23.6990574 21.0604466,23.7112924 21.0105543,23.5872816 C20.960662,23.4632708 21.1000116,23.3455523 21.1705586,23.313479 C21.4443731,23.1891187 21.7286545,23.101376 22.0092377,23" id="Fill-14"></path>
                <path d="M10,25.4656084 C9.85165735,25.5951918 9.70307748,25.5955467 9.5269799,25.5251067 C9.15169514,25.3748822 8.88371368,25.4915132 8.89225366,25.8072805 C8.89731439,25.9874316 8.78985295,26.041548 8.59517299,25.9685057 C8.36965422,25.8838122 8.0694106,25.8548319 8.01619386,25.6082034 C7.950009,25.3023723 8.07913669,25.1632076 8.5439331,25.0488831 C9.09460378,24.9133262 9.62961783,25.0620721 10,25.4656084" id="Fill-16"></path>
                <path d="M7,16.8849707 C7.10150331,16.5167747 7.15340667,16.100931 7.31955884,15.7954132 C7.45745592,15.5419398 7.71405507,15.3326376 7.94639169,15.2559514 C8.38411513,15.1115768 8.84103359,15.0579987 9.29234711,15.0040116 C9.54863913,14.9732349 9.77199248,15.1204724 9.92486169,15.4137204 C9.95618798,15.4734334 10.0119303,15.5667861 9.99772602,15.6006303 C9.96785855,15.6711816 9.90152054,15.749606 9.84524071,15.7564566 C9.76132005,15.7667837 9.66741797,15.7363137 9.58779699,15.6917335 C8.91028925,15.3129036 8.30111582,15.6430633 7.71205878,16.0407068 C7.58268429,16.1281291 7.53508062,16.4115612 7.42605286,16.5769989 C7.32101766,16.7366085 7.18542398,16.8604311 7.06311325,17 C7.0420755,16.9616569 7.02096097,16.9232116 7,16.8849707" id="Fill-18"></path>
                <path d="M13.5682368,2 C13.948795,2.00242307 14.1148265,2.26181938 13.9143434,2.58739765 C13.5299112,3.21104354 13.3764703,3.91359595 13.2015837,4.61195423 C13.0508409,5.21391859 12.8737406,5.80948513 12.7413304,6.41557254 C12.6459315,6.85225972 12.5986816,7.30067626 12.5421617,7.74553844 C12.5178104,7.93740214 12.395293,8.03159236 12.1596665,7.9905041 C11.9888615,7.96071867 11.9836039,7.83290431 12.014804,7.69485344 C12.299133,6.43675645 12.5829086,5.1784462 12.8709042,3.92120225 C12.9077079,3.76083008 12.9874722,3.6096992 13.0138989,3.44840289 C13.0575514,3.1796231 13.2456513,2.92406549 13.0017233,2.62948113 C12.8519489,2.44842265 13.2684806,1.99808677 13.5682368,2" id="Fill-20"></path>
                <path d="M17.268773,7.99911215 C17.0361871,8.0104105 16.9658838,7.91341158 17.0146069,7.7346922 C17.2152543,6.99606248 17.4063104,6.25634143 17.6022581,5.51713394 C17.8029055,4.76072215 17.9982777,4.00360421 18.2112017,3.2486689 C18.268461,3.04510599 18.5256963,2.95606728 18.7953042,3.02084021 C18.9648761,3.06160415 19.0393995,3.11893044 18.9795506,3.26516706 C18.7028452,3.94133488 18.4332374,4.61949275 18.19998,5.30285043 C18.0251329,5.81429343 17.8861568,6.3326053 17.7765297,6.85220108 C17.7163931,7.13575118 17.746893,7.42809603 17.7435361,7.71652497 C17.7410424,7.92175696 17.6276747,8.00283547 17.268773,7.99911215" id="Fill-22"></path>
            </g>
        </g>
    </g>
</svg>