<svg height="53" viewBox="0 0 97 53" width="97" xmlns="http://www.w3.org/2000/svg"><g fill-rule="evenodd" transform="translate(.244898 .428571)"><path d="m0 0h5.71598083v17.6887397c0 .3359394.17119877.8395432.85724121.8395432h18.69029066c.6860424 0 .8572412-.5036038.8572412-.8395432v-17.6887397h5.7159808v39.1836735h-5.7159808v-19.143663c0-.2800513-.1711988-.8398486-.8572412-.8398486h-18.69029066c-.68604244 0-.85724121.5597973-.85724121.8398486v19.143663h-5.71598083z"/><path d="m44.5137654 21.3826324c0 .3424175.1723016.8557325.8602571.8557325h12.9532648c2.0629285 0 2.8084221-.684835 2.8084221-2.3966113v-.3987607c0-5.6486437-2.8084221-8.1594979-7.9668379-8.1594979-5.617157 0-8.6551061 3.2523437-8.6551061 9.0149191zm0 4.7353228c0 6.1056155 3.0379491 9.0149192 8.7698696 9.0149192 4.9292015 0 7.8520744-2.2250913 7.8520744-5.99075v-.7987666h4.9867396v.6272466c0 6.16227-4.9295142 10.2130691-12.838814 10.2130691-9.2279855 0-14.0999615-4.7356342-14.0999615-15.8610903 0-10.840627 5.3879427-15.97564442 13.9279726-15.97564442 7.6228602 0 13.0108029 3.70869292 13.0108029 12.72330072 0 .8557325-.0575381 1.8260192-.229527 2.7390288h-20.5188995c-.6879555 0-.8602571.5702808-.8602571.8554212z"/><path d="m87.5639202 9.79591837h7.9462839l-11.8348713 35.70106943c-1.5216746 4.6322198-2.0852691 5.9315836-5.0723512 5.9315836h-5.9732416v-4.5194192h8.6224129c.7323962 0 1.352258-.1692008 1.6907837-1.0731463l2.0283871-6.2138932c.0562672-.2256011 0-.3954184-.2816436-.3954184h-6.0301238l-10.0881277-29.43077593h5.5231039l9.4116912 28.24482903c.1125345.4518187.2819511.6210195.5635946.6210195h.9015054c.2256838 0 .3947929-.1692008.5073273-.5082189l6.0301238-18.2459531c.6198618-2.0338003.95808-2.994146.95808-4.0676006 0-.9600375-.3944854-1.5249649-1.5782493-1.5249649h-3.3246853z"/></g></svg>