<?xml version="1.0" encoding="UTF-8"?>
<svg width="29px" height="40px" viewBox="0 0 29 40" version="1.1" xmlns="http://www.w3.org/2000/svg" xmlns:xlink="http://www.w3.org/1999/xlink">
    <title>Group</title>
    <g id="Page-1" stroke="none" stroke-width="1" fill="none" fill-rule="evenodd">
        <g id="Artboard-Copy-2" transform="translate(-6.000000, -1.000000)" fill="#000000">
            <g id="Group" transform="translate(6.000000, 1.009219)">
                <path d="M18.161959,11.027567 C17.4724699,11.0366747 16.7792413,11.0216865 16.0676891,11.2755534 C16.4083576,11.4322482 17.808651,11.2654418 18.161959,11.027567 M7.91415704,13.7284535 C7.16887459,13.4546501 6.51648134,13.2151259 5.91831084,12.9954664 C5.90200662,12.9707251 5.92855707,13.0174825 5.96138989,13.0596503 C5.98988488,13.0964395 6.02511097,13.1285673 6.05816816,13.1619142 C6.47048548,13.5761333 7.01637776,13.7178399 7.57221712,13.8289963 C7.65747773,13.8460642 7.76195937,13.7758564 7.91415704,13.7284535 M19.3067697,2.55637005 C19.3111823,2.52072828 19.3155201,2.4850865 19.3197831,2.44951644 C18.4997107,2.2756821 17.6794138,2.10191947 16.8446077,1.92500144 L16.8446077,2.23573749 C17.6743281,2.34381024 18.4906611,2.45016186 19.3067697,2.55637005 M25.2575116,13.6646282 C25.2388141,13.6345084 25.2201166,13.6043886 25.2014191,13.5742688 C25.1303686,13.5790019 25.0510164,13.5653762 24.9897633,13.5913367 C24.4364669,13.8266297 23.8837687,14.0637157 23.3381008,14.3148575 C23.2627124,14.3496388 23.2086393,14.4568509 23.1755821,14.541545 C23.0795517,14.7875234 23.1812661,15.1085146 22.8577993,15.2716636 C22.8208531,15.2902374 22.8384287,15.408135 22.8306506,15.4799205 C22.8568271,15.4934745 22.8830036,15.5070284 22.9093296,15.5205106 C23.6920071,14.901907 24.4746845,14.2832317 25.2575116,13.6646282 M17.3500386,11.4818741 C17.3554235,11.5144322 17.3606588,11.5469186 17.3660437,11.579405 C18.4020349,11.9136632 19.5232867,11.9931938 20.5084955,12.5817493 C20.4997451,12.493613 20.5096174,12.4489352 20.4908451,12.4248394 C20.1958733,12.0476246 19.8620855,11.7089202 19.4250127,11.4793642 C19.2648873,11.3953873 19.0923467,11.2439276 18.9372322,11.2565493 C18.4053257,11.299721 17.8786544,11.4021284 17.3500386,11.4818741 M4.4490611,19.830799 C4.66273615,19.2933755 4.816654,18.8108131 4.55331837,18.3135494 C4.3973812,18.0195226 4.38922909,17.6496227 4.06845474,17.4349831 C4.03008746,17.4093096 4.0462421,17.3122808 4.03173284,17.2494595 C4.01737316,17.1872836 4.01670005,17.1004381 3.97421932,17.0695294 C3.74655853,16.9038705 3.50775403,16.7523391 3.27261424,16.5958595 C3.24995287,16.607262 3.22751587,16.6185928 3.20485449,16.6299953 C3.27508231,17.1111952 3.31816136,17.5982038 3.42735477,18.0710849 C3.48172711,18.3068083 3.67274079,18.5106907 3.77221151,18.740677 C3.83757798,18.8917063 3.89314695,18.9936834 4.09231275,18.980488 C4.18355656,18.9745358 4.34622483,18.9450614 4.3966333,19.0880588 C4.44696698,19.2311279 4.21631459,19.2817579 4.15887586,19.3434318 C4.25677598,19.5078716 4.33829709,19.6447733 4.4490611,19.830799 M19.6264222,11.1105399 C19.6444466,11.143098 19.6490087,11.1669787 19.6628449,11.1740784 C20.4598072,11.5838512 20.9104918,12.2426145 21.1819796,13.0502558 C21.2417368,13.2283212 21.4369387,13.3644341 21.5805355,13.5325313 C21.6418633,13.3748326 21.6718541,13.269485 21.7227113,13.1743924 C21.7879282,13.0525506 21.919783,12.945195 21.9364612,12.8208432 C22.0135697,12.2467739 21.8921855,11.7025376 21.4721648,11.2751232 C21.1706115,10.9682597 20.8066085,10.7090858 20.3097785,10.868936 C20.0863059,10.940865 19.8670216,11.0249853 19.6264222,11.1105399 M9.28124363,12.7595996 C9.13510395,12.7279021 8.98731889,12.6875272 8.83661702,12.6649373 C8.48951659,12.6128014 8.12476571,12.6155982 7.79718547,12.5102506 C7.41224129,12.3865442 7.05167865,12.1846697 6.69380845,11.9936958 C6.23145661,11.7470002 5.90574612,11.4057858 5.94598314,10.8483541 C5.95106886,10.7778594 5.91898395,10.7048547 5.89490157,10.5868138 C5.71368537,10.8989841 5.64054074,11.5105597 5.70486015,11.9062049 C5.74562071,12.1573468 5.95129323,12.2727343 6.12248757,12.4322976 C6.7076446,12.9779682 7.45569428,13.1739621 8.20456665,13.3746174 C8.26424908,13.3905379 8.33881472,13.3698126 8.40298455,13.3529599 C8.57889065,13.3067044 8.74978582,13.2339149 8.92830958,13.2074525 C9.20323765,13.1669342 9.31115964,13.0270922 9.28124363,12.7595996 M22.1638228,13.8672198 C22.4469778,13.6738793 22.7275899,13.5219177 22.9542036,13.3151667 C23.1384114,13.1470694 23.3708588,12.9834185 23.3513386,12.6753358 C23.3434857,12.5520597 23.3942681,12.4173811 23.4476681,12.3002007 C23.5775036,12.0161422 23.4770606,11.7745383 23.3159629,11.5444086 C23.2643578,11.4706151 23.1795459,11.418264 23.1102156,11.3558012 C22.8680456,11.137576 22.6384402,10.9045778 22.3798164,10.7062173 C22.2048078,10.5718973 21.6566718,10.6392366 21.5077649,10.7786483 C21.5218254,10.8013816 21.5310993,10.8307842 21.551517,10.8472067 C22.2361448,11.3958175 22.508156,12.1052825 22.4161643,12.943187 C22.3970929,13.1165911 22.3408508,13.332378 22.2175221,13.437869 C22.0484218,13.5823724 22.0616597,13.6875766 22.1638228,13.8672198 M10.6269403,12.1513945 C10.4867838,12.0316324 10.3836484,11.8664755 10.260544,11.8514155 C9.64255417,11.7757575 9.17040484,11.4068615 8.63976972,11.1585165 C8.26888606,10.9850407 7.97309157,10.7513253 7.96800585,10.3021815 C7.96718316,10.2379259 7.85716705,10.1130722 7.8208939,10.1205304 C7.52756748,10.1804832 7.21464608,10.2212883 6.95789198,10.3559669 C6.7286606,10.4763027 6.61587726,10.7409268 6.68191684,11.0066266 C6.76059593,11.3218806 6.96185585,11.5748153 7.26483018,11.7214701 C7.5019893,11.8363556 7.7572476,11.9239182 8.01310423,11.9950584 C8.49303172,12.1284461 8.99741554,12.1977217 9.45767327,12.3747831 C9.91456544,12.5505537 10.2492507,12.4089906 10.6269403,12.1513945 M18.1408682,36.3061924 C18.0149218,35.9171448 17.9094679,35.5746395 17.787635,35.2376562 C17.7740232,35.2002933 17.6668491,35.1955602 17.6040255,35.1728269 C17.4904195,35.1315915 17.350263,35.1133761 17.274052,35.0370726 C17.2221477,34.9850801 17.2587948,34.8506884 17.257673,34.7529424 C17.2564015,34.6631567 17.2572242,34.5732992 17.2572242,34.4834418 C17.2314965,34.4700313 17.2057687,34.456836 17.1798914,34.4434972 C16.3891366,35.0158453 15.446932,35.4028132 14.8572876,36.255921 C14.926244,36.2982321 14.9918348,36.3387505 15.043066,36.3703763 C15.1255594,36.2327574 15.1663947,36.0577039 15.2627242,36.0224207 C15.7597787,35.8401959 16.6665327,35.4281999 16.7954707,35.5291012 C16.9245583,35.6300026 16.6542672,35.8735428 16.5003493,35.9684202 C16.2532431,36.1208838 15.9239427,36.1743824 15.7870022,36.5460035 C16.0263302,36.525565 16.2507003,36.5426329 16.4487442,36.4816044 C16.7995094,36.3736034 17.0950047,36.7174712 16.9879802,36.8500701 C16.8810305,36.9825256 16.2696969,36.964884 15.9134721,37.0218965 C16.1135354,37.3414533 16.1217623,37.302943 16.4713308,37.3712146 C16.952081,37.4650163 17.4128622,37.4136692 17.8766351,37.3152061 C17.9756571,37.2941939 18.0652555,37.2320897 18.159117,37.1889897 C18.0192596,37.046064 18.275565,36.7635832 17.9532201,36.6773115 C17.7416391,36.6207293 17.565733,36.3788385 17.6960172,36.2415065 C17.8263014,36.1041028 17.9385612,36.2767897 18.1408682,36.3061924 M12.2986466,35.860706 C12.3703702,35.6437717 12.5229418,35.631652 12.7277917,35.6898837 C13.1282922,35.8036218 13.5337288,35.9018698 13.9372209,36.006572 C13.963547,35.9902929 13.9899479,35.9740856 14.0164235,35.9577349 C13.9643697,35.850451 13.9422318,35.6880908 13.8555502,35.6448474 C13.265831,35.3508924 12.6674361,35.0714953 12.0608143,34.8114609 C11.8626208,34.72648 11.6309214,34.7132846 11.4367665,34.6720492 C11.2799319,35.0044428 11.455838,35.1833688 11.6669702,35.360502 C11.7181265,35.4033152 11.7177526,35.5026388 11.7410871,35.5760021 C11.6751223,35.5935003 11.5971163,35.6418354 11.5456608,35.6231181 C11.3431294,35.5498265 11.2734999,35.6523056 11.2498663,35.8107215 C11.1884637,36.2223589 11.1336426,36.6347852 11.0816635,37.04757 C11.0765778,37.0874429 11.0988652,37.1590133 11.127435,37.1697704 C11.3975765,37.2712455 11.3663891,37.4853113 11.3194958,37.7705889 C11.5724356,37.7547402 11.8225334,37.8028602 11.9999353,37.715441 C12.4699157,37.4843073 12.9089331,37.1953005 13.3589445,36.9273059 C13.4402413,36.8789708 13.5152557,36.8208109 13.5931121,36.7672406 C13.5691793,36.7422842 13.5454708,36.7172561 13.5214632,36.692228 C13.2757033,36.7727626 13.0346551,36.8773214 12.7817153,36.9225011 C12.668184,36.9427961 12.5251855,36.9382781 12.4052223,36.8000856 C12.2854835,36.6619647 12.5048426,36.6302672 12.5806049,36.5892469 C12.7974212,36.4717796 13.0279988,36.3773325 13.2632133,36.269188 C12.9443087,36.089258 12.5159863,36.2181995 12.2986466,35.860706 M16.3275844,34.2763322 C16.3532374,34.2933284 16.3789651,34.3103963 16.4046181,34.3273925 C16.4636274,34.3071692 16.5278721,34.295695 16.580599,34.2655752 C17.3371,33.8342164 17.957857,33.2227126 18.7231084,32.7983101 C19.1223375,32.5770012 19.466222,32.2661217 19.849072,32.0149798 C20.9064532,31.321005 21.9591226,30.6191417 23.0365474,29.954713 C24.0547386,29.3267867 25.1048652,28.7466934 26.1342001,28.1351896 C26.3215491,28.0238897 26.5667855,27.8933705 26.6315536,27.7191776 C26.9515801,26.8583964 26.8438077,25.9665631 26.7466555,25.0811124 C26.7286311,24.9165291 26.6245982,24.9490872 26.5177232,25.0033746 C26.0518563,25.240102 25.5739481,25.4572515 25.1222165,25.7165687 C24.10769,26.2991002 23.1032601,26.8979825 22.101074,27.500307 C21.8503779,27.650906 21.5815078,27.8057362 21.3995437,28.0200889 C21.2091283,28.244338 21.0929795,28.5118306 20.7185807,28.4415511 C20.7001823,28.4380371 20.6719865,28.4716709 20.6512697,28.4909619 C20.1904884,28.9215318 19.6943315,29.323201 19.2781251,29.7904166 C18.6657445,30.4780806 18.1087085,31.2111394 17.5335733,31.9288515 C17.4530245,32.029466 17.3999984,32.1513078 17.3404655,32.2663368 C17.1410753,32.6512967 16.9426574,33.0367586 16.7474555,33.4237264 C16.6047562,33.7066375 16.4672921,33.9920586 16.3275844,34.2763322 M13.7306509,1.92722457 C13.6220558,2.24190488 13.5139842,2.55665691 13.4050152,2.87112208 C13.0772106,3.81731444 12.7368412,4.75956254 12.4278089,5.71127686 C12.3199617,6.04295336 12.2996188,6.40001655 12.2180229,6.74087242 C12.1800296,6.90000542 12.0729303,7.04328966 12.0287294,7.20192067 C11.8801217,7.73496962 11.7292702,8.26844885 11.6108776,8.80809547 C11.5263649,9.19248163 11.4926346,9.58712287 11.431606,10.0084417 L12.1794313,10.0084417 C12.2195935,9.86329286 12.225128,9.70208015 12.3069483,9.59407912 C12.3698467,9.51096278 12.5261578,9.47051618 12.6462705,9.45746426 C12.7256227,9.44878688 12.8896372,9.53046894 12.8864213,9.55779192 C12.8735574,9.66801608 12.8201573,9.77816854 12.7624194,9.87813762 C12.7236034,9.94533349 12.6525529,9.99546146 12.5957873,10.0533345 C13.167183,10.0085851 13.7441879,10.1849294 14.27946,9.91801052 C14.326129,9.89477523 14.3931408,9.90538888 14.4506543,9.90675144 C14.6073394,9.91040885 14.7675396,9.94146094 14.9196625,9.91937308 C15.7662854,9.79681413 16.6117117,9.66665352 17.4557169,9.52838924 C17.7678904,9.47711385 18.0761,9.40088204 18.3831878,9.32522394 C18.4282862,9.3141083 18.4570056,9.24232275 18.4933535,9.19864902 C18.4586509,9.17448146 18.4072702,9.12220207 18.3918635,9.13059259 C18.1981573,9.23565336 18.1000329,9.06024132 17.9579318,9.00932449 C17.6991584,8.91645508 17.7939173,8.77202341 17.8659401,8.61690638 C17.9253234,8.48875375 18.0033294,8.35959713 18.0221017,8.22448827 C18.0884404,7.74981438 18.1152152,7.26976196 18.1894817,6.79645064 C18.3215609,5.95539076 18.4709165,5.11662573 18.625657,4.27907983 C18.7112916,3.81609531 18.7361967,3.31811442 19.2829864,3.03943446 C19.1401375,3.00207155 19.0402181,2.96635806 18.9367835,2.95058101 C18.0899362,2.82113754 17.243762,2.68631552 16.3945215,2.57207538 C15.9177352,2.50796321 15.4357883,2.44600246 14.9560104,2.44478332 C14.4686787,2.44349247 13.9946596,2.48888733 13.7306509,1.92722457 M17.1102619,12.7377269 C17.0755593,12.766771 17.0408567,12.7958868 17.0060046,12.8249309 C16.9372726,12.7778149 16.8713826,12.7262526 16.7991354,12.6844435 C16.559957,12.5456055 16.3705887,12.2675709 16.016084,12.4494372 C15.9502688,12.4831427 15.8086165,12.4552461 15.7445215,12.4054049 C15.2724469,12.0389472 14.7130177,11.9074241 14.1321237,11.8760851 C13.7996821,11.8580849 13.39619,11.8324114 13.1422031,11.9873133 C12.7838842,12.2060405 12.3963971,12.1893311 12.0342639,12.310169 C12.0088353,12.3187029 11.9873706,12.3386394 11.9204335,12.3805919 C12.0273084,12.4295008 12.102248,12.4794136 12.1851153,12.4987046 C12.3628912,12.5401552 12.5473234,12.5560757 12.7242017,12.5998929 C13.012966,12.6713198 13.0728728,12.8294489 12.9158885,13.1173799 C12.8057976,13.0682559 12.6986236,13.0033549 12.5815772,12.9718008 C12.3884694,12.9195931 12.1902759,12.8648038 11.991858,12.855481 C11.7627762,12.8447956 11.5313759,12.8888279 11.3004991,12.8954256 C11.2060393,12.898079 11.1091115,12.8468753 11.0161475,12.8536164 C10.943302,12.8587798 10.8117464,12.9198083 10.8137657,12.9488524 C10.8436817,13.3564021 10.5616486,13.2373572 10.331071,13.2335563 C10.186128,13.2311181 10.0401379,13.2693415 9.84957292,13.2955171 C10.0950337,13.4755188 10.2731835,13.6063248 10.4793796,13.757641 C10.1662338,13.9148378 10.0756631,13.9050847 9.78330897,13.7712667 C9.71786771,13.7414337 9.61211464,13.7356966 9.54944061,13.7658881 C9.12979386,13.968408 8.71044628,14.1735096 8.30478526,14.4001253 C8.15079263,14.4861819 7.95858231,14.5737445 8.00891598,14.8262489 C8.02073281,14.884624 7.88095028,14.9826568 7.79643757,15.0441156 C7.67841893,15.1300287 7.50475653,15.1711925 7.42794719,15.2792652 C7.03477611,15.8322506 6.6500563,16.3923357 6.29532728,16.9684846 C6.17431704,17.1650523 6.03932108,17.233539 5.85399143,17.1450441 C5.64914159,17.0472264 5.78039806,16.9106833 5.85212168,16.7775107 C5.95084449,16.5945687 6.09399257,16.3931962 6.08187659,16.207816 C6.07110683,16.0407945 6.18194562,15.7834852 5.91143016,15.6698905 C5.89856628,15.664512 5.93296968,15.5827582 5.92047975,15.543961 C5.89527552,15.4655061 5.87381078,15.368047 5.81435273,15.3206441 C5.4065228,14.9969996 4.97737773,14.7203993 4.40209297,14.8605998 C4.3471971,14.8740103 4.28377518,14.853787 4.22858015,14.8665521 C3.91371421,14.9396285 3.56579108,14.9455807 3.36011855,15.19536 C3.62158443,15.3915691 3.86001498,15.5646863 4.09134048,15.7462657 C4.24196756,15.8646653 4.38601312,15.991527 4.52444943,16.1229785 C4.56625704,16.1626363 4.57224024,16.2347087 4.60664365,16.2844781 C4.7896548,16.5492456 4.98066849,16.8089214 5.15926703,17.0762705 C5.22425955,17.1735145 5.27062935,17.2845992 5.31019327,17.3943931 C5.34915887,17.5023942 5.32933951,17.6656866 5.40315725,17.7200456 C5.76476695,17.9861757 5.79341152,18.0628378 5.62834997,18.4597022 C5.59349783,18.5436073 5.59252556,18.6787879 5.64113906,18.7487806 C5.76476695,18.9272764 5.661108,18.9589739 5.51825908,19.0249506 C5.40973877,19.0752937 5.28917728,19.1642189 5.24310663,19.265192 C5.05867447,19.6670763 4.89166837,20.0769926 4.73707742,20.4904229 C4.61277643,20.8223862 4.51584858,21.1634572 4.39603498,21.5333572 C4.50044183,21.5191579 4.53753768,21.5251101 4.55444022,21.5101219 C4.69826141,21.383045 4.86025657,21.3856984 4.94521802,21.5375166 C4.98403404,21.6070073 4.91455412,21.7933199 4.8346036,21.8525555 C4.38347026,22.1865268 4.2775676,22.6553919 4.39700725,23.1236115 C4.45840985,23.3642832 4.44472328,23.5372569 4.39379128,23.7619364 C4.33440801,24.0239787 4.4145829,24.3099018 4.24107008,24.5613305 C4.19716834,24.6251558 4.21915661,24.7307186 4.20741458,24.852417 C4.60941088,24.7153001 4.96361636,24.5944623 5.31797143,24.4735528 C5.34272692,24.5051069 5.36748242,24.5367327 5.39223791,24.5684302 C5.32739497,24.6521919 5.27646298,24.7525913 5.19434354,24.8155561 C5.07505348,24.9070629 4.87730869,24.941127 4.81164306,25.053144 C4.61831089,25.3817368 4.37853412,25.3592904 4.07787828,25.231568 C4.02918998,25.2108427 3.91984699,25.2762458 3.86457717,25.3275211 C3.80549306,25.3825257 3.75560813,25.4645663 3.74214592,25.5413001 C3.73010473,25.6098585 3.76129217,25.6928314 3.79494767,25.7593819 C3.83189394,25.8318846 3.89374527,25.8927696 3.94460248,25.9587463 C3.85732254,26.0006989 3.77363252,26.0523329 3.68223913,26.0820941 C3.5783558,26.1157279 3.46766659,26.1296404 3.32481767,26.1594734 C4.10936487,26.3244869 4.84559773,26.4352848 5.55266248,26.6394541 C6.38133579,26.8787631 7.18689899,27.1935869 7.99792185,27.4871833 C8.33021387,27.6075192 8.68643868,27.7099982 8.97026677,27.9033387 C10.2416221,28.7690682 11.5496246,29.5969327 12.5274292,30.7982829 C12.9902298,31.3668302 13.4320144,31.9421186 13.7531627,32.6014556 C13.9677352,33.0422805 13.9518797,33.5655764 14.300476,33.95613 C14.3360012,33.9960029 14.3427323,34.0896611 14.3202953,34.1413668 C14.2398961,34.3268905 14.3117693,34.4629316 14.4141568,34.6194829 C14.4661359,34.6992287 14.4362946,34.9324421 14.4150543,34.9358844 C14.1965179,34.9714545 13.9721478,34.9797015 13.7492736,34.9800601 C13.7180114,34.9802035 13.6499525,34.885613 13.6609466,34.8553498 C13.7304265,34.6627264 13.5806969,34.6055705 13.4686615,34.5046691 C13.3795118,34.4242779 13.3341891,34.2979181 13.2746562,34.1893434 C13.2406268,34.1272392 13.2283612,34.0521548 13.1867779,33.9962897 C12.9413919,33.6665495 12.6553949,33.359686 12.4493484,33.0092922 C12.1288733,32.4644104 11.8555906,31.8934966 11.5741558,31.3283198 C11.4401321,31.0593212 11.3437277,30.7731113 11.2116486,30.5031804 C10.9908685,30.051957 10.5925369,29.7648865 10.1858288,29.4741586 C9.52984562,29.0050067 8.92195242,28.4815674 8.16522711,28.1430781 C6.64826134,27.46445 5.1235922,26.8280615 3.42660687,26.6968251 C2.92065246,26.6578128 2.41634342,26.6019477 1.83604773,26.5465847 C1.97448404,26.7837423 2.04097236,27.0374659 2.21067089,27.1624631 C2.78864809,27.5888018 3.13679558,28.1903375 3.5738684,28.7209482 C3.91820161,29.1391116 4.17368428,29.6322876 4.84320445,29.6155066 C4.9057289,29.6139289 5.01507189,29.660256 5.02337358,29.6996986 C5.04005175,29.7786556 5.02083072,29.8780509 4.9805937,29.950697 C4.9446197,30.0152395 4.86018178,30.0551124 4.75390518,30.1407387 C5.12254514,30.4025659 5.46246573,30.6530624 5.8123334,30.8900766 C6.16309854,31.1278797 6.51947294,31.3585831 6.88130701,31.5805374 C7.21389818,31.7844916 7.55142549,31.9821349 7.89665618,32.1653637 C8.39146688,32.4282667 8.88089271,32.7078789 9.39911269,32.9212276 C9.99391764,33.166202 10.6037554,33.3695108 11.0958736,33.7957778 C11.3280218,33.9968634 11.5482036,34.2317262 11.8198409,34.3648988 C12.418161,34.6584236 13.0446021,34.8995255 13.6618441,35.1574084 C14.2399709,35.3989406 14.8000732,35.4925272 15.3485084,35.0555031 C15.5521616,34.8932864 15.6806508,34.796903 15.6628508,34.4844458 C15.6325608,33.9464486 15.8721132,33.4345552 16.1605035,32.9735787 C16.3389525,32.6882293 16.6043074,32.4541554 16.8176086,32.1875233 C17.2871402,31.6009759 17.7283265,30.9926991 18.218575,30.4230761 C18.6404655,29.9331272 19.1099224,29.4802543 19.5667397,29.0187757 C19.9106242,28.6714656 20.2491986,28.3158367 20.6245696,28.0015867 C21.0210315,27.669695 21.4432959,27.3613255 21.8819393,27.0824304 C22.2472885,26.8500776 22.4920762,26.4207986 23.006781,26.4215157 C23.0212155,26.4215157 23.0461206,26.4008621 23.0482147,26.3872365 C23.0844131,26.1593299 23.315215,26.1817764 23.4595597,26.0984449 C23.7698635,25.9190886 24.0917597,25.7580193 24.4071492,25.5861212 C24.6563495,25.4502235 24.9009128,25.3065807 25.1505619,25.1712567 C25.4684942,24.9990001 25.7909887,24.8342734 26.1072009,24.6592199 C26.1538698,24.6334029 26.1769052,24.568215 26.2108598,24.5213142 C26.2088405,24.4906924 26.2067464,24.4601423 26.2048766,24.4294488 C25.6716987,24.9533183 25.4251908,24.2679492 25.0031508,24.3154238 C25.1194492,23.8728777 25.2220611,23.8485667 25.8242703,24.0684413 C25.8242703,23.9830301 25.8163425,23.9013481 25.8258409,23.821674 C25.8519426,23.6031619 25.7964484,23.5389063 25.5496414,23.6110505 C25.4334925,23.6450428 25.2615502,23.5616396 25.1360526,23.4949458 C24.9364381,23.3887376 24.7598589,23.2435888 24.5637595,23.1305678 C24.3627987,23.0146782 24.0153991,22.9588131 23.9384402,22.8101503 C23.861556,22.6614876 24.1524144,22.4198836 24.8234304,22.6517345 C24.8234304,22.3500344 24.8304606,22.0608842 24.8187186,21.7723077 C24.8155774,21.6952153 24.7651689,21.614107 24.7193975,21.5454051 C24.5321981,21.2654343 24.3248802,20.996866 24.153611,20.7085046 C24.0824857,20.588886 24.0600487,20.4285338 24.0685748,20.2897676 C24.0706689,20.2559903 24.165727,20.2546995 24.2821751,20.2314642 C24.3253289,20.2227868 24.4801442,20.3179511 24.5876923,20.2068664 C24.6952403,20.0957099 24.2562977,18.9837152 23.8499636,18.4969216 C23.6798911,18.2931109 23.5694263,18.142727 23.6146742,17.8565171 C23.6742819,17.4794457 23.7567752,17.3132131 24.132969,17.1803273 C24.3024432,17.120518 24.4927089,17.0626449 24.6172343,16.9476159 C24.9835558,16.6089115 25.341052,16.257442 25.6661642,15.8823786 C26.0916446,15.3913539 26.2581271,14.8175715 26.1439228,14.1433898 C25.9363057,14.2275818 25.7441702,14.2857417 25.5729011,14.3789697 C25.221762,14.5702305 24.8935834,14.8029419 24.5338434,14.9762743 C24.164306,15.154268 23.9535478,15.4550358 23.7653761,15.7748795 C23.6657558,15.9442676 23.572717,16.1335204 23.7555038,16.3407017 C23.8218426,16.4157144 23.7813064,16.5775008 23.7892341,16.6996295 C23.7619358,16.7245142 23.7346374,16.7494706 23.7072643,16.774427 C23.4078051,16.643119 23.0686324,16.5573492 22.8251909,16.3620007 C22.6966269,16.2590197 22.7348446,15.9648495 22.6946075,15.7398832 C22.6424789,15.7489191 22.6078511,15.8327526 22.4928989,15.7749513 C22.3780962,15.7171499 22.4035248,15.5752282 22.3651575,15.4896019 C21.9808117,15.540949 21.9839529,15.539443 21.7996703,15.1834555 C21.7688568,15.1238613 21.7051357,15.0541555 21.6434339,15.0393107 C21.3409083,14.9662343 21.3022419,14.8769506 21.4444925,14.5968364 C21.4750068,14.5368119 21.448606,14.380404 21.426169,14.3761729 C21.2169813,14.3365868 21.2348561,14.2073585 21.2501881,14.0573332 C21.2578914,13.9844719 21.2391939,13.8875865 21.1919266,13.8350203 C21.0351668,13.6604688 20.8528287,13.5070729 20.6936756,13.3342425 C20.5239771,13.1497946 20.335955,13.0440884 20.0648412,13.0523355 C19.9607335,13.0554909 19.7997106,12.9703665 19.7558837,12.8832342 C19.5701801,12.5128323 19.1718485,12.5700599 18.8575061,12.4412619 C18.9211524,12.5681953 19.0138172,12.6589851 19.1158308,12.7385874 C19.3031049,12.8850988 19.5196968,13.0120323 19.5007002,13.2868397 C19.4974094,13.3328083 19.4554522,13.3821474 19.4182068,13.4167852 C19.4057168,13.4284028 19.3262151,13.4060998 19.3208302,13.3876694 C19.2583057,13.1706633 19.0664694,13.2184247 18.9070171,13.1879463 C18.5386015,13.1174516 18.4163198,12.8189069 18.263449,12.5428804 C18.1848447,12.4005284 18.0924791,12.1975065 17.9629428,12.1604305 C17.459606,12.0164291 16.9389927,11.9278625 16.4248862,11.8186423 C16.4066374,11.852061 16.3883887,11.8854796 16.3699903,11.9188983 C16.5232351,12.0290507 16.700637,12.1192667 16.8230682,12.2549493 C16.9470701,12.3924247 17.0168491,12.5749364 17.1102619,12.7377269 M0.0174538544,25.5023595 C0.59101844,25.2013765 1.18627213,24.8970947 1.77337371,24.5784701 C2.36571058,24.256977 2.94967098,23.9211411 3.57297092,23.5716079 C3.51037168,22.9973952 3.44777245,22.412784 3.38248077,21.8285313 C3.36894377,21.7087692 3.35196644,21.5885768 3.3245933,21.4711096 C3.22916125,21.059257 3.12280985,20.6495559 3.0341089,20.2364125 C3.01668283,20.1557344 3.02872402,20.0180438 3.08122661,19.98441 C3.24165118,19.8818593 3.24082849,19.7630294 3.16865613,19.6294265 C2.86777592,19.0724252 2.85042464,18.4823637 2.89073645,17.8718638 C2.90786336,17.6113992 2.8072708,17.3432612 2.75491779,17.0794977 C2.71714884,16.8890257 2.65477397,16.7017092 2.63345882,16.5099464 C2.61685544,16.3603513 2.57056042,16.2857689 2.40864005,16.2385095 C2.06557827,16.138397 1.67053744,15.563754 1.68377527,15.2287787 C1.69731227,14.8952376 1.85339902,14.6892038 2.20805324,14.5769716 C2.81841451,14.3837745 3.44627665,14.3158615 4.08954552,14.333288 C4.78546656,14.352077 5.48191113,14.3444036 6.17813133,14.3459096 C6.23100787,14.3460531 6.28403399,14.3281963 6.42060055,14.3036702 C6.27528356,14.2002588 6.1963801,14.1223059 6.1004993,14.0791342 C4.91335748,13.5437904 4.40358877,12.5516294 4.15752964,11.3973235 C4.11931194,11.2168915 4.207265,10.9971603 4.28093315,10.8117083 C4.55496375,10.1234707 5.09823838,9.69684504 5.80777121,9.46320136 C6.22322971,9.32651479 6.64526974,9.18782023 7.07628456,9.12112636 C7.76906442,9.01405761 8.43394761,9.20273671 9.0876123,9.40884228 C9.20690236,9.44649204 9.32738907,9.48141668 9.44480938,9.52394298 C9.93445958,9.70086102 9.93453437,9.70035902 10.117022,9.23242624 C10.6795924,7.788253 11.244631,6.34486861 11.8064535,4.90026509 C12.1387455,4.04579472 12.4702149,3.19096579 12.7934573,2.33334002 C12.8585994,2.16043796 12.8951717,1.97577483 12.9271818,1.7936934 C13.0310651,1.20269967 13.601339,0.875541152 14.2034733,1.02807648 C14.5543133,1.11700164 14.9295348,1.11528051 15.28561,1.19022147 C16.2742591,1.39847845 17.2584957,1.62645673 18.2450507,1.8439648 C18.3765315,1.8730089 18.5133972,1.87982172 18.6446537,1.90936782 C19.19623,2.03357618 19.748629,2.15470085 20.2958675,2.29411255 C20.4733442,2.33922056 20.6090881,2.80765534 20.5292872,3.02473312 C20.0984967,4.19646549 19.9250587,5.40957675 19.8724813,6.64549301 C19.856925,7.01101844 19.7599223,7.3731016 19.7366626,7.73877045 C19.7129542,8.1147661 19.7335215,8.49341515 19.7345685,8.8709885 C19.7347929,8.98859919 19.7345685,9.10620989 19.7345685,9.24096019 C20.1076959,9.22367715 20.4893493,9.19169278 20.8714515,9.19119078 C21.5806103,9.19018679 22.298744,9.15734185 22.9807541,9.38345558 C23.1832107,9.45057973 23.3496932,9.62412721 23.5251506,9.75780181 C23.9756856,10.1009525 24.417545,10.4698485 24.4808921,11.0550334 C24.5196333,11.4133157 24.4845568,11.7890962 24.4152265,12.1449403 C24.3551701,12.4535966 24.2003548,12.7454002 24.0771009,13.0721285 C24.4533694,13.0498972 24.8344993,13.0290285 25.21533,13.0042872 C25.6393146,12.9768925 26.0632244,12.9501432 26.4863862,12.91486 C26.7847236,12.890047 27.2826755,13.3688803 27.2484964,13.6880069 C27.2211233,13.9440253 27.1908333,14.2169682 27.07805,14.4441576 C26.7868177,15.0314222 26.5824914,15.664512 26.1199152,16.1681582 C25.9837974,16.316319 25.9010048,16.5097312 25.7959249,16.6835656 C25.555101,17.0822228 25.3168948,17.4822426 25.075024,17.8803978 C24.899417,18.1696914 24.7770606,18.4391203 24.9007632,18.8088768 C25.0386012,19.221088 24.9483297,19.6926782 25.1884804,20.0902597 C25.3225041,20.3122857 25.4566026,20.5389014 25.625628,20.7358993 C25.8286829,20.9723399 25.8138745,21.0980542 25.5112741,21.1850431 C25.4130748,21.2134418 25.3051528,21.2106449 25.1467476,21.2281431 C25.2458443,21.3755868 25.3248974,21.5054605 25.4162908,21.6267286 C25.5305699,21.7785468 25.7249491,21.886261 25.6715491,22.1238489 C25.6638457,22.1580564 25.7465635,22.225826 25.8007114,22.2557307 C26.3684424,22.569407 26.9365473,22.8822945 27.5105606,23.1849269 C27.6164633,23.2409354 27.7475702,23.2652463 27.870151,23.2779397 C28.1895791,23.3107129 28.5113257,23.3227608 28.8303799,23.3581875 C28.894101,23.3652871 28.9910289,23.4336304 28.9986575,23.4839735 C29.0085297,23.5486594 28.9625339,23.6443257 28.9074136,23.6906528 C28.7520748,23.8213154 28.5582191,23.9141131 28.4182122,24.0566085 C27.978073,24.5044614 27.7931173,25.0711442 27.7082306,25.6617076 C27.6545314,26.0360538 27.666423,26.4200097 27.6631322,26.7997345 C27.6622348,26.9159826 27.675323,27.0540318 27.7391189,27.1453235 C27.9814385,27.4916296 27.7964828,27.8677687 27.5039043,28.138345 C26.8202488,28.7707893 25.9603881,29.0881947 25.1190005,29.448987 C24.5612166,29.688081 23.9740402,29.8883777 23.5622464,30.362191 C23.5237296,30.4065102 23.4438538,30.4164067 23.3850689,30.4459528 C23.0583861,30.6099623 22.7303571,30.7720356 22.4063668,30.9411368 C22.1537262,31.0729469 21.8958502,31.1993784 21.6586911,31.3539217 C20.8877557,31.856062 20.1234018,32.3672382 19.3610672,32.881283 C19.1614527,33.0159616 18.9791146,33.1740189 18.7791261,33.3287773 C19.1223375,33.5349546 19.1226367,33.5391857 18.9174877,33.8177223 C18.5653763,34.2956233 18.5777914,34.8164091 18.6943143,35.3617929 C18.7868295,35.7950162 18.8367892,36.2364865 18.9078397,36.6740126 C18.9622121,37.0094183 19.2893436,37.0892358 19.5157329,37.2625681 C19.5894759,37.3189352 19.6691273,37.368346 19.7460862,37.420984 C19.7387568,37.4483069 19.7315021,37.4755582 19.7241727,37.5028812 C19.1760367,37.6042845 18.6283495,37.7084847 18.0796152,37.8063741 C17.4069538,37.9262797 16.7257664,37.9845113 16.0620799,37.8040793 C15.6805012,37.7003094 15.3320546,37.4884667 14.9607222,37.344035 C14.6713596,37.2315877 14.3724988,37.1391486 14.071469,37.0593311 C14.0119361,37.043554 13.9150083,37.1147659 13.8507637,37.1643202 C13.6254214,37.3375808 13.4146631,37.5286264 13.1826645,37.6927077 C13.0809501,37.7647084 12.9342121,37.7751069 12.8205313,37.8355617 C12.2584843,38.1348235 11.6764685,38.4075512 11.1491241,38.755937 C10.7215496,39.0382744 10.3220214,39.0585694 9.88494859,38.8569101 C9.79968798,38.8176109 9.62236087,38.7808217 9.68151976,38.6346689 C9.74045429,38.4886596 9.89220322,38.4980541 9.98883191,38.5077355 C10.2072187,38.5297516 10.2826071,38.4698705 10.295097,38.2580996 C10.3075121,38.0485518 10.3912022,37.8434502 10.4118442,37.6335438 C10.4636737,37.10322 10.4936645,36.5708164 10.5416049,36.0399906 C10.5531973,35.9124834 10.6060739,35.7889922 10.6314277,35.6620587 C10.6771992,35.4325027 10.6816866,35.2267557 10.5284418,35.0035823 C10.4180518,34.8432301 10.432561,34.6023433 10.3989803,34.3963095 C10.3861912,34.317496 10.4296442,34.2031124 10.3870139,34.1607295 C10.2045263,33.978935 10.0257782,33.7672357 9.79774344,33.6585175 C9.0583694,33.3057572 8.28967768,33.0100093 7.55000448,32.6578227 C7.23431585,32.5075822 6.97150376,32.2582332 6.66927733,32.078088 C6.14215734,31.7639814 5.59955582,31.4739706 5.07026692,31.1630195 C4.78434471,30.9949939 4.52138304,30.7900358 4.23202049,30.6282494 C3.93517894,30.4620884 3.63175587,30.2869632 3.30694286,30.1927312 C3.01832821,30.1090412 2.83352209,29.9392945 2.66659079,29.7352687 C2.41888628,29.4324929 2.33474752,29.0835333 2.21455997,28.7353627 C2.02556562,28.1885447 1.79655861,27.6481092 1.5173675,27.1387975 C1.33869417,26.8130733 1.050977,26.5381941 0.788164906,26.261307 C0.684954692,26.1527323 0.51996793,26.0946441 0.376894642,26.0251533 C0.168828834,25.9238934 -0.0665353267,25.8492393 0.0174538544,25.5023595" id="Fill-1"></path>
                <path d="M17.0032925,21.3168979 C17.5294584,21.1991699 17.5294584,21.1991699 17.4748612,20.9138029 C17.306322,21.0580158 17.1547702,21.1874568 17.0032925,21.3168979 M14.4553975,28.1416846 C14.4183812,28.1364622 14.3813649,28.1313144 14.3444227,28.126092 C14.2032563,28.2139776 14.0718817,28.3414043 13.9184012,28.3807215 C13.6807995,28.4413014 13.6485307,28.6090152 13.6429671,28.7919485 C13.6314691,29.1556517 13.6436348,29.5200263 13.6388872,29.8839532 C13.6365134,30.0702438 13.6185616,30.256236 13.6069894,30.4503602 C14.1972476,30.3555363 14.2684614,30.2781701 14.3174209,29.749066 C14.3404911,29.500778 14.3858899,29.2546535 14.4068831,29.0060671 C14.4312145,28.7186857 14.4398937,28.4298867 14.4553975,28.1416846 M15.6038679,30.0639023 C15.6296087,30.0251073 15.6482281,30.0098131 15.6492666,29.9933253 C15.6945171,29.3113539 15.7387289,28.6293079 15.7808637,27.9471128 C15.7831634,27.9110036 15.7804187,27.8593018 15.7581644,27.8390836 C15.4891098,27.5922877 15.215827,27.3499682 14.9226637,27.0876543 C14.9525586,27.3794375 15.0054497,27.6166092 14.9955094,27.8510951 C14.9683592,28.4857664 14.9219961,29.1197663 14.8671763,29.7527217 C14.8497438,29.9535604 14.9226637,30.0492796 15.107226,30.0615149 C15.2772489,30.072855 15.4485328,30.0639023 15.6038679,30.0639023 M14.6258655,22.7827521 C14.7262324,22.6318246 14.8449962,22.4251666 14.9910586,22.2405173 C15.1890477,21.9903642 15.4102554,21.7603546 15.7592029,21.7352124 C15.9771467,21.7194706 16.1999122,21.7119354 16.1564422,21.3877733 C16.151843,21.3536785 16.1925683,21.3027228 16.2255047,21.2758647 C16.6077594,20.9640872 16.996913,20.6605909 17.3725656,20.3409798 C17.4375482,20.2856969 17.50305,20.1223102 17.4727841,20.0829184 C17.3836927,19.9665334 17.2338471,19.7965814 17.1307355,19.8112788 C16.8680606,19.8487309 16.6177739,19.9751877 16.3255007,20.0790389 C16.483803,20.2219089 16.7301581,20.3227759 16.4901083,20.5173478 C16.3272069,20.6494746 16.1946454,20.784138 16.1307756,20.987215 C16.1155684,21.0357087 16.0640126,21.0897233 16.0164626,21.1081509 C15.5991203,21.2696724 15.1851903,21.445742 14.7563499,21.5677971 C14.6143674,21.6080842 14.3310702,21.5521299 14.2856714,21.4567837 C14.1180965,21.1047936 13.7788667,21.1058381 13.5034327,20.9709509 C13.394164,20.9174586 13.223251,20.815174 13.2245121,20.7378079 C13.2321527,20.3032292 12.931052,20.3854448 12.67038,20.3373241 C12.3661637,20.2811459 12.3847831,20.5863581 12.1364993,20.6872251 C13.3601891,20.9969883 13.9286382,21.9504501 14.6258655,22.7827521 M11.0780105,21.6053984 C11.3354186,21.5762275 11.5964615,21.5516076 11.8557242,21.5141555 C11.9357655,21.5025916 12.0524522,21.4751367 12.0774512,21.4204507 C12.108533,21.3524102 12.0915456,21.2194627 12.0413992,21.1673879 C11.9807933,21.1047936 11.8578012,21.0620445 11.7724931,21.076145 C11.6765028,21.0918868 11.5983902,21.2100624 11.5016582,21.2301313 C11.389274,21.2532591 11.2437309,21.2523639 11.1538235,21.1956635 C11.0997455,21.1617925 11.1083505,20.9998233 11.1170297,20.8979118 C11.1500402,20.5098126 11.2601249,20.155659 11.4999521,19.8323176 C11.7701935,19.4678684 11.9254543,19.3967691 12.345393,19.5603796 C12.6043589,19.6612466 12.8572419,19.7978497 13.1259255,19.8496261 C13.905197,19.9999568 14.6857295,19.9825736 15.4569895,19.7709171 C16.0002912,19.6217801 16.5259378,19.4416072 16.9929814,19.1060304 C17.2611457,18.9130999 17.6583108,18.9711432 17.8905716,19.2148802 C18.1707532,19.5085286 18.4671805,19.7989688 18.5113182,20.238546 C18.5171043,20.2971116 18.4984849,20.3587359 18.4875803,20.4183459 C18.4391401,20.6858822 18.3245305,20.961849 18.3585795,21.2180452 C18.3923319,21.4726747 18.3070979,21.6432981 18.1372234,21.727528 C17.7861247,21.9013595 17.4868785,22.2255215 17.0333359,22.1502443 C16.9292599,22.1330104 16.8124248,22.2018715 16.700189,22.2243279 C16.5312046,22.2580497 16.3442685,22.3464575 16.1946454,22.3043798 C15.7920651,22.1914267 15.6561655,22.3931607 15.4966021,22.715383 C15.2296247,23.2546336 15.1677577,23.8341712 15.0590826,24.4063229 C14.9192514,25.1427564 15.0623465,25.865761 15.3419347,26.5281856 C15.5861386,27.1067534 16.0402747,27.6024341 16.6674751,27.7644032 C16.9972097,27.849603 17.3978613,27.7204604 17.7521498,27.6304859 C18.1208294,27.5368556 18.4734859,27.3768263 18.830074,27.2380595 C18.8917926,27.2139619 18.9512116,27.1600219 18.9898599,27.1045152 C19.1151516,26.9246407 19.2182632,26.7280545 19.3535694,26.556685 C19.4408062,26.4463431 19.5744062,26.3744977 19.6782596,26.2757943 C20.0036175,25.9667772 20.4288231,25.9107482 20.8278427,26.132029 C20.9940081,26.2242417 21.0539464,26.3209308 20.9449003,26.5260966 C20.7881559,26.8205656 20.5966205,27.0026783 20.2660699,27.1190633 C19.7546661,27.2993109 19.291109,27.6166092 18.7800018,27.7981997 C18.2351423,27.9918016 17.6632068,28.1218395 17.0934225,28.2255415 C16.8426907,28.2711256 16.5679984,28.1831654 16.2651915,28.1517564 C16.2651915,28.8784912 16.2491684,29.5894842 16.2751318,30.2989851 C16.2826983,30.506613 16.2295105,30.5646563 16.0525146,30.5578671 C15.899405,30.5521971 15.7468888,30.5356346 15.5939276,30.5241453 C14.9290432,30.4740103 14.3108929,30.6002432 13.7288687,30.9497713 C13.6000163,31.0269882 13.3686458,30.9802104 13.2017385,30.9314182 C13.031864,30.8817308 13.0465519,30.7308033 13.0616106,30.5527193 C13.1105701,29.9678101 13.1123504,29.3787229 13.1280768,28.7912025 C13.1322309,28.6402004 13.0572339,28.5881256 12.8981898,28.5694741 C11.9959263,28.4634593 11.0942561,28.3502078 10.1959983,28.2148729 C9.91633593,28.1728698 9.64535271,28.0621549 9.37540803,27.9678532 C9.11688722,27.8775802 8.9943402,27.6812924 9.0002005,27.4050272 C9.00405791,27.2293306 9.09070133,27.115333 9.26688122,27.1486818 C9.89578779,27.2681256 10.5232849,27.397119 11.1477406,27.5385716 C11.2382415,27.5589389 11.3352702,27.6511517 11.384378,27.7363515 C11.5509886,28.024852 11.7667811,28.1141551 12.0850176,28.0131389 C12.2204722,27.9702406 12.3628255,27.9356235 12.5037694,27.92682 C12.9800115,27.8972015 13.3612277,27.6265318 13.7720421,27.4342727 C14.0268539,27.3149781 14.0851601,27.0597517 14.1183932,26.8062413 C14.2395308,25.8854569 14.3122282,24.964374 14.1913873,24.0355322 C14.1453951,23.6826469 14.1497718,23.3234947 14.1180965,22.9684458 C14.0802642,22.5440882 13.7821307,22.2849077 13.3616728,22.2182848 C12.8526427,22.1377852 12.3522918,22.0028979 11.8443003,21.9147885 C11.6842177,21.8871098 11.5114501,21.9403783 11.3440978,21.9452277 C11.1396549,21.9510469 11.0453708,21.8489116 11.0780105,21.6053984" id="Fill-4"></path>
                <path d="M15.9249283,17.1944592 C15.8124006,17.2254103 15.50534,17.3377763 15.2939012,17.3427106 C14.3089972,17.3658118 13.4465654,17.7045545 12.6939075,18.3010737 C12.3610673,18.5649806 12.0668583,18.8815192 11.7848889,19.1994784 C11.4328478,19.5963853 11.0790473,19.9984508 10.7857563,20.4364763 C10.4454958,20.9447026 10.425071,21.5533331 10.4096186,22.1384886 C10.3892702,22.8974638 10.4039577,23.6586817 10.4378461,24.4175074 C10.4646202,25.0189608 10.513502,25.6228066 10.6072113,26.2172325 C10.6854682,26.7128241 10.4405235,27.0514921 9.98957132,26.9816652 C9.73078061,26.9415932 9.68457618,26.7937904 9.80949643,26.619597 C9.98077412,26.3807351 9.94137796,26.1429199 9.87910907,25.89875 C9.71257423,25.2452628 9.51750585,24.597906 9.37024835,23.940307 C9.21970146,23.268279 9.07994071,22.5904197 9.00390229,21.9077757 C8.97735769,21.6687643 9.08919689,21.3555899 9.24930596,21.1666685 C9.88905373,20.4118799 10.5634548,19.684454 11.2438227,18.963906 C11.6104748,18.5755966 11.9941858,18.1973052 12.4071187,17.8574411 C13.2695504,17.1472849 14.3078497,16.9665872 15.4002326,16.993277 C15.5702098,16.9973888 15.8023029,17.0062107 15.9093993,17.0411241 C16.0164192,17.0760376 16.037303,17.1635081 15.9249283,17.1944592" id="Fill-6"></path>
                <path d="M13,17.4460081 C13.8257916,16.1727473 16.9500204,16.1797598 18.4080964,16.9807359 C18.4284502,16.9292836 18.4453628,16.8765266 18.4694505,16.8285806 C18.5125009,16.7433704 18.5599442,16.6610141 18.6054107,16.5775162 C18.4965401,16.5564787 18.3883284,16.5230469 18.2786523,16.5173391 C18.0872684,16.5073911 17.8335054,16.6665589 17.6832683,16.5145667 C17.5332508,16.3624929 17.699522,15.8876804 18.8445308,15.6809743 C18.7888142,15.5962534 18.6723292,15.5081077 18.6675702,15.4121341 C18.6626648,15.3160789 18.8074108,15.2653605 18.8869223,15.2486446 C19.3583534,15.149654 19.8305167,15.043977 20.3070729,14.993177 C20.4735637,14.9754011 20.689255,15.0584097 20.8192848,15.1795795 C21.1783309,15.5139786 21.5090429,15.8872727 21.8389495,16.2585283 C21.9093823,16.3379491 22.0596194,16.4468877 21.9746901,16.5896658 C21.8896143,16.7324439 21.3925579,16.5676498 21.2591602,16.2817675 C20.8559654,15.4180865 19.7005601,15.0905369 19.0144627,15.7344651 C19.2855777,15.7344651 19.4873582,15.7150584 19.6845261,15.7408253 C19.8325667,15.760069 19.9930539,15.806058 20.1151032,15.8955084 C20.325157,16.0492129 20.5147837,16.2393662 20.702873,16.4265841 C20.910291,16.6326379 21.1047499,16.8549183 21.3086536,17.0654568 C21.3913133,17.1508301 21.4756569,17.2439498 21.5747899,17.298256 C21.7874794,17.4145333 21.8769481,17.5723149 21.7694685,17.8519185 C21.11705,18.0061939 20.9769166,17.2210368 20.5028497,16.9623892 C20.431099,17.1262048 20.3635216,17.2797462 20.296896,17.4317384 C20.4725387,17.6047682 20.8801264,17.5055329 20.7229339,17.9749637 C20.1693555,18.0529983 19.6571437,17.8225638 19.1229673,17.7138698 C18.4624951,17.5794089 17.9224616,17.1161752 17.2600126,17.0087859 C15.9055358,16.789441 14.5657752,16.6814808 13.2759472,17.3541931 C13.1898464,17.3990405 13.0922509,17.416001 13,17.4460081" id="Fill-8"></path>
                <path d="M20.9749531,23.1378476 C21.0760677,23.9891688 20.8709496,24.7953843 20.3610873,25.5489987 C20.2548952,25.705932 20.0927618,25.8795959 19.8969235,25.9534783 C19.5594374,26.0808319 19.2247527,25.8642037 19.2805189,25.5744962 C19.3242914,25.3466919 19.3903004,25.1152739 19.5008698,24.9019249 C20.0133584,23.9114718 20.0846201,22.8801959 20.0100317,21.8356693 C19.9821924,21.4469834 19.9267764,21.0590336 19.8626934,20.6727569 C19.7828523,20.1891748 19.4195404,19.7988158 19.1116445,19.3902539 C19.0452854,19.3023177 18.9931961,19.1922971 19.0007249,19.0953933 C19.003789,19.054236 19.202954,18.9735274 19.2678249,18.9940726 C19.3892498,19.0326869 19.4876505,19.1255084 19.5772966,19.2075554 C19.705375,19.3249375 19.8134055,19.4550349 19.9364939,19.5759639 C20.4043346,20.0354538 20.5737342,20.5892376 20.713281,21.1369983 C20.8810173,21.7955828 21.0097085,23.1364422 20.9749531,23.1378476" id="Fill-10"></path>
                <path d="M9.85580857,18.1461744 C9.72696648,18.4166613 9.50491788,18.6136463 9.13680832,18.7029658 C8.77738307,18.790286 8.41870646,18.8797231 8.06317417,18.9764515 C7.84075125,19.0369583 7.5207048,18.8909541 7.47818167,18.8156294 C7.43550881,18.7403047 7.75226121,18.6789747 7.89016192,18.6308163 C8.05149528,18.5744257 8.12403914,18.5446721 7.94436394,18.4178961 C7.83693315,18.342101 7.81222781,18.1939212 7.73429369,18.0483287 C7.6082216,18.082904 7.44374393,18.1418231 7.27095628,18.1692834 C7.18927893,18.1822785 6.97741193,18.1559942 7.00196754,18.1152448 C7.02652315,18.0744365 7.0670998,17.9843526 7.12422154,17.9374291 C7.30516943,17.7889553 7.47863086,17.6270747 7.69192029,17.512941 C7.90416162,17.3993953 8.16431633,17.3424167 8.39699571,17.2506864 C8.53265048,17.1972358 8.6491399,17.1126204 8.78681602,17.0636388 C8.90412895,17.0220073 9.03940939,16.9904309 9.16645473,16.9907808 C9.55215748,16.9920774 9.93958213,16.9972519 10.3226646,17.0285931 C10.5253981,17.0451163 10.7233403,17.1133849 10.9171649,17.1712455 C10.9606613,17.1842995 11.0062539,17.2546261 10.9992915,17.2927882 C10.9925536,17.3303624 10.9254749,17.3836953 10.8760642,17.3905163 C10.5245746,17.4393216 10.286505,17.573389 10.1447113,17.8460515 C10.1019636,17.9280796 9.87677067,17.9794133 9.72996106,17.9877631 C9.66041179,17.9917028 9.53426483,17.8689253 9.51188029,17.7899549 C9.47092932,17.6440684 9.37105986,17.5961452 9.2086784,17.6163729 C8.99052277,17.6435392 9.03768751,17.7668459 9.07511984,17.880862 C9.09690546,17.9471901 9.11577135,18.014165 9.14107561,18.0795523 C9.24992883,18.3606234 9.32119999,18.3721485 9.57865958,18.1689894 C9.6349578,18.1244766 9.73183268,18.1117167 9.81021598,18.0843152 C9.82548838,18.1048957 9.84053617,18.1255938 9.85580857,18.1461744" id="Fill-12"></path>
                <path d="M22.0092377,23.9907808 C22.3559717,23.9977723 22.6511387,24.1015079 22.8939014,24.3850111 C22.9555864,24.4569356 23.019923,24.6232446 22.9941744,24.6979657 C22.8581045,25.0912347 22.718755,25.4900094 22.5302807,25.8450001 C22.3963042,26.0972166 22.1738474,26.0058908 22.1203265,25.6960823 C22.0908098,25.5257532 22.094857,25.3434512 22.1006487,25.1674415 C22.1121623,24.8173447 21.9419703,24.6242934 21.6714354,24.6760301 C21.5302716,24.7028598 21.3841535,24.7111621 21.2421523,24.6974414 C21.1630922,24.6898382 21.0604466,24.7020732 21.0105543,24.5780624 C20.960662,24.4540516 21.1000116,24.3363331 21.1705586,24.3042598 C21.4443731,24.1798995 21.7286545,24.0921568 22.0092377,23.9907808" id="Fill-14"></path>
                <path d="M10,26.4563892 C9.85165735,26.5859726 9.70307748,26.5863275 9.5269799,26.5158876 C9.15169514,26.365663 8.88371368,26.482294 8.89225366,26.7980613 C8.89731439,26.9782124 8.78985295,27.0323288 8.59517299,26.9592865 C8.36965422,26.874593 8.0694106,26.8456127 8.01619386,26.5989842 C7.950009,26.2931531 8.07913669,26.1539884 8.5439331,26.0396639 C9.09460378,25.904107 9.62961783,26.0528529 10,26.4563892" id="Fill-16"></path>
                <path d="M7,17.8757515 C7.10150331,17.5075555 7.15340667,17.0917118 7.31955884,16.786194 C7.45745592,16.5327206 7.71405507,16.3234184 7.94639169,16.2467322 C8.38411513,16.1023576 8.84103359,16.0487795 9.29234711,15.9947924 C9.54863913,15.9640157 9.77199248,16.1112532 9.92486169,16.4045012 C9.95618798,16.4642142 10.0119303,16.5575669 9.99772602,16.5914111 C9.96785855,16.6619624 9.90152054,16.7403868 9.84524071,16.7472374 C9.76132005,16.7575645 9.66741797,16.7270945 9.58779699,16.6825143 C8.91028925,16.3036844 8.30111582,16.6338441 7.71205878,17.0314876 C7.58268429,17.1189099 7.53508062,17.402342 7.42605286,17.5677797 C7.32101766,17.7273893 7.18542398,17.8512119 7.06311325,17.9907808 C7.0420755,17.9524377 7.02096097,17.9139924 7,17.8757515" id="Fill-18"></path>
                <path d="M13.5682368,2.9907808 C13.948795,2.99320388 14.1148265,3.25260019 13.9143434,3.57817846 C13.5299112,4.20182434 13.3764703,4.90437675 13.2015837,5.60273503 C13.0508409,6.2046994 12.8737406,6.80026593 12.7413304,7.40635334 C12.6459315,7.84304053 12.5986816,8.29145706 12.5421617,8.73631925 C12.5178104,8.92818295 12.395293,9.02237317 12.1596665,8.9812849 C11.9888615,8.95149947 11.9836039,8.82368512 12.014804,8.68563424 C12.299133,7.42753725 12.5829086,6.169227 12.8709042,4.91198306 C12.9077079,4.75161088 12.9874722,4.60048001 13.0138989,4.4391837 C13.0575514,4.17040391 13.2456513,3.91484629 13.0017233,3.62026194 C12.8519489,3.43920345 13.2684806,2.98886757 13.5682368,2.9907808" id="Fill-20"></path>
                <path d="M17.268773,8.98989295 C17.0361871,9.0011913 16.9658838,8.90419239 17.0146069,8.72547301 C17.2152543,7.98684328 17.4063104,7.24712223 17.6022581,6.50791475 C17.8029055,5.75150295 17.9982777,4.99438501 18.2112017,4.23944971 C18.268461,4.03588679 18.5256963,3.94684808 18.7953042,4.01162102 C18.9648761,4.05238495 19.0393995,4.10971125 18.9795506,4.25594787 C18.7028452,4.93211569 18.4332374,5.61027356 18.19998,6.29363124 C18.0251329,6.80507423 17.8861568,7.3233861 17.7765297,7.84298188 C17.7163931,8.12653199 17.746893,8.41887683 17.7435361,8.70730577 C17.7410424,8.91253776 17.6276747,8.99361627 17.268773,8.98989295" id="Fill-22"></path>
            </g>
        </g>
    </g>
</svg>