<?xml version="1.0" encoding="UTF-8"?>
<svg width="98px" height="66px" viewBox="0 0 98 66" version="1.1" xmlns="http://www.w3.org/2000/svg" xmlns:xlink="http://www.w3.org/1999/xlink">
    <title>logo-page</title>
    <defs>
        <polygon id="path-1" points="3.5297611e-06 0.0144873085 47.969363 0.0144873085 47.969363 66 3.5297611e-06 66"></polygon>
    </defs>
    <g id="Page-1" stroke="none" stroke-width="1" fill="none" fill-rule="evenodd">
        <g id="Home" transform="translate(-15.000000, -15.000000)">
            <g id="logo-page" transform="translate(15.000000, 15.000000)">
                <g id="Group-3">
                    <mask id="mask-2" fill="white">
                        <use xlink:href="#path-1"></use>
                    </mask>
                    <g id="Clip-2"></g>
                    <path d="M30.0419876,17.4429781 C28.9014928,17.4587932 27.7548124,17.4327668 26.5778227,17.873597 C27.1413278,18.1456913 29.4575753,17.8560385 30.0419876,17.4429781 M13.0909361,22.132963 C11.8581526,21.657514 10.7790186,21.2415894 9.78957526,20.8601592 C9.76260619,20.817197 9.80652371,20.8983894 9.86083299,20.9716121 C9.90796701,21.0354951 9.96623505,21.0912838 10.0209155,21.1491894 C10.7029361,21.8684649 11.6059052,22.1145328 12.5253278,22.3075517 C12.6663588,22.3371894 12.8391835,22.2152762 13.0909361,22.132963 M31.9356371,2.73307245 C31.9429361,2.67118189 31.9501113,2.60929132 31.9571629,2.54752528 C30.600668,2.24566868 29.2438021,1.9439366 27.8629361,1.63672528 L27.8629361,2.17630642 C29.2353897,2.36397057 30.585699,2.54864604 31.9356371,2.73307245 M41.7788536,22.0221328 C41.7479258,21.9698309 41.7169979,21.9175291 41.6860701,21.8652272 C41.5685443,21.873446 41.4372866,21.8497857 41.335967,21.8948649 C40.4207505,22.3034423 39.5065237,22.7151328 38.6039258,23.1512309 C38.4792247,23.2116272 38.3897814,23.397797 38.335101,23.5448649 C38.1762557,23.971997 38.3445031,24.5293857 37.8094515,24.8126875 C37.7483381,24.8449404 37.7774103,25.0496649 37.7645443,25.1743177 C37.8078433,25.1978536 37.8511423,25.2213894 37.8946887,25.2448008 C39.1893278,24.1706196 40.483967,23.096314 41.7788536,22.0221328 M28.6989773,18.2318649 C28.7078845,18.2884008 28.7165443,18.3448121 28.7254515,18.4012234 C30.439101,18.9816498 32.2937814,19.1197517 33.9234309,20.1417555 C33.9089567,19.9887102 33.9252866,19.9111291 33.8942351,19.8692875 C33.4063175,19.2142687 32.8541938,18.6261215 32.1312247,18.2275064 C31.8663588,18.0816838 31.5809567,17.81868 31.3243794,17.840597 C30.4445443,17.915563 29.5733691,18.0933894 28.6989773,18.2318649 M7.35926598,32.7294498 C7.71270928,31.7962347 7.96730722,30.9582838 7.53171959,30.0948045 C7.27378144,29.5842385 7.26029691,28.9419215 6.72969897,28.5692083 C6.66623505,28.5246272 6.6929567,28.3561404 6.6689567,28.2470536 C6.64520412,28.1390875 6.64409072,27.9882838 6.57382268,27.9346121 C6.19724536,27.6469517 5.80223505,27.3838234 5.4132866,27.1121026 C5.37580206,27.1319026 5.33868866,27.1515781 5.30120412,27.1713781 C5.41736907,28.006963 5.4886268,28.8526347 5.66924536,29.6737743 C5.75918351,30.0830989 6.07514227,30.4371328 6.23967835,30.8364951 C6.34780206,31.0987517 6.43971959,31.2758309 6.76916289,31.2529177 C6.92009072,31.2425819 7.18916289,31.1914008 7.27254433,31.4397102 C7.35580206,31.6881442 6.97427629,31.7760611 6.87926598,31.8831555 C7.04120412,32.1686989 7.17604948,32.4064234 7.35926598,32.7294498 M32.4643794,17.5870574 C32.4941938,17.6435932 32.5017402,17.6850611 32.5246268,17.6973894 C33.8428948,18.4089442 34.5883794,19.5528611 35.0374515,20.9552989 C35.1362969,21.2645026 35.4591835,21.5008574 35.6967093,21.7927517 C35.7981526,21.518914 35.8477608,21.3359819 35.9318845,21.1708574 C36.0397608,20.9592838 36.2578639,20.7728649 36.2854515,20.5569328 C36.4129979,19.5600838 36.2122144,18.6150385 35.5174515,17.8728498 C35.0186474,17.3399932 34.4165443,16.8899479 33.5947299,17.1675215 C33.2250804,17.2924234 32.8623588,17.4384951 32.4643794,17.5870574 M15.3522557,20.4505857 C15.1105237,20.3955442 14.8660701,20.3254347 14.6167918,20.2862083 C14.0426474,20.1956762 13.4393072,20.2005328 12.8974515,20.0176008 C12.2607093,19.8027894 11.6642969,19.4522423 11.0723381,19.1206234 C10.3075546,18.692246 9.76879175,18.0997404 9.83534845,17.1317819 C9.84376082,17.0093706 9.79068866,16.8826008 9.75085361,16.6776272 C9.45110103,17.2196989 9.33011134,18.2816762 9.43650309,18.9686989 C9.50392577,19.404797 9.84413196,19.605163 10.1273072,19.8822385 C11.0952247,20.8297743 12.3325856,21.1701102 13.5713072,21.5185404 C13.6700289,21.5461857 13.7933691,21.510197 13.8995134,21.4809328 C14.1904825,21.4006121 14.4731629,21.2742158 14.7684619,21.2282649 C15.2232247,21.1579064 15.4017402,20.9150762 15.3522557,20.4505857 M36.661534,22.3739253 C37.1299052,22.038197 37.5940701,21.7743215 37.9689155,21.4153064 C38.2736165,21.1234121 38.6581113,20.8392385 38.6258227,20.3042649 C38.612833,20.0902008 38.696833,19.8563366 38.7851629,19.6528574 C38.9999258,19.1596008 38.8337814,18.7400649 38.5673072,18.3404536 C38.4819464,18.212314 38.3416577,18.1214083 38.2269773,18.0129442 C37.8264,17.6340045 37.4466062,17.2294121 37.0188124,16.8849668 C36.7293278,16.6517253 35.8226474,16.7686574 35.5763381,17.0107404 C35.5995959,17.0502158 35.6149361,17.1012725 35.6487093,17.1297894 C36.7811629,18.0824309 37.231101,19.3143894 37.0789361,20.7693781 C37.0473897,21.0704875 36.9543588,21.4451932 36.7503588,21.6283743 C36.4706474,21.8792989 36.4925443,22.0619819 36.661534,22.3739253 M17.5781938,19.3944611 C17.3463588,19.1864989 17.1757608,18.8997102 16.972132,18.8735592 C15.9499052,18.7421819 15.1689155,18.1016083 14.2911835,17.6703668 C13.677699,17.3691328 13.1884206,16.9632951 13.1800082,16.1833743 C13.1786474,16.071797 12.996668,15.8549932 12.936668,15.8679442 C12.4514722,15.9720498 11.9338639,16.0429064 11.5091629,16.2767706 C11.1299876,16.4857291 10.9434309,16.9452385 11.052668,17.4066158 C11.1828124,17.9540423 11.5157196,18.3932536 12.0168742,18.647914 C12.4091629,18.8474083 12.8313897,18.9994574 13.2546062,19.1229894 C14.0484619,19.3546121 14.8827711,19.4749064 15.6440907,19.7823668 C16.3998433,20.0875857 16.9534515,19.8417668 17.5781938,19.3944611 M30.007101,61.3383328 C29.7987711,60.6627668 29.6243381,60.0680196 29.4228124,59.4828611 C29.4002969,59.4179819 29.2230186,59.409763 29.119101,59.3702875 C28.9311835,59.2986838 28.6993485,59.2670536 28.5732866,59.1345555 C28.4874309,59.0442725 28.5480495,58.8109064 28.5461938,58.6411743 C28.5440907,58.4852649 28.5454515,58.3292309 28.5454515,58.173197 C28.5028948,58.1499102 28.4603381,58.126997 28.417534,58.1038347 C27.109534,59.0976951 25.5510186,59.7696498 24.5756784,61.2510385 C24.6897402,61.3245102 24.7982351,61.3948687 24.8829773,61.4497857 C25.0194309,61.2108158 25.0869773,60.9068423 25.2463175,60.8455743 C26.0685031,60.5291479 27.5683794,59.8137328 27.7816577,59.9889442 C27.9951835,60.1641555 27.5480907,60.5870536 27.2934928,60.7518045 C26.8847505,61.0165517 26.3400495,61.1094498 26.113534,61.7547555 C26.5094103,61.7192649 26.8805443,61.7489026 27.208132,61.6429291 C27.7883381,61.4553894 28.2771216,62.0525026 28.1000907,62.2827555 C27.9231835,62.5127592 26.911967,62.4821253 26.3227299,62.5811253 C26.6536577,63.1360234 26.667266,63.0691517 27.2454928,63.1877026 C28.0407093,63.3505857 28.8028948,63.2614234 29.5700289,63.090446 C29.7338227,63.0539592 29.8820289,62.9461177 30.0372866,62.8712762 C29.8059464,62.6230913 30.2299052,62.1325743 29.6967093,61.9827668 C29.3467299,61.884514 29.0557608,61.46448 29.271266,61.2260083 C29.4867711,60.9874121 29.6724619,61.2872762 30.007101,61.3383328 M20.3433897,60.564763 C20.4620289,60.1880649 20.7144,60.1670196 21.0532454,60.2681366 C21.7157196,60.4656385 22.3863588,60.6362423 23.0537814,60.8180536 C23.0973278,60.7897857 23.1409979,60.7616423 23.1847918,60.7332498 C23.0986887,60.5469555 23.0620701,60.2650234 22.9186887,60.1899328 C21.9432247,59.6794913 20.9534103,59.1943291 19.9499876,58.7427894 C19.6221526,58.5952234 19.2388948,58.5723102 18.9177402,58.5007064 C18.6583175,59.0778951 18.9492866,59.3885932 19.2985237,59.6961781 C19.3831423,59.7705215 19.3825237,59.9429932 19.4211216,60.0703857 C19.3120082,60.1007706 19.1829773,60.1847026 19.0978639,60.1522008 C18.7628536,60.0249328 18.6476784,60.2028838 18.6085856,60.4779668 C18.5070186,61.1927592 18.4163381,61.9089215 18.3303588,62.6257064 C18.3219464,62.6949442 18.3588124,62.8192234 18.4060701,62.8379026 C18.8529155,63.0141102 18.8013278,63.3858272 18.7237608,63.8812008 C19.1421526,63.85368 19.5558433,63.9372385 19.8492866,63.7854385 C20.6266887,63.3840838 21.3528742,62.8822347 22.0972454,62.4168725 C22.2317196,62.3329404 22.3558021,62.2319479 22.4845856,62.1389253 C22.4449979,62.0955894 22.4057814,62.0521291 22.3660701,62.0086687 C21.9595546,62.148514 21.560833,62.3300762 21.1424412,62.4085291 C20.9546474,62.4437706 20.7181113,62.4359253 20.5196784,62.1959592 C20.3216165,61.9561177 20.6844619,61.9010762 20.8097814,61.829846 C21.1684206,61.6258687 21.5498227,61.4618649 21.9388948,61.2740762 C21.4113897,60.9616347 20.7028948,61.1855366 20.3433897,60.564763 M27.0077196,57.8135592 C27.0501526,57.8430725 27.0927093,57.8727102 27.1351423,57.9022234 C27.2327505,57.8671064 27.3390186,57.8471819 27.4262351,57.79488 C28.6775753,57.0458423 29.7043794,55.9839894 30.9701938,55.2470309 C31.6305649,54.8627366 32.1993897,54.3229064 32.832668,53.8868083 C34.581699,52.6817479 36.3229361,51.4629894 38.1051216,50.3092347 C39.7893278,49.2188649 41.5263588,48.2115555 43.2289979,47.1497026 C43.5388948,46.9564347 43.9445443,46.7297932 44.0516784,46.427314 C44.5810392,44.9326008 44.4027711,43.3839668 44.2420701,41.8464158 C44.2122557,41.5606234 44.0401732,41.6171592 43.8633897,41.7114272 C43.0927918,42.1224951 42.3022763,42.4995668 41.5550598,42.9498611 C39.8769155,43.9614045 38.2154722,45.0013404 36.5577402,46.0472536 C36.1430598,46.308763 35.6983175,46.5776196 35.3973278,46.9498347 C35.0823588,47.3392347 34.8902351,47.8037253 34.2709361,47.6816875 C34.2405031,47.6755857 34.1938639,47.7339894 34.1595959,47.7674875 C33.3974103,48.5151555 32.5767093,49.2126385 31.8882557,50.0239404 C30.8753072,51.2180423 29.9539052,52.4909706 29.0025649,53.7372498 C28.8693278,53.911963 28.7816165,54.1235366 28.6831423,54.32328 C28.3533278,54.9917479 28.0251216,55.6610875 27.7022351,56.3330423 C27.4661938,56.8243064 27.2388124,57.3199291 27.0077196,57.8135592 M22.7120907,1.64058566 C22.5324619,2.18701585 22.353699,2.73357057 22.1734515,3.27962717 C21.6312247,4.92265358 21.0682144,6.55883094 20.5570392,8.21144604 C20.3786474,8.78738943 20.3449979,9.40741585 20.2100289,9.99929887 C20.1471835,10.2756272 19.9700289,10.5244347 19.8969155,10.7998913 C19.651101,11.7255102 19.4015753,12.6518762 19.2057402,13.5889517 C19.0659464,14.2564234 19.0101526,14.9417026 18.9092041,15.6733064 L20.1461938,15.6733064 C20.2126268,15.4212611 20.2217814,15.1413215 20.3571216,14.9537819 C20.4611629,14.8094536 20.7197196,14.7392196 20.9184,14.7165555 C21.0496577,14.7014875 21.3209567,14.8433253 21.3156371,14.8907706 C21.2943588,15.0821706 21.2060289,15.273446 21.1105237,15.4470385 C21.0463175,15.5637215 20.9287918,15.6507668 20.8348948,15.7512611 C21.7800495,15.6735555 22.7344825,15.9797706 23.6198845,15.5162762 C23.6970804,15.4759291 23.8079258,15.4943592 23.9030598,15.4967253 C24.1622351,15.5030762 24.4272247,15.556997 24.6788536,15.5186423 C26.079266,15.3058234 27.477699,15.0798045 28.8737814,14.839714 C29.3901526,14.7506762 29.899967,14.6183026 30.4079258,14.4869253 C30.4825237,14.4676234 30.5300289,14.3429706 30.5901526,14.2671328 C30.5327505,14.2251668 30.4477608,14.1343857 30.4222763,14.1489555 C30.1018639,14.3313894 29.9395546,14.0267932 29.7045031,13.9383781 C29.2764619,13.777114 29.4332041,13.526314 29.5523381,13.2569592 C29.6505649,13.0344272 29.7795959,12.8101517 29.8106474,12.5755404 C29.9203794,11.7512875 29.964668,10.9176951 30.0875134,10.0958083 C30.3059876,8.63534038 30.5530392,7.17885736 30.8089979,5.72449132 C30.9506474,4.9205366 30.9918433,4.05581208 31.8962969,3.57189509 C31.6600082,3.50701585 31.4947299,3.44500075 31.3236371,3.41760453 C29.9228536,3.19283094 28.5231835,2.95871774 27.1184412,2.76034415 C26.3297814,2.64901585 25.5325856,2.5414234 24.7389773,2.53930642 C23.9328742,2.53706491 23.1487918,2.61589132 22.7120907,1.64058566 M28.3023588,20.4126045 C28.2449567,20.4630385 28.1875546,20.513597 28.1299052,20.5640309 C28.0162144,20.4822158 27.9072247,20.39268 27.7877196,20.32008 C27.3920907,20.0789932 27.0788536,19.596197 26.4924619,19.9120008 C26.3835959,19.9705291 26.1492866,19.9220875 26.043266,19.8355404 C25.2624,19.1992008 24.3370392,18.9708158 23.3761732,18.916397 C22.8262763,18.8851404 22.1588536,18.8405592 21.7387299,19.1095404 C21.1460289,19.4893517 20.5050804,19.4603366 19.9060701,19.6701668 C19.8640082,19.6849857 19.8285031,19.7196045 19.7177814,19.7924536 C19.8945649,19.8773819 20.0185237,19.9640536 20.1555959,19.9975517 C20.4496577,20.0695291 20.7547299,20.0971743 21.0473072,20.1732611 C21.5249567,20.2972913 21.6240495,20.5718762 21.3643794,21.0718574 C21.1822763,20.9865555 21.0049979,20.8738574 20.8113897,20.8190649 C20.491967,20.7284083 20.164132,20.6332687 19.8359258,20.61708 C19.4569979,20.5985253 19.0742351,20.6749857 18.6923381,20.6864423 C18.5360907,20.6910498 18.3757608,20.6021366 18.2219876,20.6138423 C18.1014928,20.6228083 17.8838845,20.7287819 17.8872247,20.7792158 C17.9367093,21.4869102 17.4701938,21.2801932 17.0887918,21.2735932 C16.8490392,21.2693592 16.6075546,21.3357328 16.2923381,21.3811857 C16.6983588,21.6937517 16.9930392,21.9208913 17.3341113,22.183646 C16.816132,22.4566121 16.6663175,22.4396762 16.1827299,22.2073064 C16.0744825,22.1555026 15.8995546,22.1455404 15.7958845,22.1979668 C15.1017402,22.5496347 14.4080907,22.9057857 13.7370804,23.2992951 C13.4823588,23.4487291 13.1644206,23.6007781 13.2476784,24.0392423 C13.2672247,24.1406083 13.0360082,24.3108385 12.8962144,24.4175592 C12.7009979,24.5667442 12.4137402,24.6382234 12.2866887,24.8258875 C11.6363381,25.7861253 10.999967,26.7586913 10.4132041,27.7591517 C10.2130392,28.1004838 9.98974021,28.2194083 9.68318351,28.0657404 C9.34433814,27.8958838 9.56145155,27.6587819 9.68009072,27.4275328 C9.84338969,27.1098611 10.0801732,26.7601857 10.060132,26.43828 C10.0423175,26.1482536 10.2256577,25.701446 9.77819381,25.5041932 C9.75691546,25.4948536 9.81382268,25.3528913 9.79316289,25.2855215 C9.75147216,25.1492875 9.71596701,24.9800536 9.61761649,24.8977404 C8.94301856,24.3357442 8.23316289,23.8554385 7.28157526,24.0988913 C7.19077113,24.1221781 7.08586392,24.0870611 6.99456495,24.1092272 C6.47374021,24.2361215 5.89823505,24.2464574 5.55802887,24.6801894 C5.99052371,25.0208989 6.38491546,25.3215102 6.76755464,25.6368158 C7.01670928,25.8424121 7.25497732,26.0627026 7.48396701,26.290963 C7.55312165,26.3598272 7.56301856,26.4849781 7.61992577,26.5714008 C7.92264742,27.0311592 8.23860619,27.4820762 8.53402887,27.9463177 C8.64153402,28.1151781 8.71823505,28.3080725 8.78367835,28.4987253 C8.84813196,28.6862649 8.81534845,28.9698158 8.93745155,29.0642083 C9.53559588,29.5263328 9.58297732,29.6594536 9.30994639,30.3485932 C9.25229691,30.4942913 9.25068866,30.7290272 9.33110103,30.8505668 C9.53559588,31.1605177 9.36413196,31.2155592 9.1278433,31.3301253 C8.94833814,31.4175442 8.74891546,31.5719592 8.67270928,31.7472951 C8.36763711,32.4451517 8.09138969,33.1569555 7.83567835,33.8748611 C7.6300701,34.4513026 7.46974021,35.0435592 7.27155464,35.6858762 C7.44425567,35.6612196 7.50561649,35.6715555 7.53357526,35.6455291 C7.77147216,35.4248649 8.03943093,35.4294725 8.17996701,35.6930989 C8.2441732,35.8137668 8.12924536,36.1372913 7.99699794,36.2401517 C7.25077113,36.82008 7.07559588,37.634246 7.27316289,38.4472913 C7.3747299,38.8652083 7.35209072,39.1655706 7.2678433,39.5557177 C7.16961649,40.0107442 7.30223505,40.5072385 7.01522474,40.9438347 C6.94260619,41.0546649 6.97897732,41.2379706 6.95955464,41.4492951 C7.62450309,41.211197 8.2104,41.0013668 8.79654433,40.7914121 C8.83749278,40.8462045 8.87844124,40.9011215 8.91938969,40.956163 C8.81213196,41.1016121 8.72788454,41.2759517 8.59204948,41.3852875 C8.3947299,41.5441857 8.06763711,41.6033366 7.95901856,41.7978498 C7.63922474,42.3684385 7.24260619,42.3294611 6.7452866,42.1076762 C6.66475052,42.0716875 6.48388454,42.1852574 6.39246186,42.2742951 C6.2947299,42.3698083 6.21221443,42.5122687 6.18994639,42.645514 C6.17002887,42.764563 6.22161649,42.9086423 6.2772866,43.0242045 C6.3384,43.1501026 6.44070928,43.2558272 6.52483299,43.3703932 C6.38046186,43.4432423 6.24202887,43.5329026 6.09085361,43.5845819 C5.91901856,43.6429857 5.73592577,43.6671442 5.49963711,43.7189479 C6.79736907,44.0054875 8.01518351,44.1978838 9.18475052,44.5524158 C10.5554722,44.9679668 11.887967,45.514646 13.2294928,46.0244649 C13.7791423,46.2334234 14.3683794,46.4113743 14.8378639,46.7471026 C16.940833,48.2504083 19.1044206,49.687963 20.7218227,51.7740611 C21.4873485,52.7613215 22.2181113,53.7602875 22.7493278,54.9052008 C23.1042557,55.6706762 23.0780289,56.5793592 23.6546474,57.2575404 C23.7134103,57.3267781 23.7245443,57.4894121 23.6874309,57.579197 C23.5544412,57.9013517 23.6733278,58.1375819 23.8426887,58.4094272 C23.928668,58.5479026 23.8793072,58.9528687 23.8441732,58.958846 C23.4826887,59.0206121 23.1115546,59.0349328 22.7428948,59.0355555 C22.6911835,59.0358045 22.5786062,58.8715517 22.5967918,58.8190008 C22.7117196,58.4845177 22.4640495,58.3852687 22.2787299,58.2100574 C22.131266,58.0704611 22.0562969,57.8510423 21.9578227,57.6625064 C21.901534,57.5546649 21.8812454,57.4242838 21.8124619,57.3272762 C21.4065649,56.7546951 20.9334928,56.2218385 20.592668,55.6133932 C20.0625649,54.6672272 19.6105237,53.6758574 19.1449979,52.6944498 C18.9233072,52.2273442 18.7638433,51.7303517 18.5453691,51.2616272 C18.1801732,50.4780951 17.5212866,49.9796083 16.8485443,49.4747706 C15.7634722,48.6601064 14.7579464,47.7511743 13.5062351,47.1634008 C10.9969979,45.9849894 8.47501856,44.8799253 5.66800825,44.6520385 C4.83110103,44.5842951 3.99691546,44.4872875 3.03703918,44.3911517 C3.26602887,44.8029668 3.37600825,45.2435479 3.65670928,45.4606008 C4.61275052,46.2009215 5.1886268,47.2454649 5.91159588,48.1668498 C6.48116289,48.8929743 6.90376082,49.7493555 8.01122474,49.7202158 C8.11464742,49.7174762 8.2955134,49.7979215 8.30924536,49.8664121 C8.33683299,50.0035177 8.30503918,50.176114 8.23848247,50.3022611 C8.17897732,50.4143366 8.03930722,50.4835743 7.8635134,50.6322611 C8.4732866,51.086914 9.03555464,51.5218913 9.61427629,51.9334574 C10.1944825,52.3463932 10.783967,52.7470008 11.3824825,53.1324158 C11.9326268,53.4865743 12.4909361,53.8297743 13.0619876,54.1479442 C13.8804619,54.6044649 14.6900289,55.0900008 15.5472247,55.4604725 C16.531101,55.8858611 17.5398433,56.2388989 18.3538639,56.9790951 C18.7378639,57.3282725 19.1020701,57.7361026 19.5513897,57.9673517 C20.5410804,58.477046 21.5772866,58.8957102 22.5982763,59.343514 C23.5545649,59.7629253 24.4810392,59.9254347 25.3882144,59.1665592 C25.7250804,58.8848762 25.9376165,58.7175102 25.9081732,58.1749404 C25.8580701,57.2407291 26.2543175,56.351846 26.7313485,55.5513781 C27.0265237,55.05588 27.4654515,54.6494196 27.8182763,54.1864234 C28.5949361,53.1679064 29.3247093,52.1116574 30.1356371,51.1225291 C30.8334928,50.2717517 31.6100289,49.4853555 32.3656577,48.6840158 C32.9344825,48.0809253 33.4945237,47.4633894 34.1154309,46.9177064 C34.7712247,46.3413894 35.469699,45.8059177 36.195266,45.3216272 C36.7995959,44.9181555 37.2045031,44.1727291 38.0558845,44.1739743 C38.0797608,44.1739743 38.1209567,44.1381102 38.1244206,44.1144498 C38.1842969,43.7186989 38.5660701,43.7576762 38.804833,43.6129743 C39.3181113,43.3015291 39.8505649,43.0218385 40.3722557,42.7233442 C40.7844619,42.487363 41.1889979,42.2379328 41.6019464,42.0029479 C42.1278433,41.7038309 42.6612866,41.4177894 43.1843381,41.1138158 C43.261534,41.0689857 43.2996371,40.9557894 43.3558021,40.8743479 C43.3524619,40.8211743 43.3489979,40.7681253 43.3459052,40.7148272 C42.463967,41.6245064 42.0562144,40.4343894 41.3581113,40.5168272 C41.5504825,39.748363 41.7202144,39.7061479 42.7163381,40.0879517 C42.7163381,39.9396385 42.7032247,39.7978008 42.7189361,39.6594498 C42.7621113,39.2800121 42.6703175,39.1684347 42.2620701,39.2937102 C42.0699464,39.3527366 41.785534,39.2079102 41.5779464,39.0920989 C41.2477608,38.9076725 40.9556784,38.6556272 40.6313072,38.4593706 C40.2988948,38.2581328 39.7242557,38.1611253 39.5969567,37.9029781 C39.4697814,37.6448309 39.9508948,37.2252951 41.060833,37.6278951 C41.060833,37.1040045 41.0724619,36.6019064 41.0530392,36.1008045 C41.0478433,35.9669366 40.9644619,35.8260951 40.8887505,35.706797 C40.579101,35.2206385 40.2361732,34.75428 39.9528742,34.2535517 C39.8352247,34.0458385 39.7981113,33.7673932 39.8122144,33.5264309 C39.8156784,33.4677781 39.9729155,33.4655366 40.165534,33.4251894 C40.2369155,33.4101215 40.4929979,33.5753706 40.6708948,33.3824762 C40.8487918,33.1894574 40.1227299,31.2585215 39.4506062,30.4132234 C39.1692866,30.059314 38.9865649,29.7981781 39.0614103,29.3011857 C39.1600082,28.6464158 39.2964619,28.3577592 39.9187299,28.1270083 C40.1990598,28.0231517 40.5137814,27.9226574 40.7197608,27.722914 C41.325699,27.1347668 41.9170392,26.5244536 42.4548124,25.8731706 C43.1586062,25.0205253 43.4339876,24.0241743 43.2450804,22.8534838 C42.9016577,22.99968 42.5838433,23.1006725 42.3005443,23.2625592 C41.7197196,23.5946762 41.1768742,23.9987706 40.5818227,24.2997555 C39.9705649,24.6088347 39.6219464,25.1311064 39.3106887,25.6865026 C39.1459052,25.9806385 38.9920082,26.3092687 39.2943588,26.6690309 C39.4040907,26.7992875 39.3370392,27.0802234 39.3501526,27.2922951 C39.3049979,27.3355064 39.2598433,27.3788423 39.2145649,27.4221781 C38.7192247,27.1941668 38.1581938,27.0452309 37.7555134,26.7060158 C37.5428536,26.5271932 37.6060701,26.0163781 37.5395134,25.6257328 C37.4532866,25.6414234 37.3960082,25.786997 37.2058639,25.6866272 C37.015967,25.5862574 37.0580289,25.3398158 36.9945649,25.1911291 C36.3588124,25.2802913 36.3640082,25.2776762 36.0591835,24.6595177 C36.0082144,24.5560347 35.9028124,24.4349932 35.8007505,24.4092158 C35.3003381,24.2823215 35.2363794,24.1272838 35.4716784,23.6408762 C35.5221526,23.536646 35.4784825,23.2650498 35.4413691,23.2577026 C35.0953485,23.188963 35.1249155,22.964563 35.1502763,22.7040498 C35.1630186,22.5775291 35.1320907,22.4092913 35.0539052,22.3180121 C34.7946062,22.0149102 34.4929979,21.7485442 34.2297402,21.4484309 C33.9490392,21.1281442 33.6380289,20.9445894 33.1895753,20.9589102 C33.0173691,20.9643894 32.7510186,20.8165743 32.6785237,20.6652725 C32.3713485,20.0220838 31.7124619,20.1214574 31.1925031,19.8978045 C31.2977814,20.1182196 31.4510598,20.2758725 31.6198021,20.4140989 C31.9295753,20.6685102 32.2878433,20.8889253 32.2564206,21.3661177 C32.2509773,21.4459404 32.1815753,21.5316158 32.119967,21.591763 C32.0993072,21.6119366 31.9678021,21.5732083 31.9588948,21.5412045 C31.8554722,21.1643819 31.5381526,21.2473177 31.2744,21.1943932 C30.6649979,21.0719819 30.4627299,20.5535706 30.2098639,20.0742611 C30.0798433,19.8270725 29.9270598,19.4745328 29.7127918,19.4101517 C28.8802144,19.1600989 28.0190598,19.0063064 27.168668,18.8166498 C27.1384825,18.87468 27.1082969,18.9327102 27.0778639,18.9907404 C27.3313485,19.1820158 27.6247918,19.3386725 27.8273072,19.57428 C28.0324206,19.8130008 28.1478433,20.1299253 28.3023588,20.4126045 M0.0288742268,42.5778951 C0.977616495,42.0552498 1.96223505,41.5268762 2.93336907,40.973597 C3.91316289,40.4153366 4.87910103,39.8321706 5.91011134,39.2252196 C5.80656495,38.2281215 5.70301856,37.2129668 5.59501856,36.1984347 C5.5726268,35.9904725 5.54454433,35.781763 5.49926598,35.5777857 C5.34141031,34.8626196 5.16549278,34.1511894 5.01877113,33.4337819 C4.98994639,33.2936875 5.00986392,33.0545932 5.09670928,32.9961894 C5.3620701,32.818114 5.36070928,32.6117706 5.24132784,32.3797743 C4.74363711,31.412563 4.71493608,30.3879442 4.78161649,29.3278347 C4.80994639,28.8755479 4.64355464,28.4099366 4.5569567,27.9519215 C4.49448247,27.6211743 4.39130722,27.2959064 4.35604948,26.9629177 C4.32858557,26.7031517 4.25200825,26.5736423 3.9841732,26.4915781 C3.41670928,26.3177366 2.76326598,25.3198913 2.78516289,24.7382196 C2.80755464,24.1590385 3.06574021,23.8012687 3.65237938,23.6063819 C4.66198763,23.2709026 5.70054433,23.1529743 6.76458557,23.1832347 C7.91571959,23.2158611 9.06771959,23.2025366 10.2193485,23.2051517 C10.3068124,23.2054008 10.3945237,23.1743932 10.6204206,23.1318045 C10.3800495,22.9522347 10.249534,22.8168725 10.0909361,22.7419064 C8.12726598,21.8123026 7.28404948,20.0894536 6.87703918,18.085046 C6.81382268,17.7717328 6.95930722,17.3901781 7.08116289,17.0681479 C7.53444124,15.8730498 8.43308041,15.1322309 9.6067299,14.7265177 C10.2939464,14.4891668 10.9920495,14.2483291 11.7049979,14.1325177 C12.8509361,13.946597 13.9507299,14.2742309 15.031967,14.6321253 C15.2292866,14.6975026 15.4285856,14.7581479 15.6228124,14.8319932 C16.4327505,15.1392045 16.4328742,15.1383328 16.7347299,14.3257857 C17.6652866,11.8180347 18.5999258,9.31165358 19.5292454,6.80315547 C20.0788948,5.31940075 20.6271835,3.8350234 21.1618639,2.34578943 C21.2696165,2.0455517 21.3301113,1.72489132 21.3830598,1.40871396 C21.5548948,0.382476226 22.4981938,-0.185621887 23.4941938,0.0792498113 C24.0745237,0.233664906 24.6951835,0.230676226 25.2841732,0.360808302 C26.9195134,0.722438491 28.5475546,1.11831396 30.1794309,1.4960083 C30.3969155,1.54644226 30.6233072,1.55827245 30.8404206,1.60957811 C31.7527918,1.82526113 32.6665237,2.03558943 33.5717196,2.27767245 C33.8652866,2.35600075 34.0898227,3.16941962 33.9578227,3.54636679 C33.2452454,5.58103472 32.9583588,7.68755547 32.8713897,9.83367623 C32.8456577,10.468397 32.6852041,11.0971404 32.6467299,11.7321102 C32.6075134,12.3850121 32.641534,13.0425215 32.643266,13.698163 C32.6436371,13.9023894 32.643266,14.1066158 32.643266,14.3406045 C33.2604619,14.3105932 33.8917608,14.2550536 34.5238021,14.2541819 C35.696833,14.2524385 36.8847093,14.1954045 38.012833,14.5880423 C38.3477196,14.7046008 38.623101,15.0059592 38.9133278,15.23808 C39.6585649,15.8339479 40.3894515,16.4745215 40.4942351,17.4906725 C40.5583175,18.1128158 40.5002969,18.7653442 40.3856165,19.3832536 C40.2862763,19.9192234 40.0301938,20.4259291 39.8263175,20.99328 C40.4487093,20.9546762 41.0791423,20.9184385 41.7090804,20.8754762 C42.4104,20.8279064 43.1115959,20.7814574 43.8115546,20.7201894 C44.3050392,20.6771026 45.1287093,21.5085781 45.0721732,22.0627291 C45.0268948,22.5072951 44.9767918,22.9812498 44.7902351,23.3757555 C44.3085031,24.3955177 43.9705237,25.4948536 43.2053691,26.3694158 C42.9802144,26.6266913 42.843266,26.9625442 42.6694515,27.2644008 C42.271101,27.9566536 41.8770804,28.6512725 41.4769979,29.3426536 C41.1865237,29.8450008 40.984132,30.3128536 41.1887505,30.9549215 C41.4167505,31.6707102 41.2674309,32.4896083 41.664668,33.1799932 C41.8863588,33.5655328 42.1081732,33.9590423 42.3877608,34.3011215 C42.7236371,34.7116913 42.6991423,34.9299894 42.1986062,35.0810423 C42.0361732,35.1303555 41.8576577,35.1254989 41.5956371,35.1558838 C41.7595546,35.411914 41.8903175,35.6374347 42.0414928,35.8480121 C42.2305237,36.1116385 42.5520495,36.29868 42.4637196,36.7112423 C42.4509773,36.7706423 42.5878021,36.8883215 42.6773691,36.9402498 C43.6164619,37.4849366 44.5561732,38.0282536 45.5056577,38.553763 C45.680833,38.6510196 45.897699,38.6932347 46.1004619,38.7152762 C46.628833,38.7721857 47.1610392,38.7931064 47.6887918,38.8546234 C47.7941938,38.8669517 47.9545237,38.9856272 47.9671423,39.073046 C47.9834722,39.1853706 47.9073897,39.3514913 47.8162144,39.4319366 C47.559266,39.6588272 47.2386062,39.8199668 47.0070186,40.0674045 C46.2789773,40.8450838 45.9730392,41.8291064 45.8326268,42.854597 C45.7438021,43.5046347 45.7634722,44.1713592 45.7580289,44.8307366 C45.7565443,45.032597 45.7781938,45.272314 45.8837196,45.4308385 C46.2845443,46.0321857 45.9786062,46.6853366 45.4946474,47.1551819 C44.3638021,48.253397 42.9414928,48.8045592 41.5497402,49.4310611 C40.627101,49.8462385 39.6558433,50.194046 38.9746887,51.0168045 C38.9109773,51.093763 38.7788536,51.1109479 38.6816165,51.1622536 C38.1412454,51.4470498 37.5986474,51.7284838 37.0627299,52.0221215 C36.644833,52.2510045 36.2182763,52.4705479 35.8259876,52.7389064 C34.5507711,53.6108536 33.2864412,54.4984913 32.0254515,55.3911102 C31.695266,55.6249743 31.3936577,55.8994347 31.0628536,56.1681668 C31.6305649,56.5261857 31.6310598,56.5335328 31.2917196,57.0172008 C30.7092866,57.8470574 30.7298227,58.7513819 30.9225649,59.6984196 C31.0755959,60.4506951 31.1582351,61.2172913 31.2757608,61.9770385 C31.365699,62.5594574 31.9068124,62.6980574 32.2812866,62.9990423 C32.403266,63.0969215 32.5350186,63.1827215 32.6623175,63.2741253 C32.6501938,63.3215706 32.6381938,63.3688913 32.6260701,63.4163366 C31.7193897,63.5924196 30.8134515,63.7733592 29.9057814,63.9433404 C28.7931216,64.1515517 27.6663588,64.2526687 26.5685443,63.9393555 C25.9373691,63.759163 25.3609979,63.3913064 24.7467711,63.1405064 C24.268132,62.945246 23.7737814,62.7847291 23.2758433,62.6461291 C23.1773691,62.6187328 23.0170392,62.7423894 22.9107711,62.8284385 C22.5380289,63.1292989 22.1894103,63.4610423 21.8056577,63.745963 C21.6374103,63.8709894 21.3946887,63.889046 21.2066474,63.9940234 C20.2769567,64.51368 19.3142351,64.9872611 18.4419464,65.5922196 C17.7346887,66.0824875 17.0738227,66.1177291 16.3508536,65.7675555 C16.2098227,65.699314 15.9165031,65.6354309 16.0143588,65.3816423 C16.1118433,65.1281026 16.3628536,65.1444158 16.5226887,65.1612272 C16.8839258,65.1994574 17.0086268,65.0954762 17.0292866,64.7277442 C17.0498227,64.3638725 17.1882557,64.0077215 17.2224,63.6432272 C17.308132,62.7223404 17.3577402,61.7978423 17.4370392,60.8760838 C17.4562144,60.6546725 17.5436784,60.4402347 17.5856165,60.2198196 C17.6613278,59.8212045 17.6687505,59.4639328 17.415266,59.0764008 C17.232668,58.7979555 17.256668,58.3796649 17.2011216,58.0218951 C17.179967,57.8850385 17.2518433,57.6864158 17.1813278,57.6128196 C16.8794722,57.2971404 16.5838021,56.9295328 16.2066062,56.7407479 C14.9835959,56.1281932 13.7120907,55.6146385 12.4885856,55.00308 C11.9664,54.7421932 11.5316784,54.3092083 11.0317608,53.9963932 C10.1598433,53.4509592 9.26231753,52.9473668 8.38681237,52.4074121 C7.91386392,52.1156423 7.47889485,51.7597404 7.00025567,51.4788045 C6.50924536,51.1902725 6.00734845,50.8861743 5.4700701,50.7225442 C4.99266804,50.5772196 4.68697732,50.2824611 4.41085361,49.9281781 C4.00112165,49.4024196 3.86194639,48.7964649 3.66314227,48.19188 C3.35052371,47.2423517 2.97171959,46.3039064 2.50990515,45.4195064 C2.21435876,44.8538989 1.73844124,44.3765819 1.30371959,43.8957781 C1.13299794,43.7072423 0.860090722,43.6063743 0.623430928,43.4857064 C0.279265979,43.3098725 -0.110053608,43.1802385 0.0288742268,42.5778951" id="Fill-1" fill="#000000" mask="url(#mask-2)"></path>
                </g>
                <path d="M29.3388209,35.8768618 C30.215764,35.6806486 30.215764,35.6806486 30.1247687,35.2050368 C29.8438699,35.4453917 29.5912836,35.6611267 29.3388209,35.8768618 M25.0923292,47.2515064 C25.0306353,47.2428024 24.9689415,47.2342227 24.9073712,47.2255187 C24.6720938,47.3719947 24.4531362,47.5843725 24.1973354,47.6499012 C23.8013324,47.7508677 23.7475512,48.0303906 23.7382786,48.3352795 C23.7191151,48.9414514 23.7393913,49.5487424 23.7314786,50.1552873 C23.7275223,50.4657717 23.6976027,50.7757587 23.6783156,51.099299 C24.6620794,50.9412591 24.780769,50.8123155 24.8623681,49.9304753 C24.9008186,49.5166619 24.9764832,49.1064545 25.0114719,48.6921438 C25.0520242,48.2131748 25.0664895,47.7318432 25.0923292,47.2515064 M27.0064464,50.4552025 C27.0493478,50.3905442 27.0803802,50.3650539 27.0821111,50.3375741 C27.1575284,49.2009552 27.2312149,48.0642119 27.3014396,46.92722 C27.3052723,46.867038 27.3006978,46.7808683 27.2636073,46.7471714 C26.8151831,46.3358449 26.3597117,45.931979 25.8711061,45.4947891 C25.920931,45.9810944 26.0090828,46.3763807 25.9925157,46.7671906 C25.9472653,47.8249761 25.8699934,48.8816425 25.7786271,49.9365681 C25.7495729,50.2712993 25.8711061,50.4308313 26.17871,50.4512236 C26.4620815,50.4701237 26.7475547,50.4552025 27.0064464,50.4552025 M25.3764425,38.3199521 C25.5437206,38.0684063 25.7416603,37.7239763 25.9850976,37.4162275 C26.3150795,36.9993056 26.6837591,36.6159563 27.2653382,36.5740527 C27.6285778,36.5478163 27.9998537,36.5352577 27.9274036,35.9949876 C27.9197383,35.9381628 27.9876139,35.8532366 28.0425078,35.8084731 C28.679599,35.2888439 29.3281883,34.7830168 29.954276,34.2503316 C30.0625803,34.1581935 30.17175,33.8858824 30.1213069,33.8202293 C29.9728212,33.6262543 29.7230785,33.3430011 29.5512259,33.3674966 C29.1134343,33.4299168 28.6962898,33.6406781 28.2091678,33.8137635 C28.4730049,34.0518802 28.8835968,34.2199919 28.4835139,34.5442783 C28.2120114,34.7644897 27.9910757,34.9889287 27.8846259,35.3273902 C27.8592807,35.4082132 27.7733544,35.4982375 27.6941044,35.5289502 C26.9985338,35.7981527 26.3086504,36.091602 25.5939164,36.2950271 C25.357279,36.3621723 24.8851169,36.2689151 24.8094523,36.1100048 C24.5301608,35.5233547 23.9647779,35.5250955 23.5057211,35.3002835 C23.3236067,35.2111296 23.0387517,35.0406554 23.0408535,34.9117118 C23.0535879,34.1874141 22.5517534,34.32444 22.1172999,34.2442388 C21.6102728,34.1506085 21.6413052,34.6592956 21.2274988,34.8274072 C23.2669819,35.3436792 24.214397,36.9327821 25.3764425,38.3199521 M19.4633508,36.357696 C19.8923643,36.3090779 20.3274359,36.2680447 20.7595403,36.2056245 C20.8929424,36.1863514 21.0874203,36.1405932 21.1290853,36.0494498 C21.1808884,35.936049 21.152576,35.7144699 21.0689987,35.6276785 C20.9679889,35.5233547 20.763002,35.4521062 20.6208218,35.475607 C20.4608381,35.5018434 20.3306504,35.6988026 20.1694304,35.7322509 C19.9821233,35.7707972 19.7395514,35.7693051 19.5897058,35.6748045 C19.4995759,35.6183528 19.5139175,35.3484042 19.5283828,35.1785517 C19.5834004,34.5317197 19.7668748,33.9414637 20.1665868,33.4025613 C20.6169891,32.795146 20.8757572,32.6766472 21.575655,32.9493313 C22.0072648,33.1174429 22.4287365,33.3451149 22.8765425,33.4314089 C24.1753283,33.68196 25.4762159,33.652988 26.7616491,33.3002271 C27.6671519,33.0516655 28.5432296,32.7513773 29.3216356,32.1920827 C29.7685762,31.8705318 30.4305181,31.9672706 30.8176193,32.3734991 C31.2845887,32.8629129 31.7786342,33.34698 31.852197,34.0796087 C31.8618406,34.1772179 31.8308082,34.2799252 31.8126338,34.3792752 C31.7319002,34.8251691 31.5408841,35.2851136 31.5976326,35.7121073 C31.6538865,36.1364898 31.5118299,36.4208622 31.2287057,36.5612454 C30.6435412,36.8509644 30.1447975,37.3912346 29.3888931,37.2657725 C29.2154332,37.2370493 29.020708,37.3518179 28.8336483,37.3892451 C28.5520077,37.4454481 28.2404475,37.5927945 27.9910757,37.5226651 C27.3201085,37.3344098 27.0936091,37.6706332 26.8276702,38.2076704 C26.3827078,39.1064213 26.2795962,40.0723173 26.0984709,41.0259034 C25.8654189,42.2532927 26.1039109,43.4583003 26.5698912,44.5623413 C26.9768977,45.5266209 27.7337912,46.3527555 28.7791252,46.6227041 C29.3286828,46.7647037 29.9964355,46.5494661 30.5869163,46.3995085 C31.2013823,46.2434581 31.7891432,45.9767424 32.3834567,45.7454645 C32.486321,45.7053018 32.5853527,45.6154018 32.6497665,45.5228906 C32.858586,45.2230998 33.0304387,44.8954561 33.255949,44.6098403 C33.4013437,44.4259371 33.6240104,44.3061949 33.7970994,44.1416891 C34.3393625,43.6266606 35.0480384,43.5332791 35.7130711,43.9020803 C35.9900136,44.0557681 36.0899107,44.2169166 35.9081672,44.5588597 C35.6469264,45.0496414 35.3277008,45.3531625 34.7767832,45.5471375 C33.9244435,45.8475501 33.1518483,46.3763807 32.300003,46.6790314 C31.3919039,47.0017014 30.438678,47.2184311 29.4890375,47.3912678 C29.0711511,47.4672414 28.6133307,47.3206411 28.1086526,47.2682927 C28.1086526,48.4795174 28.0819474,49.6645057 28.1252196,50.8470072 C28.1378304,51.1930536 28.0491841,51.2897924 27.754191,51.2784772 C27.4990083,51.2690272 27.2448147,51.241423 26.9898793,51.2222742 C25.8817387,51.1387158 24.8514882,51.349104 23.8814479,51.9316508 C23.6666939,52.0603457 23.2810763,51.9823827 23.0028975,51.9010624 C22.7197734,51.81825 22.7442531,51.5667042 22.769351,51.2698976 C22.8509501,50.2950488 22.8539173,49.3132369 22.880128,48.3340361 C22.8870515,48.082366 22.7620565,47.9955746 22.4969831,47.9644889 C20.9932104,47.7877975 19.4904269,47.5990449 17.9933305,47.3734868 C17.5272265,47.3034817 17.0755879,47.1189568 16.6256801,46.9617873 C16.194812,46.8113323 15.990567,46.484186 16.0003342,46.0237441 C16.0067632,45.7309164 16.1511689,45.5409204 16.444802,45.5965017 C17.4929797,45.7955747 18.5388082,46.0105637 19.5795677,46.2463179 C19.7304024,46.2802636 19.892117,46.4339515 19.9739634,46.5759511 C20.2516476,47.0567853 20.6113019,47.2056238 21.1416961,47.0372635 C21.3674536,46.9657663 21.6047092,46.9080711 21.8396157,46.8933987 C22.6333525,46.8440345 23.2687128,46.3929183 23.9534035,46.0724865 C24.3780898,45.8736621 24.4752669,45.4482849 24.5306554,45.0257675 C24.7325513,43.4911268 24.8537136,41.9559887 24.6523122,40.4079189 C24.5756585,39.8197768 24.582953,39.2211898 24.5301608,38.6294417 C24.467107,37.922179 23.9702179,37.4902116 23.2694546,37.3791733 C22.4210712,37.2450073 21.587153,37.0201952 20.7405005,36.8733462 C20.4736961,36.8272149 20.1857502,36.9159958 19.9068296,36.9240781 C19.5660915,36.9337768 19.4089514,36.7635513 19.4633508,36.357696" id="Fill-4" fill="#000000"></path>
                <path d="M26.8820302,28.3462533 C26.7052009,28.3988702 26.2226772,28.5898924 25.8904162,28.5982806 C24.3427098,28.6375526 22.98746,29.2134153 21.8047118,30.2274979 C21.2816772,30.6761396 20.8193487,31.2142554 20.3762539,31.7547859 C19.8230466,32.4295277 19.2670744,33.113039 18.8061884,33.8576824 C18.2714935,34.7216671 18.2393973,35.7563389 18.2151149,36.7511032 C18.183139,38.041361 18.2062193,39.3354316 18.2594724,40.6254352 C18.301546,41.647906 18.3783603,42.6744438 18.5256178,43.6849678 C18.6485929,44.5274736 18.2636798,45.1032092 17.5550406,44.9845035 C17.1483695,44.9163811 17.0757626,44.6651164 17.2720658,44.3689875 C17.5412165,43.9629223 17.4793082,43.5586364 17.3814571,43.1435476 C17.1197595,42.0326194 16.8132235,40.9321129 16.5818188,39.8141945 C16.3452452,38.671747 16.1256211,37.5193862 16.0061322,36.3588913 C15.9644192,35.952572 16.1401665,35.4201754 16.3917665,35.099009 C17.3970844,33.8158685 18.4568576,32.5792444 19.5260071,31.3543129 C20.1021747,30.6941869 20.705149,30.0510915 21.3540437,29.4733224 C22.7092936,28.266057 24.3409067,27.9588709 26.0575084,28.0042435 C26.3246154,28.0112337 26.6893332,28.0262307 26.8576275,28.0855836 C27.0258016,28.1449365 27.0586189,28.2936364 26.8820302,28.3462533" id="Fill-6" fill="#000000"></path>
                <path d="M22,28.0920455 C23.3763193,25.9699442 28.5833674,25.9816317 31.013494,27.3165917 C31.0474169,27.2308379 31.0756047,27.1429097 31.1157509,27.0629996 C31.1875016,26.9209826 31.2665737,26.7837221 31.3423512,26.644559 C31.1609001,26.6094965 30.9805473,26.5537769 30.7977539,26.5442638 C30.4787807,26.5276838 30.0558423,26.7929634 29.8054471,26.5396431 C29.555418,26.2861869 29.8325367,25.4948327 31.7408847,25.1503225 C31.6480237,25.0091209 31.453882,24.8622114 31.4459504,24.7022554 C31.4377747,24.5421635 31.679018,24.4576328 31.8115371,24.429773 C32.5972557,24.2647886 33.3841945,24.0886603 34.1784548,24.0039937 C34.4559395,23.9743672 34.815425,24.1127149 35.0321413,24.3146645 C35.6305515,24.8719963 36.1817382,25.4941532 36.7315826,26.1129125 C36.8489705,26.2452806 37.0993657,26.4268449 36.9578168,26.6648084 C36.8160238,26.9027718 35.9875965,26.628115 35.7652671,26.1516445 C35.0932757,24.7121762 33.1676002,24.1662601 32.0241045,25.2394739 C32.4759629,25.2394739 32.8122636,25.2071293 33.1408768,25.2500742 C33.3876112,25.2821469 33.6550898,25.3587954 33.8585054,25.5078793 C34.208595,25.7640535 34.5246395,26.0809757 34.8381216,26.3930054 C35.1838183,26.7364284 35.5079165,27.1068958 35.8477559,27.4577934 C35.9855221,27.6000822 36.1260948,27.7552816 36.2913166,27.845792 C36.645799,28.0395875 36.7949135,28.3025568 36.6157809,28.7685629 C35.5284167,29.0256885 35.2948609,27.7170933 34.5047495,27.2860139 C34.385165,27.5590399 34.272536,27.8149424 34.1614933,28.0682627 C34.4542312,28.3566456 35.133544,28.1912535 34.8715564,28.9736382 C33.9489259,29.1036959 33.0952394,28.7196384 32.2049455,28.5384817 C31.1041585,28.3143802 30.2041026,27.5423241 29.100021,27.3633418 C26.8425596,26.9977669 24.6096253,26.8178334 22.459912,27.9390204 C22.3164107,28.0137662 22.1537514,28.0420337 22,28.0920455" id="Fill-8" fill="#000000"></path>
                <path d="M34.9624297,37.7016954 C35.1141015,39.2827206 34.8064245,40.7799779 34.041631,42.1795475 C33.8823428,42.470995 33.6391427,42.7935137 33.3453853,42.930724 C32.8391561,43.1672377 32.337129,42.7649283 32.4207783,42.2269 C32.4864371,41.803835 32.5854505,41.3740586 32.7513046,40.9778391 C33.5200376,39.1384261 33.6269301,37.2231995 33.5150476,35.2833644 C33.4732886,34.5615191 33.3901646,33.8410409 33.2940401,33.1236699 C33.1742785,32.2255889 32.6293106,31.5006365 32.1674668,30.7418786 C32.067928,30.5785685 31.9897941,30.3742446 32.0010874,30.1942804 C32.0056835,30.1178453 32.304431,29.967958 32.4017373,30.0061134 C32.5838747,30.0778256 32.7314757,30.2502085 32.8659449,30.4025815 C33.0580625,30.6205768 33.2201083,30.8621861 33.4047408,31.0867685 C34.1065019,31.940107 34.3606013,32.9685626 34.5699215,33.9858326 C34.821526,35.2089179 35.0145628,37.6990854 34.9624297,37.7016954" id="Fill-10" fill="#000000"></path>
                <path d="M16.2837128,30.3107871 C16.0904497,30.8517609 15.7573768,31.245731 15.2052125,31.4243699 C14.6660746,31.5990104 14.1280597,31.7778845 13.5947612,31.9713414 C13.2611269,32.0923549 12.7810572,31.8003467 12.7172725,31.6496972 C12.6532632,31.4990478 13.1283918,31.3763879 13.3352429,31.280071 C13.5772429,31.1672898 13.6860587,31.1077826 13.4165459,30.8542306 C13.2553997,30.7026403 13.2183417,30.4062808 13.1014405,30.1150957 C12.9123324,30.1842463 12.6656159,30.3020845 12.4064344,30.3570051 C12.2839184,30.3829954 11.9661179,30.3304268 12.0029513,30.248928 C12.0397847,30.1673115 12.1006497,29.9871437 12.1863323,29.8932965 C12.4577542,29.5963489 12.7179463,29.2725879 13.0378804,29.0443205 C13.3562424,28.8172291 13.7464745,28.7032718 14.0954936,28.5198111 C14.2989757,28.41291 14.4737098,28.2436793 14.680224,28.145716 C14.8561934,28.062453 15.0591141,27.9993002 15.2496821,28 C15.8282362,28.0025931 16.4093732,28.0129422 16.9839969,28.0756246 C17.2880972,28.108671 17.5850105,28.2452081 17.8757474,28.3609295 C17.9409919,28.3870373 18.0093808,28.5276905 17.9989372,28.6040148 C17.9888305,28.6791632 17.8882123,28.7858291 17.8140963,28.799471 C17.2868619,28.8970815 16.9297575,29.1652163 16.717067,29.7105414 C16.6529454,29.8745976 16.315156,29.977265 16.0949416,29.9939647 C15.9906177,30.0018441 15.8013972,29.756289 15.7678204,29.5983482 C15.706394,29.3065751 15.5565898,29.2107287 15.3130176,29.2511841 C14.9857842,29.3055167 15.0565313,29.5521302 15.1126798,29.7801624 C15.1453582,29.9128186 15.173657,30.0467684 15.2116134,30.1775429 C15.3748932,30.7396853 15.4818,30.7627354 15.8679894,30.3564171 C15.9524367,30.2673916 16.097749,30.2418718 16.215324,30.1870688 C16.2382326,30.2282298 16.2608043,30.2696261 16.2837128,30.3107871" id="Fill-12" fill="#000000"></path>
                <path d="M36.5138565,41 C37.0339575,41.0104872 37.4767081,41.1660906 37.8408521,41.5913454 C37.9333796,41.6992322 38.0298846,41.9486958 37.9912616,42.0607774 C37.7871568,42.6506808 37.5781325,43.2488429 37.2954211,43.781329 C37.0944563,44.1596537 36.760771,44.022665 36.6804898,43.5579523 C36.6362147,43.3024585 36.6422855,43.0290055 36.6509731,42.764991 C36.6682435,42.2398459 36.4129554,41.9502688 36.0071531,42.0278739 C35.7954074,42.0681184 35.5762302,42.0805719 35.3632285,42.0599909 C35.2446383,42.0485861 35.09067,42.0669386 35.0158315,41.8809224 C34.9409931,41.6949062 35.1500174,41.5183285 35.2558379,41.4702186 C35.6665597,41.283678 36.0929818,41.152064 36.5138565,41" id="Fill-14" fill="#000000"></path>
                <path d="M17,44.9312167 C16.777486,45.1903836 16.5546162,45.1910934 16.2904698,45.0502135 C15.7275427,44.7497644 15.3255705,44.9830265 15.3383805,45.614561 C15.3459716,45.9748633 15.1847794,46.0830959 14.8927595,45.9370114 C14.5544813,45.7676244 14.1041159,45.7096637 14.0242908,45.2164068 C13.9250135,44.6047445 14.118705,44.3264151 14.8158997,44.0977663 C15.6419057,43.8266524 16.4444267,44.1241443 17,44.9312167" id="Fill-16" fill="#000000"></path>
                <path d="M12,28.8274561 C12.1691722,28.2751621 12.2556778,27.6513965 12.5325981,27.1931198 C12.7624265,26.8129096 13.1900918,26.4989563 13.5773195,26.383927 C14.3068585,26.1673652 15.0683893,26.0869981 15.8205785,26.0060175 C16.2477319,25.9598524 16.6199875,26.1807086 16.8747695,26.6205807 C16.92698,26.7101501 17.0198839,26.8501791 16.99621,26.9009454 C16.9464309,27.0067723 16.8358676,27.124409 16.7420679,27.1346849 C16.6022001,27.1501755 16.4456966,27.1044706 16.312995,27.0376002 C15.1838154,26.4693555 14.1685264,26.9645949 13.1867646,27.5610602 C12.9711405,27.6921936 12.891801,28.1173419 12.7100881,28.3654984 C12.5350294,28.6049127 12.30904,28.7906467 12.1051888,29 C12.0701258,28.9424854 12.034935,28.8848173 12,28.8274561" id="Fill-18" fill="#000000"></path>
                <path d="M23.3523552,4 C23.9231924,4.00403845 24.1722398,4.43636564 23.8715151,4.97899609 C23.2948667,6.0184059 23.0647055,7.18932658 22.8023756,8.35325705 C22.5762614,9.35653099 22.3106109,10.3491419 22.1119956,11.3592876 C21.9688972,12.0870995 21.8980225,12.8344604 21.8132426,13.5758974 C21.7767156,13.8956702 21.5929395,14.0526539 21.2394998,13.9841735 C20.9832923,13.9345311 20.9754058,13.7215072 21.022206,13.4914224 C21.4486995,11.3945941 21.874363,9.29741033 22.3063563,7.20200376 C22.3615618,6.93471679 22.4812083,6.682832 22.5208484,6.41400482 C22.5863271,5.96603851 22.8684769,5.54010915 22.5025849,5.04913522 C22.2779234,4.74737108 22.9027209,3.99681128 23.3523552,4" id="Fill-20" fill="#000000"></path>
                <path d="M28.4031595,13.9984019 C28.0542806,14.0187389 27.9488256,13.8441408 28.0219104,13.522446 C28.3228814,12.1929125 28.6094656,10.8614146 28.9033872,9.53084109 C29.2043582,8.16929987 29.4974165,6.80648757 29.8168026,5.44760402 C29.9026915,5.08119078 30.2885444,4.9209211 30.6929562,5.03751238 C30.9473142,5.11088747 31.0590993,5.2140748 30.9693259,5.47730071 C30.5542679,6.69440279 30.149856,7.91508696 29.79997,9.14513078 C29.5376994,10.0657282 29.3292353,10.9986895 29.1647946,11.9339619 C29.0745896,12.4443521 29.1203395,12.9705729 29.1153041,13.4897449 C29.1115636,13.8591625 28.9415121,14.0051038 28.4031595,13.9984019" id="Fill-22" fill="#000000"></path>
                <path d="M54,21 L56.3340255,21 L56.3340255,28.222902 C56.3340255,28.3600773 56.4039317,28.5657155 56.6840657,28.5657155 L64.3159343,28.5657155 C64.5960683,28.5657155 64.6659745,28.3600773 64.6659745,28.222902 L64.6659745,21 L67,21 L67,37 L64.6659745,37 L64.6659745,29.1830043 C64.6659745,29.06865 64.5960683,28.8400661 64.3159343,28.8400661 L56.6840657,28.8400661 C56.4039317,28.8400661 56.3340255,29.06865 56.3340255,29.1830043 L56.3340255,37 L54,37 L54,21 Z" id="Fill-24" fill="#000000"></path>
                <path d="M72.1764542,29.7312416 C72.1764542,29.871062 72.2468107,30.0806657 72.5277259,30.0806657 L77.8169756,30.0806657 C78.6593381,30.0806657 78.963748,29.8010247 78.963748,29.1020494 L78.963748,28.9392221 C78.963748,26.6326926 77.8169756,25.6074271 75.7106225,25.6074271 C73.4169501,25.6074271 72.1764542,26.9354675 72.1764542,29.2885191 L72.1764542,29.7312416 Z M72.1764542,31.6648317 C72.1764542,34.157958 73.4169501,35.3459237 75.7574843,35.3459237 C77.7702416,35.3459237 78.963748,34.4373448 78.963748,32.8997008 L78.963748,32.5735378 L81,32.5735378 L81,32.8296635 C81,35.3459237 78.987115,37 75.7574843,37 C71.9893902,37 70,35.0662827 70,30.5233882 C70,26.0967988 72.2000766,24 75.6872555,24 C78.7999234,24 81,25.5143829 81,29.1953478 C81,29.5447719 80.9765053,29.9409723 80.9062765,30.3137845 L72.5277259,30.3137845 C72.2468107,30.3137845 72.1764542,30.5466492 72.1764542,30.6630815 L72.1764542,31.6648317 Z" id="Fill-26" fill="#000000"></path>
                <path d="M89.7552674,25 L93,25 L88.1674276,39.5779367 C87.5460771,41.4694264 87.3159427,42 86.0962175,42 L83.6571438,42 L83.6571438,40.1545705 L87.1779624,40.1545705 C87.4770242,40.1545705 87.7301345,40.0854801 87.8683658,39.7163691 L88.6966238,37.1790293 C88.7195996,37.0869089 88.6966238,37.0175668 88.5816194,37.0175668 L86.1193188,37.0175668 L82,25 L84.2552674,25 L88.0983747,36.5333052 C88.1443262,36.7177978 88.2135047,36.7868882 88.3285091,36.7868882 L88.6966238,36.7868882 C88.788778,36.7868882 88.8578309,36.7177978 88.9037825,36.5793654 L91.366083,29.1289346 C91.6191933,28.2984661 91.7572991,27.906325 91.7572991,27.4679977 C91.7572991,27.0759824 91.5962175,26.8453037 91.1128473,26.8453037 L89.7552674,26.8453037 L89.7552674,25 Z" id="Fill-28" fill="#000000"></path>
                <path d="M96.4000182,32.4544422 L96.4000182,31.1941405 C96.4000182,30.2940653 96.0250523,30.1365429 95.3000818,30.1140748 L95.3000818,21 L97.6750932,21 L97.6750932,30.1140748 C96.9749477,30.1365429 96.6001182,30.2940653 96.6001182,31.1941405 L96.6001182,32.4544422 L96.4000182,32.4544422 Z M95,35.6498258 C95,34.8397459 95.6000273,34.2997744 96.5,34.2997744 C97.4001091,34.2997744 98,34.8397459 98,35.6498258 C98,36.4375604 97.4001091,37 96.5,37 C95.6000273,37 95,36.4375604 95,35.6498258 L95,35.6498258 Z" id="Fill-30" fill="#000000"></path>
                <path d="M54,40.1182608 L55.9021936,40.1182608 L55.9021936,41.5053325 C56.2193178,40.4944993 57.0764213,40 58.0743769,40 C59.2251751,40 60,40.5052273 60,41.828057 L60,46 L58.1096589,46 L58.1096589,41.838785 C58.1096589,41.1721324 57.8513839,40.8386798 57.1585621,40.8386798 C56.3718847,40.8386798 55.9021936,41.139822 55.9021936,42.4086329 L55.9021936,46 L54,46 L54,40.1182608 Z" id="Fill-32" fill="#000000"></path>
                <path d="M61.7956117,42.6630012 C61.7956117,42.7263854 61.8296245,42.8210292 61.9659427,42.8210292 L63.761421,42.8210292 C64.136496,42.8210292 64.295356,42.7368876 64.295356,42.3473157 L64.295356,42.178909 C64.295356,41.5262865 63.8750639,41.1998517 63.102372,41.1998517 C62.2501834,41.1998517 61.7956117,41.5790449 61.7956117,42.3684438 L61.7956117,42.6630012 Z M61.7956117,43.5895472 C61.7956117,44.3790696 62.238579,44.7473899 63.090901,44.7473899 C63.8750639,44.7473899 64.295356,44.4524619 64.295356,43.9158584 L64.295356,43.7473281 L65.9886624,43.7473281 L65.9886624,43.8631 C65.9886624,45.1684685 64.9433341,46 63.090901,46 C61.0682702,46 60,44.989436 60,42.9999382 C60,41.0210663 61.0909455,40 63.0795634,40 C64.9433341,40 66,40.852536 66,42.4104528 C66,42.5684809 65.9886624,42.7263854 65.9546495,42.9262989 L61.9659427,42.9262989 C61.8296245,42.9262989 61.7956117,43.0315685 61.7956117,43.0840798 L61.7956117,43.5895472 Z" id="Fill-34" fill="#000000"></path>
                <path d="M69.0452237,45.7424774 L70.5508933,40 L70.6302229,40 L72.3057139,44.6369191 L73.2904917,40.1286353 L75,40.1286353 L73.6641518,46 L71.1056696,46 L70.109464,43.2200407 C70.0868744,43.144825 70.0527241,43.1019885 69.9736601,43.1019885 C69.9057582,43.1019885 69.8604459,43.144825 69.8378562,43.2200407 L69.1018308,46 L67.3358482,46 L66,40.1286353 L67.7659826,40.1286353 L69.0452237,45.7424774 Z" id="Fill-36" fill="#000000"></path>
                <path d="M77.5530544,41.8315074 L77.5530544,42.2315898 C77.5530544,42.6315486 77.7734575,42.8000824 78.3247007,42.8525947 L79.5870204,42.9473641 C80.6491661,43.0421334 81,43.5368616 81,44.2947694 C81,45.4001236 80.1382636,46 78.5451039,46 C76.8817303,46 76,45.3896211 76,44.0735997 L76,43.8525535 L77.5229459,43.8525535 L77.5229459,44.1157331 C77.5229459,44.6105848 77.8636652,44.8736409 78.5451039,44.8736409 C79.1664432,44.8736409 79.4768189,44.6420923 79.4768189,44.1368616 L79.4768189,43.6630148 C79.4768189,43.231425 79.2865241,43.0211285 78.7756216,42.9788715 L77.5631689,42.8842257 C76.4509209,42.7895799 76.0401054,42.4631384 76.0401054,41.6419687 C76.0401054,40.5788715 76.8917272,40 78.484887,40 C80.0480559,40 80.8897984,40.5998764 80.8897984,41.8735173 L80.8897984,42.1051895 L79.4068403,42.1051895 L79.4068403,41.8630148 C79.4068403,41.3789127 79.1061087,41.1262356 78.484887,41.1262356 C77.8736622,41.1262356 77.5530544,41.3684102 77.5530544,41.8315074" id="Fill-38" fill="#000000"></path>
            </g>
        </g>
    </g>
</svg>