<svg height="18" viewBox="0 0 16 18" width="16" xmlns="http://www.w3.org/2000/svg"><g fill="none" fill-rule="evenodd" stroke="#303c42" stroke-linecap="round" stroke-linejoin="round" transform="translate(1 1)"><path d="m7.238 5.971-3.738.567c-.44724082.06970565-.83318493.35134054-1.036.756l-1.855 3.738c-.17047772.34126-.2591523.7175278-.2590002 1.099-.0001856.9307406.52555763 1.7816858 1.3580002 2.198l3.29 1.645c.62162287.3111335 1.30686314.4740577 2.002.4760062.45569312.0007524.90885917-.0676945 1.344-.2030062l4.956-1.547.259-.518c.0592332-.1172393.0903872-.2466484.0910039-.378 0-.4677852-.3792187-.847-.8470039-.847h-2.919c-.24261525-.0007342-.46755002-.1270445-.59446585-.3338175s-.13771262-.4645197-.02853415-.6811825l4.277-8.561c.0741123-.1501975.1124465-.31551351.1120039-.483v-.098c-.0181826-.57220002-.4778039-1.03182132-1.0500039-1.05-.4083046.00077264-.7816048.23070392-.966.595l-2.534 5.005-.28-.567c-.25668312-.51070631-.77941697-.83301371-1.351-.833z"/><path d="m10.668 1.232c-3.61123138-1.8476264-8.03304853-.71967305-10.318 2.632l2.8-.7-.952-1.225"/></g></svg>