<svg height="19" viewBox="0 0 18 19" width="18" xmlns="http://www.w3.org/2000/svg"><g fill="none" fill-rule="evenodd" stroke="#303c42" stroke-linecap="round" stroke-linejoin="round" transform="translate(.333333 1)"><path d="m7.91709642 5.73714091 4.17123918.61714259c.4990766.07587006.9297522.38241132 1.1560738.8228568l2.0856196 4.0609507c.1902363.3714393.2891884.7809823.2890186 1.1961899.0002071 1.0130506-.5864704 1.9392491-1.5153942 2.39238l-3.6713154 1.7904754c-.69773375.3435845-1.46804902.5235966-2.24965707.5257208-.50850855.000819-1.01419715-.0736811-1.49977138-.220959l-5.530407-1.6838088-.28901844-.5638093c-.06609837-.1276074-.1008632-.2684607-.10157935-.4114284-.0020506-.2458217.09660908-.4822738.2740888-.6568158.17747973-.1745419.41907842-.272716.67111195-.2727076h3.25731599c.27073467-.0007992.52173968-.1382797.66336523-.3633387.14162555-.2250589.1536737-.5055994.0318413-.7414228l-4.77270999-9.31047222c-.08270203-.1634802-.12547916-.34341591-.12501328-.52571406v-.10666662c.02031794-.62280247.53320996-1.12307034 1.17172872-1.14285666.45562764.00084097.87219382.2511062 1.07796069.64761878l2.82769397 5.44761673.31245237-.61714259c.28643304-.55587058.86975244-.90668121 1.5075827-.90666629z"/><path d="m3.04761905.86229051c3.99992399-1.80149255 8.89768065-.70170334 11.42857145 2.56628092l-3.1013763-.68252152 1.054468-1.18076223"/></g></svg>