<svg height="10" viewBox="0 0 10 10" width="10" xmlns="http://www.w3.org/2000/svg"><path d="m5.0016274 0c-1.37577633 0-2.50081362 1.12512864-2.50081362 2.50101728s1.12503729 2.49776201 2.50081362 2.49776201c1.37577665 0 2.49674512-1.12187337 2.49674512-2.49776201s-1.12096847-2.50101728-2.49674512-2.50101728zm0 .83340109c.92541005 0 1.66341176.74213101 1.66341176 1.66761619 0 .92548519-.73800171 1.66354691-1.66341176 1.66354691-.92540958 0-1.66748026-.73806172-1.66748026-1.66354691 0-.92548518.74207068-1.66761619 1.66748026-1.66761619zm-.0016274 4.99959315c-1.35710011 0-2.58638685.44309149-3.49202476 1.12557982-.90563783.6824885-1.50797524 1.62030769-1.50797524 2.62472532 0 .23012786.18655753.41670062.41666666.41670062h9.16666658c.23010917 0 .41666676-.18657273.41666676-.41670062 0-1.00441763-.60233762-1.94223682-1.50797554-2.62472532-.90563745-.68248833-2.1349245-1.12557982-3.49202446-1.12557982zm.00000535.83340109c1.17420501 0 2.23670623.39030976 2.98990873.95792298.59860754.45111054.91645698 1.00173573 1.05143241 1.54228044h-8.08268767c.13497559-.54054471.45282504-1.0911699 1.0514323-1.54228044.75320249-.56761322 1.81570372-.95792298 2.98990888-.95792298z" fill="#3a55d8"/></svg>